<svg width="200" height="200" viewBox="0 0 200 200" fill="none" xmlns="http://www.w3.org/2000/svg">
<rect x="1.5" y="1.5" width="197" height="197" rx="2.5" stroke="#6D6060" stroke-width="3"/>
<rect x="60.5" y="112.5" width="15" height="15" rx="3.5" fill="#BE4FD0"/>
<rect x="60.5" y="112.5" width="15" height="15" rx="3.5" stroke="#6D6060"/>
<rect x="60.5" y="112.5" width="15" height="15" rx="3.5" stroke="#6D6060"/>
<rect x="60.5" y="112.5" width="15" height="15" rx="3.5" stroke="#6D6060"/>
<rect x="60.5" y="128.5" width="15" height="15" rx="3.5" fill="#BE4FD0"/>
<rect x="60.5" y="128.5" width="15" height="15" rx="3.5" stroke="#6D6060"/>
<rect x="60.5" y="128.5" width="15" height="15" rx="3.5" stroke="#6D6060"/>
<rect x="60.5" y="128.5" width="15" height="15" rx="3.5" stroke="#6D6060"/>
<rect x="60.5" y="144.5" width="15" height="15" rx="3.5" fill="#BE4FD0"/>
<rect x="60.5" y="144.5" width="15" height="15" rx="3.5" stroke="#6D6060"/>
<rect x="60.5" y="144.5" width="15" height="15" rx="3.5" stroke="#6D6060"/>
<rect x="60.5" y="144.5" width="15" height="15" rx="3.5" stroke="#6D6060"/>
<rect x="60.5" y="160.5" width="15" height="15" rx="3.5" fill="#BE4FD0"/>
<rect x="60.5" y="160.5" width="15" height="15" rx="3.5" stroke="#6D6060"/>
<rect x="60.5" y="160.5" width="15" height="15" rx="3.5" stroke="#6D6060"/>
<rect x="60.5" y="160.5" width="15" height="15" rx="3.5" stroke="#6D6060"/>
<rect x="76.5" y="160.5" width="15" height="15" rx="3.5" fill="#BE4FD0"/>
<rect x="76.5" y="160.5" width="15" height="15" rx="3.5" stroke="#6D6060"/>
<rect x="76.5" y="160.5" width="15" height="15" rx="3.5" stroke="#6D6060"/>
<rect x="76.5" y="160.5" width="15" height="15" rx="3.5" stroke="#6D6060"/>
<rect x="92.5" y="160.5" width="15" height="15" rx="3.5" fill="#BE4FD0"/>
<rect x="92.5" y="160.5" width="15" height="15" rx="3.5" stroke="#6D6060"/>
<rect x="92.5" y="160.5" width="15" height="15" rx="3.5" stroke="#6D6060"/>
<rect x="92.5" y="160.5" width="15" height="15" rx="3.5" stroke="#6D6060"/>
<rect x="108.5" y="160.5" width="15" height="15" rx="3.5" fill="#BE4FD0"/>
<rect x="108.5" y="160.5" width="15" height="15" rx="3.5" stroke="#6D6060"/>
<rect x="108.5" y="160.5" width="15" height="15" rx="3.5" stroke="#6D6060"/>
<rect x="108.5" y="160.5" width="15" height="15" rx="3.5" stroke="#6D6060"/>
<rect x="76.5" y="112.5" width="15" height="15" rx="3.5" fill="#BE4FD0"/>
<rect x="76.5" y="112.5" width="15" height="15" rx="3.5" stroke="#6D6060"/>
<rect x="76.5" y="112.5" width="15" height="15" rx="3.5" stroke="#6D6060"/>
<rect x="76.5" y="112.5" width="15" height="15" rx="3.5" stroke="#6D6060"/>
<rect x="92.5" y="112.5" width="15" height="15" rx="3.5" fill="#BE4FD0"/>
<rect x="92.5" y="112.5" width="15" height="15" rx="3.5" stroke="#6D6060"/>
<rect x="92.5" y="112.5" width="15" height="15" rx="3.5" stroke="#6D6060"/>
<rect x="92.5" y="112.5" width="15" height="15" rx="3.5" stroke="#6D6060"/>
<rect x="108.5" y="112.5" width="15" height="15" rx="3.5" fill="#BE4FD0"/>
<rect x="108.5" y="112.5" width="15" height="15" rx="3.5" stroke="#6D6060"/>
<rect x="108.5" y="112.5" width="15" height="15" rx="3.5" stroke="#6D6060"/>
<rect x="108.5" y="112.5" width="15" height="15" rx="3.5" stroke="#6D6060"/>
<rect x="124.5" y="112.5" width="15" height="15" rx="3.5" fill="#BE4FD0"/>
<rect x="124.5" y="112.5" width="15" height="15" rx="3.5" stroke="#6D6060"/>
<rect x="124.5" y="112.5" width="15" height="15" rx="3.5" stroke="#6D6060"/>
<rect x="124.5" y="112.5" width="15" height="15" rx="3.5" stroke="#6D6060"/>
<rect x="124.5" y="96.5" width="15" height="15" rx="3.5" fill="#BE4FD0"/>
<rect x="124.5" y="96.5" width="15" height="15" rx="3.5" stroke="#6D6060"/>
<rect x="124.5" y="96.5" width="15" height="15" rx="3.5" stroke="#6D6060"/>
<rect x="124.5" y="96.5" width="15" height="15" rx="3.5" stroke="#6D6060"/>
<rect x="124.5" y="80.5" width="15" height="15" rx="3.5" fill="#BE4FD0"/>
<rect x="124.5" y="80.5" width="15" height="15" rx="3.5" stroke="#6D6060"/>
<rect x="124.5" y="80.5" width="15" height="15" rx="3.5" stroke="#6D6060"/>
<rect x="124.5" y="80.5" width="15" height="15" rx="3.5" stroke="#6D6060"/>
<rect x="124.5" y="64.5" width="15" height="15" rx="3.5" fill="#BE4FD0"/>
<rect x="124.5" y="64.5" width="15" height="15" rx="3.5" stroke="#6D6060"/>
<rect x="124.5" y="64.5" width="15" height="15" rx="3.5" stroke="#6D6060"/>
<rect x="124.5" y="64.5" width="15" height="15" rx="3.5" stroke="#6D6060"/>
<rect x="125" y="25" width="14" height="14" rx="7" fill="#FFA50E" stroke="#686363" stroke-width="2"/>
</svg>
