<svg width="600" height="141" viewBox="0 0 600 141" fill="none" xmlns="http://www.w3.org/2000/svg">
<rect x="0.502934" y="0.502934" width="598.994" height="139.816" rx="3.52054" fill="#F5F5F5"/>
<rect x="0.502934" y="0.502934" width="598.994" height="139.816" rx="3.52054" stroke="#008989" stroke-width="1.00587"/>
<path d="M33.2658 29.7386C32.7723 29.7386 32.2895 29.701 31.8174 29.6259C31.3453 29.5508 30.9 29.4382 30.4816 29.288C30.0631 29.127 29.6876 28.9339 29.355 28.7086C29.1941 28.5906 29.0814 28.4564 29.017 28.3062C28.9634 28.156 28.9473 28.0112 28.9688 27.8717C29.0009 27.7215 29.0653 27.5927 29.1619 27.4855C29.2584 27.3782 29.3765 27.3138 29.5159 27.2923C29.6554 27.2601 29.811 27.3031 29.9827 27.4211C30.4655 27.7322 30.9751 27.9629 31.5116 28.1131C32.0481 28.2526 32.6328 28.3223 33.2658 28.3223C34.1778 28.3223 34.8484 28.1614 35.2776 27.8395C35.7175 27.5069 35.9374 27.0777 35.9374 26.552C35.9374 26.1228 35.7818 25.7849 35.4707 25.5381C35.1595 25.2806 34.6392 25.0767 33.9096 24.9265L32.1875 24.5725C31.1683 24.3579 30.4065 24.0038 29.9022 23.5103C29.4087 23.0167 29.1619 22.3515 29.1619 21.5146C29.1619 21.0103 29.2638 20.549 29.4677 20.1305C29.6823 19.7121 29.9773 19.3527 30.3528 19.0523C30.7284 18.7411 31.179 18.5051 31.7047 18.3441C32.2304 18.1832 32.8045 18.1027 33.4268 18.1027C34.092 18.1027 34.7143 18.1886 35.2937 18.3602C35.8838 18.5319 36.4095 18.7948 36.8709 19.1488C37.0103 19.2454 37.1015 19.3688 37.1444 19.519C37.1981 19.6585 37.2088 19.7979 37.1766 19.9374C37.1552 20.0769 37.0962 20.1949 36.9996 20.2915C36.903 20.3881 36.7797 20.4471 36.6294 20.4685C36.4792 20.4792 36.3129 20.4256 36.1305 20.3076C35.7121 20.0286 35.2829 19.8301 34.843 19.7121C34.4139 19.5834 33.9364 19.519 33.4107 19.519C32.8849 19.519 32.4236 19.5995 32.0266 19.7604C31.6403 19.9213 31.3399 20.1466 31.1253 20.4363C30.9215 20.726 30.8196 21.0694 30.8196 21.4663C30.8196 21.917 30.9644 22.2764 31.2541 22.5446C31.5438 22.8129 32.0266 23.0167 32.7025 23.1562L34.4085 23.5103C35.4814 23.7356 36.2807 24.0843 36.8065 24.5564C37.3322 25.0285 37.5951 25.6561 37.5951 26.4393C37.5951 26.9436 37.4931 27.3996 37.2893 27.8073C37.0854 28.2043 36.7957 28.5476 36.4202 28.8373C36.0447 29.127 35.5887 29.3523 35.0522 29.5133C34.5265 29.6635 33.931 29.7386 33.2658 29.7386ZM42.6186 29.7386C41.9749 29.7386 41.433 29.6259 40.9931 29.4006C40.5532 29.1753 40.226 28.8427 40.0114 28.4028C39.7968 27.9629 39.6895 27.4264 39.6895 26.7934V22.9953H38.7239C38.5093 22.9953 38.343 22.9416 38.225 22.8343C38.107 22.7163 38.048 22.5607 38.048 22.3676C38.048 22.1637 38.107 22.0082 38.225 21.9009C38.343 21.7936 38.5093 21.7399 38.7239 21.7399H39.6895V20.0823C39.6895 19.814 39.7593 19.6102 39.8988 19.4707C40.049 19.3312 40.2528 19.2615 40.5103 19.2615C40.7678 19.2615 40.9663 19.3312 41.1058 19.4707C41.2453 19.6102 41.315 19.814 41.315 20.0823V21.7399H43.198C43.4126 21.7399 43.5789 21.7936 43.6969 21.9009C43.8149 22.0082 43.874 22.1637 43.874 22.3676C43.874 22.5607 43.8149 22.7163 43.6969 22.8343C43.5789 22.9416 43.4126 22.9953 43.198 22.9953H41.315V26.6647C41.315 27.2333 41.433 27.6625 41.6691 27.9522C41.9159 28.2419 42.3128 28.3867 42.86 28.3867C43.0532 28.3867 43.2195 28.3706 43.3589 28.3384C43.5092 28.2955 43.6325 28.2687 43.7291 28.258C43.8471 28.258 43.9437 28.3009 44.0188 28.3867C44.0939 28.4618 44.1315 28.612 44.1315 28.8373C44.1315 28.9983 44.0993 29.1485 44.0349 29.288C43.9812 29.4274 43.8793 29.5186 43.7291 29.5616C43.6004 29.6045 43.4233 29.642 43.198 29.6742C42.9834 29.7171 42.7903 29.7386 42.6186 29.7386ZM47.6598 29.7386C47.1126 29.7386 46.619 29.6313 46.1791 29.4167C45.75 29.2021 45.412 28.9124 45.1652 28.5476C44.9185 28.1829 44.7951 27.7698 44.7951 27.3084C44.7951 26.729 44.9399 26.273 45.2296 25.9404C45.53 25.5971 46.0182 25.3557 46.6942 25.2162C47.3808 25.066 48.3035 24.9909 49.4623 24.9909H50.2187V25.9887H49.4784C48.7059 25.9887 48.0943 26.0263 47.6437 26.1014C47.1931 26.1765 46.8712 26.3052 46.6781 26.4876C46.4957 26.6593 46.4045 26.9007 46.4045 27.2119C46.4045 27.6196 46.5439 27.9522 46.8229 28.2097C47.1019 28.4564 47.4881 28.5798 47.9817 28.5798C48.3786 28.5798 48.7273 28.4886 49.0278 28.3062C49.3282 28.1131 49.5642 27.8556 49.7359 27.5337C49.9183 27.2119 50.0095 26.8417 50.0095 26.4233V24.5725C50.0095 23.9609 49.8807 23.521 49.6232 23.2528C49.3657 22.9845 48.9419 22.8504 48.3518 22.8504C48.0085 22.8504 47.6491 22.8933 47.2735 22.9792C46.9087 23.065 46.5279 23.2098 46.1309 23.4137C45.9485 23.4995 45.7929 23.5264 45.6641 23.4942C45.5354 23.462 45.4335 23.3922 45.3584 23.2849C45.2833 23.1669 45.2403 23.0435 45.2296 22.9148C45.2296 22.7753 45.2618 22.6412 45.3262 22.5124C45.4013 22.3837 45.5247 22.2871 45.6963 22.2228C46.1684 21.9974 46.6351 21.8365 47.0965 21.7399C47.5579 21.6434 47.9924 21.5951 48.4001 21.5951C49.119 21.5951 49.7091 21.7077 50.1704 21.9331C50.6425 22.1584 50.9912 22.5017 51.2165 22.9631C51.4418 23.4244 51.5545 24.0199 51.5545 24.7495V28.8856C51.5545 29.1431 51.4901 29.347 51.3614 29.4972C51.2326 29.6367 51.0449 29.7064 50.7981 29.7064C50.562 29.7064 50.3743 29.6367 50.2348 29.4972C50.0953 29.347 50.0256 29.1431 50.0256 28.8856V27.8395H50.1704C50.0846 28.2365 49.9237 28.5798 49.6876 28.8695C49.4623 29.1485 49.178 29.3631 48.8346 29.5133C48.4913 29.6635 48.0997 29.7386 47.6598 29.7386ZM54.6141 29.7064C54.3459 29.7064 54.142 29.6367 54.0025 29.4972C53.8631 29.347 53.7933 29.1431 53.7933 28.8856V22.4481C53.7933 22.1798 53.8631 21.976 54.0025 21.8365C54.142 21.697 54.3351 21.6273 54.5819 21.6273C54.8394 21.6273 55.0325 21.697 55.1613 21.8365C55.3008 21.976 55.3705 22.1798 55.3705 22.4481V23.6229H55.2096C55.3812 22.9792 55.6978 22.491 56.1591 22.1584C56.6205 21.8258 57.2106 21.6326 57.9294 21.579C58.1226 21.5683 58.2728 21.6166 58.3801 21.7238C58.4981 21.8311 58.5625 21.9974 58.5732 22.2228C58.5947 22.4481 58.5464 22.6305 58.4284 22.7699C58.3103 22.8987 58.1279 22.9738 57.8812 22.9953L57.5754 23.0274C56.878 23.0918 56.3469 23.3118 55.9821 23.6873C55.6173 24.0628 55.4349 24.5778 55.4349 25.2323V28.8856C55.4349 29.1431 55.3651 29.347 55.2257 29.4972C55.0969 29.6367 54.8931 29.7064 54.6141 29.7064ZM63.5847 29.7386C62.9409 29.7386 62.3991 29.6259 61.9592 29.4006C61.5193 29.1753 61.1921 28.8427 60.9775 28.4028C60.7629 27.9629 60.6556 27.4264 60.6556 26.7934V22.9953H59.69C59.4754 22.9953 59.3091 22.9416 59.191 22.8343C59.073 22.7163 59.014 22.5607 59.014 22.3676C59.014 22.1637 59.073 22.0082 59.191 21.9009C59.3091 21.7936 59.4754 21.7399 59.69 21.7399H60.6556V20.0823C60.6556 19.814 60.7253 19.6102 60.8648 19.4707C61.015 19.3312 61.2189 19.2615 61.4764 19.2615C61.7339 19.2615 61.9324 19.3312 62.0719 19.4707C62.2113 19.6102 62.2811 19.814 62.2811 20.0823V21.7399H64.1641C64.3786 21.7399 64.5449 21.7936 64.663 21.9009C64.781 22.0082 64.84 22.1637 64.84 22.3676C64.84 22.5607 64.781 22.7163 64.663 22.8343C64.5449 22.9416 64.3786 22.9953 64.1641 22.9953H62.2811V26.6647C62.2811 27.2333 62.3991 27.6625 62.6351 27.9522C62.8819 28.2419 63.2789 28.3867 63.8261 28.3867C64.0192 28.3867 64.1855 28.3706 64.325 28.3384C64.4752 28.2955 64.5986 28.2687 64.6952 28.258C64.8132 28.258 64.9097 28.3009 64.9848 28.3867C65.06 28.4618 65.0975 28.612 65.0975 28.8373C65.0975 28.9983 65.0653 29.1485 65.0009 29.288C64.9473 29.4274 64.8454 29.5186 64.6952 29.5616C64.5664 29.6045 64.3894 29.642 64.1641 29.6742C63.9495 29.7171 63.7563 29.7386 63.5847 29.7386ZM71.437 29.5938C71.1473 29.5938 70.922 29.5186 70.761 29.3684C70.6108 29.2075 70.5357 28.9822 70.5357 28.6925V19.1488C70.5357 18.8591 70.6108 18.6392 70.761 18.489C70.922 18.328 71.1473 18.2476 71.437 18.2476H75.2673C76.0506 18.2476 76.7158 18.3656 77.263 18.6016C77.8209 18.8377 78.2447 19.1756 78.5344 19.6155C78.8348 20.0554 78.985 20.5865 78.985 21.2088C78.985 21.8955 78.7812 22.4749 78.3734 22.947C77.9657 23.4191 77.4132 23.7356 76.7158 23.8965V23.6551C77.5097 23.7624 78.132 24.0628 78.5827 24.5564C79.0333 25.0392 79.2586 25.6722 79.2586 26.4554C79.2586 27.464 78.926 28.2419 78.2608 28.7891C77.5956 29.3255 76.6621 29.5938 75.4605 29.5938H71.437ZM72.1451 28.3062H75.2673C76.072 28.3062 76.6675 28.1507 77.0537 27.8395C77.44 27.5176 77.6331 27.0348 77.6331 26.3911C77.6331 25.7473 77.44 25.2699 77.0537 24.9587C76.6675 24.6476 76.072 24.492 75.2673 24.492H72.1451V28.3062ZM72.1451 23.2045H75.0098C75.7823 23.2045 76.3671 23.0489 76.7641 22.7378C77.161 22.4266 77.3595 21.9706 77.3595 21.3698C77.3595 20.7689 77.161 20.3129 76.7641 20.0018C76.3671 19.6906 75.7823 19.5351 75.0098 19.5351H72.1451V23.2045ZM84.1293 29.7386C83.4962 29.7386 82.9651 29.6206 82.536 29.3845C82.1175 29.1485 81.801 28.7998 81.5864 28.3384C81.3826 27.8663 81.2807 27.2762 81.2807 26.5681V22.4481C81.2807 22.1691 81.3504 21.9653 81.4899 21.8365C81.6294 21.697 81.8278 21.6273 82.0853 21.6273C82.3429 21.6273 82.5413 21.697 82.6808 21.8365C82.831 21.9653 82.9061 22.1691 82.9061 22.4481V26.5842C82.9061 27.2172 83.0349 27.6839 83.2924 27.9844C83.5499 28.2848 83.9576 28.435 84.5155 28.435C85.1271 28.435 85.6206 28.2311 85.9962 27.8234C86.3824 27.405 86.5755 26.8578 86.5755 26.1818V22.4481C86.5755 22.1691 86.6453 21.9653 86.7848 21.8365C86.9242 21.697 87.1281 21.6273 87.3963 21.6273C87.6538 21.6273 87.8523 21.697 87.9918 21.8365C88.1313 21.9653 88.201 22.1691 88.201 22.4481V28.8856C88.201 29.4328 87.9382 29.7064 87.4124 29.7064C87.1657 29.7064 86.9725 29.6367 86.833 29.4972C86.6936 29.347 86.6238 29.1431 86.6238 28.8856V27.5176L86.833 27.8717C86.6185 28.4725 86.2751 28.9339 85.803 29.2558C85.3309 29.5777 84.773 29.7386 84.1293 29.7386ZM93.8393 29.7386C93.1955 29.7386 92.6537 29.6259 92.2138 29.4006C91.7739 29.1753 91.4467 28.8427 91.2321 28.4028C91.0175 27.9629 90.9102 27.4264 90.9102 26.7934V22.9953H89.9446C89.73 22.9953 89.5637 22.9416 89.4457 22.8343C89.3276 22.7163 89.2686 22.5607 89.2686 22.3676C89.2686 22.1637 89.3276 22.0082 89.4457 21.9009C89.5637 21.7936 89.73 21.7399 89.9446 21.7399H90.9102V20.0823C90.9102 19.814 90.9799 19.6102 91.1194 19.4707C91.2696 19.3312 91.4735 19.2615 91.731 19.2615C91.9885 19.2615 92.187 19.3312 92.3265 19.4707C92.4659 19.6102 92.5357 19.814 92.5357 20.0823V21.7399H94.4187C94.6333 21.7399 94.7996 21.7936 94.9176 21.9009C95.0356 22.0082 95.0946 22.1637 95.0946 22.3676C95.0946 22.5607 95.0356 22.7163 94.9176 22.8343C94.7996 22.9416 94.6333 22.9953 94.4187 22.9953H92.5357V26.6647C92.5357 27.2333 92.6537 27.6625 92.8897 27.9522C93.1365 28.2419 93.5335 28.3867 94.0807 28.3867C94.2738 28.3867 94.4401 28.3706 94.5796 28.3384C94.7298 28.2955 94.8532 28.2687 94.9498 28.258C95.0678 28.258 95.1644 28.3009 95.2395 28.3867C95.3146 28.4618 95.3521 28.612 95.3521 28.8373C95.3521 28.9983 95.3199 29.1485 95.2555 29.288C95.2019 29.4274 95.1 29.5186 94.9498 29.5616C94.821 29.6045 94.644 29.642 94.4187 29.6742C94.2041 29.7171 94.011 29.7386 93.8393 29.7386ZM99.403 29.7386C98.7592 29.7386 98.2174 29.6259 97.7775 29.4006C97.3376 29.1753 97.0104 28.8427 96.7958 28.4028C96.5812 27.9629 96.4739 27.4264 96.4739 26.7934V22.9953H95.5083C95.2937 22.9953 95.1274 22.9416 95.0094 22.8343C94.8913 22.7163 94.8323 22.5607 94.8323 22.3676C94.8323 22.1637 94.8913 22.0082 95.0094 21.9009C95.1274 21.7936 95.2937 21.7399 95.5083 21.7399H96.4739V20.0823C96.4739 19.814 96.5436 19.6102 96.6831 19.4707C96.8333 19.3312 97.0372 19.2615 97.2947 19.2615C97.5522 19.2615 97.7507 19.3312 97.8902 19.4707C98.0296 19.6102 98.0994 19.814 98.0994 20.0823V21.7399H99.9824C100.197 21.7399 100.363 21.7936 100.481 21.9009C100.599 22.0082 100.658 22.1637 100.658 22.3676C100.658 22.5607 100.599 22.7163 100.481 22.8343C100.363 22.9416 100.197 22.9953 99.9824 22.9953H98.0994V26.6647C98.0994 27.2333 98.2174 27.6625 98.4534 27.9522C98.7002 28.2419 99.0972 28.3867 99.6444 28.3867C99.8375 28.3867 100.004 28.3706 100.143 28.3384C100.294 28.2955 100.417 28.2687 100.513 28.258C100.631 28.258 100.728 28.3009 100.803 28.3867C100.878 28.4618 100.916 28.612 100.916 28.8373C100.916 28.9983 100.884 29.1485 100.819 29.288C100.766 29.4274 100.664 29.5186 100.513 29.5616C100.385 29.6045 100.208 29.642 99.9824 29.6742C99.7678 29.7171 99.5747 29.7386 99.403 29.7386ZM105.267 29.7386C104.473 29.7386 103.786 29.5723 103.207 29.2397C102.638 28.9071 102.193 28.435 101.871 27.8234C101.549 27.2119 101.388 26.493 101.388 25.6668C101.388 25.0338 101.479 24.4705 101.662 23.977C101.844 23.4834 102.102 23.0596 102.434 22.7056C102.778 22.3408 103.185 22.0672 103.657 21.8848C104.14 21.6917 104.677 21.5951 105.267 21.5951C106.05 21.5951 106.726 21.7614 107.295 22.094C107.874 22.4266 108.325 22.8987 108.647 23.5103C108.968 24.1111 109.129 24.83 109.129 25.6668C109.129 26.2891 109.038 26.8524 108.856 27.3567C108.673 27.861 108.41 28.2901 108.067 28.6442C107.735 28.9983 107.327 29.2719 106.844 29.465C106.372 29.6474 105.846 29.7386 105.267 29.7386ZM105.267 28.4833C105.707 28.4833 106.093 28.376 106.426 28.1614C106.758 27.9468 107.016 27.6303 107.198 27.2119C107.391 26.7934 107.488 26.2784 107.488 25.6668C107.488 24.7441 107.284 24.0467 106.876 23.5746C106.469 23.1026 105.932 22.8665 105.267 22.8665C104.816 22.8665 104.425 22.9738 104.092 23.1884C103.759 23.3922 103.496 23.7034 103.303 24.1218C103.121 24.5403 103.03 25.0553 103.03 25.6668C103.03 26.5788 103.234 27.2762 103.641 27.759C104.049 28.2419 104.591 28.4833 105.267 28.4833ZM111.76 29.7064C111.502 29.7064 111.304 29.6367 111.164 29.4972C111.025 29.347 110.955 29.1431 110.955 28.8856V22.4481C110.955 22.1798 111.025 21.976 111.164 21.8365C111.304 21.697 111.497 21.6273 111.743 21.6273C112.001 21.6273 112.194 21.697 112.323 21.8365C112.462 21.976 112.532 22.1798 112.532 22.4481V23.7034L112.355 23.4137C112.591 22.8129 112.961 22.3622 113.466 22.0618C113.97 21.7507 114.549 21.5951 115.204 21.5951C115.826 21.5951 116.341 21.7131 116.749 21.9492C117.167 22.1745 117.478 22.5232 117.682 22.9953C117.886 23.4566 117.988 24.0414 117.988 24.7495V28.8856C117.988 29.1431 117.918 29.347 117.779 29.4972C117.639 29.6367 117.441 29.7064 117.183 29.7064C116.915 29.7064 116.711 29.6367 116.572 29.4972C116.432 29.347 116.362 29.1431 116.362 28.8856V24.8461C116.362 24.1701 116.228 23.6766 115.96 23.3654C115.703 23.0543 115.295 22.8987 114.737 22.8987C114.082 22.8987 113.557 23.1026 113.16 23.5103C112.773 23.918 112.58 24.4652 112.58 25.1518V28.8856C112.58 29.4328 112.307 29.7064 111.76 29.7064Z" fill="black"/>
<path d="M29.5119 68.4063C29.3443 68.4063 29.2135 68.3594 29.1196 68.2655C29.0325 68.1716 28.9889 68.0409 28.9889 67.8732V61.7777C28.9889 61.6033 29.0358 61.4726 29.1297 61.3854C29.2236 61.2915 29.3543 61.2446 29.522 61.2446H31.926C32.6905 61.2446 33.2806 61.4357 33.6963 61.8179C34.1121 62.1934 34.32 62.7232 34.32 63.4072C34.32 64.0979 34.1121 64.6343 33.6963 65.0166C33.2806 65.3921 32.6905 65.5799 31.926 65.5799H30.035V67.8732C30.035 68.0409 29.9914 68.1716 29.9042 68.2655C29.817 68.3594 29.6863 68.4063 29.5119 68.4063ZM30.035 64.745H31.7751C32.2781 64.745 32.6569 64.6343 32.9118 64.4131C33.1733 64.1851 33.304 63.8498 33.304 63.4072C33.304 62.9713 33.1733 62.6427 32.9118 62.4214C32.6569 62.1934 32.2781 62.0794 31.7751 62.0794H30.035V64.745ZM35.7467 68.4063C35.579 68.4063 35.4516 68.3628 35.3644 68.2756C35.2772 68.1817 35.2337 68.0543 35.2337 67.8934V63.8699C35.2337 63.7022 35.2772 63.5748 35.3644 63.4877C35.4516 63.4005 35.5723 63.3569 35.7265 63.3569C35.8875 63.3569 36.0082 63.4005 36.0886 63.4877C36.1758 63.5748 36.2194 63.7022 36.2194 63.8699V64.6042H36.1188C36.2261 64.2018 36.4239 63.8967 36.7123 63.6888C37.0006 63.4809 37.3695 63.3602 37.8187 63.3267C37.9394 63.32 38.0333 63.3502 38.1004 63.4172C38.1741 63.4843 38.2144 63.5882 38.2211 63.7291C38.2345 63.8699 38.2043 63.9839 38.1306 64.0711C38.0568 64.1515 37.9428 64.1985 37.7886 64.2119L37.5975 64.232C37.1616 64.2722 36.8296 64.4097 36.6016 64.6444C36.3736 64.8791 36.2596 65.201 36.2596 65.61V67.8934C36.2596 68.0543 36.2161 68.1817 36.1289 68.2756C36.0484 68.3628 35.921 68.4063 35.7467 68.4063ZM39.489 68.3963C39.328 68.3963 39.204 68.3493 39.1168 68.2555C39.0296 68.1549 38.986 68.0174 38.986 67.8431V63.9202C38.986 63.7458 39.0296 63.6117 39.1168 63.5178C39.204 63.424 39.328 63.377 39.489 63.377C39.6499 63.377 39.7739 63.424 39.8611 63.5178C39.955 63.6117 40.0019 63.7458 40.0019 63.9202V67.8431C40.0019 68.0174 39.9584 68.1549 39.8712 68.2555C39.784 68.3493 39.6566 68.3963 39.489 68.3963ZM39.489 62.3309C39.2878 62.3309 39.1302 62.2806 39.0162 62.18C38.9089 62.0794 38.8553 61.9386 38.8553 61.7576C38.8553 61.5698 38.9089 61.429 39.0162 61.3351C39.1302 61.2345 39.2878 61.1842 39.489 61.1842C39.6901 61.1842 39.8444 61.2345 39.9517 61.3351C40.0656 61.429 40.1226 61.5698 40.1226 61.7576C40.1226 61.9386 40.0656 62.0794 39.9517 62.18C39.8444 62.2806 39.6901 62.3309 39.489 62.3309ZM41.955 68.4063C41.794 68.4063 41.67 68.3628 41.5828 68.2756C41.4956 68.1817 41.452 68.0543 41.452 67.8934V63.8699C41.452 63.7022 41.4956 63.5748 41.5828 63.4877C41.67 63.4005 41.7907 63.3569 41.9449 63.3569C42.1059 63.3569 42.2266 63.4005 42.307 63.4877C42.3942 63.5748 42.4378 63.7022 42.4378 63.8699V64.6947L42.3272 64.4734C42.4613 64.118 42.6691 63.8397 42.9508 63.6385C43.2324 63.4374 43.5711 63.3368 43.9667 63.3368C44.3758 63.3368 44.7077 63.434 44.9625 63.6285C45.2173 63.8229 45.3917 64.1214 45.4856 64.5237H45.3448C45.4722 64.1549 45.6901 63.8665 45.9986 63.6587C46.307 63.4441 46.6658 63.3368 47.0748 63.3368C47.4504 63.3368 47.7588 63.4105 48.0002 63.5581C48.2417 63.6989 48.4227 63.9168 48.5434 64.2119C48.6641 64.5002 48.7245 64.8657 48.7245 65.3083V67.8934C48.7245 68.0543 48.6775 68.1817 48.5836 68.2756C48.4965 68.3628 48.3724 68.4063 48.2115 68.4063C48.0505 68.4063 47.9265 68.3628 47.8393 68.2756C47.7521 68.1817 47.7085 68.0543 47.7085 67.8934V65.3586C47.7085 64.9428 47.6348 64.6377 47.4873 64.4432C47.3464 64.2488 47.1117 64.1515 46.7831 64.1515C46.4143 64.1515 46.1226 64.2789 45.908 64.5338C45.6935 64.7886 45.5862 65.1406 45.5862 65.5899V67.8934C45.5862 68.0543 45.5426 68.1817 45.4554 68.2756C45.3682 68.3628 45.2442 68.4063 45.0832 68.4063C44.9223 68.4063 44.7949 68.3628 44.701 68.2756C44.6138 68.1817 44.5702 68.0543 44.5702 67.8934V65.3586C44.5702 64.9428 44.4998 64.6377 44.359 64.4432C44.2182 64.2488 43.9835 64.1515 43.6549 64.1515C43.2861 64.1515 42.9944 64.2789 42.7798 64.5338C42.5719 64.7886 42.468 65.1406 42.468 65.5899V67.8934C42.468 68.2354 42.297 68.4063 41.955 68.4063ZM51.714 68.4265C51.372 68.4265 51.0636 68.3594 50.7886 68.2253C50.5204 68.0912 50.3092 67.9101 50.1549 67.6821C50.0007 67.4541 49.9236 67.196 49.9236 66.9076C49.9236 66.5455 50.0141 66.2605 50.1952 66.0526C50.3829 65.838 50.688 65.6872 51.1105 65.6C51.5397 65.5061 52.1164 65.4592 52.8406 65.4592H53.3133V66.0828H52.8506C52.3678 66.0828 51.9856 66.1063 51.704 66.1532C51.4223 66.2001 51.2211 66.2806 51.1004 66.3946C50.9864 66.5019 50.9294 66.6528 50.9294 66.8473C50.9294 67.1021 51.0166 67.31 51.191 67.4709C51.3653 67.6251 51.6067 67.7022 51.9152 67.7022C52.1633 67.7022 52.3812 67.6452 52.569 67.5312C52.7568 67.4105 52.9043 67.2496 53.0116 67.0484C53.1256 66.8473 53.1826 66.6159 53.1826 66.3544V65.1976C53.1826 64.8154 53.1021 64.5405 52.9412 64.3728C52.7802 64.2052 52.5154 64.1214 52.1465 64.1214C51.932 64.1214 51.7073 64.1482 51.4726 64.2018C51.2446 64.2555 51.0066 64.346 50.7584 64.4734C50.6444 64.5271 50.5472 64.5438 50.4667 64.5237C50.3863 64.5036 50.3226 64.46 50.2756 64.3929C50.2287 64.3192 50.2019 64.2421 50.1952 64.1616C50.1952 64.0744 50.2153 63.9906 50.2555 63.9101C50.3024 63.8297 50.3796 63.7693 50.4869 63.7291C50.7819 63.5882 51.0736 63.4877 51.362 63.4273C51.6503 63.367 51.9219 63.3368 52.1767 63.3368C52.626 63.3368 52.9948 63.4072 53.2832 63.548C53.5782 63.6888 53.7962 63.9034 53.937 64.1918C54.0778 64.4801 54.1482 64.8523 54.1482 65.3083V67.8934C54.1482 68.0543 54.108 68.1817 54.0275 68.2756C53.947 68.3628 53.8297 68.4063 53.6755 68.4063C53.5279 68.4063 53.4106 68.3628 53.3234 68.2756C53.2362 68.1817 53.1926 68.0543 53.1926 67.8934V67.2395H53.2832C53.2295 67.4877 53.1289 67.7022 52.9814 67.8833C52.8406 68.0576 52.6629 68.1918 52.4483 68.2856C52.2337 68.3795 51.989 68.4265 51.714 68.4265ZM56.0605 68.4063C55.8928 68.4063 55.7654 68.3628 55.6782 68.2756C55.5911 68.1817 55.5475 68.0543 55.5475 67.8934V63.8699C55.5475 63.7022 55.5911 63.5748 55.6782 63.4877C55.7654 63.4005 55.8861 63.3569 56.0403 63.3569C56.2013 63.3569 56.322 63.4005 56.4025 63.4877C56.4896 63.5748 56.5332 63.7022 56.5332 63.8699V64.6042H56.4326C56.5399 64.2018 56.7377 63.8967 57.0261 63.6888C57.3144 63.4809 57.6833 63.3602 58.1326 63.3267C58.2533 63.32 58.3471 63.3502 58.4142 63.4172C58.488 63.4843 58.5282 63.5882 58.5349 63.7291C58.5483 63.8699 58.5181 63.9839 58.4444 64.0711C58.3706 64.1515 58.2566 64.1985 58.1024 64.2119L57.9113 64.232C57.4754 64.2722 57.1434 64.4097 56.9155 64.6444C56.6875 64.8791 56.5735 65.201 56.5735 65.61V67.8934C56.5735 68.0543 56.5299 68.1817 56.4427 68.2756C56.3622 68.3628 56.2348 68.4063 56.0605 68.4063ZM60.7611 70.2169C60.6404 70.2169 60.5398 70.1834 60.4593 70.1163C60.3856 70.056 60.342 69.9721 60.3286 69.8649C60.3219 69.7643 60.342 69.6536 60.3889 69.5329L61.0729 67.9939V68.4265L59.1919 64.0509C59.145 63.9302 59.1282 63.8162 59.1416 63.7089C59.1551 63.6017 59.2053 63.5178 59.2925 63.4575C59.3797 63.3904 59.497 63.3569 59.6446 63.3569C59.772 63.3569 59.8726 63.3871 59.9463 63.4474C60.0201 63.5078 60.0872 63.6117 60.1475 63.7592L61.6664 67.5111H61.3847L62.9237 63.7592C62.9841 63.605 63.0545 63.5011 63.1349 63.4474C63.2154 63.3871 63.326 63.3569 63.4669 63.3569C63.5876 63.3569 63.6815 63.3904 63.7485 63.4575C63.8223 63.5178 63.8659 63.6017 63.8793 63.7089C63.8994 63.8095 63.8826 63.9202 63.829 64.0409L61.3143 69.8246C61.2473 69.9789 61.1701 70.0828 61.083 70.1364C61.0025 70.1901 60.8952 70.2169 60.7611 70.2169Z" fill="black"/>
<path d="M33.9377 81.5484C33.9377 81.9776 33.868 82.3705 33.7285 82.7273C33.589 83.0814 33.3919 83.3858 33.1371 83.6406C32.8849 83.8954 32.5805 84.0939 32.2237 84.2361C31.8697 84.3756 31.4754 84.4453 31.0408 84.4453H28.8521V78.6515H31.0408C31.4754 78.6515 31.8697 78.7226 32.2237 78.8648C32.5805 79.0042 32.8849 79.2014 33.1371 79.4562C33.3919 79.711 33.589 80.0168 33.7285 80.3736C33.868 80.7276 33.9377 81.1192 33.9377 81.5484ZM32.9761 81.5484C32.9761 81.2158 32.9305 80.9167 32.8393 80.6512C32.7508 80.3856 32.6221 80.1617 32.4531 79.9793C32.2868 79.7969 32.0843 79.6574 31.8455 79.5608C31.6068 79.4616 31.3386 79.412 31.0408 79.412H29.7976V83.6849H31.0408C31.3386 83.6849 31.6068 83.6366 31.8455 83.54C32.0843 83.4435 32.2868 83.304 32.4531 83.1216C32.6221 82.9365 32.7508 82.7125 32.8393 82.4497C32.9305 82.1841 32.9761 81.8837 32.9761 81.5484ZM37.4495 81.9306C37.4495 81.7858 37.428 81.6517 37.3851 81.5283C37.3449 81.4022 37.2845 81.2936 37.204 81.2024C37.1236 81.1085 37.023 81.0361 36.9023 80.9851C36.7843 80.9315 36.6475 80.9047 36.4919 80.9047C36.1781 80.9047 35.9313 80.9945 35.7516 81.1742C35.5719 81.3539 35.4579 81.6061 35.4096 81.9306H37.4495ZM35.3854 82.4617C35.3962 82.6951 35.4324 82.8976 35.4941 83.0693C35.5558 83.2383 35.6376 83.3791 35.7395 83.4918C35.8441 83.6044 35.9675 83.6889 36.1097 83.7452C36.2545 83.7989 36.4154 83.8257 36.5925 83.8257C36.7615 83.8257 36.9076 83.8069 37.031 83.7694C37.1544 83.7291 37.2617 83.6862 37.3529 83.6406C37.4441 83.5923 37.5219 83.5494 37.5863 83.5119C37.6507 83.4716 37.7097 83.4515 37.7633 83.4515C37.833 83.4515 37.8867 83.4783 37.9242 83.532L38.1697 83.8498C38.0678 83.9705 37.9524 84.0725 37.8237 84.1556C37.6949 84.2388 37.5581 84.3072 37.4133 84.3608C37.2684 84.4118 37.1196 84.448 36.9667 84.4695C36.8138 84.4936 36.6649 84.5057 36.5201 84.5057C36.2357 84.5057 35.9715 84.4587 35.7274 84.3648C35.486 84.2683 35.2755 84.1275 35.0957 83.9424C34.9187 83.7573 34.7792 83.528 34.6773 83.2544C34.5781 82.9808 34.5284 82.6656 34.5284 82.3088C34.5284 82.0245 34.5727 81.759 34.6612 81.5122C34.7524 81.2654 34.8812 81.0508 35.0475 80.8684C35.2165 80.6861 35.4203 80.5425 35.659 80.4379C35.9004 80.3306 36.1727 80.277 36.4758 80.277C36.7279 80.277 36.9613 80.3186 37.1759 80.4017C37.3905 80.4822 37.5755 80.6016 37.7311 80.7598C37.8867 80.9181 38.0074 81.1125 38.0932 81.3432C38.1817 81.5712 38.226 81.8314 38.226 82.1238C38.226 82.2579 38.2113 82.3477 38.1817 82.3933C38.1522 82.4389 38.0986 82.4617 38.0208 82.4617H35.3854ZM39.2553 84.4453V81.0294L38.853 80.9731C38.7859 80.9596 38.7309 80.9355 38.688 80.9006C38.6478 80.8658 38.6277 80.8161 38.6277 80.7518V80.3977H39.2553V80.0517C39.2553 79.8183 39.2889 79.6091 39.3559 79.424C39.4257 79.2389 39.5236 79.082 39.6496 78.9533C39.7784 78.8245 39.9339 78.7266 40.1163 78.6596C40.2987 78.5898 40.5039 78.555 40.7319 78.555C40.8258 78.555 40.9143 78.5617 40.9975 78.5751C41.0833 78.5885 41.1665 78.6086 41.2469 78.6354L41.2308 79.07C41.2255 79.1424 41.1893 79.1853 41.1222 79.1987C41.0578 79.2121 40.976 79.2188 40.8768 79.2188C40.7561 79.2188 40.6474 79.2336 40.5509 79.2631C40.4543 79.2899 40.3712 79.3368 40.3014 79.4039C40.2344 79.471 40.1821 79.5595 40.1445 79.6695C40.1096 79.7794 40.0922 79.9162 40.0922 80.0798V80.3977H41.2148V81.0213H40.1204V84.4453H39.2553ZM44.0074 82.6508C43.6989 82.6616 43.4387 82.6871 43.2268 82.7273C43.0149 82.7648 42.8432 82.8145 42.7118 82.8762C42.5804 82.9352 42.4851 83.0063 42.4261 83.0894C42.3698 83.1726 42.3416 83.2638 42.3416 83.363C42.3416 83.4596 42.3564 83.5427 42.3859 83.6125C42.4181 83.6795 42.461 83.7358 42.5146 83.7814C42.571 83.8244 42.6354 83.8565 42.7078 83.878C42.7829 83.8968 42.8647 83.9062 42.9532 83.9062C43.1785 83.9062 43.3716 83.8646 43.5326 83.7814C43.6962 83.6956 43.8545 83.5722 44.0074 83.4113V82.6508ZM41.714 80.9127C42.178 80.4809 42.7306 80.2649 43.3716 80.2649C43.6077 80.2649 43.8169 80.3038 43.9993 80.3816C44.1844 80.4567 44.3386 80.564 44.462 80.7035C44.5881 80.843 44.6833 81.0093 44.7477 81.2024C44.8147 81.3928 44.8483 81.6047 44.8483 81.8381V84.4453H44.462C44.3789 84.4453 44.3158 84.4332 44.2729 84.4091C44.23 84.3823 44.1938 84.33 44.1643 84.2522L44.0798 83.9182C43.9752 84.0121 43.8719 84.0966 43.77 84.1717C43.668 84.2441 43.5621 84.3058 43.4521 84.3568C43.3448 84.4078 43.2281 84.4453 43.1021 84.4695C42.9787 84.4963 42.8419 84.5097 42.6917 84.5097C42.5254 84.5097 42.3698 84.4869 42.225 84.4413C42.0828 84.3957 41.9594 84.3273 41.8548 84.2361C41.7502 84.1422 41.667 84.0269 41.6053 83.8901C41.5463 83.7533 41.5168 83.5923 41.5168 83.4073C41.5168 83.249 41.5584 83.0948 41.6416 82.9446C41.7274 82.7943 41.8669 82.6602 42.06 82.5422C42.2558 82.4215 42.512 82.3223 42.8285 82.2445C43.1477 82.1667 43.5406 82.1224 44.0074 82.1117V81.8381C44.0074 81.543 43.9443 81.3231 43.8183 81.1783C43.6922 81.0334 43.5071 80.961 43.263 80.961C43.0967 80.961 42.9572 80.9824 42.8446 81.0254C42.7319 81.0656 42.634 81.1099 42.5509 81.1581C42.4677 81.2064 42.3939 81.252 42.3296 81.2949C42.2652 81.3352 42.1968 81.3553 42.1244 81.3553C42.0654 81.3553 42.0144 81.3405 41.9715 81.311C41.9312 81.2788 41.8977 81.2399 41.8709 81.1943L41.714 80.9127ZM49.3218 80.3414V84.4453H48.7987C48.6834 84.4453 48.6096 84.3903 48.5775 84.2804L48.5131 83.8981C48.4272 83.9893 48.336 84.0725 48.2395 84.1476C48.1456 84.2227 48.045 84.2871 47.9377 84.3407C47.8304 84.3943 47.7151 84.4359 47.5917 84.4654C47.471 84.4949 47.3409 84.5097 47.2014 84.5097C46.9761 84.5097 46.7776 84.4721 46.606 84.397C46.4343 84.3219 46.2894 84.216 46.1714 84.0792C46.0561 83.9424 45.9689 83.7788 45.9099 83.5883C45.8509 83.3952 45.8214 83.1833 45.8214 82.9526V80.3414H46.6864V82.9526C46.6864 83.2289 46.7495 83.4435 46.8755 83.5964C47.0043 83.7493 47.1987 83.8257 47.4589 83.8257C47.6494 83.8257 47.8264 83.7828 47.99 83.6969C48.1563 83.6084 48.3119 83.4877 48.4567 83.3348V80.3414H49.3218ZM51.2534 78.4906V84.4453H50.3884V78.4906H51.2534ZM53.6368 84.5097C53.2962 84.5097 53.0333 84.4145 52.8482 84.224C52.6658 84.0309 52.5746 83.76 52.5746 83.4113V81.0213H52.124C52.0757 81.0213 52.0342 81.0066 51.9993 80.9771C51.9644 80.9449 51.947 80.898 51.947 80.8363V80.4862L52.6109 80.3897L52.8 79.2027C52.8134 79.1571 52.8362 79.1209 52.8684 79.0941C52.9005 79.0646 52.9435 79.0498 52.9971 79.0498H53.4397V80.3977H54.5783V81.0213H53.4397V83.3509C53.4397 83.4985 53.4759 83.6111 53.5483 83.6889C53.6207 83.7667 53.7173 83.8056 53.838 83.8056C53.9051 83.8056 53.9627 83.7975 54.011 83.7814C54.0593 83.7627 54.1009 83.7439 54.1357 83.7251C54.1706 83.7037 54.2001 83.6849 54.2243 83.6688C54.2511 83.65 54.2766 83.6406 54.3007 83.6406C54.349 83.6406 54.3879 83.6674 54.4174 83.7211L54.6749 84.1436C54.5408 84.2616 54.3825 84.3528 54.2001 84.4171C54.0177 84.4788 53.83 84.5097 53.6368 84.5097Z" fill="#7A7575"/>
<path d="M195.76 78.6515V84.4453H194.819V81.8663H191.91V84.4453H190.964V78.6515H191.91V81.1863H194.819V78.6515H195.76ZM198.629 80.277C198.932 80.277 199.205 80.3266 199.45 80.4259C199.696 80.5251 199.905 80.6659 200.077 80.8483C200.252 81.0307 200.386 81.252 200.48 81.5122C200.573 81.7724 200.62 82.0648 200.62 82.3893C200.62 82.7139 200.573 83.0063 200.48 83.2664C200.386 83.5266 200.252 83.7493 200.077 83.9343C199.905 84.1167 199.696 84.2576 199.45 84.3568C199.205 84.456 198.932 84.5057 198.629 84.5057C198.323 84.5057 198.047 84.456 197.8 84.3568C197.556 84.2576 197.347 84.1167 197.172 83.9343C196.998 83.7493 196.864 83.5266 196.77 83.2664C196.676 83.0063 196.629 82.7139 196.629 82.3893C196.629 82.0648 196.676 81.7724 196.77 81.5122C196.864 81.252 196.998 81.0307 197.172 80.8483C197.347 80.6659 197.556 80.5251 197.8 80.4259C198.047 80.3266 198.323 80.277 198.629 80.277ZM198.629 83.8297C198.999 83.8297 199.274 83.7063 199.454 83.4596C199.636 83.2101 199.727 82.8547 199.727 82.3933C199.727 81.932 199.636 81.5766 199.454 81.3271C199.274 81.075 198.999 80.9489 198.629 80.9489C198.253 80.9489 197.974 81.075 197.792 81.3271C197.609 81.5766 197.518 81.932 197.518 82.3933C197.518 82.8547 197.609 83.2101 197.792 83.4596C197.974 83.7063 198.253 83.8297 198.629 83.8297ZM204.947 80.3414L203.297 84.4453H202.517L200.867 80.3414H201.579C201.646 80.3414 201.701 80.3588 201.744 80.3937C201.79 80.4259 201.819 80.4648 201.833 80.5104L202.742 82.9003C202.779 83.013 202.813 83.1243 202.842 83.2342C202.872 83.3442 202.897 83.4555 202.919 83.5682C202.94 83.4555 202.966 83.3456 202.995 83.2383C203.027 83.1283 203.062 83.0156 203.1 82.9003L204.025 80.5104C204.041 80.4621 204.071 80.4218 204.114 80.3897C204.157 80.3575 204.209 80.3414 204.271 80.3414H204.947ZM208.112 81.9306C208.112 81.7858 208.09 81.6517 208.047 81.5283C208.007 81.4022 207.947 81.2936 207.866 81.2024C207.786 81.1085 207.685 81.0361 207.564 80.9851C207.446 80.9315 207.31 80.9047 207.154 80.9047C206.84 80.9047 206.593 80.9945 206.414 81.1742C206.234 81.3539 206.12 81.6061 206.072 81.9306H208.112ZM206.048 82.4617C206.058 82.6951 206.095 82.8976 206.156 83.0693C206.218 83.2383 206.3 83.3791 206.402 83.4918C206.506 83.6044 206.63 83.6889 206.772 83.7452C206.917 83.7989 207.078 83.8257 207.255 83.8257C207.424 83.8257 207.57 83.8069 207.693 83.7694C207.817 83.7291 207.924 83.6862 208.015 83.6406C208.106 83.5923 208.184 83.5494 208.248 83.5119C208.313 83.4716 208.372 83.4515 208.425 83.4515C208.495 83.4515 208.549 83.4783 208.586 83.532L208.832 83.8498C208.73 83.9705 208.615 84.0725 208.486 84.1556C208.357 84.2388 208.22 84.3072 208.075 84.3608C207.931 84.4118 207.782 84.448 207.629 84.4695C207.476 84.4936 207.327 84.5057 207.182 84.5057C206.898 84.5057 206.634 84.4587 206.39 84.3648C206.148 84.2683 205.938 84.1275 205.758 83.9424C205.581 83.7573 205.441 83.528 205.339 83.2544C205.24 82.9808 205.191 82.6656 205.191 82.3088C205.191 82.0245 205.235 81.759 205.323 81.5122C205.415 81.2654 205.543 81.0508 205.71 80.8684C205.879 80.6861 206.082 80.5425 206.321 80.4379C206.563 80.3306 206.835 80.277 207.138 80.277C207.39 80.277 207.623 80.3186 207.838 80.4017C208.053 80.4822 208.238 80.6016 208.393 80.7598C208.549 80.9181 208.67 81.1125 208.755 81.3432C208.844 81.5712 208.888 81.8314 208.888 82.1238C208.888 82.2579 208.873 82.3477 208.844 82.3933C208.814 82.4389 208.761 82.4617 208.683 82.4617H206.048ZM210.512 81.1018C210.64 80.8416 210.796 80.6378 210.978 80.4902C211.161 80.34 211.379 80.2649 211.634 80.2649C211.723 80.2649 211.806 80.2757 211.884 80.2971C211.961 80.3159 212.031 80.3454 212.093 80.3856L212.033 81.0374C212.022 81.083 212.004 81.1152 211.98 81.134C211.959 81.1501 211.929 81.1581 211.892 81.1581C211.851 81.1581 211.794 81.1514 211.719 81.138C211.644 81.1219 211.564 81.1139 211.481 81.1139C211.361 81.1139 211.253 81.1313 211.159 81.1662C211.068 81.2011 210.985 81.252 210.91 81.3191C210.838 81.3861 210.773 81.4679 210.717 81.5645C210.661 81.6611 210.608 81.771 210.56 81.8944V84.4453H209.695V80.3414H210.198C210.289 80.3414 210.352 80.3588 210.387 80.3937C210.422 80.4259 210.446 80.4835 210.459 80.5667L210.512 81.1018Z" fill="#7A7575"/>
<path d="M346.329 81.6047C346.539 81.6047 346.722 81.5779 346.881 81.5243C347.042 81.4706 347.174 81.3955 347.279 81.299C347.386 81.1997 347.467 81.0804 347.52 80.9409C347.574 80.8014 347.601 80.6458 347.601 80.4741C347.601 80.3052 347.574 80.1536 347.52 80.0195C347.469 79.8854 347.392 79.7714 347.287 79.6775C347.182 79.5836 347.05 79.5125 346.889 79.4643C346.73 79.4133 346.544 79.3878 346.329 79.3878H345.468V81.6047H346.329ZM346.329 78.6515C346.708 78.6515 347.035 78.6958 347.311 78.7843C347.59 78.8728 347.819 78.9975 347.999 79.1585C348.182 79.3167 348.317 79.5085 348.406 79.7338C348.494 79.9565 348.538 80.2032 348.538 80.4741C348.538 80.7504 348.491 81.0039 348.397 81.2346C348.304 81.4626 348.164 81.6597 347.979 81.826C347.794 81.9897 347.563 82.1184 347.287 82.2123C347.013 82.3035 346.694 82.3491 346.329 82.3491H345.468V84.4453H344.527V78.6515H346.329ZM350.023 81.1018C350.152 80.8416 350.308 80.6378 350.49 80.4902C350.673 80.34 350.891 80.2649 351.146 80.2649C351.235 80.2649 351.318 80.2757 351.395 80.2971C351.473 80.3159 351.543 80.3454 351.605 80.3856L351.544 81.0374C351.534 81.083 351.516 81.1152 351.492 81.134C351.471 81.1501 351.441 81.1581 351.403 81.1581C351.363 81.1581 351.306 81.1514 351.23 81.138C351.155 81.1219 351.076 81.1139 350.993 81.1139C350.872 81.1139 350.765 81.1313 350.671 81.1662C350.58 81.2011 350.497 81.252 350.422 81.3191C350.349 81.3861 350.285 81.4679 350.229 81.5645C350.172 81.6611 350.12 81.771 350.072 81.8944V84.4453H349.207V80.3414H349.71C349.801 80.3414 349.864 80.3588 349.899 80.3937C349.934 80.4259 349.958 80.4835 349.971 80.5667L350.023 81.1018ZM354.727 81.9306C354.727 81.7858 354.706 81.6517 354.663 81.5283C354.623 81.4022 354.562 81.2936 354.482 81.2024C354.401 81.1085 354.301 81.0361 354.18 80.9851C354.062 80.9315 353.925 80.9047 353.77 80.9047C353.456 80.9047 353.209 80.9945 353.029 81.1742C352.85 81.3539 352.736 81.6061 352.687 81.9306H354.727ZM352.663 82.4617C352.674 82.6951 352.71 82.8976 352.772 83.0693C352.834 83.2383 352.915 83.3791 353.017 83.4918C353.122 83.6044 353.245 83.6889 353.388 83.7452C353.532 83.7989 353.693 83.8257 353.87 83.8257C354.039 83.8257 354.186 83.8069 354.309 83.7694C354.432 83.7291 354.54 83.6862 354.631 83.6406C354.722 83.5923 354.8 83.5494 354.864 83.5119C354.929 83.4716 354.988 83.4515 355.041 83.4515C355.111 83.4515 355.165 83.4783 355.202 83.532L355.448 83.8498C355.346 83.9705 355.23 84.0725 355.102 84.1556C354.973 84.2388 354.836 84.3072 354.691 84.3608C354.546 84.4118 354.397 84.448 354.245 84.4695C354.092 84.4936 353.943 84.5057 353.798 84.5057C353.514 84.5057 353.249 84.4587 353.005 84.3648C352.764 84.2683 352.553 84.1275 352.374 83.9424C352.197 83.7573 352.057 83.528 351.955 83.2544C351.856 82.9808 351.806 82.6656 351.806 82.3088C351.806 82.0245 351.851 81.759 351.939 81.5122C352.03 81.2654 352.159 81.0508 352.325 80.8684C352.494 80.6861 352.698 80.5425 352.937 80.4379C353.178 80.3306 353.451 80.277 353.754 80.277C354.006 80.277 354.239 80.3186 354.454 80.4017C354.668 80.4822 354.853 80.6016 355.009 80.7598C355.165 80.9181 355.285 81.1125 355.371 81.3432C355.46 81.5712 355.504 81.8314 355.504 82.1238C355.504 82.2579 355.489 82.3477 355.46 82.3933C355.43 82.4389 355.377 82.4617 355.299 82.4617H352.663ZM358.761 81.0857C358.739 81.1233 358.715 81.1501 358.688 81.1662C358.662 81.1823 358.628 81.1903 358.588 81.1903C358.542 81.1903 358.493 81.1769 358.439 81.1501C358.385 81.1206 358.322 81.0884 358.25 81.0535C358.178 81.0187 358.092 80.9878 357.992 80.961C357.896 80.9315 357.782 80.9167 357.65 80.9167C357.543 80.9167 357.445 80.9301 357.357 80.957C357.271 80.9811 357.197 81.0173 357.135 81.0656C357.076 81.1112 357.031 81.1662 356.999 81.2306C356.966 81.2923 356.95 81.3593 356.95 81.4317C356.95 81.5283 356.98 81.6088 357.039 81.6731C357.098 81.7375 357.176 81.7938 357.272 81.8421C357.369 81.8877 357.479 81.9293 357.602 81.9669C357.726 82.0044 357.852 82.0446 357.98 82.0876C358.109 82.1305 358.235 82.1801 358.359 82.2364C358.482 82.2928 358.592 82.3625 358.688 82.4456C358.785 82.5261 358.863 82.6254 358.922 82.7434C358.981 82.8587 359.01 82.9995 359.01 83.1658C359.01 83.359 358.975 83.5373 358.906 83.701C358.836 83.8646 358.734 84.0068 358.6 84.1275C358.466 84.2482 358.298 84.342 358.097 84.4091C357.899 84.4762 357.671 84.5097 357.413 84.5097C357.271 84.5097 357.133 84.4963 356.999 84.4695C356.867 84.4453 356.741 84.4118 356.62 84.3689C356.502 84.3233 356.391 84.2696 356.286 84.2079C356.185 84.1462 356.093 84.0792 356.013 84.0068L356.214 83.6768C356.238 83.6366 356.268 83.6057 356.303 83.5843C356.34 83.5601 356.386 83.5481 356.439 83.5481C356.496 83.5481 356.551 83.5669 356.604 83.6044C356.661 83.6393 356.725 83.6782 356.797 83.7211C356.873 83.764 356.962 83.8042 357.067 83.8418C357.172 83.8767 357.302 83.8941 357.457 83.8941C357.586 83.8941 357.697 83.8793 357.791 83.8498C357.885 83.8177 357.963 83.7747 358.025 83.7211C358.086 83.6674 358.132 83.6071 358.161 83.54C358.191 83.4703 358.206 83.3965 358.206 83.3187C358.206 83.2141 358.176 83.1283 358.117 83.0612C358.058 82.9942 357.979 82.9365 357.88 82.8882C357.783 82.8399 357.672 82.797 357.546 82.7595C357.422 82.7219 357.296 82.6817 357.168 82.6388C357.039 82.5959 356.911 82.5462 356.785 82.4899C356.662 82.4336 356.551 82.3625 356.451 82.2767C356.355 82.1881 356.277 82.0822 356.218 81.9588C356.159 81.8327 356.13 81.6798 356.13 81.5001C356.13 81.3365 356.162 81.1809 356.226 81.0334C356.293 80.8859 356.39 80.7558 356.516 80.6431C356.645 80.5305 356.801 80.442 356.987 80.3776C357.174 80.3105 357.39 80.277 357.634 80.277C357.911 80.277 358.161 80.3213 358.387 80.4098C358.612 80.4983 358.801 80.619 358.954 80.7719L358.761 81.0857ZM362.274 81.0857C362.252 81.1233 362.228 81.1501 362.201 81.1662C362.174 81.1823 362.141 81.1903 362.101 81.1903C362.055 81.1903 362.005 81.1769 361.952 81.1501C361.898 81.1206 361.835 81.0884 361.763 81.0535C361.69 81.0187 361.604 80.9878 361.505 80.961C361.409 80.9315 361.295 80.9167 361.163 80.9167C361.056 80.9167 360.958 80.9301 360.869 80.957C360.784 80.9811 360.71 81.0173 360.648 81.0656C360.589 81.1112 360.543 81.1662 360.511 81.2306C360.479 81.2923 360.463 81.3593 360.463 81.4317C360.463 81.5283 360.493 81.6088 360.552 81.6731C360.611 81.7375 360.688 81.7938 360.785 81.8421C360.881 81.8877 360.991 81.9293 361.115 81.9669C361.238 82.0044 361.364 82.0446 361.493 82.0876C361.622 82.1305 361.748 82.1801 361.871 82.2364C361.995 82.2928 362.105 82.3625 362.201 82.4456C362.298 82.5261 362.376 82.6254 362.435 82.7434C362.494 82.8587 362.523 82.9995 362.523 83.1658C362.523 83.359 362.488 83.5373 362.418 83.701C362.349 83.8646 362.247 84.0068 362.113 84.1275C361.979 84.2482 361.811 84.342 361.61 84.4091C361.411 84.4762 361.183 84.5097 360.926 84.5097C360.784 84.5097 360.645 84.4963 360.511 84.4695C360.38 84.4453 360.254 84.4118 360.133 84.3689C360.015 84.3233 359.904 84.2696 359.799 84.2079C359.697 84.1462 359.606 84.0792 359.526 84.0068L359.727 83.6768C359.751 83.6366 359.78 83.6057 359.815 83.5843C359.853 83.5601 359.898 83.5481 359.952 83.5481C360.008 83.5481 360.063 83.5669 360.117 83.6044C360.173 83.6393 360.238 83.6782 360.31 83.7211C360.385 83.764 360.475 83.8042 360.58 83.8418C360.684 83.8767 360.814 83.8941 360.97 83.8941C361.099 83.8941 361.21 83.8793 361.304 83.8498C361.398 83.8177 361.476 83.7747 361.537 83.7211C361.599 83.6674 361.645 83.6071 361.674 83.54C361.704 83.4703 361.718 83.3965 361.718 83.3187C361.718 83.2141 361.689 83.1283 361.63 83.0612C361.571 82.9942 361.492 82.9365 361.392 82.8882C361.296 82.8399 361.185 82.797 361.059 82.7595C360.935 82.7219 360.809 82.6817 360.68 82.6388C360.552 82.5959 360.424 82.5462 360.298 82.4899C360.175 82.4336 360.063 82.3625 359.964 82.2767C359.868 82.1881 359.79 82.0822 359.731 81.9588C359.672 81.8327 359.642 81.6798 359.642 81.5001C359.642 81.3365 359.674 81.1809 359.739 81.0334C359.806 80.8859 359.902 80.7558 360.028 80.6431C360.157 80.5305 360.314 80.442 360.499 80.3776C360.687 80.3105 360.903 80.277 361.147 80.277C361.423 80.277 361.674 80.3213 361.899 80.4098C362.125 80.4983 362.314 80.619 362.467 80.7719L362.274 81.0857ZM366.028 81.9306C366.028 81.7858 366.006 81.6517 365.963 81.5283C365.923 81.4022 365.863 81.2936 365.782 81.2024C365.702 81.1085 365.601 81.0361 365.48 80.9851C365.362 80.9315 365.226 80.9047 365.07 80.9047C364.756 80.9047 364.509 80.9945 364.33 81.1742C364.15 81.3539 364.036 81.6061 363.988 81.9306H366.028ZM363.964 82.4617C363.974 82.6951 364.011 82.8976 364.072 83.0693C364.134 83.2383 364.216 83.3791 364.318 83.4918C364.422 83.6044 364.546 83.6889 364.688 83.7452C364.833 83.7989 364.994 83.8257 365.171 83.8257C365.34 83.8257 365.486 83.8069 365.609 83.7694C365.733 83.7291 365.84 83.6862 365.931 83.6406C366.022 83.5923 366.1 83.5494 366.164 83.5119C366.229 83.4716 366.288 83.4515 366.342 83.4515C366.411 83.4515 366.465 83.4783 366.502 83.532L366.748 83.8498C366.646 83.9705 366.531 84.0725 366.402 84.1556C366.273 84.2388 366.136 84.3072 365.991 84.3608C365.847 84.4118 365.698 84.448 365.545 84.4695C365.392 84.4936 365.243 84.5057 365.098 84.5057C364.814 84.5057 364.55 84.4587 364.306 84.3648C364.064 84.2683 363.854 84.1275 363.674 83.9424C363.497 83.7573 363.357 83.528 363.256 83.2544C363.156 82.9808 363.107 82.6656 363.107 82.3088C363.107 82.0245 363.151 81.759 363.239 81.5122C363.331 81.2654 363.459 81.0508 363.626 80.8684C363.795 80.6861 363.999 80.5425 364.237 80.4379C364.479 80.3306 364.751 80.277 365.054 80.277C365.306 80.277 365.539 80.3186 365.754 80.4017C365.969 80.4822 366.154 80.6016 366.309 80.7598C366.465 80.9181 366.586 81.1125 366.671 81.3432C366.76 81.5712 366.804 81.8314 366.804 82.1238C366.804 82.2579 366.789 82.3477 366.76 82.3933C366.73 82.4389 366.677 82.4617 366.599 82.4617H363.964ZM370.23 81.3513C370.109 81.1957 369.977 81.0871 369.832 81.0254C369.687 80.9637 369.53 80.9328 369.361 80.9328C369.023 80.9328 368.759 81.0576 368.568 81.307C368.378 81.5538 368.283 81.9199 368.283 82.4054C368.283 82.6576 368.304 82.8735 368.347 83.0532C368.39 83.2302 368.452 83.3751 368.532 83.4877C368.613 83.6004 368.711 83.6822 368.826 83.7332C368.941 83.7841 369.071 83.8096 369.216 83.8096C369.436 83.8096 369.625 83.7627 369.784 83.6688C369.945 83.5722 370.093 83.4368 370.23 83.2624V81.3513ZM371.095 78.4906V84.4453H370.572C370.457 84.4453 370.383 84.3903 370.351 84.2804L370.274 83.8337C370.103 84.0349 369.907 84.1972 369.687 84.3206C369.47 84.444 369.216 84.5057 368.927 84.5057C368.696 84.5057 368.487 84.4601 368.299 84.3689C368.111 84.275 367.95 84.1395 367.816 83.9625C367.682 83.7855 367.577 83.5669 367.502 83.3067C367.43 83.0438 367.394 82.7434 367.394 82.4054C367.394 82.0996 367.434 81.8166 367.514 81.5565C367.597 81.2963 367.716 81.071 367.868 80.8805C368.021 80.6874 368.206 80.5372 368.424 80.4299C368.644 80.3199 368.889 80.2649 369.16 80.2649C369.401 80.2649 369.607 80.3038 369.776 80.3816C369.945 80.4567 370.096 80.5627 370.23 80.6995V78.4906H371.095Z" fill="#7A7575"/>
<path d="M500.544 79.412V81.2668H502.809V82.0272H500.544V84.4453H499.598V78.6515H503.211V79.412H500.544ZM505.408 80.277C505.711 80.277 505.985 80.3266 506.229 80.4259C506.475 80.5251 506.685 80.6659 506.856 80.8483C507.031 81.0307 507.165 81.252 507.259 81.5122C507.353 81.7724 507.4 82.0648 507.4 82.3893C507.4 82.7139 507.353 83.0063 507.259 83.2664C507.165 83.5266 507.031 83.7493 506.856 83.9343C506.685 84.1167 506.475 84.2576 506.229 84.3568C505.985 84.456 505.711 84.5057 505.408 84.5057C505.102 84.5057 504.826 84.456 504.579 84.3568C504.335 84.2576 504.126 84.1167 503.951 83.9343C503.777 83.7493 503.643 83.5266 503.549 83.2664C503.455 83.0063 503.408 82.7139 503.408 82.3893C503.408 82.0648 503.455 81.7724 503.549 81.5122C503.643 81.252 503.777 81.0307 503.951 80.8483C504.126 80.6659 504.335 80.5251 504.579 80.4259C504.826 80.3266 505.102 80.277 505.408 80.277ZM505.408 83.8297C505.778 83.8297 506.053 83.7063 506.233 83.4596C506.415 83.2101 506.506 82.8547 506.506 82.3933C506.506 81.932 506.415 81.5766 506.233 81.3271C506.053 81.075 505.778 80.9489 505.408 80.9489C505.032 80.9489 504.753 81.075 504.571 81.3271C504.389 81.5766 504.297 81.932 504.297 82.3933C504.297 82.8547 504.389 83.2101 504.571 83.4596C504.753 83.7063 505.032 83.8297 505.408 83.8297ZM511.132 81.1461C511.105 81.1809 511.079 81.2078 511.055 81.2265C511.031 81.2453 510.996 81.2547 510.951 81.2547C510.905 81.2547 510.857 81.2386 510.806 81.2064C510.757 81.1742 510.698 81.1394 510.629 81.1018C510.562 81.0616 510.48 81.0254 510.383 80.9932C510.287 80.961 510.166 80.9449 510.021 80.9449C509.833 80.9449 509.668 80.9784 509.526 81.0455C509.387 81.1125 509.269 81.2091 509.172 81.3352C509.078 81.4586 509.007 81.6101 508.959 81.7898C508.913 81.9669 508.891 82.1667 508.891 82.3893C508.891 82.62 508.916 82.8252 508.967 83.0049C509.018 83.1846 509.09 83.3362 509.184 83.4596C509.281 83.5829 509.396 83.6768 509.53 83.7412C509.667 83.8056 509.82 83.8378 509.989 83.8378C510.155 83.8378 510.291 83.8177 510.395 83.7774C510.5 83.7372 510.587 83.6929 510.657 83.6446C510.727 83.5964 510.786 83.5521 510.834 83.5119C510.885 83.4716 510.939 83.4515 510.995 83.4515C511.065 83.4515 511.118 83.4783 511.156 83.532L511.401 83.8498C511.302 83.9705 511.192 84.0725 511.071 84.1556C510.951 84.2388 510.823 84.3072 510.689 84.3608C510.555 84.4118 510.415 84.448 510.271 84.4695C510.126 84.4936 509.98 84.5057 509.832 84.5057C509.577 84.5057 509.339 84.4587 509.116 84.3648C508.896 84.2683 508.703 84.1301 508.536 83.9504C508.373 83.768 508.243 83.5467 508.146 83.2866C508.052 83.0237 508.005 82.7246 508.005 82.3893C508.005 82.0862 508.048 81.8059 508.134 81.5484C508.22 81.2882 508.345 81.0643 508.508 80.8765C508.675 80.6887 508.88 80.5425 509.124 80.4379C509.368 80.3306 509.65 80.277 509.969 80.277C510.267 80.277 510.528 80.3253 510.753 80.4218C510.981 80.5184 511.184 80.6552 511.361 80.8322L511.132 81.1461ZM515.557 80.3414V84.4453H515.034C514.919 84.4453 514.845 84.3903 514.813 84.2804L514.748 83.8981C514.663 83.9893 514.571 84.0725 514.475 84.1476C514.381 84.2227 514.28 84.2871 514.173 84.3407C514.066 84.3943 513.95 84.4359 513.827 84.4654C513.706 84.4949 513.576 84.5097 513.437 84.5097C513.212 84.5097 513.013 84.4721 512.841 84.397C512.67 84.3219 512.525 84.216 512.407 84.0792C512.291 83.9424 512.204 83.7788 512.145 83.5883C512.086 83.3952 512.057 83.1833 512.057 82.9526V80.3414H512.922V82.9526C512.922 83.2289 512.985 83.4435 513.111 83.5964C513.24 83.7493 513.434 83.8257 513.694 83.8257C513.885 83.8257 514.062 83.7828 514.225 83.6969C514.392 83.6084 514.547 83.4877 514.692 83.3348V80.3414H515.557ZM519.058 81.0857C519.037 81.1233 519.012 81.1501 518.986 81.1662C518.959 81.1823 518.925 81.1903 518.885 81.1903C518.839 81.1903 518.79 81.1769 518.736 81.1501C518.682 81.1206 518.619 81.0884 518.547 81.0535C518.475 81.0187 518.389 80.9878 518.29 80.961C518.193 80.9315 518.079 80.9167 517.948 80.9167C517.84 80.9167 517.742 80.9301 517.654 80.957C517.568 80.9811 517.494 81.0173 517.433 81.0656C517.374 81.1112 517.328 81.1662 517.296 81.2306C517.264 81.2923 517.247 81.3593 517.247 81.4317C517.247 81.5283 517.277 81.6088 517.336 81.6731C517.395 81.7375 517.473 81.7938 517.569 81.8421C517.666 81.8877 517.776 81.9293 517.899 81.9669C518.023 82.0044 518.149 82.0446 518.277 82.0876C518.406 82.1305 518.532 82.1801 518.656 82.2364C518.779 82.2928 518.889 82.3625 518.986 82.4456C519.082 82.5261 519.16 82.6254 519.219 82.7434C519.278 82.8587 519.307 82.9995 519.307 83.1658C519.307 83.359 519.273 83.5373 519.203 83.701C519.133 83.8646 519.031 84.0068 518.897 84.1275C518.763 84.2482 518.595 84.342 518.394 84.4091C518.196 84.4762 517.968 84.5097 517.71 84.5097C517.568 84.5097 517.43 84.4963 517.296 84.4695C517.164 84.4453 517.038 84.4118 516.918 84.3689C516.799 84.3233 516.688 84.2696 516.584 84.2079C516.482 84.1462 516.39 84.0792 516.31 84.0068L516.511 83.6768C516.535 83.6366 516.565 83.6057 516.6 83.5843C516.637 83.5601 516.683 83.5481 516.736 83.5481C516.793 83.5481 516.848 83.5669 516.901 83.6044C516.958 83.6393 517.022 83.6782 517.095 83.7211C517.17 83.764 517.26 83.8042 517.364 83.8418C517.469 83.8767 517.599 83.8941 517.754 83.8941C517.883 83.8941 517.994 83.8793 518.088 83.8498C518.182 83.8177 518.26 83.7747 518.322 83.7211C518.383 83.6674 518.429 83.6071 518.459 83.54C518.488 83.4703 518.503 83.3965 518.503 83.3187C518.503 83.2141 518.473 83.1283 518.414 83.0612C518.355 82.9942 518.276 82.9365 518.177 82.8882C518.08 82.8399 517.969 82.797 517.843 82.7595C517.72 82.7219 517.593 82.6817 517.465 82.6388C517.336 82.5959 517.209 82.5462 517.082 82.4899C516.959 82.4336 516.848 82.3625 516.749 82.2767C516.652 82.1881 516.574 82.0822 516.515 81.9588C516.456 81.8327 516.427 81.6798 516.427 81.5001C516.427 81.3365 516.459 81.1809 516.523 81.0334C516.59 80.8859 516.687 80.7558 516.813 80.6431C516.942 80.5305 517.099 80.442 517.284 80.3776C517.471 80.3105 517.687 80.277 517.931 80.277C518.208 80.277 518.459 80.3213 518.684 80.4098C518.909 80.4983 519.098 80.619 519.251 80.7719L519.058 81.0857Z" fill="#7A7575"/>
<g filter="url(#filter0_d_508_20252)">
<rect x="28.1641" y="95.0547" width="72.9254" height="24.1408" rx="2.51633" fill="#EFEDED" shape-rendering="crispEdges"/>
<rect x="28.4786" y="95.3692" width="72.2963" height="23.5117" rx="2.20179" stroke="#767474" stroke-width="0.629082" shape-rendering="crispEdges"/>
<path d="M58.29 110.016V108.063H56.0347L54.9895 107.018V105.843L56.0347 104.802H56.6241V106.652H59.0209L60.0307 107.697V108.974L58.9894 110.016H58.29ZM56.8991 105.741V104.802H58.9855L59.8892 105.709V106.263H58.29V105.741H56.8991ZM54.9895 108.452H56.7262V109.073H58.015V110.016H55.8657L54.9895 108.974V108.452ZM62.7289 108.974H63.8762V110.016H62.0374L60.9922 108.974V106.884H60.6464V105.843H60.9922V105.391L62.7289 104.802V108.974ZM63.0039 106.884V105.843H63.9391V106.884H63.0039ZM67.4153 110.016V106.884H64.9438V106.365L65.4664 105.843H68.0715L69.1127 106.884V110.016H67.4153ZM67.1402 107.587V108.31H66.2444V109.041H67.1402V109.501L66.6216 110.016H65.2935L64.5941 109.328V108.283L65.2935 107.587H67.1402ZM72.7736 106.884H72.0349V106.428L72.6164 105.843H73.6694L74.5142 106.817V107.898H72.7736V106.884ZM70.0192 110.016V105.843H71.7559V110.016H70.0192ZM76.9531 108.974H78.1004V110.016H76.2616L75.2164 108.974V106.884H74.8707V105.843H75.2164V105.391L76.9531 104.802V108.974ZM77.2282 106.884V105.843H78.1633V106.884H77.2282Z" fill="#222020"/>
</g>
<g filter="url(#filter1_d_508_20252)">
<rect x="188.6" y="95.0547" width="80.4694" height="27.1584" rx="3.04476" fill="#17D32A" shape-rendering="crispEdges"/>
<rect x="188.98" y="95.4353" width="79.7082" height="26.3972" rx="2.66416" stroke="#767474" stroke-width="0.76119" shape-rendering="crispEdges"/>
<path d="M222.594 112.508V110.091H219.803L218.51 108.798V107.344L219.803 106.055H220.532V108.346H223.499L224.748 109.639V111.219L223.46 112.508H222.594ZM220.873 107.218V106.055H223.455L224.573 107.179V107.864H222.594V107.218H220.873ZM218.51 110.573H220.659V111.341H222.254V112.508H219.594L218.51 111.219V110.573ZM228.087 111.219H229.507V112.508H227.231L225.938 111.219V108.633H225.51V107.344H225.938V106.785L228.087 106.055V111.219ZM228.428 108.633V107.344H229.585V108.633H228.428ZM233.887 112.508V108.633H230.828V107.991L231.475 107.344H234.699L235.987 108.633V112.508H233.887ZM233.546 109.503V110.398H232.438V111.302H233.546V111.871L232.904 112.508H231.261L230.395 111.657V110.364L231.261 109.503H233.546ZM240.517 108.633H239.603V108.068L240.323 107.344H241.626L242.672 108.55V109.887H240.517V108.633ZM237.109 112.508V107.344H239.258V112.508H237.109ZM245.69 111.219H247.109V112.508H244.834L243.541 111.219V108.633H243.113V107.344H243.541V106.785L245.69 106.055V111.219ZM246.03 108.633V107.344H247.187V108.633H246.03Z" fill="#222020"/>
</g>
<g filter="url(#filter2_ii_508_20252)">
<rect x="342.498" y="95.0547" width="72.9254" height="24.1408" rx="2.51633" fill="#767474"/>
<rect x="342.813" y="95.3692" width="72.2963" height="23.5117" rx="2.20179" stroke="#767474" stroke-width="0.629082"/>
<path d="M372.624 110.016V108.063H370.369L369.324 107.018V105.843L370.369 104.802H370.958V106.652H373.355L374.365 107.697V108.974L373.323 110.016H372.624ZM371.233 105.741V104.802H373.319L374.223 105.709V106.263H372.624V105.741H371.233ZM369.324 108.452H371.06V109.073H372.349V110.016H370.2L369.324 108.974V108.452ZM377.063 108.974H378.21V110.016H376.371L375.326 108.974V106.884H374.98V105.843H375.326V105.391L377.063 104.802V108.974ZM377.338 106.884V105.843H378.273V106.884H377.338ZM381.749 110.016V106.884H379.278V106.365L379.8 105.843H382.405L383.447 106.884V110.016H381.749ZM381.474 107.587V108.31H380.578V109.041H381.474V109.501L380.956 110.016H379.628L378.928 109.328V108.283L379.628 107.587H381.474ZM387.108 106.884H386.369V106.428L386.95 105.843H388.003L388.848 106.817V107.898H387.108V106.884ZM384.353 110.016V105.843H386.09V110.016H384.353ZM391.287 108.974H392.434V110.016H390.596L389.55 108.974V106.884H389.205V105.843H389.55V105.391L391.287 104.802V108.974ZM391.562 106.884V105.843H392.497V106.884H391.562Z" fill="#EFEDED"/>
</g>
<g filter="url(#filter3_ii_508_20252)">
<rect x="498.91" y="95.0547" width="72.9254" height="24.1408" rx="2.51633" fill="#FFE0AE"/>
<rect x="499.225" y="95.3692" width="72.2963" height="23.5117" rx="2.20179" stroke="#767474" stroke-width="0.629082"/>
<path d="M529.036 110.016V108.063H526.781L525.736 107.018V105.843L526.781 104.802H527.37V106.652H529.767L530.777 107.697V108.974L529.736 110.016H529.036ZM527.645 105.741V104.802H529.732L530.635 105.709V106.263H529.036V105.741H527.645ZM525.736 108.452H527.472V109.073H528.761V110.016H526.612L525.736 108.974V108.452ZM533.475 108.974H534.622V110.016H532.783L531.738 108.974V106.884H531.393V105.843H531.738V105.391L533.475 104.802V108.974ZM533.75 106.884V105.843H534.685V106.884H533.75ZM538.161 110.016V106.884H535.69V106.365L536.213 105.843H538.818L539.859 106.884V110.016H538.161ZM537.886 107.587V108.31H536.99V109.041H537.886V109.501L537.368 110.016H536.04L535.34 109.328V108.283L536.04 107.587H537.886ZM543.52 106.884H542.781V106.428L543.363 105.843H544.416L545.26 106.817V107.898H543.52V106.884ZM540.765 110.016V105.843H542.502V110.016H540.765ZM547.699 108.974H548.847V110.016H547.008L545.963 108.974V106.884H545.617V105.843H545.963V105.391L547.699 104.802V108.974ZM547.974 106.884V105.843H548.909V106.884H547.974Z" fill="#767474"/>
</g>
<defs>
<filter id="filter0_d_508_20252" x="28.1641" y="95.0547" width="74.813" height="26.0279" filterUnits="userSpaceOnUse" color-interpolation-filters="sRGB">
<feFlood flood-opacity="0" result="BackgroundImageFix"/>
<feColorMatrix in="SourceAlpha" type="matrix" values="0 0 0 0 0 0 0 0 0 0 0 0 0 0 0 0 0 0 127 0" result="hardAlpha"/>
<feOffset dx="1.88725" dy="1.88725"/>
<feComposite in2="hardAlpha" operator="out"/>
<feColorMatrix type="matrix" values="0 0 0 0 0.462745 0 0 0 0 0.454902 0 0 0 0 0.454902 0 0 0 1 0"/>
<feBlend mode="normal" in2="BackgroundImageFix" result="effect1_dropShadow_508_20252"/>
<feBlend mode="normal" in="SourceGraphic" in2="effect1_dropShadow_508_20252" result="shape"/>
</filter>
<filter id="filter1_d_508_20252" x="188.6" y="95.0547" width="82.7533" height="29.4398" filterUnits="userSpaceOnUse" color-interpolation-filters="sRGB">
<feFlood flood-opacity="0" result="BackgroundImageFix"/>
<feColorMatrix in="SourceAlpha" type="matrix" values="0 0 0 0 0 0 0 0 0 0 0 0 0 0 0 0 0 0 127 0" result="hardAlpha"/>
<feOffset dx="2.28357" dy="2.28357"/>
<feComposite in2="hardAlpha" operator="out"/>
<feColorMatrix type="matrix" values="0 0 0 0 0.501961 0 0 0 0 0.501961 0 0 0 0 0.501961 0 0 0 1 0"/>
<feBlend mode="normal" in2="BackgroundImageFix" result="effect1_dropShadow_508_20252"/>
<feBlend mode="normal" in="SourceGraphic" in2="effect1_dropShadow_508_20252" result="shape"/>
</filter>
<filter id="filter2_ii_508_20252" x="341.492" y="94.0488" width="74.4346" height="25.6494" filterUnits="userSpaceOnUse" color-interpolation-filters="sRGB">
<feFlood flood-opacity="0" result="BackgroundImageFix"/>
<feBlend mode="normal" in="SourceGraphic" in2="BackgroundImageFix" result="shape"/>
<feColorMatrix in="SourceAlpha" type="matrix" values="0 0 0 0 0 0 0 0 0 0 0 0 0 0 0 0 0 0 127 0" result="hardAlpha"/>
<feOffset dx="-1.00587" dy="-1.00587"/>
<feGaussianBlur stdDeviation="1.25733"/>
<feComposite in2="hardAlpha" operator="arithmetic" k2="-1" k3="1"/>
<feColorMatrix type="matrix" values="0 0 0 0 0.133333 0 0 0 0 0.12549 0 0 0 0 0.12549 0 0 0 1 0"/>
<feBlend mode="normal" in2="shape" result="effect1_innerShadow_508_20252"/>
<feColorMatrix in="SourceAlpha" type="matrix" values="0 0 0 0 0 0 0 0 0 0 0 0 0 0 0 0 0 0 127 0" result="hardAlpha"/>
<feOffset dx="0.502934" dy="0.502934"/>
<feGaussianBlur stdDeviation="1.25733"/>
<feComposite in2="hardAlpha" operator="arithmetic" k2="-1" k3="1"/>
<feColorMatrix type="matrix" values="0 0 0 0 0.133333 0 0 0 0 0.12549 0 0 0 0 0.12549 0 0 0 1 0"/>
<feBlend mode="normal" in2="effect1_innerShadow_508_20252" result="effect2_innerShadow_508_20252"/>
</filter>
<filter id="filter3_ii_508_20252" x="497.904" y="94.0488" width="74.4346" height="25.6494" filterUnits="userSpaceOnUse" color-interpolation-filters="sRGB">
<feFlood flood-opacity="0" result="BackgroundImageFix"/>
<feBlend mode="normal" in="SourceGraphic" in2="BackgroundImageFix" result="shape"/>
<feColorMatrix in="SourceAlpha" type="matrix" values="0 0 0 0 0 0 0 0 0 0 0 0 0 0 0 0 0 0 127 0" result="hardAlpha"/>
<feOffset dx="-1.00587" dy="-1.00587"/>
<feGaussianBlur stdDeviation="1.25733"/>
<feComposite in2="hardAlpha" operator="arithmetic" k2="-1" k3="1"/>
<feColorMatrix type="matrix" values="0 0 0 0 0.462745 0 0 0 0 0.454902 0 0 0 0 0.454902 0 0 0 1 0"/>
<feBlend mode="normal" in2="shape" result="effect1_innerShadow_508_20252"/>
<feColorMatrix in="SourceAlpha" type="matrix" values="0 0 0 0 0 0 0 0 0 0 0 0 0 0 0 0 0 0 127 0" result="hardAlpha"/>
<feOffset dx="0.502934" dy="0.502934"/>
<feGaussianBlur stdDeviation="1.25733"/>
<feComposite in2="hardAlpha" operator="arithmetic" k2="-1" k3="1"/>
<feColorMatrix type="matrix" values="0 0 0 0 0.462745 0 0 0 0 0.454902 0 0 0 0 0.454902 0 0 0 1 0"/>
<feBlend mode="normal" in2="effect1_innerShadow_508_20252" result="effect2_innerShadow_508_20252"/>
</filter>
</defs>
</svg>
