<svg width="140" height="49" viewBox="0 0 140 49" fill="none" xmlns="http://www.w3.org/2000/svg">
<g filter="url(#filter0_d_384_4752)">
<rect width="136" height="45" rx="4.73373" fill="#F0F0F0" shape-rendering="crispEdges"/>
<rect x="0.591716" y="0.591716" width="134.817" height="43.8166" rx="4.14201" stroke="#808080" stroke-width="1.18343" shape-rendering="crispEdges"/>
<path d="M32.9355 25.5195V27.7783C32.9355 28.0654 32.874 28.2793 32.751 28.4199C32.6045 28.5957 32.3965 28.751 32.127 28.8857C31.8633 29.0205 31.6465 29.0879 31.4766 29.0879C31.2715 29.0879 31.1689 28.9619 31.1689 28.71V25.5195C31.1689 25.3086 31.2422 25.165 31.3887 25.0889C31.541 25.0127 31.7666 24.9746 32.0654 24.9746C32.3877 24.9746 32.6133 25.0127 32.7422 25.0889C32.8711 25.1592 32.9355 25.3027 32.9355 25.5195ZM31.1689 23.8057V19.1211C31.1689 18.9102 31.2393 18.7725 31.3799 18.708C31.5264 18.6377 31.749 18.6025 32.0479 18.6025C32.376 18.6025 32.6045 18.6377 32.7334 18.708C32.8682 18.7725 32.9355 18.9102 32.9355 19.1211V22.7861C32.9355 23.0381 33.0469 23.1641 33.2695 23.1641H34.7373C34.9893 23.1641 35.1152 23.2373 35.1152 23.3838C35.1152 23.5244 34.9863 23.6885 34.7285 23.876C34.4766 24.0576 34.1514 24.21 33.7529 24.333C33.5068 24.4092 32.8975 24.4473 31.9248 24.4473C31.626 24.4473 31.4238 24.3945 31.3184 24.2891C31.2188 24.1836 31.1689 24.0225 31.1689 23.8057ZM36.8203 21.0283C36.8203 19.0771 35.6631 18.1016 33.3486 18.1016H31.5117C31.4355 18.1016 31.374 18.0986 31.3271 18.0928C31.2861 18.0869 31.248 18.0693 31.2129 18.04C31.1836 18.0049 31.1689 17.958 31.1689 17.8994C31.1689 17.6533 31.3359 17.3896 31.6699 17.1084C32.0098 16.8271 32.3467 16.6807 32.6807 16.6689L33.6123 16.6602L34.7373 16.6689C35.0537 16.6748 35.373 16.7129 35.6953 16.7832C36.0234 16.8477 36.3721 16.9736 36.7412 17.1611C37.1104 17.3486 37.4355 17.5859 37.7168 17.873C37.998 18.1602 38.2295 18.5469 38.4111 19.0332C38.5986 19.5195 38.6924 20.0703 38.6924 20.6855C38.6924 20.9258 38.6602 21.1895 38.5957 21.4766C38.5371 21.7637 38.4229 22.083 38.2529 22.4346C38.0889 22.7861 37.8809 23.1084 37.6289 23.4014C37.3828 23.6885 37.0488 23.9463 36.627 24.1748C36.2051 24.3975 35.7305 24.541 35.2031 24.6055H35.1504C34.9922 24.6055 34.9131 24.5381 34.9131 24.4033C34.9131 24.3213 34.9805 24.2393 35.1152 24.1572C36.252 23.4541 36.8203 22.4111 36.8203 21.0283ZM40.415 28.71V16.5986C40.415 16.2822 40.5586 16.0215 40.8457 15.8164C41.1328 15.6055 41.4141 15.5 41.6895 15.5C41.8945 15.5 41.9971 15.626 41.9971 15.8779V27.9893C41.9971 28.3115 41.8535 28.5752 41.5664 28.7803C41.2793 28.9854 40.998 29.0879 40.7227 29.0879C40.5176 29.0879 40.415 28.9619 40.415 28.71ZM47.6484 19.7275C48.1406 19.7275 48.583 19.792 48.9756 19.9209C49.3682 20.0498 49.6992 20.2578 49.9688 20.5449C50.2383 20.8262 50.4434 21.1924 50.584 21.6436C50.7305 22.0889 50.8037 22.6279 50.8037 23.2607V28.0244C50.8037 28.1709 50.7568 28.3086 50.6631 28.4375C50.5752 28.5664 50.4639 28.6807 50.3291 28.7803C50.2002 28.874 50.0596 28.9473 49.9072 29C49.7607 29.0586 49.6318 29.0879 49.5205 29.0879C49.3154 29.0879 49.2129 28.9619 49.2129 28.71V23.5859C49.2129 21.8574 48.5273 20.9932 47.1562 20.9932C46.3594 20.9932 45.6357 21.2129 44.9854 21.6523C44.7275 21.8223 44.5605 21.9072 44.4844 21.9072C44.3965 21.9072 44.3525 21.8604 44.3525 21.7666C44.3525 21.6025 44.4434 21.4092 44.625 21.1865C45.4219 20.2139 46.4297 19.7275 47.6484 19.7275ZM48.5449 28.5078C48.2988 28.7305 47.9941 28.9121 47.6309 29.0527C47.2676 29.1992 46.9189 29.2725 46.585 29.2725C45.8057 29.2725 45.208 29.0674 44.792 28.6572C44.3818 28.2412 44.1768 27.7314 44.1768 27.1279C44.1768 26.6943 44.3262 26.3633 44.625 26.1348C44.8945 25.9238 45.1289 25.8184 45.3281 25.8184C45.3926 25.8184 45.4482 25.8418 45.4951 25.8887C45.542 25.9355 45.5654 26.0059 45.5654 26.0996C45.5654 26.7676 45.6797 27.2539 45.9082 27.5586C46.1367 27.8574 46.5439 28.0068 47.1299 28.0068C47.3057 28.0068 47.5195 27.9775 47.7715 27.9189C48.0234 27.8545 48.2373 27.7695 48.4131 27.6641C48.5186 27.5996 48.5977 27.5674 48.6504 27.5674C48.7324 27.5674 48.7734 27.6758 48.7734 27.8926C48.7734 28.1621 48.6973 28.3672 48.5449 28.5078ZM48.4746 23.7617C48.5859 23.8203 48.6621 23.8994 48.7031 23.999C48.7441 24.0928 48.7646 24.2715 48.7646 24.5352C48.7646 24.7695 48.7441 24.9395 48.7031 25.0449C48.668 25.1445 48.6006 25.1943 48.501 25.1943C48.4365 25.1943 48.3457 25.168 48.2285 25.1152C47.6777 24.875 47.1797 24.7549 46.7344 24.7549C46.0137 24.7549 45.3281 25.0156 44.6777 25.5371C44.4727 25.7012 44.335 25.7832 44.2646 25.7832C44.1709 25.7832 44.124 25.7305 44.124 25.625C44.124 25.4609 44.1826 25.2822 44.2998 25.0889C44.6104 24.5674 45.0176 24.1719 45.5215 23.9023C46.0312 23.627 46.5967 23.4893 47.2178 23.4893C47.6924 23.4893 48.1113 23.5801 48.4746 23.7617ZM55.6641 29.2725C55.1719 29.2725 54.7471 29.208 54.3896 29.0791C54.0381 28.9561 53.751 28.751 53.5283 28.4639C53.3057 28.1709 53.1416 27.793 53.0361 27.3301C52.9307 26.8672 52.8779 26.2959 52.8779 25.6162V20.8438C52.8779 20.6855 52.9189 20.5391 53.001 20.4043C53.0889 20.2637 53.1943 20.1436 53.3174 20.0439C53.4463 19.9443 53.584 19.8682 53.7305 19.8154C53.8828 19.7568 54.0234 19.7275 54.1523 19.7275C54.3574 19.7275 54.46 19.8535 54.46 20.1055V25.0625L54.4863 25.8359C54.4922 26.0059 54.501 26.1436 54.5127 26.249C54.5244 26.3486 54.5391 26.4395 54.5566 26.5215C54.5742 26.6035 54.5918 26.6826 54.6094 26.7588C54.6328 26.835 54.6621 26.9316 54.6973 27.0488C54.7969 27.4004 54.9873 27.6494 55.2686 27.7959C55.5498 27.9365 55.9043 28.0068 56.332 28.0068C56.7715 28.0068 57.1904 27.8926 57.5889 27.6641C57.7002 27.5996 57.7764 27.5674 57.8174 27.5674C57.9053 27.5674 57.9492 27.6758 57.9492 27.8926C57.9492 28.1328 57.8643 28.3408 57.6943 28.5166C57.5244 28.6865 57.3193 28.8271 57.0791 28.9385C56.8389 29.0498 56.5869 29.1318 56.3232 29.1846C56.0654 29.2432 55.8457 29.2725 55.6641 29.2725ZM59.9707 20.1055V30.7842C59.9707 31.2236 59.915 31.6279 59.8037 31.9971C59.6924 32.3721 59.5518 32.6738 59.3818 32.9023C59.2178 33.1367 59.0361 33.3359 58.8369 33.5C58.6377 33.6641 58.4561 33.7783 58.292 33.8428C58.1338 33.9131 57.9961 33.9482 57.8789 33.9482C57.7852 33.9482 57.7383 33.9072 57.7383 33.8252C57.7383 33.7725 57.7852 33.6816 57.8789 33.5527C58.0781 33.2773 58.2129 32.9287 58.2832 32.5068C58.3594 32.0908 58.3975 31.5283 58.3975 30.8193L58.3799 20.8613C58.3799 20.6328 58.4355 20.4541 58.5469 20.3252C58.6992 20.1494 58.8779 20.0059 59.083 19.8945C59.2939 19.7832 59.4873 19.7275 59.6631 19.7275C59.8682 19.7275 59.9707 19.8535 59.9707 20.1055ZM54.8027 32.6035C55.0137 32.7617 55.21 32.873 55.3916 32.9375C55.5732 33.0078 55.7959 33.043 56.0596 33.043C56.2939 33.043 56.5605 33.0107 56.8594 32.9463C57.1641 32.8818 57.3252 32.8496 57.3428 32.8496C57.4951 32.8496 57.5713 32.9229 57.5713 33.0693C57.5713 33.3389 57.3428 33.6113 56.8857 33.8867C56.4287 34.168 55.9365 34.3086 55.4092 34.3086C54.8936 34.3086 54.4043 34.2002 53.9414 33.9834C53.4844 33.7666 53.2559 33.5527 53.2559 33.3418C53.2559 33.1309 53.376 32.9316 53.6162 32.7441C53.8916 32.5156 54.1172 32.4014 54.293 32.4014C54.4688 32.4014 54.6387 32.4688 54.8027 32.6035ZM67.8633 19.8418C67.8633 19.9004 67.834 20.0938 67.7754 20.4219C67.7168 20.7441 67.6582 21.1807 67.5996 21.7314C67.541 22.2764 67.5117 22.8447 67.5117 23.4365C67.5117 23.9463 67.5439 24.415 67.6084 24.8428C67.6787 25.2646 67.793 25.6631 67.9512 26.0381C68.1094 26.4131 68.3086 26.7324 68.5488 26.9961C68.7891 27.2539 69.0908 27.459 69.4541 27.6113C69.8232 27.7578 70.2422 27.8311 70.7109 27.8311C71.0273 27.8311 71.3115 27.7959 71.5635 27.7256C71.8213 27.6494 72.0264 27.5732 72.1787 27.4971C72.3311 27.4209 72.4365 27.3828 72.4951 27.3828C72.6357 27.3828 72.7061 27.459 72.7061 27.6113C72.7061 27.6758 72.6797 27.7695 72.627 27.8926C72.5742 28.0098 72.4775 28.1504 72.3369 28.3145C72.2021 28.4727 72.0381 28.6221 71.8447 28.7627C71.6572 28.9033 71.4053 29.0234 71.0889 29.123C70.7783 29.2227 70.4355 29.2725 70.0605 29.2725C67.1426 29.2725 65.6836 27.3887 65.6836 23.6211C65.6836 22.0918 65.8301 21.0635 66.123 20.5361C66.2754 20.2666 66.5039 20.0293 66.8086 19.8242C67.1133 19.6191 67.3623 19.5166 67.5557 19.5166C67.7607 19.5166 67.8633 19.625 67.8633 19.8418ZM73.1367 24.1045H69.7705C69.5186 24.1045 69.3926 24.0137 69.3926 23.832C69.3926 23.75 69.4512 23.6035 69.5684 23.3926C69.6855 23.1758 69.8262 22.9941 69.9902 22.8477C70.125 22.7246 70.3418 22.6631 70.6406 22.6631H74.4902C74.707 22.6631 74.8535 22.6982 74.9297 22.7686C75.0117 22.833 75.0703 22.959 75.1055 23.1465C75.1523 23.3809 75.1758 23.7295 75.1758 24.1924C75.1758 25.1943 75.0234 26.1201 74.7188 26.9697C74.5137 27.5264 74.2383 27.9688 73.8926 28.2969C73.5469 28.6191 73.2422 28.7803 72.9785 28.7803C72.8672 28.7803 72.8115 28.7334 72.8115 28.6396C72.8115 28.5928 72.8203 28.5518 72.8379 28.5166C72.8555 28.4814 72.8906 28.4287 72.9434 28.3584C73.002 28.2881 73.0547 28.2148 73.1016 28.1387C73.4766 27.5117 73.6641 26.5859 73.6641 25.3613C73.6641 25.1797 73.6611 25.0391 73.6553 24.9395C73.6553 24.834 73.6436 24.7227 73.6201 24.6055C73.6025 24.4824 73.5762 24.3887 73.541 24.3242C73.5059 24.2598 73.4531 24.207 73.3828 24.166C73.3184 24.125 73.2363 24.1045 73.1367 24.1045ZM74.3057 17.4424C74.3057 17.6709 74.1533 17.9023 73.8486 18.1367C73.5498 18.3711 73.2891 18.4883 73.0664 18.4883C72.9023 18.4883 72.6855 18.4355 72.416 18.3301C72.1465 18.2188 71.8242 18.1104 71.4492 18.0049C71.0742 17.8936 70.6787 17.8379 70.2627 17.8379C69.6592 17.8379 69.0557 17.958 68.4521 18.1982C67.8486 18.4385 67.3184 18.7578 66.8613 19.1562C66.5625 19.4199 66.3691 19.5518 66.2812 19.5518C66.1465 19.5518 66.0791 19.4785 66.0791 19.332C66.0791 19.2324 66.1318 19.0918 66.2373 18.9102C66.3428 18.7227 66.4482 18.5703 66.5537 18.4531C67.1748 17.7676 67.8633 17.2549 68.6191 16.915C69.3809 16.5693 70.2803 16.3965 71.3174 16.3965C72.0264 16.3965 72.7002 16.499 73.3389 16.7041C73.9834 16.9033 74.3057 17.1494 74.3057 17.4424ZM80.3789 19.7275C80.8711 19.7275 81.3135 19.792 81.7061 19.9209C82.0986 20.0498 82.4297 20.2578 82.6992 20.5449C82.9688 20.8262 83.1738 21.1924 83.3145 21.6436C83.4609 22.0889 83.5342 22.6279 83.5342 23.2607V28.0244C83.5342 28.1709 83.4873 28.3086 83.3936 28.4375C83.3057 28.5664 83.1943 28.6807 83.0596 28.7803C82.9307 28.874 82.79 28.9473 82.6377 29C82.4912 29.0586 82.3623 29.0879 82.251 29.0879C82.0459 29.0879 81.9434 28.9619 81.9434 28.71V23.5859C81.9434 21.8574 81.2578 20.9932 79.8867 20.9932C79.0898 20.9932 78.3662 21.2129 77.7158 21.6523C77.458 21.8223 77.291 21.9072 77.2148 21.9072C77.127 21.9072 77.083 21.8604 77.083 21.7666C77.083 21.6025 77.1738 21.4092 77.3555 21.1865C78.1523 20.2139 79.1602 19.7275 80.3789 19.7275ZM81.2754 28.5078C81.0293 28.7305 80.7246 28.9121 80.3613 29.0527C79.998 29.1992 79.6494 29.2725 79.3154 29.2725C78.5361 29.2725 77.9385 29.0674 77.5225 28.6572C77.1123 28.2412 76.9072 27.7314 76.9072 27.1279C76.9072 26.6943 77.0566 26.3633 77.3555 26.1348C77.625 25.9238 77.8594 25.8184 78.0586 25.8184C78.123 25.8184 78.1787 25.8418 78.2256 25.8887C78.2725 25.9355 78.2959 26.0059 78.2959 26.0996C78.2959 26.7676 78.4102 27.2539 78.6387 27.5586C78.8672 27.8574 79.2744 28.0068 79.8604 28.0068C80.0361 28.0068 80.25 27.9775 80.502 27.9189C80.7539 27.8545 80.9678 27.7695 81.1436 27.6641C81.249 27.5996 81.3281 27.5674 81.3809 27.5674C81.4629 27.5674 81.5039 27.6758 81.5039 27.8926C81.5039 28.1621 81.4277 28.3672 81.2754 28.5078ZM81.2051 23.7617C81.3164 23.8203 81.3926 23.8994 81.4336 23.999C81.4746 24.0928 81.4951 24.2715 81.4951 24.5352C81.4951 24.7695 81.4746 24.9395 81.4336 25.0449C81.3984 25.1445 81.3311 25.1943 81.2314 25.1943C81.167 25.1943 81.0762 25.168 80.959 25.1152C80.4082 24.875 79.9102 24.7549 79.4648 24.7549C78.7441 24.7549 78.0586 25.0156 77.4082 25.5371C77.2031 25.7012 77.0654 25.7832 76.9951 25.7832C76.9014 25.7832 76.8545 25.7305 76.8545 25.625C76.8545 25.4609 76.9131 25.2822 77.0303 25.0889C77.3408 24.5674 77.748 24.1719 78.252 23.9023C78.7617 23.627 79.3271 23.4893 79.9482 23.4893C80.4229 23.4893 80.8418 23.5801 81.2051 23.7617ZM85.7139 28.71V23.9814C85.7139 23.6475 85.793 23.3955 85.9512 23.2256C86.1152 23.0381 86.3027 22.874 86.5137 22.7334C86.7246 22.5928 86.8945 22.5225 87.0234 22.5225C87.2051 22.5225 87.2959 22.6484 87.2959 22.9004V27.9541C87.2959 28.2705 87.1494 28.54 86.8564 28.7627C86.5693 28.9795 86.291 29.0879 86.0215 29.0879C85.8164 29.0879 85.7139 28.9619 85.7139 28.71ZM91.541 20.6064C91.6113 20.6709 91.6699 20.7207 91.7168 20.7559C91.7637 20.791 91.8047 20.8145 91.8398 20.8262C91.8809 20.8379 91.9277 20.8438 91.9805 20.8438C92.1211 20.8438 92.3906 20.7178 92.7891 20.4658C93.5625 19.9736 94.2422 19.7275 94.8281 19.7275C95.7422 19.7275 96.4219 20.0176 96.8672 20.5977C97.3184 21.1719 97.5439 22.124 97.5439 23.4541V27.9014C97.5439 28.2178 97.3975 28.4961 97.1045 28.7363C96.8174 28.9707 96.542 29.0879 96.2783 29.0879C96.0732 29.0879 95.9707 28.9619 95.9707 28.71V25.2383C95.9707 24.8516 95.9678 24.5352 95.9619 24.2891C95.9561 24.043 95.9443 23.7676 95.9268 23.4629C95.9092 23.1582 95.8828 22.9121 95.8477 22.7246C95.8125 22.5371 95.7627 22.3379 95.6982 22.127C95.6396 21.916 95.5635 21.752 95.4697 21.6348C95.376 21.5117 95.2617 21.3975 95.127 21.292C94.998 21.1807 94.8428 21.1045 94.6611 21.0635C94.4854 21.0166 94.2832 20.9932 94.0547 20.9932C93.6445 20.9932 93.2432 21.1045 92.8506 21.3271C92.458 21.5439 91.916 21.9248 91.2246 22.4697C91.043 22.6045 90.9111 22.6719 90.8291 22.6719C90.7588 22.6719 90.6973 22.6133 90.6445 22.4961C90.6211 22.4434 90.5977 22.373 90.5742 22.2852C90.4453 21.8398 90.2695 21.5146 90.0469 21.3096C89.8242 21.0986 89.4902 20.9932 89.0449 20.9932C88.6992 20.9932 88.3154 21.0957 87.8936 21.3008C87.4775 21.5059 86.9561 21.8516 86.3291 22.3379C86.1357 22.4844 85.9922 22.5576 85.8984 22.5576C85.7754 22.5576 85.7139 22.4639 85.7139 22.2764V20.835C85.7139 20.5244 85.8604 20.2637 86.1533 20.0527C86.4463 19.8359 86.7275 19.7275 86.9971 19.7275C87.2021 19.7275 87.3047 19.8535 87.3047 20.1055V20.3252C87.3047 20.5303 87.3486 20.6328 87.4365 20.6328C87.4951 20.6328 87.6123 20.5771 87.7881 20.4658C88.5322 19.9736 89.1797 19.7275 89.7305 19.7275C90.0586 19.7275 90.334 19.7686 90.5566 19.8506C90.7852 19.9326 91.1133 20.1846 91.541 20.6064ZM90.7939 28.71V23.9814C90.7939 23.6533 90.873 23.4014 91.0312 23.2256C91.1895 23.0439 91.377 22.8828 91.5938 22.7422C91.8105 22.5957 91.9805 22.5225 92.1035 22.5225C92.2852 22.5225 92.376 22.6484 92.376 22.9004V27.9014C92.376 28.165 92.3232 28.3643 92.2178 28.499C92.0713 28.6748 91.8926 28.8184 91.6816 28.9297C91.4707 29.0352 91.2773 29.0879 91.1016 29.0879C90.8965 29.0879 90.7939 28.9619 90.7939 28.71ZM101.06 23.4014C101.06 23.5654 101.109 23.6709 101.209 23.7178C101.314 23.7588 101.467 23.7793 101.666 23.7793C102.176 23.7793 102.612 23.7354 102.976 23.6475C103.339 23.5596 103.617 23.4365 103.811 23.2783C104.004 23.1201 104.142 22.9531 104.224 22.7773C104.312 22.6016 104.355 22.4082 104.355 22.1973C104.355 21.834 104.229 21.5439 103.978 21.3271C103.726 21.1045 103.321 20.9932 102.765 20.9932C101.892 20.9932 101.071 21.2686 100.304 21.8193C100.075 21.9893 99.9316 22.0742 99.873 22.0742C99.7734 22.0742 99.7236 22.0186 99.7236 21.9072C99.7236 21.7607 99.8086 21.582 99.9785 21.3711C100.295 20.9668 100.655 20.6357 101.06 20.3779C101.464 20.1201 101.833 19.9473 102.167 19.8594C102.501 19.7715 102.832 19.7275 103.16 19.7275C103.582 19.7275 103.963 19.7715 104.303 19.8594C104.643 19.9473 104.944 20.085 105.208 20.2725C105.472 20.4541 105.677 20.7061 105.823 21.0283C105.97 21.3447 106.043 21.7168 106.043 22.1445C106.043 23.0586 105.606 23.7646 104.733 24.2627C103.866 24.7549 102.68 25.001 101.174 25.001C100.752 25.001 100.274 24.9775 99.7412 24.9307C99.4775 24.9131 99.3457 24.7842 99.3457 24.5439C99.3457 23.8936 99.4395 23.4072 99.627 23.085C99.8145 22.7568 100.058 22.5049 100.356 22.3291C100.649 22.1592 100.872 22.0742 101.024 22.0742C101.165 22.0742 101.235 22.1621 101.235 22.3379C101.235 22.4082 101.206 22.5811 101.147 22.8564C101.089 23.126 101.06 23.3076 101.06 23.4014ZM99.416 25.8535C99.416 25.5488 99.5566 25.3965 99.8379 25.3965H100.594C100.746 25.3965 100.852 25.4258 100.91 25.4844C100.975 25.543 101.024 25.6719 101.06 25.8711C101.288 27.2949 102.067 28.0068 103.397 28.0068C103.731 28.0068 104.045 27.9658 104.338 27.8838C104.631 27.8018 104.856 27.7109 105.015 27.6113C105.179 27.5117 105.328 27.4209 105.463 27.3389C105.604 27.2568 105.706 27.2158 105.771 27.2158C105.905 27.2158 105.973 27.2891 105.973 27.4355C105.973 27.5586 105.905 27.7168 105.771 27.9102C105.636 28.1035 105.442 28.3057 105.19 28.5166C104.944 28.7217 104.602 28.8975 104.162 29.0439C103.729 29.1963 103.257 29.2725 102.747 29.2725C101.692 29.2725 100.872 28.9561 100.286 28.3232C99.7061 27.6846 99.416 26.8613 99.416 25.8535Z" fill="#232323"/>
</g>
<defs>
<filter id="filter0_d_384_4752" x="0" y="0" width="139.55" height="48.5503" filterUnits="userSpaceOnUse" color-interpolation-filters="sRGB">
<feFlood flood-opacity="0" result="BackgroundImageFix"/>
<feColorMatrix in="SourceAlpha" type="matrix" values="0 0 0 0 0 0 0 0 0 0 0 0 0 0 0 0 0 0 127 0" result="hardAlpha"/>
<feOffset dx="3.5503" dy="3.5503"/>
<feComposite in2="hardAlpha" operator="out"/>
<feColorMatrix type="matrix" values="0 0 0 0 0.501961 0 0 0 0 0.501961 0 0 0 0 0.501961 0 0 0 1 0"/>
<feBlend mode="normal" in2="BackgroundImageFix" result="effect1_dropShadow_384_4752"/>
<feBlend mode="normal" in="SourceGraphic" in2="effect1_dropShadow_384_4752" result="shape"/>
</filter>
</defs>
</svg>
