<svg width="424" height="227" viewBox="0 0 424 227" fill="none" xmlns="http://www.w3.org/2000/svg">
<rect width="424" height="226.523" rx="8" fill="#F5F5F5"/>
<path d="M268.46 25.44C268.76 25.8267 269.087 26.1 269.44 26.26C269.8 26.4133 270.197 26.49 270.63 26.49C271.47 26.49 272.123 26.1833 272.59 25.57C273.063 24.9567 273.3 24.0433 273.3 22.83C273.3 22.2033 273.247 21.67 273.14 21.23C273.033 20.7833 272.88 20.42 272.68 20.14C272.48 19.86 272.237 19.6567 271.95 19.53C271.663 19.4033 271.34 19.34 270.98 19.34C270.433 19.34 269.96 19.46 269.56 19.7C269.167 19.9333 268.8 20.27 268.46 20.71V25.44ZM268.35 19.28C268.777 18.78 269.26 18.3767 269.8 18.07C270.347 17.7633 270.98 17.61 271.7 17.61C272.273 17.61 272.793 17.7267 273.26 17.96C273.727 18.1867 274.127 18.52 274.46 18.96C274.793 19.4 275.05 19.9467 275.23 20.6C275.417 21.2467 275.51 21.99 275.51 22.83C275.51 23.5833 275.407 24.2867 275.2 24.94C275 25.5867 274.71 26.15 274.33 26.63C273.95 27.1033 273.49 27.4767 272.95 27.75C272.41 28.0167 271.8 28.15 271.12 28.15C270.52 28.15 270.01 28.0533 269.59 27.86C269.177 27.6667 268.8 27.4 268.46 27.06V31.39H266.31V17.8H267.61C267.903 17.8 268.09 17.9367 268.17 18.21L268.35 19.28ZM279.629 19.69C279.949 19.0433 280.336 18.5367 280.789 18.17C281.242 17.7967 281.786 17.61 282.419 17.61C282.639 17.61 282.846 17.6367 283.039 17.69C283.232 17.7367 283.406 17.81 283.559 17.91L283.409 19.53C283.382 19.6433 283.339 19.7233 283.279 19.77C283.226 19.81 283.152 19.83 283.059 19.83C282.959 19.83 282.816 19.8133 282.629 19.78C282.442 19.74 282.246 19.72 282.039 19.72C281.739 19.72 281.472 19.7633 281.239 19.85C281.012 19.9367 280.806 20.0633 280.619 20.23C280.439 20.3967 280.279 20.6 280.139 20.84C279.999 21.08 279.869 21.3533 279.749 21.66V28H277.599V17.8H278.849C279.076 17.8 279.232 17.8433 279.319 17.93C279.406 18.01 279.466 18.1533 279.499 18.36L279.629 19.69ZM287.222 17.8V28H285.072V17.8H287.222ZM287.582 14.72C287.582 14.9133 287.542 15.0967 287.462 15.27C287.389 15.4433 287.285 15.5967 287.152 15.73C287.019 15.8567 286.862 15.96 286.682 16.04C286.509 16.1133 286.322 16.15 286.122 16.15C285.929 16.15 285.745 16.1133 285.572 16.04C285.405 15.96 285.259 15.8567 285.132 15.73C285.005 15.5967 284.902 15.4433 284.822 15.27C284.749 15.0967 284.712 14.9133 284.712 14.72C284.712 14.52 284.749 14.3333 284.822 14.16C284.902 13.9867 285.005 13.8367 285.132 13.71C285.259 13.5767 285.405 13.4733 285.572 13.4C285.745 13.32 285.929 13.28 286.122 13.28C286.322 13.28 286.509 13.32 286.682 13.4C286.862 13.4733 287.019 13.5767 287.152 13.71C287.285 13.8367 287.389 13.9867 287.462 14.16C287.542 14.3333 287.582 14.52 287.582 14.72ZM289.923 28V17.8H291.223C291.517 17.8 291.703 17.9367 291.783 18.21L291.923 19.1C292.11 18.8867 292.303 18.6933 292.503 18.52C292.703 18.34 292.917 18.1867 293.143 18.06C293.377 17.9267 293.623 17.8233 293.883 17.75C294.15 17.6767 294.437 17.64 294.743 17.64C295.07 17.64 295.37 17.6867 295.643 17.78C295.917 17.8733 296.157 18.0067 296.363 18.18C296.577 18.3533 296.76 18.5633 296.913 18.81C297.067 19.0567 297.193 19.3333 297.293 19.64C297.447 19.2867 297.64 18.9833 297.873 18.73C298.107 18.4767 298.367 18.27 298.653 18.11C298.94 17.95 299.243 17.8333 299.563 17.76C299.89 17.68 300.22 17.64 300.553 17.64C301.1 17.64 301.587 17.7267 302.013 17.9C302.447 18.0733 302.81 18.3267 303.103 18.66C303.403 18.9867 303.63 19.39 303.783 19.87C303.937 20.35 304.013 20.8967 304.013 21.51V28H301.863V21.51C301.863 20.79 301.707 20.25 301.393 19.89C301.087 19.5233 300.63 19.34 300.023 19.34C299.75 19.34 299.493 19.3867 299.253 19.48C299.013 19.5733 298.803 19.71 298.623 19.89C298.443 20.07 298.3 20.2967 298.193 20.57C298.093 20.8367 298.043 21.15 298.043 21.51V28H295.893V21.51C295.893 20.7633 295.743 20.2167 295.443 19.87C295.143 19.5167 294.703 19.34 294.123 19.34C293.723 19.34 293.353 19.4433 293.013 19.65C292.673 19.85 292.36 20.1267 292.073 20.48V28H289.923ZM311.975 23.54C311.208 23.5667 310.562 23.63 310.035 23.73C309.508 23.8233 309.082 23.9467 308.755 24.1C308.428 24.2467 308.192 24.4233 308.045 24.63C307.905 24.8367 307.835 25.0633 307.835 25.31C307.835 25.55 307.872 25.7567 307.945 25.93C308.025 26.0967 308.132 26.2367 308.265 26.35C308.405 26.4567 308.565 26.5367 308.745 26.59C308.932 26.6367 309.135 26.66 309.355 26.66C309.915 26.66 310.395 26.5567 310.795 26.35C311.202 26.1367 311.595 25.83 311.975 25.43V23.54ZM306.275 19.22C307.428 18.1467 308.802 17.61 310.395 17.61C310.982 17.61 311.502 17.7067 311.955 17.9C312.415 18.0867 312.798 18.3533 313.105 18.7C313.418 19.0467 313.655 19.46 313.815 19.94C313.982 20.4133 314.065 20.94 314.065 21.52V28H313.105C312.898 28 312.742 27.97 312.635 27.91C312.528 27.8433 312.438 27.7133 312.365 27.52L312.155 26.69C311.895 26.9233 311.638 27.1333 311.385 27.32C311.132 27.5 310.868 27.6533 310.595 27.78C310.328 27.9067 310.038 28 309.725 28.06C309.418 28.1267 309.078 28.16 308.705 28.16C308.292 28.16 307.905 28.1033 307.545 27.99C307.192 27.8767 306.885 27.7067 306.625 27.48C306.365 27.2467 306.158 26.96 306.005 26.62C305.858 26.28 305.785 25.88 305.785 25.42C305.785 25.0267 305.888 24.6433 306.095 24.27C306.308 23.8967 306.655 23.5633 307.135 23.27C307.622 22.97 308.258 22.7233 309.045 22.53C309.838 22.3367 310.815 22.2267 311.975 22.2V21.52C311.975 20.7867 311.818 20.24 311.505 19.88C311.192 19.52 310.732 19.34 310.125 19.34C309.712 19.34 309.365 19.3933 309.085 19.5C308.805 19.6 308.562 19.71 308.355 19.83C308.148 19.95 307.965 20.0633 307.805 20.17C307.645 20.27 307.475 20.32 307.295 20.32C307.148 20.32 307.022 20.2833 306.915 20.21C306.815 20.13 306.732 20.0333 306.665 19.92L306.275 19.22ZM318.613 19.69C318.933 19.0433 319.32 18.5367 319.773 18.17C320.227 17.7967 320.77 17.61 321.403 17.61C321.623 17.61 321.83 17.6367 322.023 17.69C322.217 17.7367 322.39 17.81 322.543 17.91L322.393 19.53C322.367 19.6433 322.323 19.7233 322.263 19.77C322.21 19.81 322.137 19.83 322.043 19.83C321.943 19.83 321.8 19.8133 321.613 19.78C321.427 19.74 321.23 19.72 321.023 19.72C320.723 19.72 320.457 19.7633 320.223 19.85C319.997 19.9367 319.79 20.0633 319.603 20.23C319.423 20.3967 319.263 20.6 319.123 20.84C318.983 21.08 318.853 21.3533 318.733 21.66V28H316.583V17.8H317.833C318.06 17.8 318.217 17.8433 318.303 17.93C318.39 18.01 318.45 18.1533 318.483 18.36L318.613 19.69ZM333.016 17.8L327.396 30.9C327.323 31.0533 327.233 31.1733 327.126 31.26C327.026 31.3467 326.87 31.39 326.656 31.39H325.066L326.946 27.31L322.786 17.8H324.656C324.836 17.8 324.973 17.8433 325.066 17.93C325.166 18.01 325.24 18.1067 325.286 18.22L327.716 24.01C327.776 24.1767 327.83 24.3433 327.876 24.51C327.93 24.67 327.98 24.8367 328.026 25.01C328.08 24.8367 328.133 24.6667 328.186 24.5C328.24 24.3333 328.3 24.1667 328.366 24L330.696 18.22C330.743 18.1 330.82 18 330.926 17.92C331.04 17.84 331.163 17.8 331.296 17.8H333.016ZM335.004 28.11C334.904 28.3833 334.744 28.5867 334.524 28.72C334.304 28.86 334.081 28.93 333.854 28.93H332.944L338.864 13.97C338.958 13.7233 339.101 13.5333 339.294 13.4C339.494 13.2667 339.721 13.2 339.974 13.2H340.884L335.004 28.11ZM347.463 23.54C346.696 23.5667 346.05 23.63 345.523 23.73C344.996 23.8233 344.57 23.9467 344.243 24.1C343.916 24.2467 343.68 24.4233 343.533 24.63C343.393 24.8367 343.323 25.0633 343.323 25.31C343.323 25.55 343.36 25.7567 343.433 25.93C343.513 26.0967 343.62 26.2367 343.753 26.35C343.893 26.4567 344.053 26.5367 344.233 26.59C344.42 26.6367 344.623 26.66 344.843 26.66C345.403 26.66 345.883 26.5567 346.283 26.35C346.69 26.1367 347.083 25.83 347.463 25.43V23.54ZM341.763 19.22C342.916 18.1467 344.29 17.61 345.883 17.61C346.47 17.61 346.99 17.7067 347.443 17.9C347.903 18.0867 348.286 18.3533 348.593 18.7C348.906 19.0467 349.143 19.46 349.303 19.94C349.47 20.4133 349.553 20.94 349.553 21.52V28H348.593C348.386 28 348.23 27.97 348.123 27.91C348.016 27.8433 347.926 27.7133 347.853 27.52L347.643 26.69C347.383 26.9233 347.126 27.1333 346.873 27.32C346.62 27.5 346.356 27.6533 346.083 27.78C345.816 27.9067 345.526 28 345.213 28.06C344.906 28.1267 344.566 28.16 344.193 28.16C343.78 28.16 343.393 28.1033 343.033 27.99C342.68 27.8767 342.373 27.7067 342.113 27.48C341.853 27.2467 341.646 26.96 341.493 26.62C341.346 26.28 341.273 25.88 341.273 25.42C341.273 25.0267 341.376 24.6433 341.583 24.27C341.796 23.8967 342.143 23.5633 342.623 23.27C343.11 22.97 343.746 22.7233 344.533 22.53C345.326 22.3367 346.303 22.2267 347.463 22.2V21.52C347.463 20.7867 347.306 20.24 346.993 19.88C346.68 19.52 346.22 19.34 345.613 19.34C345.2 19.34 344.853 19.3933 344.573 19.5C344.293 19.6 344.05 19.71 343.843 19.83C343.636 19.95 343.453 20.0633 343.293 20.17C343.133 20.27 342.963 20.32 342.783 20.32C342.636 20.32 342.51 20.2833 342.403 20.21C342.303 20.13 342.22 20.0333 342.153 19.92L341.763 19.22ZM358.582 20.31C358.282 19.93 357.952 19.6633 357.592 19.51C357.232 19.35 356.842 19.27 356.422 19.27C355.582 19.27 354.925 19.58 354.452 20.2C353.978 20.8133 353.742 21.7233 353.742 22.93C353.742 23.5567 353.795 24.0933 353.902 24.54C354.008 24.98 354.162 25.34 354.362 25.62C354.562 25.9 354.805 26.1033 355.092 26.23C355.378 26.3567 355.702 26.42 356.062 26.42C356.608 26.42 357.078 26.3033 357.472 26.07C357.872 25.83 358.242 25.4933 358.582 25.06V20.31ZM360.732 17.8V31.39H358.582V26.61C358.162 27.07 357.688 27.4433 357.162 27.73C356.642 28.01 356.035 28.15 355.342 28.15C354.768 28.15 354.248 28.0367 353.782 27.81C353.315 27.5767 352.915 27.24 352.582 26.8C352.248 26.36 351.988 25.8167 351.802 25.17C351.622 24.5167 351.532 23.77 351.532 22.93C351.532 22.17 351.632 21.4667 351.832 20.82C352.038 20.1733 352.332 19.6133 352.712 19.14C353.092 18.66 353.552 18.2867 354.092 18.02C354.638 17.7467 355.248 17.61 355.922 17.61C356.248 17.61 356.545 17.64 356.812 17.7C357.085 17.7533 357.335 17.8367 357.562 17.95C357.795 18.0567 358.008 18.19 358.202 18.35C358.395 18.5033 358.578 18.68 358.752 18.88L358.882 18.21C358.962 17.9367 359.145 17.8 359.432 17.8H360.732ZM371.961 17.8V28H370.661C370.374 28 370.191 27.8633 370.111 27.59L369.951 26.64C369.737 26.8667 369.511 27.0733 369.271 27.26C369.037 27.4467 368.787 27.6067 368.521 27.74C368.254 27.8733 367.967 27.9767 367.661 28.05C367.361 28.1233 367.037 28.16 366.691 28.16C366.131 28.16 365.637 28.0667 365.211 27.88C364.784 27.6933 364.424 27.43 364.131 27.09C363.844 26.75 363.627 26.3433 363.481 25.87C363.334 25.39 363.261 24.8633 363.261 24.29V17.8H365.411V24.29C365.411 24.9767 365.567 25.51 365.881 25.89C366.201 26.27 366.684 26.46 367.331 26.46C367.804 26.46 368.244 26.3533 368.651 26.14C369.064 25.92 369.451 25.62 369.811 25.24V17.8H371.961ZM380.022 23.54C379.255 23.5667 378.608 23.63 378.082 23.73C377.555 23.8233 377.128 23.9467 376.802 24.1C376.475 24.2467 376.238 24.4233 376.092 24.63C375.952 24.8367 375.882 25.0633 375.882 25.31C375.882 25.55 375.918 25.7567 375.992 25.93C376.072 26.0967 376.178 26.2367 376.312 26.35C376.452 26.4567 376.612 26.5367 376.792 26.59C376.978 26.6367 377.182 26.66 377.402 26.66C377.962 26.66 378.442 26.5567 378.842 26.35C379.248 26.1367 379.642 25.83 380.022 25.43V23.54ZM374.322 19.22C375.475 18.1467 376.848 17.61 378.442 17.61C379.028 17.61 379.548 17.7067 380.002 17.9C380.462 18.0867 380.845 18.3533 381.152 18.7C381.465 19.0467 381.702 19.46 381.862 19.94C382.028 20.4133 382.112 20.94 382.112 21.52V28H381.152C380.945 28 380.788 27.97 380.682 27.91C380.575 27.8433 380.485 27.7133 380.412 27.52L380.202 26.69C379.942 26.9233 379.685 27.1333 379.432 27.32C379.178 27.5 378.915 27.6533 378.642 27.78C378.375 27.9067 378.085 28 377.772 28.06C377.465 28.1267 377.125 28.16 376.752 28.16C376.338 28.16 375.952 28.1033 375.592 27.99C375.238 27.8767 374.932 27.7067 374.672 27.48C374.412 27.2467 374.205 26.96 374.052 26.62C373.905 26.28 373.832 25.88 373.832 25.42C373.832 25.0267 373.935 24.6433 374.142 24.27C374.355 23.8967 374.702 23.5633 375.182 23.27C375.668 22.97 376.305 22.7233 377.092 22.53C377.885 22.3367 378.862 22.2267 380.022 22.2V21.52C380.022 20.7867 379.865 20.24 379.552 19.88C379.238 19.52 378.778 19.34 378.172 19.34C377.758 19.34 377.412 19.3933 377.132 19.5C376.852 19.6 376.608 19.71 376.402 19.83C376.195 19.95 376.012 20.0633 375.852 20.17C375.692 20.27 375.522 20.32 375.342 20.32C375.195 20.32 375.068 20.2833 374.962 20.21C374.862 20.13 374.778 20.0333 374.712 19.92L374.322 19.22Z" fill="black"/>
<path d="M60.521 19.8C60.4543 19.8867 60.391 19.9533 60.331 20C60.271 20.0467 60.1843 20.07 60.071 20.07C59.9576 20.07 59.8376 20.03 59.711 19.95C59.591 19.87 59.4443 19.7833 59.271 19.69C59.1043 19.59 58.901 19.5 58.661 19.42C58.421 19.34 58.121 19.3 57.761 19.3C57.2943 19.3 56.8843 19.3833 56.531 19.55C56.1843 19.7167 55.891 19.9567 55.651 20.27C55.4176 20.5767 55.241 20.9533 55.121 21.4C55.0076 21.84 54.951 22.3367 54.951 22.89C54.951 23.4633 55.0143 23.9733 55.141 24.42C55.2676 24.8667 55.4476 25.2433 55.681 25.55C55.921 25.8567 56.2076 26.09 56.541 26.25C56.881 26.41 57.261 26.49 57.681 26.49C58.0943 26.49 58.431 26.44 58.691 26.34C58.951 26.24 59.1676 26.13 59.341 26.01C59.5143 25.89 59.661 25.78 59.781 25.68C59.9076 25.58 60.041 25.53 60.181 25.53C60.3543 25.53 60.4876 25.5967 60.581 25.73L61.191 26.52C60.9443 26.82 60.671 27.0733 60.371 27.28C60.071 27.4867 59.7543 27.6567 59.421 27.79C59.0876 27.9167 58.741 28.0067 58.381 28.06C58.021 28.12 57.6576 28.15 57.291 28.15C56.6576 28.15 56.0643 28.0333 55.511 27.8C54.9643 27.56 54.4843 27.2167 54.071 26.77C53.6643 26.3167 53.341 25.7667 53.101 25.12C52.8676 24.4667 52.751 23.7233 52.751 22.89C52.751 22.1367 52.8576 21.44 53.071 20.8C53.2843 20.1533 53.5943 19.5967 54.001 19.13C54.4143 18.6633 54.9243 18.3 55.531 18.04C56.1376 17.7733 56.8376 17.64 57.631 17.64C58.371 17.64 59.021 17.76 59.581 18C60.1476 18.24 60.651 18.58 61.091 19.02L60.521 19.8ZM68.3704 23.54C67.6037 23.5667 66.957 23.63 66.4304 23.73C65.9037 23.8233 65.477 23.9467 65.1504 24.1C64.8237 24.2467 64.587 24.4233 64.4404 24.63C64.3004 24.8367 64.2304 25.0633 64.2304 25.31C64.2304 25.55 64.267 25.7567 64.3404 25.93C64.4204 26.0967 64.527 26.2367 64.6604 26.35C64.8004 26.4567 64.9604 26.5367 65.1404 26.59C65.327 26.6367 65.5304 26.66 65.7504 26.66C66.3104 26.66 66.7904 26.5567 67.1904 26.35C67.597 26.1367 67.9904 25.83 68.3704 25.43V23.54ZM62.6704 19.22C63.8237 18.1467 65.197 17.61 66.7904 17.61C67.377 17.61 67.897 17.7067 68.3504 17.9C68.8104 18.0867 69.1937 18.3533 69.5004 18.7C69.8137 19.0467 70.0504 19.46 70.2104 19.94C70.377 20.4133 70.4604 20.94 70.4604 21.52V28H69.5004C69.2937 28 69.137 27.97 69.0304 27.91C68.9237 27.8433 68.8337 27.7133 68.7604 27.52L68.5504 26.69C68.2904 26.9233 68.0337 27.1333 67.7804 27.32C67.527 27.5 67.2637 27.6533 66.9904 27.78C66.7237 27.9067 66.4337 28 66.1204 28.06C65.8137 28.1267 65.4737 28.16 65.1004 28.16C64.687 28.16 64.3004 28.1033 63.9404 27.99C63.587 27.8767 63.2804 27.7067 63.0204 27.48C62.7604 27.2467 62.5537 26.96 62.4004 26.62C62.2537 26.28 62.1804 25.88 62.1804 25.42C62.1804 25.0267 62.2837 24.6433 62.4904 24.27C62.7037 23.8967 63.0504 23.5633 63.5304 23.27C64.017 22.97 64.6537 22.7233 65.4404 22.53C66.2337 22.3367 67.2104 22.2267 68.3704 22.2V21.52C68.3704 20.7867 68.2137 20.24 67.9004 19.88C67.587 19.52 67.127 19.34 66.5204 19.34C66.107 19.34 65.7604 19.3933 65.4804 19.5C65.2004 19.6 64.957 19.71 64.7504 19.83C64.5437 19.95 64.3604 20.0633 64.2004 20.17C64.0404 20.27 63.8704 20.32 63.6904 20.32C63.5437 20.32 63.417 20.2833 63.3104 20.21C63.2104 20.13 63.127 20.0333 63.0604 19.92L62.6704 19.22ZM76.1122 28.16C75.2656 28.16 74.6122 27.9233 74.1522 27.45C73.6989 26.97 73.4722 26.2967 73.4722 25.43V19.49H72.3522C72.2322 19.49 72.1289 19.4533 72.0422 19.38C71.9556 19.3 71.9122 19.1833 71.9122 19.03V18.16L73.5622 17.92L74.0322 14.97C74.0656 14.8567 74.1222 14.7667 74.2022 14.7C74.2822 14.6267 74.3889 14.59 74.5222 14.59H75.6222V17.94H78.4522V19.49H75.6222V25.28C75.6222 25.6467 75.7122 25.9267 75.8922 26.12C76.0722 26.3133 76.3122 26.41 76.6122 26.41C76.7789 26.41 76.9222 26.39 77.0422 26.35C77.1622 26.3033 77.2656 26.2567 77.3522 26.21C77.4389 26.1567 77.5122 26.11 77.5722 26.07C77.6389 26.0233 77.7022 26 77.7622 26C77.8822 26 77.9789 26.0667 78.0522 26.2L78.6922 27.25C78.3589 27.5433 77.9656 27.77 77.5122 27.93C77.0589 28.0833 76.5922 28.16 76.1122 28.16ZM86.7588 21.75C86.7588 21.39 86.7055 21.0567 86.5988 20.75C86.4988 20.4367 86.3488 20.1667 86.1488 19.94C85.9488 19.7067 85.6988 19.5267 85.3988 19.4C85.1055 19.2667 84.7655 19.2 84.3788 19.2C83.5988 19.2 82.9855 19.4233 82.5388 19.87C82.0921 20.3167 81.8088 20.9433 81.6888 21.75H86.7588ZM81.6288 23.07C81.6555 23.65 81.7455 24.1533 81.8988 24.58C82.0521 25 82.2555 25.35 82.5088 25.63C82.7688 25.91 83.0755 26.12 83.4288 26.26C83.7888 26.3933 84.1888 26.46 84.6288 26.46C85.0488 26.46 85.4121 26.4133 85.7188 26.32C86.0255 26.22 86.2921 26.1133 86.5188 26C86.7455 25.88 86.9388 25.7733 87.0988 25.68C87.2588 25.58 87.4055 25.53 87.5388 25.53C87.7121 25.53 87.8455 25.5967 87.9388 25.73L88.5488 26.52C88.2955 26.82 88.0088 27.0733 87.6888 27.28C87.3688 27.4867 87.0288 27.6567 86.6688 27.79C86.3088 27.9167 85.9388 28.0067 85.5588 28.06C85.1788 28.12 84.8088 28.15 84.4488 28.15C83.7421 28.15 83.0855 28.0333 82.4788 27.8C81.8788 27.56 81.3555 27.21 80.9088 26.75C80.4688 26.29 80.1221 25.72 79.8688 25.04C79.6221 24.36 79.4988 23.5767 79.4988 22.69C79.4988 21.9833 79.6088 21.3233 79.8288 20.71C80.0555 20.0967 80.3755 19.5633 80.7888 19.11C81.2088 18.6567 81.7155 18.3 82.3088 18.04C82.9088 17.7733 83.5855 17.64 84.3388 17.64C84.9655 17.64 85.5455 17.7433 86.0788 17.95C86.6121 18.15 87.0721 18.4467 87.4588 18.84C87.8455 19.2333 88.1455 19.7167 88.3588 20.29C88.5788 20.8567 88.6888 21.5033 88.6888 22.23C88.6888 22.5633 88.6521 22.7867 88.5788 22.9C88.5055 23.0133 88.3721 23.07 88.1788 23.07H81.6288ZM94.3338 22.81C95.0005 22.81 95.5005 22.64 95.8338 22.3C96.1671 21.96 96.3338 21.5167 96.3338 20.97C96.3338 20.41 96.1671 19.9667 95.8338 19.64C95.5005 19.3133 95.0005 19.15 94.3338 19.15C93.6738 19.15 93.1738 19.3133 92.8338 19.64C92.5005 19.9667 92.3338 20.41 92.3338 20.97C92.3338 21.2367 92.3771 21.4833 92.4638 21.71C92.5505 21.9367 92.6771 22.1333 92.8438 22.3C93.0105 22.46 93.2171 22.5867 93.4638 22.68C93.7171 22.7667 94.0071 22.81 94.3338 22.81ZM97.3238 28.5C97.3238 28.2733 97.2571 28.0933 97.1238 27.96C96.9971 27.82 96.8238 27.7133 96.6038 27.64C96.3838 27.56 96.1271 27.5033 95.8338 27.47C95.5405 27.43 95.2271 27.4033 94.8938 27.39C94.5671 27.37 94.2305 27.3533 93.8838 27.34C93.5438 27.32 93.2138 27.2867 92.8938 27.24C92.5738 27.4067 92.3105 27.6067 92.1038 27.84C91.9038 28.0733 91.8038 28.3433 91.8038 28.65C91.8038 28.85 91.8538 29.0367 91.9538 29.21C92.0605 29.3833 92.2205 29.5333 92.4338 29.66C92.6538 29.7867 92.9305 29.8867 93.2638 29.96C93.6038 30.0333 94.0105 30.07 94.4838 30.07C95.4305 30.07 96.1405 29.9233 96.6138 29.63C97.0871 29.3367 97.3238 28.96 97.3238 28.5ZM99.4838 18.17V18.97C99.4838 19.2367 99.3238 19.4 99.0038 19.46L97.9838 19.63C98.1571 20.0167 98.2438 20.4467 98.2438 20.92C98.2438 21.42 98.1438 21.8733 97.9438 22.28C97.7505 22.6867 97.4805 23.0333 97.1338 23.32C96.7871 23.6067 96.3738 23.8267 95.8938 23.98C95.4138 24.1333 94.8938 24.21 94.3338 24.21C94.1205 24.21 93.9105 24.2 93.7038 24.18C93.5038 24.1533 93.3071 24.12 93.1138 24.08C92.9205 24.1933 92.7771 24.3133 92.6838 24.44C92.5905 24.5667 92.5438 24.6967 92.5438 24.83C92.5438 25.05 92.6405 25.2133 92.8338 25.32C93.0271 25.4267 93.2805 25.5033 93.5938 25.55C93.9138 25.5967 94.2771 25.6267 94.6838 25.64C95.0905 25.6533 95.5038 25.6767 95.9238 25.71C96.3438 25.7433 96.7571 25.8 97.1638 25.88C97.5705 25.9533 97.9305 26.08 98.2438 26.26C98.5638 26.4333 98.8205 26.67 99.0138 26.97C99.2071 27.27 99.3038 27.66 99.3038 28.14C99.3038 28.58 99.1938 29.01 98.9738 29.43C98.7538 29.85 98.4338 30.2233 98.0138 30.55C97.6005 30.8767 97.0938 31.1367 96.4938 31.33C95.8938 31.53 95.2105 31.63 94.4438 31.63C93.6838 31.63 93.0205 31.5567 92.4538 31.41C91.8938 31.2633 91.4238 31.0633 91.0438 30.81C90.6705 30.5633 90.3905 30.2767 90.2038 29.95C90.0238 29.6233 89.9338 29.2833 89.9338 28.93C89.9338 28.45 90.0838 28.04 90.3838 27.7C90.6905 27.36 91.1038 27.0933 91.6238 26.9C91.3438 26.7667 91.1171 26.5833 90.9438 26.35C90.7771 26.1167 90.6938 25.81 90.6938 25.43C90.6938 25.13 90.8038 24.8167 91.0238 24.49C91.2438 24.1633 91.5738 23.8867 92.0138 23.66C91.5071 23.38 91.1071 23.01 90.8138 22.55C90.5205 22.0833 90.3738 21.54 90.3738 20.92C90.3738 20.4133 90.4705 19.9567 90.6638 19.55C90.8638 19.1433 91.1405 18.7967 91.4938 18.51C91.8471 18.2233 92.2638 18.0033 92.7438 17.85C93.2305 17.6967 93.7605 17.62 94.3338 17.62C95.2138 17.62 95.9805 17.8033 96.6338 18.17H99.4838ZM105.416 17.64C106.17 17.64 106.85 17.7633 107.456 18.01C108.07 18.2567 108.59 18.6067 109.016 19.06C109.45 19.5133 109.783 20.0633 110.016 20.71C110.25 21.3567 110.366 22.0833 110.366 22.89C110.366 23.6967 110.25 24.4233 110.016 25.07C109.783 25.7167 109.45 26.27 109.016 26.73C108.59 27.1833 108.07 27.5333 107.456 27.78C106.85 28.0267 106.17 28.15 105.416 28.15C104.656 28.15 103.97 28.0267 103.356 27.78C102.75 27.5333 102.23 27.1833 101.796 26.73C101.363 26.27 101.03 25.7167 100.796 25.07C100.563 24.4233 100.446 23.6967 100.446 22.89C100.446 22.0833 100.563 21.3567 100.796 20.71C101.03 20.0633 101.363 19.5133 101.796 19.06C102.23 18.6067 102.75 18.2567 103.356 18.01C103.97 17.7633 104.656 17.64 105.416 17.64ZM105.416 26.47C106.336 26.47 107.02 26.1633 107.466 25.55C107.92 24.93 108.146 24.0467 108.146 22.9C108.146 21.7533 107.92 20.87 107.466 20.25C107.02 19.6233 106.336 19.31 105.416 19.31C104.483 19.31 103.79 19.6233 103.336 20.25C102.883 20.87 102.656 21.7533 102.656 22.9C102.656 24.0467 102.883 24.93 103.336 25.55C103.79 26.1633 104.483 26.47 105.416 26.47ZM114.462 19.69C114.782 19.0433 115.169 18.5367 115.622 18.17C116.075 17.7967 116.619 17.61 117.252 17.61C117.472 17.61 117.679 17.6367 117.872 17.69C118.065 17.7367 118.239 17.81 118.392 17.91L118.242 19.53C118.215 19.6433 118.172 19.7233 118.112 19.77C118.059 19.81 117.985 19.83 117.892 19.83C117.792 19.83 117.649 19.8133 117.462 19.78C117.275 19.74 117.079 19.72 116.872 19.72C116.572 19.72 116.305 19.7633 116.072 19.85C115.845 19.9367 115.639 20.0633 115.452 20.23C115.272 20.3967 115.112 20.6 114.972 20.84C114.832 21.08 114.702 21.3533 114.582 21.66V28H112.432V17.8H113.682C113.909 17.8 114.065 17.8433 114.152 17.93C114.239 18.01 114.299 18.1533 114.332 18.36L114.462 19.69ZM128.865 17.8L123.245 30.9C123.172 31.0533 123.082 31.1733 122.975 31.26C122.875 31.3467 122.718 31.39 122.505 31.39H120.915L122.795 27.31L118.635 17.8H120.505C120.685 17.8 120.822 17.8433 120.915 17.93C121.015 18.01 121.088 18.1067 121.135 18.22L123.565 24.01C123.625 24.1767 123.678 24.3433 123.725 24.51C123.778 24.67 123.828 24.8367 123.875 25.01C123.928 24.8367 123.982 24.6667 124.035 24.5C124.088 24.3333 124.148 24.1667 124.215 24L126.545 18.22C126.592 18.1 126.668 18 126.775 17.92C126.888 17.84 127.012 17.8 127.145 17.8H128.865ZM130.104 26.76C130.104 26.5667 130.137 26.3867 130.204 26.22C130.277 26.0467 130.374 25.8967 130.494 25.77C130.621 25.6433 130.767 25.5433 130.934 25.47C131.107 25.3967 131.291 25.36 131.484 25.36C131.677 25.36 131.857 25.3967 132.024 25.47C132.197 25.5433 132.347 25.6433 132.474 25.77C132.601 25.8967 132.701 26.0467 132.774 26.22C132.847 26.3867 132.884 26.5667 132.884 26.76C132.884 26.96 132.847 27.1433 132.774 27.31C132.701 27.4767 132.601 27.6233 132.474 27.75C132.347 27.8767 132.197 27.9733 132.024 28.04C131.857 28.1133 131.677 28.15 131.484 28.15C131.291 28.15 131.107 28.1133 130.934 28.04C130.767 27.9733 130.621 27.8767 130.494 27.75C130.374 27.6233 130.277 27.4767 130.204 27.31C130.137 27.1433 130.104 26.96 130.104 26.76ZM130.104 19.47C130.104 19.2767 130.137 19.0967 130.204 18.93C130.277 18.7567 130.374 18.6067 130.494 18.48C130.621 18.3533 130.767 18.2533 130.934 18.18C131.107 18.1067 131.291 18.07 131.484 18.07C131.677 18.07 131.857 18.1067 132.024 18.18C132.197 18.2533 132.347 18.3533 132.474 18.48C132.601 18.6067 132.701 18.7567 132.774 18.93C132.847 19.0967 132.884 19.2767 132.884 19.47C132.884 19.67 132.847 19.8533 132.774 20.02C132.701 20.1867 132.601 20.3333 132.474 20.46C132.347 20.5867 132.197 20.6867 132.024 20.76C131.857 20.8267 131.677 20.86 131.484 20.86C131.291 20.86 131.107 20.8267 130.934 20.76C130.767 20.6867 130.621 20.5867 130.494 20.46C130.374 20.3333 130.277 20.1867 130.204 20.02C130.137 19.8533 130.104 19.67 130.104 19.47Z" fill="#767474"/>
<line y1="-1" x2="359.999" y2="-1" transform="matrix(1 0 -0.000718688 1 32 37.5234)" stroke="#008989" stroke-width="2"/>
<rect x="265.305" y="57.5234" width="100" height="130" rx="8" fill="#D9D9D9"/>
<rect x="277.305" y="69.5234" width="76" height="71" rx="4" fill="#17D4D4"/>
<path d="M287.285 168.523C287.093 168.523 286.943 168.475 286.837 168.379C286.73 168.273 286.677 168.129 286.677 167.947C286.677 167.766 286.73 167.633 286.837 167.547C286.943 167.451 287.093 167.403 287.285 167.403H289.365V158.331H290.053L287.733 159.867C287.594 159.942 287.461 159.974 287.333 159.963C287.215 159.953 287.114 159.91 287.029 159.835C286.954 159.75 286.901 159.654 286.869 159.547C286.837 159.43 286.842 159.313 286.885 159.195C286.927 159.067 287.018 158.961 287.157 158.875L289.365 157.419C289.503 157.334 289.637 157.265 289.765 157.211C289.893 157.158 290.021 157.131 290.149 157.131C290.298 157.131 290.421 157.179 290.517 157.275C290.623 157.361 290.677 157.499 290.677 157.691V167.403H292.597C292.789 167.403 292.938 167.451 293.045 167.547C293.151 167.633 293.205 167.766 293.205 167.947C293.205 168.139 293.151 168.283 293.045 168.379C292.938 168.475 292.789 168.523 292.597 168.523H287.285ZM297.086 168.635C296.937 168.635 296.809 168.598 296.702 168.523C296.596 168.449 296.526 168.347 296.494 168.219C296.473 168.081 296.505 167.931 296.59 167.771L301.726 157.803V158.379H295.966C295.774 158.379 295.625 158.331 295.518 158.235C295.412 158.129 295.358 157.985 295.358 157.803C295.358 157.622 295.412 157.483 295.518 157.387C295.625 157.291 295.774 157.243 295.966 157.243H302.318C302.51 157.243 302.665 157.291 302.782 157.387C302.9 157.483 302.958 157.622 302.958 157.803C302.958 157.953 302.937 158.086 302.894 158.203C302.862 158.31 302.814 158.433 302.75 158.571L297.822 168.187C297.748 168.337 297.652 168.449 297.534 168.523C297.417 168.598 297.268 168.635 297.086 168.635ZM306.104 168.523C305.87 168.523 305.688 168.465 305.56 168.347C305.443 168.219 305.384 168.038 305.384 167.803V157.963C305.384 157.729 305.443 157.553 305.56 157.435C305.688 157.307 305.87 157.243 306.104 157.243H309.192C311.016 157.243 312.424 157.723 313.416 158.683C314.408 159.643 314.904 161.041 314.904 162.875C314.904 163.793 314.776 164.603 314.52 165.307C314.275 166.001 313.907 166.587 313.416 167.067C312.926 167.547 312.328 167.91 311.624 168.155C310.92 168.401 310.11 168.523 309.192 168.523H306.104ZM306.696 167.403H309.096C309.843 167.403 310.488 167.307 311.032 167.115C311.587 166.923 312.046 166.641 312.408 166.267C312.782 165.894 313.059 165.425 313.24 164.859C313.422 164.283 313.512 163.622 313.512 162.875C313.512 161.371 313.144 160.246 312.408 159.499C311.672 158.742 310.568 158.363 309.096 158.363H306.696V167.403ZM322.555 168.635C322.353 168.635 322.193 168.577 322.075 168.459C321.958 168.342 321.899 168.177 321.899 167.963V166.107H317.307C317.094 166.107 316.923 166.059 316.795 165.963C316.678 165.857 316.619 165.707 316.619 165.515C316.619 165.398 316.646 165.281 316.699 165.163C316.753 165.035 316.849 164.875 316.987 164.683L321.867 157.579C321.963 157.43 322.07 157.318 322.187 157.243C322.305 157.169 322.443 157.131 322.603 157.131C322.774 157.131 322.918 157.185 323.035 157.291C323.163 157.398 323.227 157.569 323.227 157.803V164.987H324.395C324.598 164.987 324.753 165.035 324.859 165.131C324.966 165.227 325.019 165.366 325.019 165.547C325.019 165.729 324.966 165.867 324.859 165.963C324.753 166.059 324.598 166.107 324.395 166.107H323.227V167.963C323.227 168.177 323.169 168.342 323.051 168.459C322.934 168.577 322.769 168.635 322.555 168.635ZM321.899 164.987V158.779H322.283L317.803 165.339V164.987H321.899ZM327.573 168.523C327.338 168.523 327.157 168.465 327.029 168.347C326.912 168.219 326.853 168.038 326.853 167.803V157.963C326.853 157.729 326.912 157.553 327.029 157.435C327.157 157.307 327.338 157.243 327.573 157.243H330.661C332.485 157.243 333.893 157.723 334.885 158.683C335.877 159.643 336.373 161.041 336.373 162.875C336.373 163.793 336.245 164.603 335.989 165.307C335.744 166.001 335.376 166.587 334.885 167.067C334.394 167.547 333.797 167.91 333.093 168.155C332.389 168.401 331.578 168.523 330.661 168.523H327.573ZM328.165 167.403H330.565C331.312 167.403 331.957 167.307 332.501 167.115C333.056 166.923 333.514 166.641 333.877 166.267C334.25 165.894 334.528 165.425 334.709 164.859C334.89 164.283 334.981 163.622 334.981 162.875C334.981 161.371 334.613 160.246 333.877 159.499C333.141 158.742 332.037 158.363 330.565 158.363H328.165V167.403ZM344.024 168.635C343.821 168.635 343.661 168.577 343.544 168.459C343.427 168.342 343.368 168.177 343.368 167.963V166.107H338.776C338.563 166.107 338.392 166.059 338.264 165.963C338.147 165.857 338.088 165.707 338.088 165.515C338.088 165.398 338.115 165.281 338.168 165.163C338.221 165.035 338.317 164.875 338.456 164.683L343.336 157.579C343.432 157.43 343.539 157.318 343.656 157.243C343.773 157.169 343.912 157.131 344.072 157.131C344.243 157.131 344.387 157.185 344.504 157.291C344.632 157.398 344.696 157.569 344.696 157.803V164.987H345.864C346.067 164.987 346.221 165.035 346.328 165.131C346.435 165.227 346.488 165.366 346.488 165.547C346.488 165.729 346.435 165.867 346.328 165.963C346.221 166.059 346.067 166.107 345.864 166.107H344.696V167.963C344.696 168.177 344.637 168.342 344.52 168.459C344.403 168.577 344.237 168.635 344.024 168.635ZM343.368 164.987V158.779H343.752L339.272 165.339V164.987H343.368Z" fill="black"/>
<path d="M302.249 207.171C302.329 206.627 302.478 206.15 302.697 205.739C302.921 205.329 303.201 204.987 303.537 204.715C303.873 204.438 304.257 204.23 304.689 204.091C305.126 203.947 305.598 203.875 306.105 203.875C306.617 203.875 307.081 203.95 307.497 204.099C307.918 204.243 308.278 204.446 308.577 204.707C308.881 204.969 309.113 205.281 309.273 205.643C309.438 206.006 309.521 206.403 309.521 206.835C309.521 207.203 309.475 207.529 309.385 207.811C309.299 208.089 309.174 208.334 309.009 208.547C308.849 208.761 308.651 208.939 308.417 209.083C308.182 209.227 307.918 209.347 307.625 209.443C308.339 209.651 308.875 209.985 309.233 210.443C309.59 210.897 309.769 211.467 309.769 212.155C309.769 212.71 309.665 213.203 309.457 213.635C309.249 214.067 308.966 214.433 308.609 214.731C308.257 215.03 307.843 215.259 307.369 215.419C306.899 215.574 306.401 215.651 305.873 215.651C305.281 215.651 304.769 215.582 304.337 215.443C303.905 215.299 303.531 215.097 303.217 214.835C302.907 214.569 302.649 214.249 302.441 213.875C302.233 213.502 302.057 213.083 301.913 212.619L302.657 212.307C302.854 212.222 303.041 212.198 303.217 212.235C303.398 212.273 303.529 212.371 303.609 212.531C303.694 212.702 303.79 212.886 303.897 213.083C304.003 213.275 304.139 213.454 304.305 213.619C304.475 213.779 304.683 213.915 304.929 214.027C305.179 214.134 305.486 214.187 305.849 214.187C306.217 214.187 306.537 214.129 306.809 214.011C307.086 213.889 307.315 213.734 307.497 213.547C307.683 213.355 307.822 213.142 307.913 212.907C308.003 212.673 308.049 212.441 308.049 212.211C308.049 211.923 308.014 211.659 307.945 211.419C307.875 211.174 307.739 210.966 307.537 210.795C307.339 210.625 307.057 210.491 306.689 210.395C306.326 210.294 305.849 210.243 305.257 210.243V209.003C305.742 208.998 306.15 208.95 306.481 208.859C306.817 208.763 307.083 208.635 307.281 208.475C307.483 208.31 307.627 208.113 307.713 207.883C307.803 207.654 307.849 207.403 307.849 207.131C307.849 206.838 307.803 206.579 307.713 206.355C307.622 206.131 307.494 205.945 307.329 205.795C307.169 205.641 306.977 205.526 306.753 205.451C306.529 205.377 306.281 205.339 306.009 205.339C305.747 205.339 305.505 205.377 305.281 205.451C305.062 205.526 304.865 205.63 304.689 205.763C304.518 205.897 304.374 206.057 304.257 206.243C304.139 206.425 304.054 206.625 304.001 206.843C303.926 207.062 303.825 207.209 303.697 207.283C303.574 207.358 303.393 207.374 303.153 207.331L302.249 207.171ZM319.426 209.763C319.426 210.771 319.317 211.643 319.098 212.379C318.885 213.115 318.589 213.726 318.21 214.211C317.831 214.697 317.386 215.057 316.874 215.291C316.362 215.526 315.81 215.643 315.218 215.643C314.626 215.643 314.074 215.526 313.562 215.291C313.05 215.057 312.605 214.697 312.226 214.211C311.853 213.726 311.559 213.115 311.346 212.379C311.133 211.643 311.026 210.771 311.026 209.763C311.026 208.755 311.133 207.883 311.346 207.147C311.559 206.406 311.853 205.795 312.226 205.315C312.605 204.83 313.05 204.47 313.562 204.235C314.074 203.995 314.626 203.875 315.218 203.875C315.81 203.875 316.362 203.995 316.874 204.235C317.386 204.47 317.831 204.83 318.21 205.315C318.589 205.795 318.885 206.406 319.098 207.147C319.317 207.883 319.426 208.755 319.426 209.763ZM317.65 209.763C317.65 208.91 317.581 208.201 317.442 207.635C317.309 207.065 317.13 206.609 316.906 206.267C316.682 205.926 316.423 205.683 316.13 205.539C315.837 205.395 315.533 205.323 315.218 205.323C314.898 205.323 314.591 205.395 314.298 205.539C314.01 205.683 313.754 205.926 313.53 206.267C313.306 206.609 313.127 207.065 312.994 207.635C312.861 208.201 312.794 208.91 312.794 209.763C312.794 210.617 312.861 211.329 312.994 211.899C313.127 212.465 313.306 212.918 313.53 213.259C313.754 213.601 314.01 213.843 314.298 213.987C314.591 214.131 314.898 214.203 315.218 214.203C315.533 214.203 315.837 214.131 316.13 213.987C316.423 213.843 316.682 213.601 316.906 213.259C317.13 212.918 317.309 212.465 317.442 211.899C317.581 211.329 317.65 210.617 317.65 209.763ZM328.707 209.763C328.707 210.771 328.598 211.643 328.379 212.379C328.166 213.115 327.87 213.726 327.491 214.211C327.113 214.697 326.667 215.057 326.155 215.291C325.643 215.526 325.091 215.643 324.499 215.643C323.907 215.643 323.355 215.526 322.843 215.291C322.331 215.057 321.886 214.697 321.507 214.211C321.134 213.726 320.841 213.115 320.627 212.379C320.414 211.643 320.307 210.771 320.307 209.763C320.307 208.755 320.414 207.883 320.627 207.147C320.841 206.406 321.134 205.795 321.507 205.315C321.886 204.83 322.331 204.47 322.843 204.235C323.355 203.995 323.907 203.875 324.499 203.875C325.091 203.875 325.643 203.995 326.155 204.235C326.667 204.47 327.113 204.83 327.491 205.315C327.87 205.795 328.166 206.406 328.379 207.147C328.598 207.883 328.707 208.755 328.707 209.763ZM326.931 209.763C326.931 208.91 326.862 208.201 326.723 207.635C326.59 207.065 326.411 206.609 326.187 206.267C325.963 205.926 325.705 205.683 325.411 205.539C325.118 205.395 324.814 205.323 324.499 205.323C324.179 205.323 323.873 205.395 323.579 205.539C323.291 205.683 323.035 205.926 322.811 206.267C322.587 206.609 322.409 207.065 322.275 207.635C322.142 208.201 322.075 208.91 322.075 209.763C322.075 210.617 322.142 211.329 322.275 211.899C322.409 212.465 322.587 212.918 322.811 213.259C323.035 213.601 323.291 213.843 323.579 213.987C323.873 214.131 324.179 214.203 324.499 214.203C324.814 214.203 325.118 214.131 325.411 213.987C325.705 213.843 325.963 213.601 326.187 213.259C326.411 212.918 326.59 212.465 326.723 211.899C326.862 211.329 326.931 210.617 326.931 209.763Z" fill="#7A7575"/>
<path d="M63.711 74.3134C63.8376 74.3134 63.9476 74.3634 64.041 74.4634L64.971 75.4734C64.3843 76.1801 63.6643 76.7268 62.811 77.1134C61.9576 77.4934 60.9376 77.6834 59.751 77.6834C58.6976 77.6834 57.7443 77.5034 56.891 77.1434C56.0443 76.7768 55.321 76.2701 54.721 75.6234C54.121 74.9701 53.6576 74.1934 53.331 73.2934C53.011 72.3934 52.851 71.4034 52.851 70.3234C52.851 69.2434 53.021 68.2534 53.361 67.3534C53.7076 66.4468 54.191 65.6701 54.811 65.0234C55.4376 64.3701 56.1843 63.8634 57.051 63.5034C57.9243 63.1434 58.8843 62.9634 59.931 62.9634C60.971 62.9634 61.8876 63.1334 62.681 63.4734C63.481 63.8068 64.1743 64.2534 64.761 64.8134L63.991 65.9034C63.9376 65.9768 63.8743 66.0401 63.801 66.0934C63.7276 66.1468 63.6276 66.1734 63.501 66.1734C63.3676 66.1734 63.2143 66.1134 63.041 65.9934C62.8743 65.8668 62.6576 65.7301 62.391 65.5834C62.131 65.4301 61.801 65.2934 61.401 65.1734C61.0076 65.0468 60.5143 64.9834 59.921 64.9834C59.2343 64.9834 58.6043 65.1034 58.031 65.3434C57.4576 65.5834 56.9643 65.9334 56.551 66.3934C56.1376 66.8534 55.8143 67.4134 55.581 68.0734C55.3543 68.7334 55.241 69.4834 55.241 70.3234C55.241 71.1701 55.361 71.9268 55.601 72.5934C55.841 73.2534 56.171 73.8134 56.591 74.2734C57.011 74.7268 57.5043 75.0734 58.071 75.3134C58.6376 75.5534 59.2476 75.6734 59.901 75.6734C60.301 75.6734 60.6576 75.6534 60.971 75.6134C61.291 75.5668 61.5843 75.4968 61.851 75.4034C62.1176 75.3034 62.3676 75.1801 62.601 75.0334C62.841 74.8868 63.0776 74.7068 63.311 74.4934C63.4443 74.3734 63.5776 74.3134 63.711 74.3134ZM70.7874 67.1634C71.5407 67.1634 72.2207 67.2868 72.8274 67.5334C73.4407 67.7801 73.9607 68.1301 74.3874 68.5834C74.8207 69.0368 75.154 69.5868 75.3874 70.2334C75.6207 70.8801 75.7374 71.6068 75.7374 72.4134C75.7374 73.2201 75.6207 73.9468 75.3874 74.5934C75.154 75.2401 74.8207 75.7934 74.3874 76.2534C73.9607 76.7068 73.4407 77.0568 72.8274 77.3034C72.2207 77.5501 71.5407 77.6734 70.7874 77.6734C70.0274 77.6734 69.3407 77.5501 68.7274 77.3034C68.1207 77.0568 67.6007 76.7068 67.1674 76.2534C66.734 75.7934 66.4007 75.2401 66.1674 74.5934C65.934 73.9468 65.8174 73.2201 65.8174 72.4134C65.8174 71.6068 65.934 70.8801 66.1674 70.2334C66.4007 69.5868 66.734 69.0368 67.1674 68.5834C67.6007 68.1301 68.1207 67.7801 68.7274 67.5334C69.3407 67.2868 70.0274 67.1634 70.7874 67.1634ZM70.7874 75.9934C71.7074 75.9934 72.3907 75.6868 72.8374 75.0734C73.2907 74.4534 73.5174 73.5701 73.5174 72.4234C73.5174 71.2768 73.2907 70.3934 72.8374 69.7734C72.3907 69.1468 71.7074 68.8334 70.7874 68.8334C69.854 68.8334 69.1607 69.1468 68.7074 69.7734C68.254 70.3934 68.0274 71.2768 68.0274 72.4234C68.0274 73.5701 68.254 74.4534 68.7074 75.0734C69.1607 75.6868 69.854 75.9934 70.7874 75.9934ZM79.9932 62.7234V77.5234H77.8432V62.7234H79.9932ZM87.0569 67.1634C87.8102 67.1634 88.4902 67.2868 89.0969 67.5334C89.7102 67.7801 90.2302 68.1301 90.6569 68.5834C91.0902 69.0368 91.4236 69.5868 91.6569 70.2334C91.8902 70.8801 92.0069 71.6068 92.0069 72.4134C92.0069 73.2201 91.8902 73.9468 91.6569 74.5934C91.4236 75.2401 91.0902 75.7934 90.6569 76.2534C90.2302 76.7068 89.7102 77.0568 89.0969 77.3034C88.4902 77.5501 87.8102 77.6734 87.0569 77.6734C86.2969 77.6734 85.6102 77.5501 84.9969 77.3034C84.3902 77.0568 83.8702 76.7068 83.4369 76.2534C83.0036 75.7934 82.6702 75.2401 82.4369 74.5934C82.2036 73.9468 82.0869 73.2201 82.0869 72.4134C82.0869 71.6068 82.2036 70.8801 82.4369 70.2334C82.6702 69.5868 83.0036 69.0368 83.4369 68.5834C83.8702 68.1301 84.3902 67.7801 84.9969 67.5334C85.6102 67.2868 86.2969 67.1634 87.0569 67.1634ZM87.0569 75.9934C87.9769 75.9934 88.6602 75.6868 89.1069 75.0734C89.5602 74.4534 89.7869 73.5701 89.7869 72.4234C89.7869 71.2768 89.5602 70.3934 89.1069 69.7734C88.6602 69.1468 87.9769 68.8334 87.0569 68.8334C86.1236 68.8334 85.4302 69.1468 84.9769 69.7734C84.5236 70.3934 84.2969 71.2768 84.2969 72.4234C84.2969 73.5701 84.5236 74.4534 84.9769 75.0734C85.4302 75.6868 86.1236 75.9934 87.0569 75.9934ZM96.1027 69.2134C96.4227 68.5668 96.8094 68.0601 97.2627 67.6934C97.716 67.3201 98.2594 67.1334 98.8927 67.1334C99.1127 67.1334 99.3194 67.1601 99.5127 67.2134C99.706 67.2601 99.8794 67.3334 100.033 67.4334L99.8827 69.0534C99.856 69.1668 99.8127 69.2468 99.7527 69.2934C99.6994 69.3334 99.626 69.3534 99.5327 69.3534C99.4327 69.3534 99.2894 69.3368 99.1027 69.3034C98.916 69.2634 98.7194 69.2434 98.5127 69.2434C98.2127 69.2434 97.946 69.2868 97.7127 69.3734C97.486 69.4601 97.2794 69.5868 97.0927 69.7534C96.9127 69.9201 96.7527 70.1234 96.6127 70.3634C96.4727 70.6034 96.3427 70.8768 96.2227 71.1834V77.5234H94.0727V67.3234H95.3227C95.5494 67.3234 95.706 67.3668 95.7927 67.4534C95.8794 67.5334 95.9394 67.6768 95.9727 67.8834L96.1027 69.2134ZM112.096 69.1734C112.043 69.2668 111.983 69.3334 111.916 69.3734C111.85 69.4134 111.766 69.4334 111.666 69.4334C111.553 69.4334 111.43 69.4001 111.296 69.3334C111.163 69.2601 111.006 69.1801 110.826 69.0934C110.646 69.0068 110.433 68.9301 110.186 68.8634C109.946 68.7901 109.663 68.7534 109.336 68.7534C109.07 68.7534 108.826 68.7868 108.606 68.8534C108.393 68.9134 108.21 69.0034 108.056 69.1234C107.91 69.2368 107.796 69.3734 107.716 69.5334C107.636 69.6868 107.596 69.8534 107.596 70.0334C107.596 70.2734 107.67 70.4734 107.816 70.6334C107.963 70.7934 108.156 70.9334 108.396 71.0534C108.636 71.1668 108.91 71.2701 109.216 71.3634C109.523 71.4568 109.836 71.5568 110.156 71.6634C110.476 71.7701 110.79 71.8934 111.096 72.0334C111.403 72.1734 111.676 72.3468 111.916 72.5534C112.156 72.7534 112.35 73.0001 112.496 73.2934C112.643 73.5801 112.716 73.9301 112.716 74.3434C112.716 74.8234 112.63 75.2668 112.456 75.6734C112.283 76.0801 112.03 76.4334 111.696 76.7334C111.363 77.0334 110.946 77.2668 110.446 77.4334C109.953 77.6001 109.386 77.6834 108.746 77.6834C108.393 77.6834 108.05 77.6501 107.716 77.5834C107.39 77.5234 107.076 77.4401 106.776 77.3334C106.483 77.2201 106.206 77.0868 105.946 76.9334C105.693 76.7801 105.466 76.6134 105.266 76.4334L105.766 75.6134C105.826 75.5134 105.9 75.4368 105.986 75.3834C106.08 75.3234 106.193 75.2934 106.326 75.2934C106.466 75.2934 106.603 75.3401 106.736 75.4334C106.876 75.5201 107.036 75.6168 107.216 75.7234C107.403 75.8301 107.626 75.9301 107.886 76.0234C108.146 76.1101 108.47 76.1534 108.856 76.1534C109.176 76.1534 109.453 76.1168 109.686 76.0434C109.92 75.9634 110.113 75.8568 110.266 75.7234C110.42 75.5901 110.533 75.4401 110.606 75.2734C110.68 75.1001 110.716 74.9168 110.716 74.7234C110.716 74.4634 110.643 74.2501 110.496 74.0834C110.35 73.9168 110.153 73.7734 109.906 73.6534C109.666 73.5334 109.39 73.4268 109.076 73.3334C108.77 73.2401 108.456 73.1401 108.136 73.0334C107.816 72.9268 107.5 72.8034 107.186 72.6634C106.88 72.5234 106.603 72.3468 106.356 72.1334C106.116 71.9134 105.923 71.6501 105.776 71.3434C105.63 71.0301 105.556 70.6501 105.556 70.2034C105.556 69.7968 105.636 69.4101 105.796 69.0434C105.963 68.6768 106.203 68.3534 106.516 68.0734C106.836 67.7934 107.226 67.5734 107.686 67.4134C108.153 67.2468 108.69 67.1634 109.296 67.1634C109.983 67.1634 110.606 67.2734 111.166 67.4934C111.726 67.7134 112.196 68.0134 112.576 68.3934L112.096 69.1734ZM120.187 73.0634C119.42 73.0901 118.773 73.1534 118.247 73.2534C117.72 73.3468 117.293 73.4701 116.967 73.6234C116.64 73.7701 116.403 73.9468 116.257 74.1534C116.117 74.3601 116.047 74.5868 116.047 74.8334C116.047 75.0734 116.083 75.2801 116.157 75.4534C116.237 75.6201 116.343 75.7601 116.477 75.8734C116.617 75.9801 116.777 76.0601 116.957 76.1134C117.143 76.1601 117.347 76.1834 117.567 76.1834C118.127 76.1834 118.607 76.0801 119.007 75.8734C119.413 75.6601 119.807 75.3534 120.187 74.9534V73.0634ZM114.487 68.7434C115.64 67.6701 117.013 67.1334 118.607 67.1334C119.193 67.1334 119.713 67.2301 120.167 67.4234C120.627 67.6101 121.01 67.8768 121.317 68.2234C121.63 68.5701 121.867 68.9834 122.027 69.4634C122.193 69.9368 122.277 70.4634 122.277 71.0434V77.5234H121.317C121.11 77.5234 120.953 77.4934 120.847 77.4334C120.74 77.3668 120.65 77.2368 120.577 77.0434L120.367 76.2134C120.107 76.4468 119.85 76.6568 119.597 76.8434C119.343 77.0234 119.08 77.1768 118.807 77.3034C118.54 77.4301 118.25 77.5234 117.937 77.5834C117.63 77.6501 117.29 77.6834 116.917 77.6834C116.503 77.6834 116.117 77.6268 115.757 77.5134C115.403 77.4001 115.097 77.2301 114.837 77.0034C114.577 76.7701 114.37 76.4834 114.217 76.1434C114.07 75.8034 113.997 75.4034 113.997 74.9434C113.997 74.5501 114.1 74.1668 114.307 73.7934C114.52 73.4201 114.867 73.0868 115.347 72.7934C115.833 72.4934 116.47 72.2468 117.257 72.0534C118.05 71.8601 119.027 71.7501 120.187 71.7234V71.0434C120.187 70.3101 120.03 69.7634 119.717 69.4034C119.403 69.0434 118.943 68.8634 118.337 68.8634C117.923 68.8634 117.577 68.9168 117.297 69.0234C117.017 69.1234 116.773 69.2334 116.567 69.3534C116.36 69.4734 116.177 69.5868 116.017 69.6934C115.857 69.7934 115.687 69.8434 115.507 69.8434C115.36 69.8434 115.233 69.8068 115.127 69.7334C115.027 69.6534 114.943 69.5568 114.877 69.4434L114.487 68.7434ZM124.795 77.5234V67.3234H126.095C126.389 67.3234 126.575 67.4601 126.655 67.7334L126.795 68.6234C126.982 68.4101 127.175 68.2168 127.375 68.0434C127.575 67.8634 127.789 67.7101 128.015 67.5834C128.249 67.4501 128.495 67.3468 128.755 67.2734C129.022 67.2001 129.309 67.1634 129.615 67.1634C129.942 67.1634 130.242 67.2101 130.515 67.3034C130.789 67.3968 131.029 67.5301 131.235 67.7034C131.449 67.8768 131.632 68.0868 131.785 68.3334C131.939 68.5801 132.065 68.8568 132.165 69.1634C132.319 68.8101 132.512 68.5068 132.745 68.2534C132.979 68.0001 133.239 67.7934 133.525 67.6334C133.812 67.4734 134.115 67.3568 134.435 67.2834C134.762 67.2034 135.092 67.1634 135.425 67.1634C135.972 67.1634 136.459 67.2501 136.885 67.4234C137.319 67.5968 137.682 67.8501 137.975 68.1834C138.275 68.5101 138.502 68.9134 138.655 69.3934C138.809 69.8734 138.885 70.4201 138.885 71.0334V77.5234H136.735V71.0334C136.735 70.3134 136.579 69.7734 136.265 69.4134C135.959 69.0468 135.502 68.8634 134.895 68.8634C134.622 68.8634 134.365 68.9101 134.125 69.0034C133.885 69.0968 133.675 69.2334 133.495 69.4134C133.315 69.5934 133.172 69.8201 133.065 70.0934C132.965 70.3601 132.915 70.6734 132.915 71.0334V77.5234H130.765V71.0334C130.765 70.2868 130.615 69.7401 130.315 69.3934C130.015 69.0401 129.575 68.8634 128.995 68.8634C128.595 68.8634 128.225 68.9668 127.885 69.1734C127.545 69.3734 127.232 69.6501 126.945 70.0034V77.5234H124.795ZM143.547 74.9634C143.847 75.3501 144.174 75.6234 144.527 75.7834C144.887 75.9368 145.284 76.0134 145.717 76.0134C146.557 76.0134 147.21 75.7068 147.677 75.0934C148.15 74.4801 148.387 73.5668 148.387 72.3534C148.387 71.7268 148.334 71.1934 148.227 70.7534C148.12 70.3068 147.967 69.9434 147.767 69.6634C147.567 69.3834 147.324 69.1801 147.037 69.0534C146.75 68.9268 146.427 68.8634 146.067 68.8634C145.52 68.8634 145.047 68.9834 144.647 69.2234C144.254 69.4568 143.887 69.7934 143.547 70.2334V74.9634ZM143.437 68.8034C143.864 68.3034 144.347 67.9001 144.887 67.5934C145.434 67.2868 146.067 67.1334 146.787 67.1334C147.36 67.1334 147.88 67.2501 148.347 67.4834C148.814 67.7101 149.214 68.0434 149.547 68.4834C149.88 68.9234 150.137 69.4701 150.317 70.1234C150.504 70.7701 150.597 71.5134 150.597 72.3534C150.597 73.1068 150.494 73.8101 150.287 74.4634C150.087 75.1101 149.797 75.6734 149.417 76.1534C149.037 76.6268 148.577 77.0001 148.037 77.2734C147.497 77.5401 146.887 77.6734 146.207 77.6734C145.607 77.6734 145.097 77.5768 144.677 77.3834C144.264 77.1901 143.887 76.9234 143.547 76.5834V80.9134H141.397V67.3234H142.697C142.99 67.3234 143.177 67.4601 143.257 67.7334L143.437 68.8034ZM154.876 62.7234V77.5234H152.726V62.7234H154.876ZM164.22 71.2734C164.22 70.9134 164.166 70.5801 164.06 70.2734C163.96 69.9601 163.81 69.6901 163.61 69.4634C163.41 69.2301 163.16 69.0501 162.86 68.9234C162.566 68.7901 162.226 68.7234 161.84 68.7234C161.06 68.7234 160.446 68.9468 160 69.3934C159.553 69.8401 159.27 70.4668 159.15 71.2734H164.22ZM159.09 72.5934C159.116 73.1734 159.206 73.6768 159.36 74.1034C159.513 74.5234 159.716 74.8734 159.97 75.1534C160.23 75.4334 160.536 75.6434 160.89 75.7834C161.25 75.9168 161.65 75.9834 162.09 75.9834C162.51 75.9834 162.873 75.9368 163.18 75.8434C163.486 75.7434 163.753 75.6368 163.98 75.5234C164.206 75.4034 164.4 75.2968 164.56 75.2034C164.72 75.1034 164.866 75.0534 165 75.0534C165.173 75.0534 165.306 75.1201 165.4 75.2534L166.01 76.0434C165.756 76.3434 165.47 76.5968 165.15 76.8034C164.83 77.0101 164.49 77.1801 164.13 77.3134C163.77 77.4401 163.4 77.5301 163.02 77.5834C162.64 77.6434 162.27 77.6734 161.91 77.6734C161.203 77.6734 160.546 77.5568 159.94 77.3234C159.34 77.0834 158.816 76.7334 158.37 76.2734C157.93 75.8134 157.583 75.2434 157.33 74.5634C157.083 73.8834 156.96 73.1001 156.96 72.2134C156.96 71.5068 157.07 70.8468 157.29 70.2334C157.516 69.6201 157.836 69.0868 158.25 68.6334C158.67 68.1801 159.176 67.8234 159.77 67.5634C160.37 67.2968 161.046 67.1634 161.8 67.1634C162.426 67.1634 163.006 67.2668 163.54 67.4734C164.073 67.6734 164.533 67.9701 164.92 68.3634C165.306 68.7568 165.606 69.2401 165.82 69.8134C166.04 70.3801 166.15 71.0268 166.15 71.7534C166.15 72.0868 166.113 72.3101 166.04 72.4234C165.966 72.5368 165.833 72.5934 165.64 72.5934H159.09ZM172.975 76.2834C172.975 76.0901 173.009 75.9101 173.075 75.7434C173.149 75.5701 173.245 75.4201 173.365 75.2934C173.492 75.1668 173.639 75.0668 173.805 74.9934C173.979 74.9201 174.162 74.8834 174.355 74.8834C174.549 74.8834 174.729 74.9201 174.895 74.9934C175.069 75.0668 175.219 75.1668 175.345 75.2934C175.472 75.4201 175.572 75.5701 175.645 75.7434C175.719 75.9101 175.755 76.0901 175.755 76.2834C175.755 76.4834 175.719 76.6668 175.645 76.8334C175.572 77.0001 175.472 77.1468 175.345 77.2734C175.219 77.4001 175.069 77.4968 174.895 77.5634C174.729 77.6368 174.549 77.6734 174.355 77.6734C174.162 77.6734 173.979 77.6368 173.805 77.5634C173.639 77.4968 173.492 77.4001 173.365 77.2734C173.245 77.1468 173.149 77.0001 173.075 76.8334C173.009 76.6668 172.975 76.4834 172.975 76.2834ZM172.975 68.9934C172.975 68.8001 173.009 68.6201 173.075 68.4534C173.149 68.2801 173.245 68.1301 173.365 68.0034C173.492 67.8768 173.639 67.7768 173.805 67.7034C173.979 67.6301 174.162 67.5934 174.355 67.5934C174.549 67.5934 174.729 67.6301 174.895 67.7034C175.069 67.7768 175.219 67.8768 175.345 68.0034C175.472 68.1301 175.572 68.2801 175.645 68.4534C175.719 68.6201 175.755 68.8001 175.755 68.9934C175.755 69.1934 175.719 69.3768 175.645 69.5434C175.572 69.7101 175.472 69.8568 175.345 69.9834C175.219 70.1101 175.069 70.2101 174.895 70.2834C174.729 70.3501 174.549 70.3834 174.355 70.3834C174.162 70.3834 173.979 70.3501 173.805 70.2834C173.639 70.2101 173.492 70.1101 173.365 69.9834C173.245 69.8568 173.149 69.7101 173.075 69.5434C173.009 69.3768 172.975 69.1934 172.975 68.9934Z" fill="#767474"/>
<path d="M66.711 168.313C66.8376 168.313 66.9476 168.363 67.041 168.463L67.971 169.473C67.3843 170.18 66.6643 170.727 65.811 171.113C64.9576 171.493 63.9376 171.683 62.751 171.683C61.6976 171.683 60.7443 171.503 59.891 171.143C59.0443 170.777 58.321 170.27 57.721 169.623C57.121 168.97 56.6576 168.193 56.331 167.293C56.011 166.393 55.851 165.403 55.851 164.323C55.851 163.243 56.021 162.253 56.361 161.353C56.7076 160.447 57.191 159.67 57.811 159.023C58.4376 158.37 59.1843 157.863 60.051 157.503C60.9243 157.143 61.8843 156.963 62.931 156.963C63.971 156.963 64.8876 157.133 65.681 157.473C66.481 157.807 67.1743 158.253 67.761 158.813L66.991 159.903C66.9376 159.977 66.8743 160.04 66.801 160.093C66.7276 160.147 66.6276 160.173 66.501 160.173C66.3676 160.173 66.2143 160.113 66.041 159.993C65.8743 159.867 65.6576 159.73 65.391 159.583C65.131 159.43 64.801 159.293 64.401 159.173C64.0076 159.047 63.5143 158.983 62.921 158.983C62.2343 158.983 61.6043 159.103 61.031 159.343C60.4576 159.583 59.9643 159.933 59.551 160.393C59.1376 160.853 58.8143 161.413 58.581 162.073C58.3543 162.733 58.241 163.483 58.241 164.323C58.241 165.17 58.361 165.927 58.601 166.593C58.841 167.253 59.171 167.813 59.591 168.273C60.011 168.727 60.5043 169.073 61.071 169.313C61.6376 169.553 62.2476 169.673 62.901 169.673C63.301 169.673 63.6576 169.653 63.971 169.613C64.291 169.567 64.5843 169.497 64.851 169.403C65.1176 169.303 65.3676 169.18 65.601 169.033C65.841 168.887 66.0776 168.707 66.311 168.493C66.4443 168.373 66.5776 168.313 66.711 168.313ZM73.7874 161.163C74.5407 161.163 75.2207 161.287 75.8274 161.533C76.4407 161.78 76.9607 162.13 77.3874 162.583C77.8207 163.037 78.154 163.587 78.3874 164.233C78.6207 164.88 78.7374 165.607 78.7374 166.413C78.7374 167.22 78.6207 167.947 78.3874 168.593C78.154 169.24 77.8207 169.793 77.3874 170.253C76.9607 170.707 76.4407 171.057 75.8274 171.303C75.2207 171.55 74.5407 171.673 73.7874 171.673C73.0274 171.673 72.3407 171.55 71.7274 171.303C71.1207 171.057 70.6007 170.707 70.1674 170.253C69.734 169.793 69.4007 169.24 69.1674 168.593C68.934 167.947 68.8174 167.22 68.8174 166.413C68.8174 165.607 68.934 164.88 69.1674 164.233C69.4007 163.587 69.734 163.037 70.1674 162.583C70.6007 162.13 71.1207 161.78 71.7274 161.533C72.3407 161.287 73.0274 161.163 73.7874 161.163ZM73.7874 169.993C74.7074 169.993 75.3907 169.687 75.8374 169.073C76.2907 168.453 76.5174 167.57 76.5174 166.423C76.5174 165.277 76.2907 164.393 75.8374 163.773C75.3907 163.147 74.7074 162.833 73.7874 162.833C72.854 162.833 72.1607 163.147 71.7074 163.773C71.254 164.393 71.0274 165.277 71.0274 166.423C71.0274 167.57 71.254 168.453 71.7074 169.073C72.1607 169.687 72.854 169.993 73.7874 169.993ZM82.9932 156.723V171.523H80.8432V156.723H82.9932ZM90.0569 161.163C90.8102 161.163 91.4902 161.287 92.0969 161.533C92.7102 161.78 93.2302 162.13 93.6569 162.583C94.0902 163.037 94.4236 163.587 94.6569 164.233C94.8902 164.88 95.0069 165.607 95.0069 166.413C95.0069 167.22 94.8902 167.947 94.6569 168.593C94.4236 169.24 94.0902 169.793 93.6569 170.253C93.2302 170.707 92.7102 171.057 92.0969 171.303C91.4902 171.55 90.8102 171.673 90.0569 171.673C89.2969 171.673 88.6102 171.55 87.9969 171.303C87.3902 171.057 86.8702 170.707 86.4369 170.253C86.0036 169.793 85.6702 169.24 85.4369 168.593C85.2036 167.947 85.0869 167.22 85.0869 166.413C85.0869 165.607 85.2036 164.88 85.4369 164.233C85.6702 163.587 86.0036 163.037 86.4369 162.583C86.8702 162.13 87.3902 161.78 87.9969 161.533C88.6102 161.287 89.2969 161.163 90.0569 161.163ZM90.0569 169.993C90.9769 169.993 91.6602 169.687 92.1069 169.073C92.5602 168.453 92.7869 167.57 92.7869 166.423C92.7869 165.277 92.5602 164.393 92.1069 163.773C91.6602 163.147 90.9769 162.833 90.0569 162.833C89.1236 162.833 88.4302 163.147 87.9769 163.773C87.5236 164.393 87.2969 165.277 87.2969 166.423C87.2969 167.57 87.5236 168.453 87.9769 169.073C88.4302 169.687 89.1236 169.993 90.0569 169.993ZM99.1027 163.213C99.4227 162.567 99.8094 162.06 100.263 161.693C100.716 161.32 101.259 161.133 101.893 161.133C102.113 161.133 102.319 161.16 102.513 161.213C102.706 161.26 102.879 161.333 103.033 161.433L102.883 163.053C102.856 163.167 102.813 163.247 102.753 163.293C102.699 163.333 102.626 163.353 102.533 163.353C102.433 163.353 102.289 163.337 102.103 163.303C101.916 163.263 101.719 163.243 101.513 163.243C101.213 163.243 100.946 163.287 100.713 163.373C100.486 163.46 100.279 163.587 100.093 163.753C99.9127 163.92 99.7527 164.123 99.6127 164.363C99.4727 164.603 99.3427 164.877 99.2227 165.183V171.523H97.0727V161.323H98.3227C98.5494 161.323 98.706 161.367 98.7927 161.453C98.8794 161.533 98.9394 161.677 98.9727 161.883L99.1027 163.213ZM111.156 162.533C111.576 162.12 112.036 161.79 112.536 161.543C113.036 161.29 113.62 161.163 114.286 161.163C114.846 161.163 115.336 161.257 115.756 161.443C116.183 161.63 116.54 161.893 116.826 162.233C117.12 162.573 117.34 162.983 117.486 163.463C117.633 163.937 117.706 164.46 117.706 165.033V171.523H115.566V165.033C115.566 164.347 115.406 163.813 115.086 163.433C114.773 163.053 114.293 162.863 113.646 162.863C113.166 162.863 112.72 162.973 112.306 163.193C111.9 163.413 111.516 163.713 111.156 164.093V171.523H109.006V156.723H111.156V162.533ZM126.907 165.273C126.907 164.913 126.854 164.58 126.747 164.273C126.647 163.96 126.497 163.69 126.297 163.463C126.097 163.23 125.847 163.05 125.547 162.923C125.254 162.79 124.914 162.723 124.527 162.723C123.747 162.723 123.134 162.947 122.687 163.393C122.241 163.84 121.957 164.467 121.837 165.273H126.907ZM121.777 166.593C121.804 167.173 121.894 167.677 122.047 168.103C122.201 168.523 122.404 168.873 122.657 169.153C122.917 169.433 123.224 169.643 123.577 169.783C123.937 169.917 124.337 169.983 124.777 169.983C125.197 169.983 125.561 169.937 125.867 169.843C126.174 169.743 126.441 169.637 126.667 169.523C126.894 169.403 127.087 169.297 127.247 169.203C127.407 169.103 127.554 169.053 127.687 169.053C127.861 169.053 127.994 169.12 128.087 169.253L128.697 170.043C128.444 170.343 128.157 170.597 127.837 170.803C127.517 171.01 127.177 171.18 126.817 171.313C126.457 171.44 126.087 171.53 125.707 171.583C125.327 171.643 124.957 171.673 124.597 171.673C123.891 171.673 123.234 171.557 122.627 171.323C122.027 171.083 121.504 170.733 121.057 170.273C120.617 169.813 120.271 169.243 120.017 168.563C119.771 167.883 119.647 167.1 119.647 166.213C119.647 165.507 119.757 164.847 119.977 164.233C120.204 163.62 120.524 163.087 120.937 162.633C121.357 162.18 121.864 161.823 122.457 161.563C123.057 161.297 123.734 161.163 124.487 161.163C125.114 161.163 125.694 161.267 126.227 161.473C126.761 161.673 127.221 161.97 127.607 162.363C127.994 162.757 128.294 163.24 128.507 163.813C128.727 164.38 128.837 165.027 128.837 165.753C128.837 166.087 128.801 166.31 128.727 166.423C128.654 166.537 128.521 166.593 128.327 166.593H121.777ZM139.466 171.523H137.406C137.239 171.523 137.106 171.48 137.006 171.393C136.912 171.307 136.836 171.21 136.776 171.103L134.426 167.333C134.366 167.56 134.286 167.757 134.186 167.923L132.056 171.103C131.982 171.21 131.899 171.307 131.806 171.393C131.719 171.48 131.602 171.523 131.456 171.523H129.536L133.066 166.263L129.676 161.323H131.736C131.902 161.323 132.022 161.35 132.096 161.403C132.176 161.45 132.246 161.523 132.306 161.623L134.616 165.223C134.676 165.003 134.769 164.793 134.896 164.593L136.846 161.663C136.979 161.437 137.149 161.323 137.356 161.323H139.326L135.936 166.173L139.466 171.523ZM154.393 161.323L150.293 171.523H148.353L144.253 161.323H146.023C146.189 161.323 146.326 161.367 146.433 161.453C146.546 161.533 146.619 161.63 146.653 161.743L148.913 167.683C149.006 167.963 149.089 168.24 149.163 168.513C149.236 168.787 149.299 169.063 149.353 169.343C149.406 169.063 149.469 168.79 149.543 168.523C149.623 168.25 149.709 167.97 149.803 167.683L152.103 161.743C152.143 161.623 152.216 161.523 152.323 161.443C152.429 161.363 152.559 161.323 152.713 161.323H154.393ZM161.077 167.063C160.311 167.09 159.664 167.153 159.137 167.253C158.611 167.347 158.184 167.47 157.857 167.623C157.531 167.77 157.294 167.947 157.147 168.153C157.007 168.36 156.937 168.587 156.937 168.833C156.937 169.073 156.974 169.28 157.047 169.453C157.127 169.62 157.234 169.76 157.367 169.873C157.507 169.98 157.667 170.06 157.847 170.113C158.034 170.16 158.237 170.183 158.457 170.183C159.017 170.183 159.497 170.08 159.897 169.873C160.304 169.66 160.697 169.353 161.077 168.953V167.063ZM155.377 162.743C156.531 161.67 157.904 161.133 159.497 161.133C160.084 161.133 160.604 161.23 161.057 161.423C161.517 161.61 161.901 161.877 162.207 162.223C162.521 162.57 162.757 162.983 162.917 163.463C163.084 163.937 163.167 164.463 163.167 165.043V171.523H162.207C162.001 171.523 161.844 171.493 161.737 171.433C161.631 171.367 161.541 171.237 161.467 171.043L161.257 170.213C160.997 170.447 160.741 170.657 160.487 170.843C160.234 171.023 159.971 171.177 159.697 171.303C159.431 171.43 159.141 171.523 158.827 171.583C158.521 171.65 158.181 171.683 157.807 171.683C157.394 171.683 157.007 171.627 156.647 171.513C156.294 171.4 155.987 171.23 155.727 171.003C155.467 170.77 155.261 170.483 155.107 170.143C154.961 169.803 154.887 169.403 154.887 168.943C154.887 168.55 154.991 168.167 155.197 167.793C155.411 167.42 155.757 167.087 156.237 166.793C156.724 166.493 157.361 166.247 158.147 166.053C158.941 165.86 159.917 165.75 161.077 165.723V165.043C161.077 164.31 160.921 163.763 160.607 163.403C160.294 163.043 159.834 162.863 159.227 162.863C158.814 162.863 158.467 162.917 158.187 163.023C157.907 163.123 157.664 163.233 157.457 163.353C157.251 163.473 157.067 163.587 156.907 163.693C156.747 163.793 156.577 163.843 156.397 163.843C156.251 163.843 156.124 163.807 156.017 163.733C155.917 163.653 155.834 163.557 155.767 163.443L155.377 162.743ZM167.876 156.723V171.523H165.726V156.723H167.876ZM179.13 161.323V171.523H177.83C177.543 171.523 177.36 171.387 177.28 171.113L177.12 170.163C176.906 170.39 176.68 170.597 176.44 170.783C176.206 170.97 175.956 171.13 175.69 171.263C175.423 171.397 175.136 171.5 174.83 171.573C174.53 171.647 174.206 171.683 173.86 171.683C173.3 171.683 172.806 171.59 172.38 171.403C171.953 171.217 171.593 170.953 171.3 170.613C171.013 170.273 170.796 169.867 170.65 169.393C170.503 168.913 170.43 168.387 170.43 167.813V161.323H172.58V167.813C172.58 168.5 172.736 169.033 173.05 169.413C173.37 169.793 173.853 169.983 174.5 169.983C174.973 169.983 175.413 169.877 175.82 169.663C176.233 169.443 176.62 169.143 176.98 168.763V161.323H179.13ZM188.431 165.273C188.431 164.913 188.377 164.58 188.271 164.273C188.171 163.96 188.021 163.69 187.821 163.463C187.621 163.23 187.371 163.05 187.071 162.923C186.777 162.79 186.437 162.723 186.051 162.723C185.271 162.723 184.657 162.947 184.211 163.393C183.764 163.84 183.481 164.467 183.361 165.273H188.431ZM183.301 166.593C183.327 167.173 183.417 167.677 183.571 168.103C183.724 168.523 183.927 168.873 184.181 169.153C184.441 169.433 184.747 169.643 185.101 169.783C185.461 169.917 185.861 169.983 186.301 169.983C186.721 169.983 187.084 169.937 187.391 169.843C187.697 169.743 187.964 169.637 188.191 169.523C188.417 169.403 188.611 169.297 188.771 169.203C188.931 169.103 189.077 169.053 189.211 169.053C189.384 169.053 189.517 169.12 189.611 169.253L190.221 170.043C189.967 170.343 189.681 170.597 189.361 170.803C189.041 171.01 188.701 171.18 188.341 171.313C187.981 171.44 187.611 171.53 187.231 171.583C186.851 171.643 186.481 171.673 186.121 171.673C185.414 171.673 184.757 171.557 184.151 171.323C183.551 171.083 183.027 170.733 182.581 170.273C182.141 169.813 181.794 169.243 181.541 168.563C181.294 167.883 181.171 167.1 181.171 166.213C181.171 165.507 181.281 164.847 181.501 164.233C181.727 163.62 182.047 163.087 182.461 162.633C182.881 162.18 183.387 161.823 183.981 161.563C184.581 161.297 185.257 161.163 186.011 161.163C186.637 161.163 187.217 161.267 187.751 161.473C188.284 161.673 188.744 161.97 189.131 162.363C189.517 162.757 189.817 163.24 190.031 163.813C190.251 164.38 190.361 165.027 190.361 165.753C190.361 166.087 190.324 166.31 190.251 166.423C190.177 166.537 190.044 166.593 189.851 166.593H183.301ZM197.186 170.283C197.186 170.09 197.219 169.91 197.286 169.743C197.359 169.57 197.456 169.42 197.576 169.293C197.703 169.167 197.849 169.067 198.016 168.993C198.189 168.92 198.373 168.883 198.566 168.883C198.759 168.883 198.939 168.92 199.106 168.993C199.279 169.067 199.429 169.167 199.556 169.293C199.683 169.42 199.783 169.57 199.856 169.743C199.929 169.91 199.966 170.09 199.966 170.283C199.966 170.483 199.929 170.667 199.856 170.833C199.783 171 199.683 171.147 199.556 171.273C199.429 171.4 199.279 171.497 199.106 171.563C198.939 171.637 198.759 171.673 198.566 171.673C198.373 171.673 198.189 171.637 198.016 171.563C197.849 171.497 197.703 171.4 197.576 171.273C197.456 171.147 197.359 171 197.286 170.833C197.219 170.667 197.186 170.483 197.186 170.283ZM197.186 162.993C197.186 162.8 197.219 162.62 197.286 162.453C197.359 162.28 197.456 162.13 197.576 162.003C197.703 161.877 197.849 161.777 198.016 161.703C198.189 161.63 198.373 161.593 198.566 161.593C198.759 161.593 198.939 161.63 199.106 161.703C199.279 161.777 199.429 161.877 199.556 162.003C199.683 162.13 199.783 162.28 199.856 162.453C199.929 162.62 199.966 162.8 199.966 162.993C199.966 163.193 199.929 163.377 199.856 163.543C199.783 163.71 199.683 163.857 199.556 163.983C199.429 164.11 199.279 164.21 199.106 164.283C198.939 164.35 198.759 164.383 198.566 164.383C198.373 164.383 198.189 164.35 198.016 164.283C197.849 164.21 197.703 164.11 197.576 163.983C197.456 163.857 197.359 163.71 197.286 163.543C197.219 163.377 197.186 163.193 197.186 162.993Z" fill="#767474"/>
<path d="M66.711 211.313C66.8376 211.313 66.9476 211.363 67.041 211.463L67.971 212.473C67.3843 213.18 66.6643 213.727 65.811 214.113C64.9576 214.493 63.9376 214.683 62.751 214.683C61.6976 214.683 60.7443 214.503 59.891 214.143C59.0443 213.777 58.321 213.27 57.721 212.623C57.121 211.97 56.6576 211.193 56.331 210.293C56.011 209.393 55.851 208.403 55.851 207.323C55.851 206.243 56.021 205.253 56.361 204.353C56.7076 203.447 57.191 202.67 57.811 202.023C58.4376 201.37 59.1843 200.863 60.051 200.503C60.9243 200.143 61.8843 199.963 62.931 199.963C63.971 199.963 64.8876 200.133 65.681 200.473C66.481 200.807 67.1743 201.253 67.761 201.813L66.991 202.903C66.9376 202.977 66.8743 203.04 66.801 203.093C66.7276 203.147 66.6276 203.173 66.501 203.173C66.3676 203.173 66.2143 203.113 66.041 202.993C65.8743 202.867 65.6576 202.73 65.391 202.583C65.131 202.43 64.801 202.293 64.401 202.173C64.0076 202.047 63.5143 201.983 62.921 201.983C62.2343 201.983 61.6043 202.103 61.031 202.343C60.4576 202.583 59.9643 202.933 59.551 203.393C59.1376 203.853 58.8143 204.413 58.581 205.073C58.3543 205.733 58.241 206.483 58.241 207.323C58.241 208.17 58.361 208.927 58.601 209.593C58.841 210.253 59.171 210.813 59.591 211.273C60.011 211.727 60.5043 212.073 61.071 212.313C61.6376 212.553 62.2476 212.673 62.901 212.673C63.301 212.673 63.6576 212.653 63.971 212.613C64.291 212.567 64.5843 212.497 64.851 212.403C65.1176 212.303 65.3676 212.18 65.601 212.033C65.841 211.887 66.0776 211.707 66.311 211.493C66.4443 211.373 66.5776 211.313 66.711 211.313ZM73.7874 204.163C74.5407 204.163 75.2207 204.287 75.8274 204.533C76.4407 204.78 76.9607 205.13 77.3874 205.583C77.8207 206.037 78.154 206.587 78.3874 207.233C78.6207 207.88 78.7374 208.607 78.7374 209.413C78.7374 210.22 78.6207 210.947 78.3874 211.593C78.154 212.24 77.8207 212.793 77.3874 213.253C76.9607 213.707 76.4407 214.057 75.8274 214.303C75.2207 214.55 74.5407 214.673 73.7874 214.673C73.0274 214.673 72.3407 214.55 71.7274 214.303C71.1207 214.057 70.6007 213.707 70.1674 213.253C69.734 212.793 69.4007 212.24 69.1674 211.593C68.934 210.947 68.8174 210.22 68.8174 209.413C68.8174 208.607 68.934 207.88 69.1674 207.233C69.4007 206.587 69.734 206.037 70.1674 205.583C70.6007 205.13 71.1207 204.78 71.7274 204.533C72.3407 204.287 73.0274 204.163 73.7874 204.163ZM73.7874 212.993C74.7074 212.993 75.3907 212.687 75.8374 212.073C76.2907 211.453 76.5174 210.57 76.5174 209.423C76.5174 208.277 76.2907 207.393 75.8374 206.773C75.3907 206.147 74.7074 205.833 73.7874 205.833C72.854 205.833 72.1607 206.147 71.7074 206.773C71.254 207.393 71.0274 208.277 71.0274 209.423C71.0274 210.57 71.254 211.453 71.7074 212.073C72.1607 212.687 72.854 212.993 73.7874 212.993ZM82.9932 199.723V214.523H80.8432V199.723H82.9932ZM90.0569 204.163C90.8102 204.163 91.4902 204.287 92.0969 204.533C92.7102 204.78 93.2302 205.13 93.6569 205.583C94.0902 206.037 94.4236 206.587 94.6569 207.233C94.8902 207.88 95.0069 208.607 95.0069 209.413C95.0069 210.22 94.8902 210.947 94.6569 211.593C94.4236 212.24 94.0902 212.793 93.6569 213.253C93.2302 213.707 92.7102 214.057 92.0969 214.303C91.4902 214.55 90.8102 214.673 90.0569 214.673C89.2969 214.673 88.6102 214.55 87.9969 214.303C87.3902 214.057 86.8702 213.707 86.4369 213.253C86.0036 212.793 85.6702 212.24 85.4369 211.593C85.2036 210.947 85.0869 210.22 85.0869 209.413C85.0869 208.607 85.2036 207.88 85.4369 207.233C85.6702 206.587 86.0036 206.037 86.4369 205.583C86.8702 205.13 87.3902 204.78 87.9969 204.533C88.6102 204.287 89.2969 204.163 90.0569 204.163ZM90.0569 212.993C90.9769 212.993 91.6602 212.687 92.1069 212.073C92.5602 211.453 92.7869 210.57 92.7869 209.423C92.7869 208.277 92.5602 207.393 92.1069 206.773C91.6602 206.147 90.9769 205.833 90.0569 205.833C89.1236 205.833 88.4302 206.147 87.9769 206.773C87.5236 207.393 87.2969 208.277 87.2969 209.423C87.2969 210.57 87.5236 211.453 87.9769 212.073C88.4302 212.687 89.1236 212.993 90.0569 212.993ZM99.1027 206.213C99.4227 205.567 99.8094 205.06 100.263 204.693C100.716 204.32 101.259 204.133 101.893 204.133C102.113 204.133 102.319 204.16 102.513 204.213C102.706 204.26 102.879 204.333 103.033 204.433L102.883 206.053C102.856 206.167 102.813 206.247 102.753 206.293C102.699 206.333 102.626 206.353 102.533 206.353C102.433 206.353 102.289 206.337 102.103 206.303C101.916 206.263 101.719 206.243 101.513 206.243C101.213 206.243 100.946 206.287 100.713 206.373C100.486 206.46 100.279 206.587 100.093 206.753C99.9127 206.92 99.7527 207.123 99.6127 207.363C99.4727 207.603 99.3427 207.877 99.2227 208.183V214.523H97.0727V204.323H98.3227C98.5494 204.323 98.706 204.367 98.7927 204.453C98.8794 204.533 98.9394 204.677 98.9727 204.883L99.1027 206.213ZM111.016 205.673C111.236 205.447 111.463 205.243 111.696 205.063C111.936 204.877 112.19 204.717 112.456 204.583C112.723 204.45 113.006 204.347 113.306 204.273C113.606 204.2 113.933 204.163 114.286 204.163C114.846 204.163 115.336 204.257 115.756 204.443C116.183 204.63 116.54 204.893 116.826 205.233C117.12 205.573 117.34 205.983 117.486 206.463C117.633 206.937 117.706 207.46 117.706 208.033V214.523H115.566V208.033C115.566 207.347 115.406 206.813 115.086 206.433C114.773 206.053 114.293 205.863 113.646 205.863C113.166 205.863 112.72 205.973 112.306 206.193C111.9 206.413 111.516 206.713 111.156 207.093V214.523H109.006V204.323H110.306C110.6 204.323 110.786 204.46 110.866 204.733L111.016 205.673ZM124.627 204.163C125.381 204.163 126.061 204.287 126.667 204.533C127.281 204.78 127.801 205.13 128.227 205.583C128.661 206.037 128.994 206.587 129.227 207.233C129.461 207.88 129.577 208.607 129.577 209.413C129.577 210.22 129.461 210.947 129.227 211.593C128.994 212.24 128.661 212.793 128.227 213.253C127.801 213.707 127.281 214.057 126.667 214.303C126.061 214.55 125.381 214.673 124.627 214.673C123.867 214.673 123.181 214.55 122.567 214.303C121.961 214.057 121.441 213.707 121.007 213.253C120.574 212.793 120.241 212.24 120.007 211.593C119.774 210.947 119.657 210.22 119.657 209.413C119.657 208.607 119.774 207.88 120.007 207.233C120.241 206.587 120.574 206.037 121.007 205.583C121.441 205.13 121.961 204.78 122.567 204.533C123.181 204.287 123.867 204.163 124.627 204.163ZM124.627 212.993C125.547 212.993 126.231 212.687 126.677 212.073C127.131 211.453 127.357 210.57 127.357 209.423C127.357 208.277 127.131 207.393 126.677 206.773C126.231 206.147 125.547 205.833 124.627 205.833C123.694 205.833 123.001 206.147 122.547 206.773C122.094 207.393 121.867 208.277 121.867 209.423C121.867 210.57 122.094 211.453 122.547 212.073C123.001 212.687 123.694 212.993 124.627 212.993ZM131.643 214.523V204.323H132.943C133.236 204.323 133.423 204.46 133.503 204.733L133.643 205.623C133.83 205.41 134.023 205.217 134.223 205.043C134.423 204.863 134.636 204.71 134.863 204.583C135.096 204.45 135.343 204.347 135.603 204.273C135.87 204.2 136.156 204.163 136.463 204.163C136.79 204.163 137.09 204.21 137.363 204.303C137.636 204.397 137.876 204.53 138.083 204.703C138.296 204.877 138.48 205.087 138.633 205.333C138.786 205.58 138.913 205.857 139.013 206.163C139.166 205.81 139.36 205.507 139.593 205.253C139.826 205 140.086 204.793 140.373 204.633C140.66 204.473 140.963 204.357 141.283 204.283C141.61 204.203 141.94 204.163 142.273 204.163C142.82 204.163 143.306 204.25 143.733 204.423C144.166 204.597 144.53 204.85 144.823 205.183C145.123 205.51 145.35 205.913 145.503 206.393C145.656 206.873 145.733 207.42 145.733 208.033V214.523H143.583V208.033C143.583 207.313 143.426 206.773 143.113 206.413C142.806 206.047 142.35 205.863 141.743 205.863C141.47 205.863 141.213 205.91 140.973 206.003C140.733 206.097 140.523 206.233 140.343 206.413C140.163 206.593 140.02 206.82 139.913 207.093C139.813 207.36 139.763 207.673 139.763 208.033V214.523H137.613V208.033C137.613 207.287 137.463 206.74 137.163 206.393C136.863 206.04 136.423 205.863 135.843 205.863C135.443 205.863 135.073 205.967 134.733 206.173C134.393 206.373 134.08 206.65 133.793 207.003V214.523H131.643ZM154.935 208.273C154.935 207.913 154.881 207.58 154.775 207.273C154.675 206.96 154.525 206.69 154.325 206.463C154.125 206.23 153.875 206.05 153.575 205.923C153.281 205.79 152.941 205.723 152.555 205.723C151.775 205.723 151.161 205.947 150.715 206.393C150.268 206.84 149.985 207.467 149.865 208.273H154.935ZM149.805 209.593C149.831 210.173 149.921 210.677 150.075 211.103C150.228 211.523 150.431 211.873 150.685 212.153C150.945 212.433 151.251 212.643 151.605 212.783C151.965 212.917 152.365 212.983 152.805 212.983C153.225 212.983 153.588 212.937 153.895 212.843C154.201 212.743 154.468 212.637 154.695 212.523C154.921 212.403 155.115 212.297 155.275 212.203C155.435 212.103 155.581 212.053 155.715 212.053C155.888 212.053 156.021 212.12 156.115 212.253L156.725 213.043C156.471 213.343 156.185 213.597 155.865 213.803C155.545 214.01 155.205 214.18 154.845 214.313C154.485 214.44 154.115 214.53 153.735 214.583C153.355 214.643 152.985 214.673 152.625 214.673C151.918 214.673 151.261 214.557 150.655 214.323C150.055 214.083 149.531 213.733 149.085 213.273C148.645 212.813 148.298 212.243 148.045 211.563C147.798 210.883 147.675 210.1 147.675 209.213C147.675 208.507 147.785 207.847 148.005 207.233C148.231 206.62 148.551 206.087 148.965 205.633C149.385 205.18 149.891 204.823 150.485 204.563C151.085 204.297 151.761 204.163 152.515 204.163C153.141 204.163 153.721 204.267 154.255 204.473C154.788 204.673 155.248 204.97 155.635 205.363C156.021 205.757 156.321 206.24 156.535 206.813C156.755 207.38 156.865 208.027 156.865 208.753C156.865 209.087 156.828 209.31 156.755 209.423C156.681 209.537 156.548 209.593 156.355 209.593H149.805ZM160.88 205.673C161.1 205.447 161.326 205.243 161.56 205.063C161.8 204.877 162.053 204.717 162.32 204.583C162.586 204.45 162.87 204.347 163.17 204.273C163.47 204.2 163.796 204.163 164.15 204.163C164.71 204.163 165.2 204.257 165.62 204.443C166.046 204.63 166.403 204.893 166.69 205.233C166.983 205.573 167.203 205.983 167.35 206.463C167.496 206.937 167.57 207.46 167.57 208.033V214.523H165.43V208.033C165.43 207.347 165.27 206.813 164.95 206.433C164.636 206.053 164.156 205.863 163.51 205.863C163.03 205.863 162.583 205.973 162.17 206.193C161.763 206.413 161.38 206.713 161.02 207.093V214.523H158.87V204.323H160.17C160.463 204.323 160.65 204.46 160.73 204.733L160.88 205.673ZM177.291 206.323C177.224 206.41 177.161 206.477 177.101 206.523C177.041 206.57 176.954 206.593 176.841 206.593C176.727 206.593 176.607 206.553 176.481 206.473C176.361 206.393 176.214 206.307 176.041 206.213C175.874 206.113 175.671 206.023 175.431 205.943C175.191 205.863 174.891 205.823 174.531 205.823C174.064 205.823 173.654 205.907 173.301 206.073C172.954 206.24 172.661 206.48 172.421 206.793C172.187 207.1 172.011 207.477 171.891 207.923C171.777 208.363 171.721 208.86 171.721 209.413C171.721 209.987 171.784 210.497 171.911 210.943C172.037 211.39 172.217 211.767 172.451 212.073C172.691 212.38 172.977 212.613 173.311 212.773C173.651 212.933 174.031 213.013 174.451 213.013C174.864 213.013 175.201 212.963 175.461 212.863C175.721 212.763 175.937 212.653 176.111 212.533C176.284 212.413 176.431 212.303 176.551 212.203C176.677 212.103 176.811 212.053 176.951 212.053C177.124 212.053 177.257 212.12 177.351 212.253L177.961 213.043C177.714 213.343 177.441 213.597 177.141 213.803C176.841 214.01 176.524 214.18 176.191 214.313C175.857 214.44 175.511 214.53 175.151 214.583C174.791 214.643 174.427 214.673 174.061 214.673C173.427 214.673 172.834 214.557 172.281 214.323C171.734 214.083 171.254 213.74 170.841 213.293C170.434 212.84 170.111 212.29 169.871 211.643C169.637 210.99 169.521 210.247 169.521 209.413C169.521 208.66 169.627 207.963 169.841 207.323C170.054 206.677 170.364 206.12 170.771 205.653C171.184 205.187 171.694 204.823 172.301 204.563C172.907 204.297 173.607 204.163 174.401 204.163C175.141 204.163 175.791 204.283 176.351 204.523C176.917 204.763 177.421 205.103 177.861 205.543L177.291 206.323ZM181.88 199.723V214.523H179.73V199.723H181.88ZM189.984 210.063C189.217 210.09 188.57 210.153 188.044 210.253C187.517 210.347 187.09 210.47 186.764 210.623C186.437 210.77 186.2 210.947 186.054 211.153C185.914 211.36 185.844 211.587 185.844 211.833C185.844 212.073 185.88 212.28 185.954 212.453C186.034 212.62 186.14 212.76 186.274 212.873C186.414 212.98 186.574 213.06 186.754 213.113C186.94 213.16 187.144 213.183 187.364 213.183C187.924 213.183 188.404 213.08 188.804 212.873C189.21 212.66 189.604 212.353 189.984 211.953V210.063ZM184.284 205.743C185.437 204.67 186.81 204.133 188.404 204.133C188.99 204.133 189.51 204.23 189.964 204.423C190.424 204.61 190.807 204.877 191.114 205.223C191.427 205.57 191.664 205.983 191.824 206.463C191.99 206.937 192.074 207.463 192.074 208.043V214.523H191.114C190.907 214.523 190.75 214.493 190.644 214.433C190.537 214.367 190.447 214.237 190.374 214.043L190.164 213.213C189.904 213.447 189.647 213.657 189.394 213.843C189.14 214.023 188.877 214.177 188.604 214.303C188.337 214.43 188.047 214.523 187.734 214.583C187.427 214.65 187.087 214.683 186.714 214.683C186.3 214.683 185.914 214.627 185.554 214.513C185.2 214.4 184.894 214.23 184.634 214.003C184.374 213.77 184.167 213.483 184.014 213.143C183.867 212.803 183.794 212.403 183.794 211.943C183.794 211.55 183.897 211.167 184.104 210.793C184.317 210.42 184.664 210.087 185.144 209.793C185.63 209.493 186.267 209.247 187.054 209.053C187.847 208.86 188.824 208.75 189.984 208.723V208.043C189.984 207.31 189.827 206.763 189.514 206.403C189.2 206.043 188.74 205.863 188.134 205.863C187.72 205.863 187.374 205.917 187.094 206.023C186.814 206.123 186.57 206.233 186.364 206.353C186.157 206.473 185.974 206.587 185.814 206.693C185.654 206.793 185.484 206.843 185.304 206.843C185.157 206.843 185.03 206.807 184.924 206.733C184.824 206.653 184.74 206.557 184.674 206.443L184.284 205.743ZM197.726 214.683C196.879 214.683 196.226 214.447 195.766 213.973C195.312 213.493 195.086 212.82 195.086 211.953V206.013H193.966C193.846 206.013 193.742 205.977 193.656 205.903C193.569 205.823 193.526 205.707 193.526 205.553V204.683L195.176 204.443L195.646 201.493C195.679 201.38 195.736 201.29 195.816 201.223C195.896 201.15 196.002 201.113 196.136 201.113H197.236V204.463H200.066V206.013H197.236V211.803C197.236 212.17 197.326 212.45 197.506 212.643C197.686 212.837 197.926 212.933 198.226 212.933C198.392 212.933 198.536 212.913 198.656 212.873C198.776 212.827 198.879 212.78 198.966 212.733C199.052 212.68 199.126 212.633 199.186 212.593C199.252 212.547 199.316 212.523 199.376 212.523C199.496 212.523 199.592 212.59 199.666 212.723L200.306 213.773C199.972 214.067 199.579 214.293 199.126 214.453C198.672 214.607 198.206 214.683 197.726 214.683ZM210.36 204.323V214.523H209.06C208.774 214.523 208.59 214.387 208.51 214.113L208.35 213.163C208.137 213.39 207.91 213.597 207.67 213.783C207.437 213.97 207.187 214.13 206.92 214.263C206.654 214.397 206.367 214.5 206.06 214.573C205.76 214.647 205.437 214.683 205.09 214.683C204.53 214.683 204.037 214.59 203.61 214.403C203.184 214.217 202.824 213.953 202.53 213.613C202.244 213.273 202.027 212.867 201.88 212.393C201.734 211.913 201.66 211.387 201.66 210.813V204.323H203.81V210.813C203.81 211.5 203.967 212.033 204.28 212.413C204.6 212.793 205.084 212.983 205.73 212.983C206.204 212.983 206.644 212.877 207.05 212.663C207.464 212.443 207.85 212.143 208.21 211.763V204.323H210.36ZM215.001 206.213C215.321 205.567 215.708 205.06 216.161 204.693C216.614 204.32 217.158 204.133 217.791 204.133C218.011 204.133 218.218 204.16 218.411 204.213C218.604 204.26 218.778 204.333 218.931 204.433L218.781 206.053C218.754 206.167 218.711 206.247 218.651 206.293C218.598 206.333 218.524 206.353 218.431 206.353C218.331 206.353 218.188 206.337 218.001 206.303C217.814 206.263 217.618 206.243 217.411 206.243C217.111 206.243 216.844 206.287 216.611 206.373C216.384 206.46 216.178 206.587 215.991 206.753C215.811 206.92 215.651 207.123 215.511 207.363C215.371 207.603 215.241 207.877 215.121 208.183V214.523H212.971V204.323H214.221C214.448 204.323 214.604 204.367 214.691 204.453C214.778 204.533 214.838 204.677 214.871 204.883L215.001 206.213ZM226.692 208.273C226.692 207.913 226.639 207.58 226.532 207.273C226.432 206.96 226.282 206.69 226.082 206.463C225.882 206.23 225.632 206.05 225.332 205.923C225.039 205.79 224.699 205.723 224.312 205.723C223.532 205.723 222.919 205.947 222.472 206.393C222.026 206.84 221.742 207.467 221.622 208.273H226.692ZM221.562 209.593C221.589 210.173 221.679 210.677 221.832 211.103C221.986 211.523 222.189 211.873 222.442 212.153C222.702 212.433 223.009 212.643 223.362 212.783C223.722 212.917 224.122 212.983 224.562 212.983C224.982 212.983 225.346 212.937 225.652 212.843C225.959 212.743 226.226 212.637 226.452 212.523C226.679 212.403 226.872 212.297 227.032 212.203C227.192 212.103 227.339 212.053 227.472 212.053C227.646 212.053 227.779 212.12 227.872 212.253L228.482 213.043C228.229 213.343 227.942 213.597 227.622 213.803C227.302 214.01 226.962 214.18 226.602 214.313C226.242 214.44 225.872 214.53 225.492 214.583C225.112 214.643 224.742 214.673 224.382 214.673C223.676 214.673 223.019 214.557 222.412 214.323C221.812 214.083 221.289 213.733 220.842 213.273C220.402 212.813 220.056 212.243 219.802 211.563C219.556 210.883 219.432 210.1 219.432 209.213C219.432 208.507 219.542 207.847 219.762 207.233C219.989 206.62 220.309 206.087 220.722 205.633C221.142 205.18 221.649 204.823 222.242 204.563C222.842 204.297 223.519 204.163 224.272 204.163C224.899 204.163 225.479 204.267 226.012 204.473C226.546 204.673 227.006 204.97 227.392 205.363C227.779 205.757 228.079 206.24 228.292 206.813C228.512 207.38 228.622 208.027 228.622 208.753C228.622 209.087 228.586 209.31 228.512 209.423C228.439 209.537 228.306 209.593 228.112 209.593H221.562ZM235.448 213.283C235.448 213.09 235.481 212.91 235.548 212.743C235.621 212.57 235.718 212.42 235.838 212.293C235.965 212.167 236.111 212.067 236.278 211.993C236.451 211.92 236.635 211.883 236.828 211.883C237.021 211.883 237.201 211.92 237.368 211.993C237.541 212.067 237.691 212.167 237.818 212.293C237.945 212.42 238.045 212.57 238.118 212.743C238.191 212.91 238.228 213.09 238.228 213.283C238.228 213.483 238.191 213.667 238.118 213.833C238.045 214 237.945 214.147 237.818 214.273C237.691 214.4 237.541 214.497 237.368 214.563C237.201 214.637 237.021 214.673 236.828 214.673C236.635 214.673 236.451 214.637 236.278 214.563C236.111 214.497 235.965 214.4 235.838 214.273C235.718 214.147 235.621 214 235.548 213.833C235.481 213.667 235.448 213.483 235.448 213.283ZM235.448 205.993C235.448 205.8 235.481 205.62 235.548 205.453C235.621 205.28 235.718 205.13 235.838 205.003C235.965 204.877 236.111 204.777 236.278 204.703C236.451 204.63 236.635 204.593 236.828 204.593C237.021 204.593 237.201 204.63 237.368 204.703C237.541 204.777 237.691 204.877 237.818 205.003C237.945 205.13 238.045 205.28 238.118 205.453C238.191 205.62 238.228 205.8 238.228 205.993C238.228 206.193 238.191 206.377 238.118 206.543C238.045 206.71 237.945 206.857 237.818 206.983C237.691 207.11 237.541 207.21 237.368 207.283C237.201 207.35 237.021 207.383 236.828 207.383C236.635 207.383 236.451 207.35 236.278 207.283C236.111 207.21 235.965 207.11 235.838 206.983C235.718 206.857 235.621 206.71 235.548 206.543C235.481 206.377 235.448 206.193 235.448 205.993Z" fill="#767474"/>
<line y1="-1" x2="359.999" y2="-1" transform="matrix(1 0 -0.000718688 1 32 145.047)" stroke="#008989" stroke-width="2"/>
<line y1="-1" x2="359.999" y2="-1" transform="matrix(1 0 -0.00053006 1 32.0015 194.523)" stroke="#008989" stroke-width="2"/>
</svg>
