<svg width="89" height="120" viewBox="0 0 89 120" fill="none" xmlns="http://www.w3.org/2000/svg">
<rect x="1.02564" y="1.02564" width="86.1538" height="117.949" rx="15.3846" fill="#FFF9F6"/>
<rect x="1.02564" y="1.02564" width="86.1538" height="117.949" rx="15.3846" stroke="#B9BABA" stroke-width="2.05128"/>
<rect x="16.923" y="19.2159" width="54.359" height="54.359" rx="27.1795" fill="#717F85"/>
<rect x="16.923" y="19.2159" width="54.359" height="54.359" rx="27.1795" stroke="#B9BABA" stroke-width="1.02564"/>
<g clip-path="url(#clip0_398_4819)">
<path d="M33.1906 59.1966L30.7637 30.3984H57.4407L55.0105 59.1921L44.086 62.3952L33.1906 59.1966Z" fill="#1572B6"/>
<path d="M44.1016 59.936L52.9298 57.3477L55.0066 32.7422H44.1016V59.936Z" fill="#33A9DC"/>
<path d="M44.1016 43.1724H48.5211L48.8258 39.5556H44.1016V36.0234H52.4759L52.396 36.9708L51.5758 46.7046H44.1016V43.1724Z" fill="white"/>
<path d="M44.122 52.3516L44.1069 52.3562L40.3876 51.2934L40.1499 48.4766H36.7969L37.2648 54.0223L44.1058 56.0312L44.122 56.0266V52.3516Z" fill="#EBEBEB"/>
<path d="M48.238 46.5547L47.836 51.2845L44.1113 52.3472V56.0223L50.9578 54.0156L51.0086 53.4191L51.5888 46.5547H48.238Z" fill="white"/>
<path d="M44.1129 36.0234V39.5556H36.0454L35.9784 38.7614L35.8261 36.9708L35.7461 36.0234H44.1129ZM44.101 43.1724V46.7046H40.4282L40.3612 45.9104L40.2099 44.1197L40.1299 43.1724H44.101Z" fill="#EBEBEB"/>
</g>
<path d="M35.8893 88.0337H34.8053C34.7412 87.7219 34.6291 87.448 34.4688 87.212C34.3115 86.976 34.1191 86.7778 33.8919 86.6176C33.6675 86.4544 33.4184 86.332 33.1445 86.2504C32.8706 86.1689 32.5851 86.1281 32.2879 86.1281C31.7459 86.1281 31.2549 86.265 30.815 86.5389C30.3779 86.8128 30.0297 87.2163 29.7704 87.7496C29.514 88.2828 29.3858 88.9369 29.3858 89.712C29.3858 90.487 29.514 91.1412 29.7704 91.6744C30.0297 92.2076 30.3779 92.6112 30.815 92.8851C31.2549 93.1589 31.7459 93.2959 32.2879 93.2959C32.5851 93.2959 32.8706 93.2551 33.1445 93.1735C33.4184 93.0919 33.6675 92.971 33.8919 92.8108C34.1191 92.6476 34.3115 92.448 34.4688 92.212C34.6291 91.973 34.7412 91.6992 34.8053 91.3903H35.8893C35.8077 91.8478 35.6591 92.2571 35.4434 92.6184C35.2278 92.9797 34.9598 93.2872 34.6393 93.5406C34.3187 93.7912 33.9589 93.9821 33.5597 94.1132C33.1634 94.2443 32.7395 94.3099 32.2879 94.3099C31.5245 94.3099 30.8455 94.1234 30.2511 93.7504C29.6567 93.3775 29.1891 92.8472 28.8482 92.1595C28.5073 91.4719 28.3368 90.656 28.3368 89.712C28.3368 88.7679 28.5073 87.9521 28.8482 87.2644C29.1891 86.5768 29.6567 86.0465 30.2511 85.6735C30.8455 85.3006 31.5245 85.1141 32.2879 85.1141C32.7395 85.1141 33.1634 85.1796 33.5597 85.3108C33.9589 85.4419 34.3187 85.6342 34.6393 85.8877C34.9598 86.1383 35.2278 86.4442 35.4434 86.8055C35.6591 87.1639 35.8077 87.5733 35.8893 88.0337ZM42.5359 87.4742C42.4834 87.0313 42.2707 86.6875 41.8978 86.4427C41.5248 86.198 41.0674 86.0756 40.5254 86.0756C40.1291 86.0756 39.7824 86.1397 39.4852 86.2679C39.1909 86.3961 38.9607 86.5724 38.7946 86.7968C38.6315 87.0211 38.5499 87.2761 38.5499 87.5616C38.5499 87.8006 38.6067 88.006 38.7203 88.1779C38.8369 88.3469 38.9855 88.4882 39.1661 88.6018C39.3468 88.7126 39.5362 88.8043 39.7343 88.8772C39.9324 88.9471 40.1146 89.0039 40.2806 89.0476L41.1897 89.2924C41.4228 89.3536 41.6822 89.4381 41.9677 89.5459C42.2562 89.6537 42.5315 89.8008 42.7938 89.9873C43.0589 90.1709 43.2774 90.4069 43.4493 90.6954C43.6213 90.9838 43.7072 91.3378 43.7072 91.7574C43.7072 92.2411 43.5805 92.6782 43.327 93.0686C43.0764 93.4591 42.7093 93.7694 42.2256 93.9996C41.7448 94.2297 41.1606 94.3448 40.4729 94.3448C39.8319 94.3448 39.2769 94.2414 38.8077 94.0345C38.3415 93.8277 37.9744 93.5392 37.7063 93.1691C37.4412 92.7991 37.2911 92.3693 37.2562 91.8798H38.375C38.4042 92.2178 38.5178 92.4975 38.716 92.719C38.917 92.9375 39.1705 93.1007 39.4764 93.2085C39.7853 93.3134 40.1175 93.3658 40.4729 93.3658C40.8867 93.3658 41.2582 93.2988 41.5875 93.1648C41.9167 93.0278 42.1775 92.8384 42.3698 92.5966C42.5621 92.3518 42.6583 92.0663 42.6583 91.7399C42.6583 91.4427 42.5752 91.2009 42.4091 91.0144C42.2431 90.8279 42.0245 90.6764 41.7535 90.5599C41.4826 90.4433 41.1897 90.3413 40.875 90.2539L39.7736 89.9392C39.0743 89.7382 38.5207 89.4512 38.1128 89.0782C37.7049 88.7053 37.5009 88.2172 37.5009 87.6141C37.5009 87.1129 37.6364 86.6758 37.9074 86.3029C38.1813 85.927 38.5484 85.6356 39.0088 85.4288C39.4721 85.219 39.9893 85.1141 40.5604 85.1141C41.1373 85.1141 41.6501 85.2175 42.0988 85.4244C42.5475 85.6284 42.903 85.9081 43.1653 86.2635C43.4304 86.619 43.5703 87.0226 43.5848 87.4742H42.5359ZM50.3844 87.4742C50.332 87.0313 50.1193 86.6875 49.7463 86.4427C49.3734 86.198 48.9159 86.0756 48.374 86.0756C47.9777 86.0756 47.6309 86.1397 47.3337 86.2679C47.0395 86.3961 46.8093 86.5724 46.6432 86.7968C46.48 87.0211 46.3984 87.2761 46.3984 87.5616C46.3984 87.8006 46.4552 88.006 46.5689 88.1779C46.6854 88.3469 46.834 88.4882 47.0147 88.6018C47.1953 88.7126 47.3847 88.8043 47.5829 88.8772C47.781 88.9471 47.9631 89.0039 48.1292 89.0476L49.0383 89.2924C49.2714 89.3536 49.5307 89.4381 49.8163 89.5459C50.1047 89.6537 50.3801 89.8008 50.6423 89.9873C50.9075 90.1709 51.126 90.4069 51.2979 90.6954C51.4698 90.9838 51.5558 91.3378 51.5558 91.7574C51.5558 92.2411 51.429 92.6782 51.1755 93.0686C50.9249 93.4591 50.5578 93.7694 50.0741 93.9996C49.5934 94.2297 49.0092 94.3448 48.3215 94.3448C47.6805 94.3448 47.1254 94.2414 46.6563 94.0345C46.1901 93.8277 45.823 93.5392 45.5549 93.1691C45.2897 92.7991 45.1397 92.3693 45.1047 91.8798H46.2236C46.2527 92.2178 46.3664 92.4975 46.5645 92.719C46.7656 92.9375 47.0191 93.1007 47.325 93.2085C47.6339 93.3134 47.966 93.3658 48.3215 93.3658C48.7353 93.3658 49.1068 93.2988 49.436 93.1648C49.7653 93.0278 50.0261 92.8384 50.2184 92.5966C50.4107 92.3518 50.5068 92.0663 50.5068 91.7399C50.5068 91.4427 50.4238 91.2009 50.2577 91.0144C50.0916 90.8279 49.8731 90.6764 49.6021 90.5599C49.3311 90.4433 49.0383 90.3413 48.7236 90.2539L47.6222 89.9392C46.9229 89.7382 46.3693 89.4512 45.9614 89.0782C45.5534 88.7053 45.3495 88.2172 45.3495 87.6141C45.3495 87.1129 45.485 86.6758 45.7559 86.3029C46.0298 85.927 46.397 85.6356 46.8573 85.4288C47.3206 85.219 47.8378 85.1141 48.4089 85.1141C48.9858 85.1141 49.4987 85.2175 49.9474 85.4244C50.3961 85.6284 50.7516 85.9081 51.0138 86.2635C51.279 86.619 51.4188 87.0226 51.4334 87.4742H50.3844ZM56.205 94.3099C55.6281 94.3099 55.1138 94.2108 54.6622 94.0127C54.2135 93.8145 53.8565 93.5392 53.5914 93.1866C53.3292 92.8311 53.1864 92.4189 53.1631 91.9497H54.2645C54.2878 92.2382 54.3868 92.4873 54.5617 92.6971C54.7365 92.904 54.9652 93.0642 55.2479 93.1779C55.5305 93.2915 55.8437 93.3483 56.1875 93.3483C56.5722 93.3483 56.9131 93.2813 57.2103 93.1473C57.5075 93.0133 57.7406 92.8268 57.9096 92.5878C58.0786 92.3489 58.1631 92.0721 58.1631 91.7574C58.1631 91.4282 58.0815 91.1383 57.9183 90.8877C57.7551 90.6342 57.5162 90.436 57.2015 90.2933C56.8868 90.1505 56.5022 90.0791 56.0477 90.0791H55.3309V89.1176H56.0477C56.4032 89.1176 56.7149 89.0535 56.983 88.9253C57.254 88.7971 57.4652 88.6164 57.6167 88.3833C57.7712 88.1502 57.8484 87.8763 57.8484 87.5616C57.8484 87.2586 57.7814 86.9949 57.6473 86.7705C57.5133 86.5462 57.3239 86.3714 57.0792 86.2461C56.8373 86.1208 56.5518 86.0581 56.2225 86.0581C55.9137 86.0581 55.6223 86.1149 55.3484 86.2286C55.0774 86.3393 54.856 86.501 54.6841 86.7137C54.5121 86.9235 54.4189 87.177 54.4043 87.4742H53.3554C53.3729 87.0051 53.5142 86.5943 53.7793 86.2417C54.0445 85.8862 54.3912 85.6094 54.8195 85.4113C55.2508 85.2131 55.7243 85.1141 56.24 85.1141C56.7936 85.1141 57.2686 85.2263 57.6648 85.4506C58.0611 85.6721 58.3656 85.9649 58.5783 86.3291C58.791 86.6933 58.8973 87.0867 58.8973 87.5092C58.8973 88.0133 58.7648 88.443 58.4996 88.7985C58.2374 89.154 57.8804 89.4002 57.4288 89.5372V89.6071C57.9941 89.7003 58.4355 89.9407 58.7531 90.3282C59.0707 90.7128 59.2295 91.1892 59.2295 91.7574C59.2295 92.244 59.0969 92.6811 58.8318 93.0686C58.5695 93.4532 58.2112 93.7563 57.7566 93.9777C57.3021 94.1992 56.7849 94.3099 56.205 94.3099Z" fill="#1E7B9D"/>
<defs>
<clipPath id="clip0_398_4819">
<rect x="30.0547" y="30.3984" width="28.0947" height="31.9967" rx="1.56082" fill="white"/>
</clipPath>
</defs>
</svg>
