<svg width="93" height="124" viewBox="0 0 93 124" fill="none" xmlns="http://www.w3.org/2000/svg">
<g filter="url(#filter0_d_403_4787)">
<rect width="88.2051" height="120" rx="16.4103" fill="#232323" shape-rendering="crispEdges"/>
<rect x="1.02564" y="1.02564" width="86.1538" height="117.949" rx="15.3846" stroke="#B9BABA" stroke-width="2.05128" shape-rendering="crispEdges"/>
<rect x="16.923" y="17.1144" width="54.359" height="54.359" rx="27.1795" fill="#808080"/>
<rect x="16.923" y="17.1144" width="54.359" height="54.359" rx="27.1795" stroke="#24C2AF" stroke-width="1.02564"/>
<g clip-path="url(#clip0_403_4787)">
<path d="M33.1906 57.0951L30.7637 28.2969H57.4407L55.0105 57.0905L44.086 60.2936L33.1906 57.0951Z" fill="#1572B6"/>
<path d="M44.1016 57.8344L52.9298 55.2461L55.0066 30.6406H44.1016V57.8344Z" fill="#33A9DC"/>
<path d="M44.1016 41.0709H48.5211L48.8258 37.4541H44.1016V33.9219H52.4759L52.396 34.8692L51.5758 44.6031H44.1016V41.0709Z" fill="white"/>
<path d="M44.122 50.25L44.1069 50.2546L40.3876 49.1919L40.1499 46.375H36.7969L37.2648 51.9207L44.1058 53.9297L44.122 53.9251V50.25Z" fill="#EBEBEB"/>
<path d="M48.238 44.4531L47.836 49.1829L44.1113 50.2457V53.9207L50.9578 51.9141L51.0086 51.3176L51.5888 44.4531H48.238Z" fill="white"/>
<path d="M44.1129 33.9219V37.4541H36.0454L35.9784 36.6599L35.8261 34.8692L35.7461 33.9219H44.1129ZM44.101 41.0709V44.6031H40.4282L40.3612 43.8089L40.2099 42.0182L40.1299 41.0709H44.101Z" fill="#EBEBEB"/>
</g>
<rect x="17.3457" y="80.1953" width="53.5128" height="23.2051" rx="4" fill="#232323"/>
<path d="M35.8893 90.143H34.8053C34.7412 89.8313 34.6291 89.5574 34.4688 89.3214C34.3115 89.0853 34.1191 88.8872 33.8919 88.7269C33.6675 88.5638 33.4184 88.4414 33.1445 88.3598C32.8706 88.2782 32.5851 88.2374 32.2879 88.2374C31.7459 88.2374 31.2549 88.3744 30.815 88.6483C30.3779 88.9222 30.0297 89.3257 29.7704 89.8589C29.514 90.3922 29.3858 91.0463 29.3858 91.8214C29.3858 92.5964 29.514 93.2505 29.7704 93.7838C30.0297 94.317 30.3779 94.7205 30.815 94.9944C31.2549 95.2683 31.7459 95.4053 32.2879 95.4053C32.5851 95.4053 32.8706 95.3645 33.1445 95.2829C33.4184 95.2013 33.6675 95.0804 33.8919 94.9201C34.1191 94.757 34.3115 94.5574 34.4688 94.3214C34.6291 94.0824 34.7412 93.8085 34.8053 93.4997H35.8893C35.8077 93.9571 35.6591 94.3665 35.4434 94.7278C35.2278 95.0891 34.9598 95.3965 34.6393 95.65C34.3187 95.9006 33.9589 96.0915 33.5597 96.2226C33.1634 96.3537 32.7395 96.4193 32.2879 96.4193C31.5245 96.4193 30.8455 96.2328 30.2511 95.8598C29.6567 95.4869 29.1891 94.9565 28.8482 94.2689C28.5073 93.5813 28.3368 92.7654 28.3368 91.8214C28.3368 90.8773 28.5073 90.0614 28.8482 89.3738C29.1891 88.6862 29.6567 88.1558 30.2511 87.7829C30.8455 87.4099 31.5245 87.2234 32.2879 87.2234C32.7395 87.2234 33.1634 87.289 33.5597 87.4201C33.9589 87.5512 34.3187 87.7436 34.6393 87.997C34.9598 88.2476 35.2278 88.5536 35.4434 88.9149C35.6591 89.2733 35.8077 89.6827 35.8893 90.143ZM42.5359 89.5836C42.4834 89.1407 42.2707 88.7969 41.8978 88.5521C41.5248 88.3074 41.0674 88.185 40.5254 88.185C40.1291 88.185 39.7824 88.2491 39.4852 88.3773C39.1909 88.5055 38.9607 88.6818 38.7946 88.9061C38.6315 89.1305 38.5499 89.3855 38.5499 89.671C38.5499 89.9099 38.6067 90.1153 38.7203 90.2873C38.8369 90.4563 38.9855 90.5976 39.1661 90.7112C39.3468 90.8219 39.5362 90.9137 39.7343 90.9866C39.9324 91.0565 40.1146 91.1133 40.2806 91.157L41.1897 91.4018C41.4228 91.463 41.6822 91.5475 41.9677 91.6553C42.2562 91.7631 42.5315 91.9102 42.7938 92.0967C43.0589 92.2803 43.2774 92.5163 43.4493 92.8047C43.6213 93.0932 43.7072 93.4472 43.7072 93.8668C43.7072 94.3505 43.5805 94.7876 43.327 95.178C43.0764 95.5684 42.7093 95.8788 42.2256 96.1089C41.7448 96.3391 41.1606 96.4542 40.4729 96.4542C39.8319 96.4542 39.2769 96.3508 38.8077 96.1439C38.3415 95.937 37.9744 95.6486 37.7063 95.2785C37.4412 94.9085 37.2911 94.4787 37.2562 93.9892H38.375C38.4042 94.3272 38.5178 94.6069 38.716 94.8283C38.917 95.0469 39.1705 95.21 39.4764 95.3179C39.7853 95.4227 40.1175 95.4752 40.4729 95.4752C40.8867 95.4752 41.2582 95.4082 41.5875 95.2741C41.9167 95.1372 42.1775 94.9478 42.3698 94.706C42.5621 94.4612 42.6583 94.1757 42.6583 93.8493C42.6583 93.5521 42.5752 93.3103 42.4091 93.1238C42.2431 92.9373 42.0245 92.7858 41.7535 92.6693C41.4826 92.5527 41.1897 92.4507 40.875 92.3633L39.7736 92.0486C39.0743 91.8476 38.5207 91.5606 38.1128 91.1876C37.7049 90.8146 37.5009 90.3266 37.5009 89.7234C37.5009 89.2223 37.6364 88.7852 37.9074 88.4123C38.1813 88.0364 38.5484 87.745 39.0088 87.5381C39.4721 87.3283 39.9893 87.2234 40.5604 87.2234C41.1373 87.2234 41.6501 87.3269 42.0988 87.5338C42.5475 87.7377 42.903 88.0174 43.1653 88.3729C43.4304 88.7284 43.5703 89.132 43.5848 89.5836H42.5359ZM50.3844 89.5836C50.332 89.1407 50.1193 88.7969 49.7463 88.5521C49.3734 88.3074 48.9159 88.185 48.374 88.185C47.9777 88.185 47.6309 88.2491 47.3337 88.3773C47.0395 88.5055 46.8093 88.6818 46.6432 88.9061C46.48 89.1305 46.3984 89.3855 46.3984 89.671C46.3984 89.9099 46.4552 90.1153 46.5689 90.2873C46.6854 90.4563 46.834 90.5976 47.0147 90.7112C47.1953 90.8219 47.3847 90.9137 47.5829 90.9866C47.781 91.0565 47.9631 91.1133 48.1292 91.157L49.0383 91.4018C49.2714 91.463 49.5307 91.5475 49.8163 91.6553C50.1047 91.7631 50.3801 91.9102 50.6423 92.0967C50.9075 92.2803 51.126 92.5163 51.2979 92.8047C51.4698 93.0932 51.5558 93.4472 51.5558 93.8668C51.5558 94.3505 51.429 94.7876 51.1755 95.178C50.9249 95.5684 50.5578 95.8788 50.0741 96.1089C49.5934 96.3391 49.0092 96.4542 48.3215 96.4542C47.6805 96.4542 47.1254 96.3508 46.6563 96.1439C46.1901 95.937 45.823 95.6486 45.5549 95.2785C45.2897 94.9085 45.1397 94.4787 45.1047 93.9892H46.2236C46.2527 94.3272 46.3664 94.6069 46.5645 94.8283C46.7656 95.0469 47.0191 95.21 47.325 95.3179C47.6339 95.4227 47.966 95.4752 48.3215 95.4752C48.7353 95.4752 49.1068 95.4082 49.436 95.2741C49.7653 95.1372 50.0261 94.9478 50.2184 94.706C50.4107 94.4612 50.5068 94.1757 50.5068 93.8493C50.5068 93.5521 50.4238 93.3103 50.2577 93.1238C50.0916 92.9373 49.8731 92.7858 49.6021 92.6693C49.3311 92.5527 49.0383 92.4507 48.7236 92.3633L47.6222 92.0486C46.9229 91.8476 46.3693 91.5606 45.9614 91.1876C45.5534 90.8146 45.3495 90.3266 45.3495 89.7234C45.3495 89.2223 45.485 88.7852 45.7559 88.4123C46.0298 88.0364 46.397 87.745 46.8573 87.5381C47.3206 87.3283 47.8378 87.2234 48.4089 87.2234C48.9858 87.2234 49.4987 87.3269 49.9474 87.5338C50.3961 87.7377 50.7516 88.0174 51.0138 88.3729C51.279 88.7284 51.4188 89.132 51.4334 89.5836H50.3844ZM56.205 96.4193C55.6281 96.4193 55.1138 96.3202 54.6622 96.122C54.2135 95.9239 53.8565 95.6486 53.5914 95.296C53.3292 94.9405 53.1864 94.5282 53.1631 94.0591H54.2645C54.2878 94.3476 54.3868 94.5967 54.5617 94.8065C54.7365 95.0134 54.9652 95.1736 55.2479 95.2873C55.5305 95.4009 55.8437 95.4577 56.1875 95.4577C56.5722 95.4577 56.9131 95.3907 57.2103 95.2567C57.5075 95.1226 57.7406 94.9362 57.9096 94.6972C58.0786 94.4583 58.1631 94.1815 58.1631 93.8668C58.1631 93.5376 58.0815 93.2476 57.9183 92.997C57.7551 92.7436 57.5162 92.5454 57.2015 92.4026C56.8868 92.2599 56.5022 92.1885 56.0477 92.1885H55.3309V91.2269H56.0477C56.4032 91.2269 56.7149 91.1628 56.983 91.0346C57.254 90.9064 57.4652 90.7258 57.6167 90.4927C57.7712 90.2596 57.8484 89.9857 57.8484 89.671C57.8484 89.368 57.7814 89.1043 57.6473 88.8799C57.5133 88.6556 57.3239 88.4807 57.0792 88.3554C56.8373 88.2301 56.5518 88.1675 56.2225 88.1675C55.9137 88.1675 55.6223 88.2243 55.3484 88.338C55.0774 88.4487 54.856 88.6104 54.6841 88.8231C54.5121 89.0329 54.4189 89.2864 54.4043 89.5836H53.3554C53.3729 89.1145 53.5142 88.7036 53.7793 88.3511C54.0445 87.9956 54.3912 87.7188 54.8195 87.5207C55.2508 87.3225 55.7243 87.2234 56.24 87.2234C56.7936 87.2234 57.2686 87.3356 57.6648 87.56C58.0611 87.7814 58.3656 88.0743 58.5783 88.4385C58.791 88.8027 58.8973 89.1961 58.8973 89.6186C58.8973 90.1226 58.7648 90.5524 58.4996 90.9079C58.2374 91.2634 57.8804 91.5096 57.4288 91.6465V91.7165C57.9941 91.8097 58.4355 92.0501 58.7531 92.4376C59.0707 92.8222 59.2295 93.2986 59.2295 93.8668C59.2295 94.3534 59.0969 94.7905 58.8318 95.178C58.5695 95.5626 58.2112 95.8656 57.7566 96.0871C57.3021 96.3085 56.7849 96.4193 56.205 96.4193Z" fill="#FFA500"/>
</g>
<defs>
<filter id="filter0_d_403_4787" x="0" y="0" width="92.2051" height="124" filterUnits="userSpaceOnUse" color-interpolation-filters="sRGB">
<feFlood flood-opacity="0" result="BackgroundImageFix"/>
<feColorMatrix in="SourceAlpha" type="matrix" values="0 0 0 0 0 0 0 0 0 0 0 0 0 0 0 0 0 0 127 0" result="hardAlpha"/>
<feOffset dx="4" dy="4"/>
<feComposite in2="hardAlpha" operator="out"/>
<feColorMatrix type="matrix" values="0 0 0 0 0.462745 0 0 0 0 0.482353 0 0 0 0 0.486275 0 0 0 1 0"/>
<feBlend mode="normal" in2="BackgroundImageFix" result="effect1_dropShadow_403_4787"/>
<feBlend mode="normal" in="SourceGraphic" in2="effect1_dropShadow_403_4787" result="shape"/>
</filter>
<clipPath id="clip0_403_4787">
<rect x="30.0547" y="28.2969" width="28.0947" height="31.9967" rx="1.56082" fill="white"/>
</clipPath>
</defs>
</svg>
