<svg width="840" height="566" viewBox="0 0 840 566" fill="none" xmlns="http://www.w3.org/2000/svg">
<rect x="10" y="10" width="820" height="545.331" rx="18" fill="#232323"/>
<rect x="10" y="10" width="820" height="545.331" rx="18" stroke="#F5F5F5" stroke-width="20"/>
<rect x="116.653" y="116.66" width="603.164" height="343.323" rx="6.59946" fill="white"/>
<rect x="116.653" y="116.66" width="603.164" height="343.323" rx="6.59946" stroke="#575757" stroke-width="4.39964"/>
<rect x="423.55" y="279.214" width="14.9001" height="14.9001" rx="7.45005" fill="#1FEE34" stroke="#686363" stroke-width="1.09991"/>
<rect x="327.55" y="279.214" width="14.9001" height="14.9001" rx="3.84968" fill="#BE4FD0"/>
<rect x="327.55" y="279.214" width="14.9001" height="14.9001" rx="3.84968" stroke="#767474" stroke-width="1.09991"/>
<rect x="327.55" y="279.214" width="14.9001" height="14.9001" rx="3.84968" stroke="#767474" stroke-width="1.09991"/>
<rect x="327.55" y="279.214" width="14.9001" height="14.9001" rx="3.84968" stroke="#767474" stroke-width="1.09991"/>
<rect x="327.55" y="263.214" width="14.9001" height="14.9001" rx="3.84968" fill="#BE4FD0"/>
<rect x="327.55" y="263.214" width="14.9001" height="14.9001" rx="3.84968" stroke="#767474" stroke-width="1.09991"/>
<rect x="327.55" y="263.214" width="14.9001" height="14.9001" rx="3.84968" stroke="#767474" stroke-width="1.09991"/>
<rect x="327.55" y="263.214" width="14.9001" height="14.9001" rx="3.84968" stroke="#767474" stroke-width="1.09991"/>
<rect x="311.55" y="263.214" width="14.9001" height="14.9001" rx="3.84968" fill="#BE4FD0"/>
<rect x="311.55" y="263.214" width="14.9001" height="14.9001" rx="3.84968" stroke="#767474" stroke-width="1.09991"/>
<rect x="311.55" y="263.214" width="14.9001" height="14.9001" rx="3.84968" stroke="#767474" stroke-width="1.09991"/>
<rect x="311.55" y="263.214" width="14.9001" height="14.9001" rx="3.84968" stroke="#767474" stroke-width="1.09991"/>
<rect x="343.55" y="279.214" width="14.9001" height="14.9001" rx="3.84968" fill="#BE4FD0"/>
<rect x="343.55" y="279.214" width="14.9001" height="14.9001" rx="3.84968" stroke="#767474" stroke-width="1.09991"/>
<rect x="343.55" y="279.214" width="14.9001" height="14.9001" rx="3.84968" stroke="#767474" stroke-width="1.09991"/>
<rect x="343.55" y="279.214" width="14.9001" height="14.9001" rx="3.84968" stroke="#767474" stroke-width="1.09991"/>
<rect x="359.55" y="279.214" width="14.9001" height="14.9001" rx="3.84968" fill="#BE4FD0"/>
<rect x="359.55" y="279.214" width="14.9001" height="14.9001" rx="3.84968" stroke="#767474" stroke-width="1.09991"/>
<rect x="359.55" y="279.214" width="14.9001" height="14.9001" rx="3.84968" stroke="#767474" stroke-width="1.09991"/>
<rect x="359.55" y="279.214" width="14.9001" height="14.9001" rx="3.84968" stroke="#767474" stroke-width="1.09991"/>
<rect x="375.55" y="279.214" width="14.9001" height="14.9001" rx="3.84968" fill="#BE4FD0"/>
<rect x="375.55" y="279.214" width="14.9001" height="14.9001" rx="3.84968" stroke="#767474" stroke-width="1.09991"/>
<rect x="375.55" y="279.214" width="14.9001" height="14.9001" rx="3.84968" stroke="#767474" stroke-width="1.09991"/>
<rect x="375.55" y="279.214" width="14.9001" height="14.9001" rx="3.84968" stroke="#767474" stroke-width="1.09991"/>
<path d="M299.4 263.214H306.6C308.726 263.214 310.45 264.938 310.45 267.064V274.264C310.45 276.391 308.726 278.114 306.6 278.114H299.4C297.274 278.114 295.55 276.391 295.55 274.264V267.064C295.55 264.938 297.274 263.214 299.4 263.214Z" fill="#BE4FD0"/>
<path d="M299.4 263.214H306.6C308.726 263.214 310.45 264.938 310.45 267.064V274.264C310.45 276.391 308.726 278.114 306.6 278.114H299.4C297.274 278.114 295.55 276.391 295.55 274.264V267.064C295.55 264.938 297.274 263.214 299.4 263.214Z" stroke="#767474" stroke-width="1.09991"/>
<path d="M299.4 263.214H306.6C308.726 263.214 310.45 264.938 310.45 267.064V274.264C310.45 276.391 308.726 278.114 306.6 278.114H299.4C297.274 278.114 295.55 276.391 295.55 274.264V267.064C295.55 264.938 297.274 263.214 299.4 263.214Z" stroke="#767474" stroke-width="1.09991"/>
<path d="M299.4 263.214H306.6C308.726 263.214 310.45 264.938 310.45 267.064V274.264C310.45 276.391 308.726 278.114 306.6 278.114H299.4C297.274 278.114 295.55 276.391 295.55 274.264V267.064C295.55 264.938 297.274 263.214 299.4 263.214Z" stroke="#767474" stroke-width="1.09991"/>
<path d="M335.521 54.5293C335.442 54.6197 335.329 54.6649 335.183 54.6649C334.652 54.6649 333.804 54.1791 332.641 53.2075C331.488 52.2246 330.466 51.2474 329.573 50.2758C329.63 50.5808 329.737 51.0949 329.895 51.8179C329.963 52.1003 330.02 52.3715 330.065 52.6313C330.121 52.8912 330.15 53.0945 330.15 53.2414C330.15 53.569 330.031 53.7667 329.794 53.8345C329.737 53.9814 329.585 53.6142 329.336 52.733C329.099 51.8518 328.873 50.835 328.658 49.6827C328.455 48.5191 328.353 47.5475 328.353 46.768C328.353 46.3725 328.387 46.0506 328.455 45.802C328.602 45.689 328.726 45.6326 328.828 45.6326C329.031 45.6326 329.172 45.8077 329.251 46.1579C329.33 46.4968 329.404 47.0334 329.472 47.7678L329.506 48.1575C329.946 48.1349 330.545 48.0389 331.302 47.8695C332.07 47.7 332.754 47.4684 333.352 47.1747C333.962 46.8696 334.267 46.5081 334.267 46.0901C334.267 45.8642 334.104 45.6156 333.776 45.3445C333.46 45.062 332.968 44.8248 332.302 44.6327C331.646 44.4407 330.839 44.3447 329.878 44.3447H329.336C328.692 44.3447 328.189 44.452 327.828 44.6666C327.466 44.87 327.286 45.3106 327.286 45.9884C327.116 45.9884 326.964 45.8811 326.828 45.6665C326.692 45.4518 326.625 45.2541 326.625 45.0733C326.625 44.3729 326.958 43.9153 327.625 43.7007C328.302 43.486 329.274 43.3787 330.539 43.3787C331.206 43.3787 331.901 43.486 332.624 43.7007C333.347 43.9153 333.957 44.2543 334.454 44.7175C334.951 45.1694 335.199 45.7342 335.199 46.4121C335.199 46.8753 334.99 47.2594 334.572 47.5644C334.166 47.8695 333.686 48.1067 333.132 48.2762C332.578 48.4456 331.901 48.6207 331.098 48.8015C330.432 48.9484 329.997 49.0557 329.794 49.1235C330.664 50.2984 331.5 51.2135 332.302 51.8687C333.115 52.524 333.962 53.1171 334.844 53.6481C335.149 53.8289 335.363 53.9644 335.488 54.0548C335.612 54.1452 335.674 54.2299 335.674 54.309C335.674 54.3881 335.623 54.4615 335.521 54.5293ZM340.431 53.9531C339.708 53.9531 339.042 53.8119 338.432 53.5295C337.822 53.247 337.336 52.846 336.974 52.3263C336.613 51.8066 336.432 51.2078 336.432 50.53C336.432 49.7731 336.573 49.067 336.856 48.4117C337.138 47.7452 337.55 47.2142 338.093 46.8188C338.646 46.4121 339.29 46.2087 340.025 46.2087C340.793 46.2087 341.375 46.4573 341.77 46.9544C342.165 47.4402 342.352 48.0559 342.329 48.8015C342.329 49.468 342.064 49.9764 341.533 50.3266C341.013 50.6769 340.347 50.852 339.533 50.852C339.409 50.852 339.223 50.8407 338.974 50.8181C338.567 50.7729 338.279 50.7108 338.11 50.6317C337.94 50.5526 337.856 50.3944 337.856 50.1572C337.856 50.0781 337.878 50.0216 337.923 49.9877C337.968 49.9425 338.059 49.9199 338.194 49.9199C338.341 49.9199 338.601 49.9538 338.974 50.0216C339.335 50.0894 339.657 50.1233 339.94 50.1233C340.979 50.1233 341.499 49.6714 341.499 48.7676C341.499 48.2253 341.397 47.796 341.194 47.4797C341.002 47.1634 340.657 47.0052 340.16 47.0052C339.618 47.0052 339.132 47.1521 338.703 47.4458C338.274 47.7282 337.94 48.1011 337.703 48.5642C337.477 49.0274 337.364 49.5189 337.364 50.0386C337.364 50.9311 337.613 51.6654 338.11 52.2416C338.607 52.8064 339.375 53.0889 340.414 53.0889C340.539 53.0889 340.748 53.0776 341.041 53.055C341.166 53.0437 341.318 53.0098 341.499 52.9533C341.68 52.8968 341.81 52.8573 341.889 52.8347C342.374 52.6652 342.73 52.5805 342.956 52.5805C343.126 52.5805 343.256 52.6257 343.346 52.7161C343.064 53.1454 342.64 53.4617 342.075 53.665C341.522 53.8571 340.974 53.9531 340.431 53.9531ZM348.282 53.9701C346.96 53.9701 345.932 53.6707 345.197 53.0719C344.474 52.4619 344.113 51.5242 344.113 50.2589C344.113 49.6149 344.271 49.0048 344.587 48.4287C344.915 47.8412 345.35 47.3724 345.892 47.0221C346.446 46.6606 347.039 46.4799 347.671 46.4799C348.315 46.4799 348.863 46.6211 349.315 46.9035C349.767 47.1747 349.993 47.5701 349.993 48.0898C349.993 48.4513 349.925 48.7111 349.79 48.8693C349.665 49.0161 349.524 49.0896 349.366 49.0896C349.366 48.5473 349.219 48.1067 348.925 47.7678C348.632 47.4289 348.214 47.2594 347.671 47.2594C347.129 47.2594 346.66 47.4063 346.265 47.7C345.87 47.9824 345.564 48.3609 345.35 48.8354C345.146 49.2986 345.045 49.7844 345.045 50.2928C345.045 51.366 345.406 52.0947 346.129 52.4788C346.864 52.8629 347.83 53.055 349.027 53.055C349.434 53.055 349.965 53.0324 350.62 52.9872C350.643 52.9872 350.694 53.0098 350.773 53.055C350.852 53.1002 350.914 53.1284 350.959 53.1397V53.2414C350.959 53.569 350.671 53.7724 350.095 53.8514C349.519 53.9305 348.914 53.9701 348.282 53.9701ZM355.235 53.9701C354.569 53.9701 353.964 53.8232 353.422 53.5295C352.891 53.2244 352.473 52.8064 352.168 52.2755C351.874 51.7332 351.727 51.1175 351.727 50.4283C351.727 49.2986 352.14 48.4569 352.964 47.9033C353.8 47.3498 354.823 47.073 356.032 47.073C356.585 47.073 357.099 47.2086 357.574 47.4797C358.059 47.7508 358.449 48.1406 358.743 48.649C359.037 49.1574 359.184 49.7448 359.184 50.4114C359.184 51.1344 358.997 51.7671 358.624 52.3093C358.252 52.8403 357.76 53.2527 357.15 53.5464C356.551 53.8289 355.913 53.9701 355.235 53.9701ZM355.049 53.0041C356.099 53.0041 356.896 52.7669 357.438 52.2924C357.98 51.8179 358.252 51.1231 358.252 50.208C358.252 49.5867 358.037 49.05 357.608 48.5981C357.19 48.1462 356.602 47.9203 355.845 47.9203C355.337 47.9203 354.823 48.0163 354.303 48.2084C353.783 48.4004 353.354 48.6885 353.015 49.0726C352.676 49.4567 352.507 49.9199 352.507 50.4622C352.507 50.9141 352.62 51.3378 352.846 51.7332C353.072 52.1173 353.377 52.428 353.761 52.6652C354.156 52.8912 354.586 53.0041 355.049 53.0041ZM362.107 53.9531C361.644 53.0493 361.277 51.9874 361.006 50.7672C360.746 49.5471 360.616 48.4908 360.616 47.5983C360.616 47.2481 360.695 47.0221 360.853 46.9205C360.944 46.864 361.011 46.8357 361.057 46.8357C361.136 46.8357 361.192 46.8979 361.226 47.0221C361.271 47.1464 361.317 47.3724 361.362 47.7L361.446 48.3101C361.571 47.7 361.808 47.2198 362.158 46.8696C362.52 46.5081 362.96 46.3274 363.48 46.3274C364.056 46.3274 364.485 46.4403 364.768 46.6663C365.05 46.8809 365.192 47.2424 365.192 47.7508C364.627 47.4797 364.113 47.3441 363.649 47.3441C363.209 47.3441 362.83 47.4627 362.514 47.7C362.198 47.9372 361.977 48.2875 361.853 48.7507C361.751 49.067 361.701 49.3664 361.701 49.6488C361.701 49.9538 361.74 50.2419 361.819 50.5131C361.91 50.7729 362.045 51.0949 362.226 51.479C362.395 51.8744 362.525 52.2133 362.616 52.4958C362.717 52.7782 362.774 53.0832 362.785 53.4108C362.785 53.6029 362.717 53.7441 362.582 53.8345C362.446 53.9136 362.288 53.9531 362.107 53.9531ZM368.845 53.9362C368.314 53.9362 367.85 53.7554 367.455 53.3939C367.071 53.0324 366.777 52.5635 366.574 51.9874C366.382 51.4112 366.286 50.8124 366.286 50.1911C366.286 49.1065 366.512 48.1914 366.964 47.4458C367.427 46.7002 368.127 46.3274 369.065 46.3274C369.63 46.3274 370.121 46.429 370.539 46.6324C370.969 46.8244 371.528 47.1521 372.217 47.6153L372.658 47.9203C372.601 47.5475 372.516 47.1182 372.403 46.6324C372.29 46.1466 372.217 45.8133 372.183 45.6326C371.991 44.7514 371.85 44.0961 371.759 43.6668C371.68 43.2262 371.641 42.8364 371.641 42.4975C371.641 41.8988 371.81 41.5994 372.149 41.5994C372.273 41.8705 372.42 42.4523 372.59 43.3448C372.759 44.226 372.974 45.4349 373.234 46.9713C373.505 48.5981 373.742 49.9256 373.945 50.9537C374.149 51.9817 374.318 52.6257 374.454 52.8855C374.454 53.1454 374.262 53.2753 373.878 53.2753C373.584 53.2753 373.381 53.1058 373.268 52.7669C373.166 52.428 373.104 51.8349 373.081 50.9875H372.946C372.471 51.8462 371.855 52.5522 371.098 53.1058C370.342 53.6594 369.59 53.9362 368.845 53.9362ZM369.065 53.1058C369.528 53.1058 370.025 52.9138 370.556 52.5296C371.098 52.1342 371.556 51.6597 371.929 51.1062C372.302 50.5413 372.488 50.0329 372.488 49.581V49.0726C371.324 47.8525 370.251 47.2424 369.268 47.2424C368.579 47.2424 368.048 47.4966 367.675 48.005C367.303 48.5021 367.116 49.1574 367.116 49.9708L367.133 50.3266C367.201 51.1853 367.393 51.8631 367.709 52.3602C368.026 52.8573 368.477 53.1058 369.065 53.1058Z" fill="#CBF3C4"/>
<rect x="290.629" y="68.3" width="120.348" height="25.2979" rx="3.84968" fill="#EAFBE8"/>
<rect x="290.629" y="68.3" width="120.348" height="25.2979" rx="3.84968" stroke="#FFE0AE" stroke-width="1.09991"/>
<path d="M347.49 85.5767C347.388 85.5767 347.3 85.5561 347.228 85.5151C347.157 85.474 347.049 85.3919 346.905 85.2687L347.044 84.4526C347.228 83.313 347.372 82.3635 347.475 81.6038C347.578 80.8339 347.649 80.0434 347.69 79.2324C347.341 79.5404 346.869 80.0434 346.274 80.7415C345.925 81.1521 345.653 81.4549 345.458 81.65C345.273 81.8348 345.129 81.9272 345.026 81.9272C344.944 81.9169 344.867 81.8707 344.795 81.7886C344.734 81.6962 344.703 81.5884 344.703 81.4652C344.703 81.3215 344.754 81.1932 344.857 81.0802L347.567 78.1853C347.66 78.0826 347.732 77.944 347.783 77.7695C347.834 77.595 347.886 77.3537 347.937 77.0458C347.998 76.6557 348.07 76.3631 348.152 76.168C348.235 75.9627 348.368 75.8601 348.553 75.8601C348.635 75.8601 348.697 75.8703 348.738 75.8909C348.779 75.9011 348.815 75.9371 348.845 75.9986L348.861 76.5068C348.861 76.6916 348.768 77.5899 348.584 79.2016C348.409 80.8031 348.219 82.2659 348.014 83.5902C347.809 84.9145 347.634 85.5767 347.49 85.5767ZM355.981 84.9453C355.785 84.9453 355.575 84.9248 355.349 84.8837C355.134 84.8324 354.918 84.7811 354.702 84.7297C354.169 84.5757 353.737 84.4987 353.409 84.4987C353.101 84.4987 352.757 84.5244 352.377 84.5757C351.813 84.6271 351.458 84.6527 351.315 84.6527C350.699 84.6527 350.227 84.5398 349.898 84.314C349.58 84.0881 349.4 83.7647 349.359 83.3438C349.339 83.0872 349.41 82.9075 349.575 82.8049C349.739 82.692 350.001 82.6355 350.36 82.6355C350.565 82.6355 350.755 82.6663 350.93 82.7279C351.115 82.7792 351.351 82.8614 351.638 82.9743C351.926 83.0975 352.182 83.1899 352.408 83.2515C352.634 83.313 352.875 83.3438 353.132 83.3438C353.409 83.3438 353.691 83.1693 353.979 82.8203C354.276 82.4712 354.518 82.0144 354.702 81.4498C354.897 80.8852 354.995 80.2949 354.995 79.6789C354.995 78.9193 354.887 78.3341 354.672 77.9235C354.466 77.5026 354.076 77.2921 353.501 77.2921C352.413 77.2921 351.628 77.9235 351.145 79.1862C350.961 79.1143 350.827 79.0219 350.745 78.909C350.673 78.7858 350.637 78.6216 350.637 78.4163C350.637 78.1185 350.75 77.8311 350.976 77.5539C351.212 77.2665 351.541 77.0355 351.961 76.861C352.393 76.6762 352.89 76.5838 353.455 76.5838C354.266 76.5838 354.872 76.861 355.272 77.4153C355.683 77.9697 355.888 78.6986 355.888 79.602C355.888 80.5053 355.698 81.3215 355.318 82.0504C354.949 82.769 354.497 83.3387 353.963 83.7596C354.22 83.8623 354.466 83.929 354.702 83.9598C354.949 83.9906 355.216 84.006 355.503 84.006C355.852 84.0163 356.093 84.0522 356.227 84.1138C356.371 84.1651 356.442 84.2986 356.442 84.5141C356.442 84.6065 356.396 84.7041 356.304 84.8067C356.211 84.8991 356.104 84.9453 355.981 84.9453Z" fill="#767474"/>
<path d="M474.899 53.3092C475.825 53.3092 476.542 53.1793 477.051 52.9194C477.559 52.6596 477.813 52.2811 477.813 51.784C477.813 51.3434 477.661 50.965 477.356 50.6486C477.051 50.321 476.672 50.0442 476.22 49.8183C475.768 49.5923 475.153 49.3268 474.373 49.0218C474.305 48.9992 474.142 48.9371 473.882 48.8354C472.82 48.4061 472.001 47.9768 471.425 47.5475C470.86 47.1182 470.577 46.5646 470.577 45.8868C470.577 45.1298 470.877 44.5593 471.475 44.1752C472.074 43.7911 472.842 43.599 473.78 43.599C474.469 43.599 475.102 43.6894 475.678 43.8702C476.266 44.0396 476.729 44.2769 477.068 44.5819C477.418 44.8869 477.593 45.2315 477.593 45.6156C477.457 45.6834 477.328 45.7173 477.203 45.7173C477.068 45.7173 476.926 45.689 476.78 45.6326C476.644 45.5648 476.441 45.4574 476.17 45.3106C475.729 45.0733 475.317 44.8869 474.932 44.7514C474.548 44.6045 474.096 44.5311 473.577 44.5311C472.922 44.5311 472.391 44.644 471.984 44.87C471.577 45.0959 471.374 45.4123 471.374 45.819C471.374 46.1353 471.509 46.4234 471.78 46.6832C472.063 46.9431 472.413 47.1747 472.831 47.378C473.26 47.5701 473.831 47.8017 474.543 48.0728C475.447 48.423 476.192 48.7507 476.78 49.0557C477.367 49.3607 477.864 49.7505 478.271 50.225C478.689 50.6882 478.898 51.2417 478.898 51.8857C478.898 52.6426 478.536 53.2301 477.813 53.6481C477.09 54.0548 476.192 54.2582 475.119 54.2582C474.272 54.2582 473.436 54.1339 472.611 53.8853C471.786 53.6368 471.08 53.2696 470.493 52.7838C469.905 52.2868 469.532 51.6936 469.374 51.0045C469.374 50.6995 469.459 50.4396 469.628 50.225C469.798 49.999 470.007 49.886 470.255 49.886C470.255 50.6204 470.459 51.2474 470.865 51.7671C471.283 52.2755 471.843 52.6596 472.543 52.9194C473.255 53.1793 474.04 53.3092 474.899 53.3092ZM484.5 53.9701C483.179 53.9701 482.15 53.6707 481.416 53.0719C480.693 52.4619 480.332 51.5242 480.332 50.2589C480.332 49.6149 480.49 49.0048 480.806 48.4287C481.134 47.8412 481.569 47.3724 482.111 47.0221C482.664 46.6606 483.258 46.4799 483.89 46.4799C484.534 46.4799 485.082 46.6211 485.534 46.9035C485.986 47.1747 486.212 47.5701 486.212 48.0898C486.212 48.4513 486.144 48.7111 486.009 48.8693C485.884 49.0161 485.743 49.0896 485.585 49.0896C485.585 48.5473 485.438 48.1067 485.144 47.7678C484.851 47.4289 484.433 47.2594 483.89 47.2594C483.348 47.2594 482.879 47.4063 482.484 47.7C482.088 47.9824 481.783 48.3609 481.569 48.8354C481.365 49.2986 481.264 49.7844 481.264 50.2928C481.264 51.366 481.625 52.0947 482.348 52.4788C483.082 52.8629 484.048 53.055 485.246 53.055C485.653 53.055 486.184 53.0324 486.839 52.9872C486.861 52.9872 486.912 53.0098 486.991 53.055C487.07 53.1002 487.133 53.1284 487.178 53.1397V53.2414C487.178 53.569 486.89 53.7724 486.314 53.8514C485.737 53.9305 485.133 53.9701 484.5 53.9701ZM491.454 53.9701C490.787 53.9701 490.183 53.8232 489.641 53.5295C489.11 53.2244 488.692 52.8064 488.387 52.2755C488.093 51.7332 487.946 51.1175 487.946 50.4283C487.946 49.2986 488.358 48.4569 489.183 47.9033C490.019 47.3498 491.042 47.073 492.25 47.073C492.804 47.073 493.318 47.2086 493.792 47.4797C494.278 47.7508 494.668 48.1406 494.962 48.649C495.256 49.1574 495.402 49.7448 495.402 50.4114C495.402 51.1344 495.216 51.7671 494.843 52.3093C494.47 52.8403 493.979 53.2527 493.369 53.5464C492.77 53.8289 492.132 53.9701 491.454 53.9701ZM491.268 53.0041C492.318 53.0041 493.115 52.7669 493.657 52.2924C494.199 51.8179 494.47 51.1231 494.47 50.208C494.47 49.5867 494.256 49.05 493.826 48.5981C493.408 48.1462 492.821 47.9203 492.064 47.9203C491.556 47.9203 491.042 48.0163 490.522 48.2084C490.002 48.4004 489.573 48.6885 489.234 49.0726C488.895 49.4567 488.726 49.9199 488.726 50.4622C488.726 50.9141 488.839 51.3378 489.065 51.7332C489.29 52.1173 489.595 52.428 489.98 52.6652C490.375 52.8912 490.804 53.0041 491.268 53.0041ZM498.326 53.9531C497.863 53.0493 497.496 51.9874 497.225 50.7672C496.965 49.5471 496.835 48.4908 496.835 47.5983C496.835 47.2481 496.914 47.0221 497.072 46.9205C497.162 46.864 497.23 46.8357 497.275 46.8357C497.355 46.8357 497.411 46.8979 497.445 47.0221C497.49 47.1464 497.535 47.3724 497.58 47.7L497.665 48.3101C497.789 47.7 498.027 47.2198 498.377 46.8696C498.738 46.5081 499.179 46.3274 499.699 46.3274C500.275 46.3274 500.704 46.4403 500.987 46.6663C501.269 46.8809 501.41 47.2424 501.41 47.7508C500.845 47.4797 500.331 47.3441 499.868 47.3441C499.428 47.3441 499.049 47.4627 498.733 47.7C498.417 47.9372 498.196 48.2875 498.072 48.7507C497.97 49.067 497.919 49.3664 497.919 49.6488C497.919 49.9538 497.959 50.2419 498.038 50.5131C498.128 50.7729 498.264 51.0949 498.445 51.479C498.614 51.8744 498.744 52.2133 498.835 52.4958C498.936 52.7782 498.993 53.0832 499.004 53.4108C499.004 53.6029 498.936 53.7441 498.801 53.8345C498.665 53.9136 498.507 53.9531 498.326 53.9531ZM506.165 53.9531C505.442 53.9531 504.775 53.8119 504.165 53.5295C503.555 53.247 503.069 52.846 502.708 52.3263C502.346 51.8066 502.166 51.2078 502.166 50.53C502.166 49.7731 502.307 49.067 502.589 48.4117C502.872 47.7452 503.284 47.2142 503.826 46.8188C504.38 46.4121 505.024 46.2087 505.758 46.2087C506.526 46.2087 507.108 46.4573 507.504 46.9544C507.899 47.4402 508.085 48.0559 508.063 48.8015C508.063 49.468 507.797 49.9764 507.266 50.3266C506.747 50.6769 506.08 50.852 505.267 50.852C505.142 50.852 504.956 50.8407 504.708 50.8181C504.301 50.7729 504.013 50.7108 503.843 50.6317C503.674 50.5526 503.589 50.3944 503.589 50.1572C503.589 50.0781 503.612 50.0216 503.657 49.9877C503.702 49.9425 503.792 49.9199 503.928 49.9199C504.075 49.9199 504.335 49.9538 504.708 50.0216C505.069 50.0894 505.391 50.1233 505.673 50.1233C506.713 50.1233 507.233 49.6714 507.233 48.7676C507.233 48.2253 507.131 47.796 506.927 47.4797C506.735 47.1634 506.391 47.0052 505.894 47.0052C505.351 47.0052 504.866 47.1521 504.436 47.4458C504.007 47.7282 503.674 48.1011 503.437 48.5642C503.211 49.0274 503.098 49.5189 503.098 50.0386C503.098 50.9311 503.346 51.6654 503.843 52.2416C504.34 52.8064 505.109 53.0889 506.148 53.0889C506.272 53.0889 506.481 53.0776 506.775 53.055C506.899 53.0437 507.052 53.0098 507.233 52.9533C507.413 52.8968 507.543 52.8573 507.622 52.8347C508.108 52.6652 508.464 52.5805 508.69 52.5805C508.859 52.5805 508.989 52.6257 509.08 52.7161C508.797 53.1454 508.374 53.4617 507.809 53.665C507.255 53.8571 506.707 53.9531 506.165 53.9531Z" fill="#CBF3C4"/>
<rect x="429.023" y="68.3" width="120.348" height="25.2979" rx="3.84968" fill="#EBFFED"/>
<rect x="429.023" y="68.3" width="120.348" height="25.2979" rx="3.84968" stroke="#FFE0AE" stroke-width="1.09991"/>
<path d="M485.884 85.5767C485.781 85.5767 485.694 85.5561 485.622 85.5151C485.55 85.474 485.442 85.3919 485.299 85.2687L485.437 84.4526C485.622 83.313 485.766 82.3635 485.868 81.6038C485.971 80.8339 486.043 80.0434 486.084 79.2324C485.735 79.5404 485.263 80.0434 484.667 80.7415C484.318 81.1521 484.046 81.4549 483.851 81.65C483.666 81.8348 483.523 81.9272 483.42 81.9272C483.338 81.9169 483.261 81.8707 483.189 81.7886C483.127 81.6962 483.097 81.5884 483.097 81.4652C483.097 81.3215 483.148 81.1932 483.251 81.0802L485.961 78.1853C486.053 78.0826 486.125 77.944 486.176 77.7695C486.228 77.595 486.279 77.3537 486.33 77.0458C486.392 76.6557 486.464 76.3631 486.546 76.168C486.628 75.9627 486.762 75.8601 486.946 75.8601C487.028 75.8601 487.09 75.8703 487.131 75.8909C487.172 75.9011 487.208 75.9371 487.239 75.9986L487.254 76.5068C487.254 76.6916 487.162 77.5899 486.977 79.2016C486.803 80.8031 486.613 82.2659 486.407 83.5902C486.202 84.9145 486.028 85.5767 485.884 85.5767ZM494.374 84.9453C494.179 84.9453 493.969 84.9248 493.743 84.8837C493.527 84.8324 493.312 84.7811 493.096 84.7297C492.562 84.5757 492.131 84.4987 491.802 84.4987C491.494 84.4987 491.151 84.5244 490.771 84.5757C490.206 84.6271 489.852 84.6527 489.708 84.6527C489.092 84.6527 488.62 84.5398 488.292 84.314C487.973 84.0881 487.794 83.7647 487.753 83.3438C487.732 83.0872 487.804 82.9075 487.968 82.8049C488.132 82.692 488.394 82.6355 488.754 82.6355C488.959 82.6355 489.149 82.6663 489.323 82.7279C489.508 82.7792 489.744 82.8614 490.032 82.9743C490.319 83.0975 490.576 83.1899 490.802 83.2515C491.027 83.313 491.269 83.3438 491.525 83.3438C491.802 83.3438 492.085 83.1693 492.372 82.8203C492.67 82.4712 492.911 82.0144 493.096 81.4498C493.291 80.8852 493.389 80.2949 493.389 79.6789C493.389 78.9193 493.281 78.3341 493.065 77.9235C492.86 77.5026 492.47 77.2921 491.895 77.2921C490.807 77.2921 490.021 77.9235 489.539 79.1862C489.354 79.1143 489.221 79.0219 489.138 78.909C489.067 78.7858 489.031 78.6216 489.031 78.4163C489.031 78.1185 489.144 77.8311 489.369 77.5539C489.606 77.2665 489.934 77.0355 490.355 76.861C490.786 76.6762 491.284 76.5838 491.849 76.5838C492.66 76.5838 493.265 76.861 493.666 77.4153C494.076 77.9697 494.282 78.6986 494.282 79.602C494.282 80.5053 494.092 81.3215 493.712 82.0504C493.342 82.769 492.891 83.3387 492.357 83.7596C492.613 83.8623 492.86 83.929 493.096 83.9598C493.342 83.9906 493.609 84.006 493.897 84.006C494.246 84.0163 494.487 84.0522 494.62 84.1138C494.764 84.1651 494.836 84.2986 494.836 84.5141C494.836 84.6065 494.79 84.7041 494.697 84.8067C494.605 84.8991 494.497 84.9453 494.374 84.9453Z" fill="#767474"/>
<rect x="474.722" y="474.023" width="28.2436" height="28.2436" rx="14.1218" fill="#008786"/>
<path d="M487.149 491.534C487.389 491.534 487.591 491.453 487.753 491.29C487.915 491.128 487.996 490.927 487.996 490.687V485.582C487.996 485.342 487.915 485.144 487.753 484.989C487.591 484.833 487.389 484.756 487.149 484.756C486.909 484.756 486.708 484.837 486.546 484.999C486.383 485.162 486.302 485.363 486.302 485.603V490.708C486.302 490.948 486.383 491.146 486.546 491.301C486.708 491.457 486.909 491.534 487.149 491.534ZM490.538 491.534C490.778 491.534 490.98 491.453 491.142 491.29C491.305 491.128 491.386 490.927 491.386 490.687V485.582C491.386 485.342 491.305 485.144 491.142 484.989C490.98 484.833 490.778 484.756 490.538 484.756C490.298 484.756 490.097 484.837 489.935 484.999C489.772 485.162 489.691 485.363 489.691 485.603V490.708C489.691 490.948 489.772 491.146 489.935 491.301C490.097 491.457 490.298 491.534 490.538 491.534ZM488.844 496.618C487.672 496.618 486.57 496.395 485.539 495.95C484.508 495.506 483.612 494.902 482.849 494.14C482.086 493.377 481.483 492.48 481.038 491.449C480.593 490.419 480.371 489.317 480.371 488.145C480.371 486.973 480.593 485.871 481.038 484.84C481.483 483.81 482.086 482.913 482.849 482.15C483.612 481.388 484.508 480.784 485.539 480.339C486.57 479.894 487.672 479.672 488.844 479.672C490.016 479.672 491.117 479.894 492.148 480.339C493.179 480.784 494.076 481.388 494.838 482.15C495.601 482.913 496.205 483.81 496.649 484.84C497.094 485.871 497.317 486.973 497.317 488.145C497.317 489.317 497.094 490.419 496.649 491.449C496.205 492.48 495.601 493.377 494.838 494.14C494.076 494.902 493.179 495.506 492.148 495.95C491.117 496.395 490.016 496.618 488.844 496.618ZM488.844 494.923C490.722 494.923 492.321 494.263 493.642 492.943C494.962 491.623 495.622 490.023 495.622 488.145C495.622 486.267 494.962 484.667 493.642 483.347C492.321 482.027 490.722 481.366 488.844 481.366C486.965 481.366 485.366 482.027 484.046 483.347C482.726 484.667 482.065 486.267 482.065 488.145C482.065 490.023 482.726 491.623 484.046 492.943C485.366 494.263 486.965 494.923 488.844 494.923Z" fill="#FCF9F9"/>
<rect x="337.034" y="474.023" width="28.2436" height="28.2436" rx="14.1218" fill="#008786"/>
<path d="M342.683 489.248C342.884 490.773 343.498 492.215 344.459 493.418C345.42 494.622 346.692 495.543 348.139 496.081C349.586 496.62 351.153 496.756 352.672 496.476C354.191 496.195 355.604 495.509 356.761 494.489C357.917 493.47 358.773 492.156 359.237 490.689C359.7 489.222 359.754 487.657 359.392 486.162C359.03 484.667 358.266 483.298 357.182 482.203C356.099 481.107 354.735 480.326 353.239 479.943C349.092 478.884 344.799 481.009 343.215 484.969" stroke="#FCF9F9" stroke-width="1.28802" stroke-linecap="round" stroke-linejoin="round"/>
<path d="M343.153 479.914V485.346H349.037" stroke="#FCF9F9" stroke-width="1.41218" stroke-linecap="round" stroke-linejoin="round"/>
</svg>
