<svg width="93" height="124" viewBox="0 0 93 124" fill="none" xmlns="http://www.w3.org/2000/svg">
<g filter="url(#filter0_d_403_4800)">
<rect width="88.2051" height="120" rx="16.4103" fill="#232323" shape-rendering="crispEdges"/>
<rect x="1.02564" y="1.02564" width="86.1538" height="117.949" rx="15.3846" stroke="#B9BABA" stroke-width="2.05128" shape-rendering="crispEdges"/>
<rect x="16.923" y="17.1144" width="54.359" height="54.359" rx="27.1795" fill="#808080"/>
<rect x="16.923" y="17.1144" width="54.359" height="54.359" rx="27.1795" stroke="#24C2AF" stroke-width="1.02564"/>
<g clip-path="url(#clip0_403_4800)">
<path d="M33.9266 56.8722C33.3002 56.6983 32.8472 56.1544 32.7894 55.5068L30.5385 30.2619C30.4571 29.3488 31.1764 28.5625 32.0932 28.5625H56.133C57.0499 28.5625 57.7692 29.349 57.6877 30.2621L55.4338 55.5022C55.376 56.1498 54.9228 56.6937 54.2962 56.8674L44.5138 59.5796C44.2408 59.6553 43.9523 59.6553 43.6793 59.5795L33.9266 56.8722Z" fill="#E44F26"/>
<path d="M43.3203 55.5646L50.4932 53.1894L52.1807 30.6094H43.3203V55.5646Z" fill="#F1662A"/>
<path d="M43.3218 40.4042H39.7309L39.4833 37.0852H43.3218V33.8438H36.5176L36.5825 34.7141L37.2489 43.6457H43.3218V40.4042ZM43.3218 48.8219L43.3095 48.8261L40.2875 47.8519L40.0944 45.2669H37.3701L37.7502 50.3551L43.3095 52.1987L43.3218 52.1945V48.8219Z" fill="#EBEBEB"/>
<path d="M43.3125 40.4042V43.6457H46.654L46.3397 47.8498L43.3125 48.8251V52.1976L48.8761 50.3551L48.9165 49.8077L49.5539 41.2746L49.6206 40.4042H43.3125ZM43.3125 33.8438V37.0852H49.8673L49.9218 36.3574L50.0456 34.7141L50.1105 33.8438H43.3125Z" fill="white"/>
</g>
<rect x="12.3457" y="80.1953" width="63.5128" height="23.2051" rx="4" fill="#232323"/>
<path d="M23.6865 96.2969V87.3458H24.7704V91.3318H29.5431V87.3458H30.627V96.2969H29.5431V92.2934H24.7704V96.2969H23.6865ZM32.3075 88.3074V87.3458H39.0208V88.3074H36.2061V96.2969H35.1222V88.3074H32.3075ZM40.6937 87.3458H41.9874L45.0293 94.7759H45.1342L48.1762 87.3458H49.4699V96.2969H48.4559V89.4962H48.3685L45.5713 96.2969H44.5923L41.7951 89.4962H41.7077V96.2969H40.6937V87.3458ZM51.6432 96.2969V87.3458H52.7271V95.3353H56.8879V96.2969H51.6432ZM61.2061 96.4193C60.6933 96.4193 60.2315 96.3173 59.8206 96.1133C59.4098 95.9093 59.0805 95.6296 58.8329 95.2741C58.5852 94.9187 58.4497 94.5137 58.4264 94.0591H59.4754C59.5161 94.4641 59.6997 94.7992 60.0261 95.0644C60.3553 95.3266 60.7487 95.4577 61.2061 95.4577C61.5733 95.4577 61.8996 95.3718 62.1851 95.1998C62.4736 95.0279 62.6994 94.7919 62.8626 94.4918C63.0287 94.1888 63.1117 93.8464 63.1117 93.4647C63.1117 93.0743 63.0258 92.7261 62.8538 92.4201C62.6849 92.1113 62.4518 91.868 62.1545 91.6902C61.8573 91.5125 61.5179 91.4222 61.1362 91.4193C60.8623 91.4163 60.5811 91.4586 60.2927 91.546C60.0042 91.6305 59.7667 91.7398 59.5802 91.8738L58.5663 91.7514L59.1082 87.3458H63.7586V88.3074H60.0173L59.7026 90.9472H59.7551C59.9386 90.8015 60.1688 90.6806 60.4456 90.5845C60.7224 90.4883 61.0109 90.4402 61.311 90.4402C61.8588 90.4402 62.3469 90.5714 62.7752 90.8336C63.2064 91.0929 63.5444 91.4484 63.7892 91.9C64.0368 92.3517 64.1607 92.8674 64.1607 93.4472C64.1607 94.0183 64.0325 94.5282 63.7761 94.9769C63.5226 95.4227 63.1729 95.7753 62.7271 96.0346C62.2813 96.291 61.7743 96.4193 61.2061 96.4193Z" fill="#FFA500"/>
</g>
<defs>
<filter id="filter0_d_403_4800" x="0" y="0" width="92.2051" height="124" filterUnits="userSpaceOnUse" color-interpolation-filters="sRGB">
<feFlood flood-opacity="0" result="BackgroundImageFix"/>
<feColorMatrix in="SourceAlpha" type="matrix" values="0 0 0 0 0 0 0 0 0 0 0 0 0 0 0 0 0 0 127 0" result="hardAlpha"/>
<feOffset dx="4" dy="4"/>
<feComposite in2="hardAlpha" operator="out"/>
<feColorMatrix type="matrix" values="0 0 0 0 0.462745 0 0 0 0 0.482353 0 0 0 0 0.486275 0 0 0 1 0"/>
<feBlend mode="normal" in2="BackgroundImageFix" result="effect1_dropShadow_403_4800"/>
<feBlend mode="normal" in="SourceGraphic" in2="effect1_dropShadow_403_4800" result="shape"/>
</filter>
<clipPath id="clip0_403_4800">
<rect width="28.0947" height="31.9967" fill="white" transform="translate(30.0547 28.2969)"/>
</clipPath>
</defs>
</svg>
