<svg width="89" height="120" viewBox="0 0 89 120" fill="none" xmlns="http://www.w3.org/2000/svg">
<rect x="1.02564" y="1.02564" width="86.1538" height="117.949" rx="15.3846" fill="#FFF9F6"/>
<rect x="1.02564" y="1.02564" width="86.1538" height="117.949" rx="15.3846" stroke="#B9BABA" stroke-width="2.05128"/>
<rect x="16.923" y="19.2159" width="54.359" height="54.359" rx="27.1795" fill="#717F85"/>
<rect x="16.923" y="19.2159" width="54.359" height="54.359" rx="27.1795" stroke="#B9BABA" stroke-width="1.02564"/>
<g clip-path="url(#clip0_397_4973)">
<path d="M33.9266 58.9737C33.3002 58.7998 32.8472 58.2559 32.7894 57.6084L30.5385 32.3635C30.4571 31.4504 31.1764 30.6641 32.0932 30.6641H56.133C57.0499 30.6641 57.7692 31.4505 57.6877 32.3637L55.4338 57.6038C55.376 58.2514 54.9228 58.7953 54.2962 58.969L44.5138 61.6812C44.2408 61.7569 43.9523 61.7568 43.6793 61.681L33.9266 58.9737Z" fill="#E44F26"/>
<path d="M43.3203 57.6662L50.4932 55.291L52.1807 32.7109H43.3203V57.6662Z" fill="#F1662A"/>
<path d="M43.3218 42.5058H39.7309L39.4833 39.1868H43.3218V35.9453H36.5176L36.5825 36.8157L37.2489 45.7473H43.3218V42.5058ZM43.3218 50.9235L43.3095 50.9277L40.2875 49.9535L40.0944 47.3685H37.3701L37.7502 52.4567L43.3095 54.3002L43.3218 54.296V50.9235Z" fill="#EBEBEB"/>
<path d="M43.3125 42.5058V45.7473H46.654L46.3397 49.9514L43.3125 50.9267V54.2992L48.8761 52.4567L48.9165 51.9093L49.5539 43.3762L49.6206 42.5058H43.3125ZM43.3125 35.9453V39.1868H49.8673L49.9218 38.459L50.0456 36.8157L50.1105 35.9453H43.3125Z" fill="white"/>
</g>
<path d="M23.6865 94.1875V85.2365H24.7704V89.2225H29.5431V85.2365H30.627V94.1875H29.5431V90.184H24.7704V94.1875H23.6865ZM32.3075 86.198V85.2365H39.0208V86.198H36.2061V94.1875H35.1222V86.198H32.3075ZM40.6937 85.2365H41.9874L45.0293 92.6665H45.1342L48.1762 85.2365H49.4699V94.1875H48.4559V87.3868H48.3685L45.5713 94.1875H44.5923L41.7951 87.3868H41.7077V94.1875H40.6937V85.2365ZM51.6432 94.1875V85.2365H52.7271V93.226H56.8879V94.1875H51.6432ZM61.2061 94.3099C60.6933 94.3099 60.2315 94.2079 59.8206 94.0039C59.4098 93.8 59.0805 93.5203 58.8329 93.1648C58.5852 92.8093 58.4497 92.4043 58.4264 91.9497H59.4754C59.5161 92.3547 59.6997 92.6898 60.0261 92.955C60.3553 93.2172 60.7487 93.3483 61.2061 93.3483C61.5733 93.3483 61.8996 93.2624 62.1851 93.0905C62.4736 92.9186 62.6994 92.6825 62.8626 92.3824C63.0287 92.0794 63.1117 91.737 63.1117 91.3553C63.1117 90.9649 63.0258 90.6167 62.8538 90.3108C62.6849 90.0019 62.4518 89.7586 62.1545 89.5809C61.8573 89.4031 61.5179 89.3128 61.1362 89.3099C60.8623 89.307 60.5811 89.3492 60.2927 89.4366C60.0042 89.5211 59.7667 89.6304 59.5802 89.7644L58.5663 89.642L59.1082 85.2365H63.7586V86.198H60.0173L59.7026 88.8378H59.7551C59.9386 88.6922 60.1688 88.5712 60.4456 88.4751C60.7224 88.3789 61.0109 88.3309 61.311 88.3309C61.8588 88.3309 62.3469 88.462 62.7752 88.7242C63.2064 88.9835 63.5444 89.339 63.7892 89.7906C64.0368 90.2423 64.1607 90.758 64.1607 91.3378C64.1607 91.9089 64.0325 92.4189 63.7761 92.8676C63.5226 93.3134 63.1729 93.6659 62.7271 93.9253C62.2813 94.1817 61.7743 94.3099 61.2061 94.3099Z" fill="#1E7B9D"/>
<defs>
<clipPath id="clip0_397_4973">
<rect width="28.0947" height="31.9967" fill="white" transform="translate(30.0547 30.3984)"/>
</clipPath>
</defs>
</svg>
