<svg width="93" height="124" viewBox="0 0 93 124" fill="none" xmlns="http://www.w3.org/2000/svg">
<g filter="url(#filter0_d_403_4810)">
<rect width="88.2051" height="120" rx="16.4103" fill="#232323" shape-rendering="crispEdges"/>
<rect x="1.02564" y="1.02564" width="86.1538" height="117.949" rx="15.3846" stroke="#B9BABA" stroke-width="2.05128" shape-rendering="crispEdges"/>
<rect x="16.923" y="17.1144" width="54.359" height="54.359" rx="27.1795" fill="#808080"/>
<rect x="16.923" y="17.1144" width="54.359" height="54.359" rx="27.1795" stroke="#24C2AF" stroke-width="1.02564"/>
<g clip-path="url(#clip0_403_4810)">
<path d="M28.1006 31.8529C28.1006 29.8889 29.6927 28.2969 31.6566 28.2969H56.5484C58.5123 28.2969 60.1044 29.8889 60.1044 31.8529V56.7447C60.1044 58.7086 58.5123 60.3007 56.5484 60.3007H31.6566C29.6927 60.3007 28.1006 58.7086 28.1006 56.7447V31.8529Z" fill="#F5DE19"/>
<path d="M49.5988 53.2963C49.8715 53.8502 50.2951 54.3158 50.8209 54.6394C51.3467 54.9629 51.9532 55.1313 52.5706 55.1251C53.8164 55.1251 54.6131 54.5022 54.6131 53.6392C54.6131 52.6105 53.7947 52.2425 52.4231 51.6424L51.671 51.3201C49.4993 50.3954 48.0592 49.2376 48.0592 46.7893C48.0592 44.5342 49.7737 42.8162 52.4631 42.8162C53.3337 42.7534 54.2036 42.9482 54.9642 43.3765C55.7248 43.8048 56.3425 44.4475 56.7402 45.2245L54.3891 46.7276C54.2359 46.3423 53.9693 46.0127 53.6245 45.7824C53.2797 45.5521 52.8731 45.4321 52.4585 45.4383C52.2777 45.4202 52.095 45.4399 51.9222 45.4963C51.7494 45.5527 51.5903 45.6445 51.4549 45.7657C51.3195 45.887 51.2109 46.0352 51.1359 46.2008C51.061 46.3664 51.0213 46.5458 51.0195 46.7276C51.0195 47.6294 51.5784 47.9951 52.8689 48.5563L53.621 48.8787C56.1767 49.9748 57.6214 51.0915 57.6214 53.6027C57.6214 56.3104 55.4943 57.794 52.638 57.794C51.5251 57.8649 50.4154 57.6123 49.4429 57.0665C48.4704 56.5207 47.6766 55.7051 47.1573 54.7182L49.5988 53.2963ZM38.9747 53.5569C39.4467 54.3948 39.8765 55.1034 40.9097 55.1034C41.8973 55.1034 42.5214 54.7171 42.5214 53.214V42.9877H45.5286V53.254C45.5286 56.3676 43.6998 57.7849 41.0378 57.7849C40.0968 57.8363 39.1623 57.6018 38.3571 57.1122C37.5519 56.6226 36.9137 55.9008 36.5264 55.0417L38.9747 53.5569Z" fill="black"/>
</g>
<rect x="3.8457" y="80.1953" width="80.5128" height="23.2051" rx="4" fill="#232323"/>
<path d="M18.613 87.3458H19.6969V93.7444C19.6969 94.3155 19.592 94.8007 19.3823 95.1998C19.1725 95.599 18.8767 95.9021 18.495 96.1089C18.1133 96.3158 17.6631 96.4193 17.1445 96.4193C16.655 96.4193 16.2194 96.3304 15.8377 96.1526C15.456 95.972 15.1559 95.7156 14.9373 95.3834C14.7188 95.0512 14.6095 94.6564 14.6095 94.199H15.676C15.676 94.4525 15.7386 94.6739 15.8639 94.8633C15.9921 95.0498 16.1669 95.1955 16.3884 95.3004C16.6098 95.4053 16.8619 95.4577 17.1445 95.4577C17.4563 95.4577 17.7214 95.3922 17.94 95.261C18.1585 95.1299 18.3246 94.9376 18.4382 94.6841C18.5548 94.4277 18.613 94.1145 18.613 93.7444V87.3458ZM23.7048 96.4542C23.2794 96.4542 22.8933 96.3741 22.5466 96.2138C22.1999 96.0507 21.9245 95.8161 21.7205 95.5102C21.5166 95.2013 21.4146 94.8283 21.4146 94.3913C21.4146 94.0067 21.4904 93.6949 21.6419 93.456C21.7934 93.2141 21.9959 93.0247 22.2494 92.8878C22.5029 92.7508 22.7826 92.6489 23.0886 92.5818C23.3974 92.5119 23.7077 92.4565 24.0195 92.4158C24.4274 92.3633 24.7581 92.324 25.0116 92.2977C25.268 92.2686 25.4545 92.2205 25.5711 92.1535C25.6905 92.0865 25.7503 91.97 25.7503 91.8039V91.7689C25.7503 91.3377 25.6323 91.0026 25.3962 90.7637C25.1631 90.5247 24.8091 90.4053 24.3342 90.4053C23.8418 90.4053 23.4557 90.5131 23.176 90.7287C22.8962 90.9443 22.6996 91.1745 22.5859 91.4193L21.6069 91.0696C21.7817 90.6617 22.0148 90.3441 22.3062 90.1168C22.6005 89.8866 22.921 89.7264 23.2677 89.636C23.6174 89.5428 23.9612 89.4962 24.2992 89.4962C24.5148 89.4962 24.7625 89.5224 25.0422 89.5748C25.3249 89.6244 25.5973 89.7278 25.8595 89.8852C26.1247 90.0425 26.3447 90.28 26.5195 90.5976C26.6943 90.9152 26.7817 91.3406 26.7817 91.8738V96.2969H25.7503V95.3878H25.6978C25.6279 95.5335 25.5113 95.6894 25.3482 95.8554C25.185 96.0215 24.9679 96.1628 24.6969 96.2794C24.426 96.3959 24.0953 96.4542 23.7048 96.4542ZM23.8622 95.5276C24.2701 95.5276 24.6139 95.4475 24.8936 95.2873C25.1763 95.127 25.389 94.9201 25.5317 94.6666C25.6774 94.4131 25.7503 94.1465 25.7503 93.8668V92.9227C25.7066 92.9752 25.6104 93.0233 25.4618 93.067C25.3161 93.1078 25.1471 93.1442 24.9548 93.1762C24.7654 93.2054 24.5804 93.2316 24.3997 93.2549C24.222 93.2753 24.0778 93.2928 23.9671 93.3074C23.699 93.3423 23.4484 93.3991 23.2153 93.4778C22.9851 93.5536 22.7986 93.6687 22.6559 93.8231C22.516 93.9746 22.4461 94.1815 22.4461 94.4437C22.4461 94.8021 22.5786 95.0731 22.8438 95.2567C23.1119 95.4373 23.4513 95.5276 23.8622 95.5276ZM33.9135 89.5836L31.431 96.2969H30.382L27.8995 89.5836H29.0184L30.8716 94.9332H30.9415L32.7946 89.5836H33.9135ZM37.0462 96.4542C36.6208 96.4542 36.2347 96.3741 35.8879 96.2138C35.5412 96.0507 35.2659 95.8161 35.0619 95.5102C34.8579 95.2013 34.7559 94.8283 34.7559 94.3913C34.7559 94.0067 34.8317 93.6949 34.9832 93.456C35.1347 93.2141 35.3372 93.0247 35.5907 92.8878C35.8442 92.7508 36.124 92.6489 36.4299 92.5818C36.7388 92.5119 37.0491 92.4565 37.3608 92.4158C37.7688 92.3633 38.0995 92.324 38.353 92.2977C38.6094 92.2686 38.7959 92.2205 38.9124 92.1535C39.0319 92.0865 39.0916 91.97 39.0916 91.8039V91.7689C39.0916 91.3377 38.9736 91.0026 38.7376 90.7637C38.5045 90.5247 38.1505 90.4053 37.6755 90.4053C37.1831 90.4053 36.797 90.5131 36.5173 90.7287C36.2376 90.9443 36.0409 91.1745 35.9273 91.4193L34.9483 91.0696C35.1231 90.6617 35.3562 90.3441 35.6476 90.1168C35.9418 89.8866 36.2624 89.7264 36.6091 89.636C36.9587 89.5428 37.3026 89.4962 37.6406 89.4962C37.8562 89.4962 38.1039 89.5224 38.3836 89.5748C38.6662 89.6244 38.9386 89.7278 39.2009 89.8852C39.466 90.0425 39.686 90.28 39.8608 90.5976C40.0357 90.9152 40.1231 91.3406 40.1231 91.8738V96.2969H39.0916V95.3878H39.0392C38.9692 95.5335 38.8527 95.6894 38.6895 95.8554C38.5263 96.0215 38.3093 96.1628 38.0383 96.2794C37.7673 96.3959 37.4366 96.4542 37.0462 96.4542ZM37.2035 95.5276C37.6114 95.5276 37.9552 95.4475 38.235 95.2873C38.5176 95.127 38.7303 94.9201 38.8731 94.6666C39.0188 94.4131 39.0916 94.1465 39.0916 93.8668V92.9227C39.0479 92.9752 38.9518 93.0233 38.8032 93.067C38.6575 93.1078 38.4885 93.1442 38.2962 93.1762C38.1068 93.2054 37.9217 93.2316 37.7411 93.2549C37.5633 93.2753 37.4191 93.2928 37.3084 93.3074C37.0403 93.3423 36.7897 93.3991 36.5566 93.4778C36.3265 93.5536 36.14 93.6687 35.9972 93.8231C35.8573 93.9746 35.7874 94.1815 35.7874 94.4437C35.7874 94.8021 35.92 95.0731 36.1851 95.2567C36.4532 95.4373 36.7927 95.5276 37.2035 95.5276ZM46.761 91.0871L45.8344 91.3493C45.7761 91.1949 45.6902 91.0448 45.5765 90.8991C45.4658 90.7505 45.3143 90.6282 45.122 90.532C44.9297 90.4359 44.6835 90.3878 44.3834 90.3878C43.9725 90.3878 43.6301 90.4825 43.3563 90.6719C43.0853 90.8584 42.9498 91.0958 42.9498 91.3843C42.9498 91.6407 43.043 91.8432 43.2295 91.9918C43.416 92.1404 43.7074 92.2642 44.1036 92.3633L45.1001 92.6081C45.7004 92.7538 46.1476 92.9767 46.4419 93.2768C46.7362 93.574 46.8834 93.9571 46.8834 94.4262C46.8834 94.8109 46.7726 95.1547 46.5512 95.4577C46.3327 95.7607 46.0267 95.9997 45.6334 96.1745C45.24 96.3493 44.7825 96.4367 44.261 96.4367C43.5762 96.4367 43.0095 96.2881 42.5608 95.9909C42.1121 95.6937 41.828 95.2596 41.7085 94.6885L42.6875 94.4437C42.7808 94.805 42.9571 95.076 43.2164 95.2567C43.4786 95.4373 43.821 95.5276 44.2435 95.5276C44.7243 95.5276 45.106 95.4257 45.3886 95.2217C45.6741 95.0148 45.8169 94.7672 45.8169 94.4787C45.8169 94.2456 45.7353 94.0504 45.5722 93.893C45.409 93.7328 45.1584 93.6133 44.8204 93.5346L43.7015 93.2724C43.0867 93.1267 42.6351 92.9009 42.3466 92.595C42.0611 92.2861 41.9183 91.9 41.9183 91.4367C41.9183 91.0579 42.0247 90.7229 42.2374 90.4315C42.453 90.1401 42.7458 89.9114 43.1159 89.7453C43.4888 89.5792 43.9113 89.4962 44.3834 89.4962C45.0477 89.4962 45.5693 89.6419 45.948 89.9332C46.3297 90.2246 46.6007 90.6092 46.761 91.0871ZM51.1633 96.4367C50.5339 96.4367 49.992 96.2881 49.5374 95.9909C49.0829 95.6937 48.7332 95.2843 48.4885 94.7628C48.2437 94.2412 48.1213 93.6454 48.1213 92.9752C48.1213 92.2934 48.2466 91.6917 48.4972 91.1701C48.7507 90.6457 49.1033 90.2363 49.5549 89.942C50.0094 89.6448 50.5397 89.4962 51.1458 89.4962C51.6178 89.4962 52.0432 89.5836 52.422 89.7584C52.8008 89.9332 53.1111 90.178 53.353 90.4927C53.5948 90.8074 53.7449 91.1745 53.8032 91.5941H52.7717C52.693 91.2881 52.5182 91.0172 52.2472 90.7811C51.9791 90.5422 51.6178 90.4227 51.1633 90.4227C50.7612 90.4227 50.4086 90.5276 50.1056 90.7374C49.8055 90.9443 49.5709 91.2371 49.4019 91.6159C49.2358 91.9918 49.1528 92.4332 49.1528 92.9402C49.1528 93.4589 49.2344 93.9105 49.3976 94.2951C49.5636 94.6797 49.7967 94.9784 50.0969 95.1911C50.3999 95.4038 50.7554 95.5102 51.1633 95.5102C51.4314 95.5102 51.6747 95.4635 51.8932 95.3703C52.1117 95.2771 52.2967 95.143 52.4483 94.9682C52.5998 94.7934 52.7076 94.5836 52.7717 94.3388H53.8032C53.7449 94.7351 53.6006 95.092 53.3705 95.4096C53.1432 95.7243 52.8416 95.9749 52.4657 96.1614C52.0928 96.345 51.6586 96.4367 51.1633 96.4367ZM55.311 96.2969V89.5836H56.3075V90.5976H56.3775C56.4998 90.2654 56.7213 89.9959 57.0418 89.789C57.3623 89.5821 57.7236 89.4787 58.1257 89.4787C58.2015 89.4787 58.2962 89.4801 58.4098 89.4831C58.5234 89.486 58.6094 89.4903 58.6677 89.4962V90.5451C58.6327 90.5364 58.5526 90.5233 58.4273 90.5058C58.3049 90.4854 58.1752 90.4752 58.0383 90.4752C57.712 90.4752 57.4206 90.5437 57.1642 90.6806C56.9107 90.8146 56.7096 91.0011 56.561 91.2401C56.4153 91.4761 56.3425 91.7456 56.3425 92.0486V96.2969H55.311ZM59.8903 96.2969V89.5836H60.9218V96.2969H59.8903ZM60.4148 88.4647C60.2138 88.4647 60.0404 88.3962 59.8947 88.2593C59.7519 88.1223 59.6806 87.9577 59.6806 87.7654C59.6806 87.5731 59.7519 87.4085 59.8947 87.2715C60.0404 87.1346 60.2138 87.0661 60.4148 87.0661C60.6159 87.0661 60.7878 87.1346 60.9306 87.2715C61.0762 87.4085 61.1491 87.5731 61.1491 87.7654C61.1491 87.9577 61.0762 88.1223 60.9306 88.2593C60.7878 88.3962 60.6159 88.4647 60.4148 88.4647ZM62.811 98.8144V89.5836H63.8075V90.65H63.9299C64.0057 90.5335 64.1106 90.3849 64.2446 90.2042C64.3815 90.0207 64.5768 89.8575 64.8302 89.7147C65.0867 89.569 65.4334 89.4962 65.8705 89.4962C66.4357 89.4962 66.934 89.6375 67.3652 89.9201C67.7964 90.2028 68.133 90.6034 68.3748 91.122C68.6167 91.6407 68.7376 92.2526 68.7376 92.9577C68.7376 93.6687 68.6167 94.2849 68.3748 94.8065C68.133 95.3251 67.7979 95.7272 67.3696 96.0128C66.9413 96.2954 66.4474 96.4367 65.8879 96.4367C65.4567 96.4367 65.1114 96.3653 64.8521 96.2226C64.5928 96.0769 64.3932 95.9123 64.2533 95.7287C64.1135 95.5422 64.0057 95.3878 63.9299 95.2654H63.8425V98.8144H62.811ZM63.825 92.9402C63.825 93.4472 63.8993 93.8945 64.0479 94.282C64.1965 94.6666 64.4136 94.9682 64.6991 95.1867C64.9847 95.4024 65.3343 95.5102 65.7481 95.5102C66.1793 95.5102 66.5392 95.3965 66.8276 95.1693C67.119 94.9391 67.3375 94.6302 67.4832 94.2427C67.6318 93.8522 67.7061 93.4181 67.7061 92.9402C67.7061 92.4682 67.6333 92.0428 67.4876 91.664C67.3448 91.2823 67.1277 90.9807 66.8364 90.7593C66.5479 90.5349 66.1851 90.4227 65.7481 90.4227C65.3285 90.4227 64.9759 90.5291 64.6904 90.7418C64.4048 90.9516 64.1892 91.2459 64.0435 91.6247C63.8978 92.0005 63.825 92.4391 63.825 92.9402ZM73.2306 89.5836V90.4577H69.7516V89.5836H73.2306ZM70.7656 87.9752H71.797V94.3738C71.797 94.6652 71.8393 94.8837 71.9238 95.0294C72.0112 95.1722 72.1219 95.2683 72.2559 95.3179C72.3929 95.3645 72.5371 95.3878 72.6886 95.3878C72.8023 95.3878 72.8955 95.382 72.9684 95.3703C73.0412 95.3557 73.0995 95.3441 73.1432 95.3353L73.353 96.2619C73.283 96.2881 73.1854 96.3144 73.0601 96.3406C72.9349 96.3697 72.7761 96.3843 72.5837 96.3843C72.2924 96.3843 72.0068 96.3216 71.7271 96.1964C71.4503 96.0711 71.2201 95.8802 71.0365 95.6238C70.8559 95.3674 70.7656 95.044 70.7656 94.6535V87.9752Z" fill="#FFA500"/>
</g>
<defs>
<filter id="filter0_d_403_4810" x="0" y="0" width="92.2051" height="124" filterUnits="userSpaceOnUse" color-interpolation-filters="sRGB">
<feFlood flood-opacity="0" result="BackgroundImageFix"/>
<feColorMatrix in="SourceAlpha" type="matrix" values="0 0 0 0 0 0 0 0 0 0 0 0 0 0 0 0 0 0 127 0" result="hardAlpha"/>
<feOffset dx="4" dy="4"/>
<feComposite in2="hardAlpha" operator="out"/>
<feColorMatrix type="matrix" values="0 0 0 0 0.462745 0 0 0 0 0.482353 0 0 0 0 0.486275 0 0 0 1 0"/>
<feBlend mode="normal" in2="BackgroundImageFix" result="effect1_dropShadow_403_4810"/>
<feBlend mode="normal" in="SourceGraphic" in2="effect1_dropShadow_403_4810" result="shape"/>
</filter>
<clipPath id="clip0_403_4810">
<rect width="32.0038" height="32.0038" fill="white" transform="translate(28.1006 28.2891)"/>
</clipPath>
</defs>
</svg>
