<svg width="89" height="120" viewBox="0 0 89 120" fill="none" xmlns="http://www.w3.org/2000/svg">
<rect x="1.02564" y="1.02564" width="86.1538" height="117.949" rx="15.3846" fill="#FCFFFF"/>
<rect x="1.02564" y="1.02564" width="86.1538" height="117.949" rx="15.3846" stroke="#1E7B9D" stroke-width="2.05128"/>
<rect x="16.923" y="19.2159" width="54.359" height="54.359" rx="27.1795" fill="#FCFFFF"/>
<rect x="16.923" y="19.2159" width="54.359" height="54.359" rx="27.1795" stroke="#1E7B9D" stroke-width="1.02564"/>
<g clip-path="url(#clip0_398_4793)">
<path d="M28.1006 33.9544C28.1006 31.9905 29.6927 30.3984 31.6566 30.3984H56.5484C58.5123 30.3984 60.1044 31.9905 60.1044 33.9544V58.8463C60.1044 60.8102 58.5123 62.4022 56.5484 62.4022H31.6566C29.6927 62.4022 28.1006 60.8102 28.1006 58.8463V33.9544Z" fill="#F5DE19"/>
<path d="M49.5988 55.3979C49.8715 55.9518 50.2951 56.4174 50.8209 56.7409C51.3467 57.0645 51.9532 57.2329 52.5706 57.2267C53.8164 57.2267 54.6131 56.6038 54.6131 55.7408C54.6131 54.7121 53.7947 54.3441 52.4231 53.744L51.671 53.4217C49.4993 52.497 48.0592 51.3391 48.0592 48.8908C48.0592 46.6357 49.7737 44.9178 52.4631 44.9178C53.3337 44.8549 54.2036 45.0498 54.9642 45.4781C55.7248 45.9063 56.3425 46.5491 56.7402 47.3261L54.3891 48.8291C54.2359 48.4438 53.9693 48.1142 53.6245 47.884C53.2797 47.6537 52.8731 47.5337 52.4585 47.5398C52.2777 47.5217 52.095 47.5415 51.9222 47.5979C51.7494 47.6543 51.5903 47.746 51.4549 47.8673C51.3195 47.9886 51.2109 48.1368 51.1359 48.3024C51.061 48.468 51.0213 48.6474 51.0195 48.8291C51.0195 49.7309 51.5784 50.0967 52.8689 50.6579L53.621 50.9802C56.1767 52.0764 57.6214 53.1931 57.6214 55.7042C57.6214 58.412 55.4943 59.8956 52.638 59.8956C51.5251 59.9665 50.4154 59.7138 49.4429 59.168C48.4704 58.6223 47.6766 57.8067 47.1573 56.8198L49.5988 55.3979ZM38.9747 55.6585C39.4467 56.4963 39.8765 57.205 40.9097 57.205C41.8973 57.205 42.5214 56.8186 42.5214 55.3156V45.0892H45.5286V55.3556C45.5286 58.4691 43.6998 59.8864 41.0378 59.8864C40.0968 59.9379 39.1623 59.7034 38.3571 59.2138C37.5519 58.7242 36.9137 58.0024 36.5264 57.1433L38.9747 55.6585Z" fill="black"/>
</g>
<rect x="3.8457" y="78.0859" width="80.5128" height="23.2051" rx="4" fill="#F2F2F2"/>
<path d="M18.613 85.2365H19.6969V91.6351C19.6969 92.2061 19.592 92.6913 19.3823 93.0905C19.1725 93.4897 18.8767 93.7927 18.495 93.9996C18.1133 94.2064 17.6631 94.3099 17.1445 94.3099C16.655 94.3099 16.2194 94.221 15.8377 94.0433C15.456 93.8626 15.1559 93.6062 14.9373 93.274C14.7188 92.9419 14.6095 92.5471 14.6095 92.0896H15.676C15.676 92.3431 15.7386 92.5645 15.8639 92.7539C15.9921 92.9404 16.1669 93.0861 16.3884 93.191C16.6098 93.2959 16.8619 93.3483 17.1445 93.3483C17.4563 93.3483 17.7214 93.2828 17.94 93.1517C18.1585 93.0205 18.3246 92.8282 18.4382 92.5747C18.5548 92.3183 18.613 92.0051 18.613 91.6351V85.2365ZM23.7048 94.3448C23.2794 94.3448 22.8933 94.2647 22.5466 94.1045C22.1999 93.9413 21.9245 93.7067 21.7205 93.4008C21.5166 93.0919 21.4146 92.719 21.4146 92.2819C21.4146 91.8973 21.4904 91.5855 21.6419 91.3466C21.7934 91.1047 21.9959 90.9154 22.2494 90.7784C22.5029 90.6415 22.7826 90.5395 23.0886 90.4725C23.3974 90.4025 23.7077 90.3472 24.0195 90.3064C24.4274 90.2539 24.7581 90.2146 25.0116 90.1884C25.268 90.1592 25.4545 90.1112 25.5711 90.0441C25.6905 89.9771 25.7503 89.8606 25.7503 89.6945V89.6595C25.7503 89.2283 25.6323 88.8932 25.3962 88.6543C25.1631 88.4154 24.8091 88.2959 24.3342 88.2959C23.8418 88.2959 23.4557 88.4037 23.176 88.6193C22.8962 88.8349 22.6996 89.0651 22.5859 89.3099L21.6069 88.9602C21.7817 88.5523 22.0148 88.2347 22.3062 88.0074C22.6005 87.7772 22.921 87.617 23.2677 87.5267C23.6174 87.4334 23.9612 87.3868 24.2992 87.3868C24.5148 87.3868 24.7625 87.413 25.0422 87.4655C25.3249 87.515 25.5973 87.6184 25.8595 87.7758C26.1247 87.9331 26.3447 88.1706 26.5195 88.4882C26.6943 88.8058 26.7817 89.2312 26.7817 89.7644V94.1875H25.7503V93.2784H25.6978C25.6279 93.4241 25.5113 93.58 25.3482 93.7461C25.185 93.9122 24.9679 94.0535 24.6969 94.17C24.426 94.2866 24.0953 94.3448 23.7048 94.3448ZM23.8622 93.4183C24.2701 93.4183 24.6139 93.3381 24.8936 93.1779C25.1763 93.0176 25.389 92.8108 25.5317 92.5573C25.6774 92.3038 25.7503 92.0372 25.7503 91.7574V90.8134C25.7066 90.8658 25.6104 90.9139 25.4618 90.9576C25.3161 90.9984 25.1471 91.0348 24.9548 91.0669C24.7654 91.096 24.5804 91.1222 24.3997 91.1455C24.222 91.1659 24.0778 91.1834 23.9671 91.198C23.699 91.233 23.4484 91.2898 23.2153 91.3684C22.9851 91.4442 22.7986 91.5593 22.6559 91.7137C22.516 91.8652 22.4461 92.0721 22.4461 92.3344C22.4461 92.6927 22.5786 92.9637 22.8438 93.1473C23.1119 93.3279 23.4513 93.4183 23.8622 93.4183ZM33.9135 87.4742L31.431 94.1875H30.382L27.8995 87.4742H29.0184L30.8716 92.8239H30.9415L32.7946 87.4742H33.9135ZM37.0462 94.3448C36.6208 94.3448 36.2347 94.2647 35.8879 94.1045C35.5412 93.9413 35.2659 93.7067 35.0619 93.4008C34.8579 93.0919 34.7559 92.719 34.7559 92.2819C34.7559 91.8973 34.8317 91.5855 34.9832 91.3466C35.1347 91.1047 35.3372 90.9154 35.5907 90.7784C35.8442 90.6415 36.124 90.5395 36.4299 90.4725C36.7388 90.4025 37.0491 90.3472 37.3608 90.3064C37.7688 90.2539 38.0995 90.2146 38.353 90.1884C38.6094 90.1592 38.7959 90.1112 38.9124 90.0441C39.0319 89.9771 39.0916 89.8606 39.0916 89.6945V89.6595C39.0916 89.2283 38.9736 88.8932 38.7376 88.6543C38.5045 88.4154 38.1505 88.2959 37.6755 88.2959C37.1831 88.2959 36.797 88.4037 36.5173 88.6193C36.2376 88.8349 36.0409 89.0651 35.9273 89.3099L34.9483 88.9602C35.1231 88.5523 35.3562 88.2347 35.6476 88.0074C35.9418 87.7772 36.2624 87.617 36.6091 87.5267C36.9587 87.4334 37.3026 87.3868 37.6406 87.3868C37.8562 87.3868 38.1039 87.413 38.3836 87.4655C38.6662 87.515 38.9386 87.6184 39.2009 87.7758C39.466 87.9331 39.686 88.1706 39.8608 88.4882C40.0357 88.8058 40.1231 89.2312 40.1231 89.7644V94.1875H39.0916V93.2784H39.0392C38.9692 93.4241 38.8527 93.58 38.6895 93.7461C38.5263 93.9122 38.3093 94.0535 38.0383 94.17C37.7673 94.2866 37.4366 94.3448 37.0462 94.3448ZM37.2035 93.4183C37.6114 93.4183 37.9552 93.3381 38.235 93.1779C38.5176 93.0176 38.7303 92.8108 38.8731 92.5573C39.0188 92.3038 39.0916 92.0372 39.0916 91.7574V90.8134C39.0479 90.8658 38.9518 90.9139 38.8032 90.9576C38.6575 90.9984 38.4885 91.0348 38.2962 91.0669C38.1068 91.096 37.9217 91.1222 37.7411 91.1455C37.5633 91.1659 37.4191 91.1834 37.3084 91.198C37.0403 91.233 36.7897 91.2898 36.5566 91.3684C36.3265 91.4442 36.14 91.5593 35.9972 91.7137C35.8573 91.8652 35.7874 92.0721 35.7874 92.3344C35.7874 92.6927 35.92 92.9637 36.1851 93.1473C36.4532 93.3279 36.7927 93.4183 37.2035 93.4183ZM46.761 88.9777L45.8344 89.2399C45.7761 89.0855 45.6902 88.9355 45.5765 88.7898C45.4658 88.6412 45.3143 88.5188 45.122 88.4226C44.9297 88.3265 44.6835 88.2784 44.3834 88.2784C43.9725 88.2784 43.6301 88.3731 43.3563 88.5625C43.0853 88.749 42.9498 88.9865 42.9498 89.2749C42.9498 89.5313 43.043 89.7338 43.2295 89.8824C43.416 90.031 43.7074 90.1549 44.1036 90.2539L45.1001 90.4987C45.7004 90.6444 46.1476 90.8673 46.4419 91.1674C46.7362 91.4646 46.8834 91.8478 46.8834 92.3169C46.8834 92.7015 46.7726 93.0453 46.5512 93.3483C46.3327 93.6514 46.0267 93.8903 45.6334 94.0651C45.24 94.2399 44.7825 94.3274 44.261 94.3274C43.5762 94.3274 43.0095 94.1788 42.5608 93.8816C42.1121 93.5844 41.828 93.1502 41.7085 92.5791L42.6875 92.3344C42.7808 92.6957 42.9571 92.9666 43.2164 93.1473C43.4786 93.3279 43.821 93.4183 44.2435 93.4183C44.7243 93.4183 45.106 93.3163 45.3886 93.1123C45.6741 92.9054 45.8169 92.6578 45.8169 92.3693C45.8169 92.1362 45.7353 91.941 45.5722 91.7837C45.409 91.6234 45.1584 91.5039 44.8204 91.4253L43.7015 91.163C43.0867 91.0173 42.6351 90.7915 42.3466 90.4856C42.0611 90.1767 41.9183 89.7906 41.9183 89.3274C41.9183 88.9486 42.0247 88.6135 42.2374 88.3221C42.453 88.0307 42.7458 87.802 43.1159 87.6359C43.4888 87.4698 43.9113 87.3868 44.3834 87.3868C45.0477 87.3868 45.5693 87.5325 45.948 87.8239C46.3297 88.1152 46.6007 88.4999 46.761 88.9777ZM51.1633 94.3274C50.5339 94.3274 49.992 94.1788 49.5374 93.8816C49.0829 93.5844 48.7332 93.175 48.4885 92.6534C48.2437 92.1318 48.1213 91.536 48.1213 90.8658C48.1213 90.184 48.2466 89.5823 48.4972 89.0608C48.7507 88.5363 49.1033 88.1269 49.5549 87.8326C50.0094 87.5354 50.5397 87.3868 51.1458 87.3868C51.6178 87.3868 52.0432 87.4742 52.422 87.649C52.8008 87.8239 53.1111 88.0686 53.353 88.3833C53.5948 88.698 53.7449 89.0651 53.8032 89.4847H52.7717C52.693 89.1788 52.5182 88.9078 52.2472 88.6718C51.9791 88.4328 51.6178 88.3134 51.1633 88.3134C50.7612 88.3134 50.4086 88.4183 50.1056 88.6281C49.8055 88.8349 49.5709 89.1278 49.4019 89.5066C49.2358 89.8824 49.1528 90.3239 49.1528 90.8309C49.1528 91.3495 49.2344 91.8011 49.3976 92.1858C49.5636 92.5704 49.7967 92.869 50.0969 93.0817C50.3999 93.2944 50.7554 93.4008 51.1633 93.4008C51.4314 93.4008 51.6747 93.3542 51.8932 93.2609C52.1117 93.1677 52.2967 93.0337 52.4483 92.8588C52.5998 92.684 52.7076 92.4742 52.7717 92.2295H53.8032C53.7449 92.6257 53.6006 92.9827 53.3705 93.3003C53.1432 93.6149 52.8416 93.8655 52.4657 94.052C52.0928 94.2356 51.6586 94.3274 51.1633 94.3274ZM55.311 94.1875V87.4742H56.3075V88.4882H56.3775C56.4998 88.156 56.7213 87.8865 57.0418 87.6796C57.3623 87.4728 57.7236 87.3693 58.1257 87.3693C58.2015 87.3693 58.2962 87.3708 58.4098 87.3737C58.5234 87.3766 58.6094 87.381 58.6677 87.3868V88.4358C58.6327 88.427 58.5526 88.4139 58.4273 88.3964C58.3049 88.376 58.1752 88.3658 58.0383 88.3658C57.712 88.3658 57.4206 88.4343 57.1642 88.5712C56.9107 88.7053 56.7096 88.8918 56.561 89.1307C56.4153 89.3667 56.3425 89.6362 56.3425 89.9392V94.1875H55.311ZM59.8903 94.1875V87.4742H60.9218V94.1875H59.8903ZM60.4148 86.3553C60.2138 86.3553 60.0404 86.2869 59.8947 86.1499C59.7519 86.013 59.6806 85.8483 59.6806 85.656C59.6806 85.4637 59.7519 85.2991 59.8947 85.1621C60.0404 85.0252 60.2138 84.9567 60.4148 84.9567C60.6159 84.9567 60.7878 85.0252 60.9306 85.1621C61.0762 85.2991 61.1491 85.4637 61.1491 85.656C61.1491 85.8483 61.0762 86.013 60.9306 86.1499C60.7878 86.2869 60.6159 86.3553 60.4148 86.3553ZM62.811 96.705V87.4742H63.8075V88.5406H63.9299C64.0057 88.4241 64.1106 88.2755 64.2446 88.0948C64.3815 87.9113 64.5768 87.7481 64.8302 87.6053C65.0867 87.4596 65.4334 87.3868 65.8705 87.3868C66.4357 87.3868 66.934 87.5281 67.3652 87.8108C67.7964 88.0934 68.133 88.494 68.3748 89.0127C68.6167 89.5313 68.7376 90.1432 68.7376 90.8483C68.7376 91.5593 68.6167 92.1756 68.3748 92.6971C68.133 93.2158 67.7979 93.6179 67.3696 93.9034C66.9413 94.186 66.4474 94.3274 65.8879 94.3274C65.4567 94.3274 65.1114 94.256 64.8521 94.1132C64.5928 93.9675 64.3932 93.8029 64.2533 93.6193C64.1135 93.4328 64.0057 93.2784 63.9299 93.156H63.8425V96.705H62.811ZM63.825 90.8309C63.825 91.3378 63.8993 91.7851 64.0479 92.1726C64.1965 92.5573 64.4136 92.8588 64.6991 93.0774C64.9847 93.293 65.3343 93.4008 65.7481 93.4008C66.1793 93.4008 66.5392 93.2872 66.8276 93.0599C67.119 92.8297 67.3375 92.5208 67.4832 92.1333C67.6318 91.7429 67.7061 91.3087 67.7061 90.8309C67.7061 90.3588 67.6333 89.9334 67.4876 89.5546C67.3448 89.1729 67.1277 88.8714 66.8364 88.6499C66.5479 88.4256 66.1851 88.3134 65.7481 88.3134C65.3285 88.3134 64.9759 88.4197 64.6904 88.6324C64.4048 88.8422 64.1892 89.1365 64.0435 89.5153C63.8978 89.8912 63.825 90.3297 63.825 90.8309ZM73.2306 87.4742V88.3483H69.7516V87.4742H73.2306ZM70.7656 85.8658H71.797V92.2644C71.797 92.5558 71.8393 92.7743 71.9238 92.92C72.0112 93.0628 72.1219 93.1589 72.2559 93.2085C72.3929 93.2551 72.5371 93.2784 72.6886 93.2784C72.8023 93.2784 72.8955 93.2726 72.9684 93.2609C73.0412 93.2464 73.0995 93.2347 73.1432 93.226L73.353 94.1525C73.283 94.1788 73.1854 94.205 73.0601 94.2312C72.9349 94.2603 72.7761 94.2749 72.5837 94.2749C72.2924 94.2749 72.0068 94.2123 71.7271 94.087C71.4503 93.9617 71.2201 93.7708 71.0365 93.5144C70.8559 93.258 70.7656 92.9346 70.7656 92.5441V85.8658Z" fill="#1E7B9D"/>
<defs>
<clipPath id="clip0_398_4793">
<rect width="32.0038" height="32.0038" fill="white" transform="translate(28.1006 30.3906)"/>
</clipPath>
</defs>
</svg>
