<svg width="140" height="49" viewBox="0 0 140 49" fill="none" xmlns="http://www.w3.org/2000/svg">
<g filter="url(#filter0_d_433_4849)">
<rect width="136" height="45" rx="4.73373" fill="#F0F0F0" shape-rendering="crispEdges"/>
<rect x="0.591716" y="0.591716" width="134.817" height="43.8166" rx="4.14201" stroke="#808080" stroke-width="1.18343" shape-rendering="crispEdges"/>
<path d="M34.6143 16.8711V26.75C34.6143 27.6934 34.4004 28.4668 33.9727 29.0703C33.5508 29.6738 33.0762 29.9756 32.5488 29.9756C32.502 29.9756 32.458 29.958 32.417 29.9229C32.3818 29.8877 32.3643 29.8408 32.3643 29.7822C32.3643 29.7471 32.4141 29.6445 32.5137 29.4746C32.7363 29.0938 32.8477 28.584 32.8477 27.9453V17.8027C32.8477 17.5566 32.9062 17.3604 33.0234 17.2139C33.1758 17.0322 33.3838 16.8682 33.6475 16.7217C33.917 16.5693 34.1367 16.4932 34.3066 16.4932C34.5117 16.4932 34.6143 16.6191 34.6143 16.8711ZM30.6504 30.2305C30.1758 30.2305 29.7744 30.0459 29.4463 29.6768C29.3467 29.5596 29.2969 29.416 29.2969 29.2461C29.2969 29.0527 29.3994 28.833 29.6045 28.5869C29.8096 28.3408 30.0117 28.2178 30.2109 28.2178C30.3047 28.2178 30.3779 28.2383 30.4307 28.2793C30.4834 28.3203 30.5771 28.4141 30.7119 28.5605C30.8467 28.7129 30.9961 28.7891 31.1602 28.7891C31.2891 28.7891 31.4385 28.751 31.6084 28.6748C31.7783 28.5986 31.8955 28.5605 31.96 28.5605C32.1064 28.5605 32.1797 28.6455 32.1797 28.8154C32.1797 28.9033 32.1475 29.0205 32.083 29.167C32.0244 29.3135 31.9365 29.4688 31.8193 29.6328C31.7021 29.7969 31.5381 29.9375 31.3271 30.0547C31.1221 30.1719 30.8965 30.2305 30.6504 30.2305ZM39.5625 29.2725C39.0703 29.2725 38.6455 29.208 38.2881 29.0791C37.9365 28.9561 37.6494 28.751 37.4268 28.4639C37.2041 28.1709 37.04 27.793 36.9346 27.3301C36.8291 26.8672 36.7764 26.2959 36.7764 25.6162V20.8438C36.7764 20.6855 36.8174 20.5391 36.8994 20.4043C36.9873 20.2637 37.0928 20.1436 37.2158 20.0439C37.3447 19.9443 37.4824 19.8682 37.6289 19.8154C37.7812 19.7568 37.9219 19.7275 38.0508 19.7275C38.2559 19.7275 38.3584 19.8535 38.3584 20.1055V25.458L38.3936 26.1348C38.417 26.4688 38.4639 26.7559 38.5342 26.9961C38.6045 27.2305 38.71 27.4238 38.8506 27.5762C38.9912 27.7227 39.167 27.8311 39.3779 27.9014C39.5947 27.9717 39.8555 28.0068 40.1602 28.0068C40.6465 28.0068 41.0889 27.8926 41.4873 27.6641C41.5986 27.5996 41.6719 27.5674 41.707 27.5674C41.7598 27.5674 41.7949 27.5879 41.8125 27.6289C41.8359 27.6699 41.8477 27.7578 41.8477 27.8926C41.8477 28.1387 41.7627 28.3496 41.5928 28.5254C41.4229 28.6953 41.2178 28.8359 40.9775 28.9473C40.7373 29.0586 40.4854 29.1406 40.2217 29.1934C39.9639 29.2461 39.7441 29.2725 39.5625 29.2725ZM43.8779 20.1055V27.9805C43.8779 28.2969 43.7314 28.5605 43.4385 28.7715C43.1514 28.9824 42.873 29.0879 42.6035 29.0879C42.3984 29.0879 42.2959 28.9619 42.2959 28.71V20.835C42.2959 20.5303 42.4424 20.2695 42.7354 20.0527C43.0283 19.8359 43.3066 19.7275 43.5703 19.7275C43.7754 19.7275 43.8779 19.8535 43.8779 20.1055ZM46.2949 22.3906C46.4121 22.291 46.5732 22.1855 46.7783 22.0742C46.9834 21.957 47.1475 21.8984 47.2705 21.8984C47.4229 21.8984 47.499 21.9834 47.499 22.1533C47.499 22.2002 47.4873 22.3232 47.4639 22.5225C47.4463 22.7217 47.4375 22.9092 47.4375 23.085C47.4375 23.4658 47.4873 23.7969 47.5869 24.0781C47.6924 24.3535 47.8125 24.5615 47.9473 24.7021C48.0879 24.8428 48.2637 24.9541 48.4746 25.0361C48.6855 25.1123 48.8643 25.1592 49.0107 25.1768C49.1631 25.1943 49.3359 25.2031 49.5293 25.2031C49.8105 25.2031 50.0479 25.165 50.2412 25.0889C50.4346 25.0068 50.5518 24.9658 50.5928 24.9658C50.6924 24.9658 50.7422 25.0273 50.7422 25.1504C50.7422 25.3848 50.5605 25.6426 50.1973 25.9238C49.8398 26.1992 49.3418 26.3369 48.7031 26.3369C48.4219 26.3369 48.1523 26.3105 47.8945 26.2578C47.6367 26.2051 47.3818 26.1143 47.1299 25.9854C46.8779 25.8506 46.6611 25.6836 46.4795 25.4844C46.2979 25.2852 46.1514 25.0244 46.04 24.7021C45.9287 24.3799 45.873 24.0137 45.873 23.6035C45.873 23.0469 46.0137 22.6426 46.2949 22.3906ZM51.9199 21.9951C52.3301 21.9951 52.5938 22.0654 52.7109 22.2061C52.8574 22.3936 52.9307 22.6895 52.9307 23.0938C52.9307 23.75 52.7461 24.3623 52.377 24.9307C52.2305 25.1475 52.0166 25.3701 51.7354 25.5986C51.46 25.8271 51.2578 25.9414 51.1289 25.9414C51.0234 25.9414 50.9707 25.8887 50.9707 25.7832C50.9707 25.7422 51.0029 25.6719 51.0674 25.5723C51.1318 25.4668 51.2021 25.3525 51.2783 25.2295C51.3545 25.1006 51.4248 24.9102 51.4893 24.6582C51.5537 24.4062 51.5859 24.1309 51.5859 23.832C51.5859 23.6328 51.5537 23.375 51.4893 23.0586C51.4248 22.7422 51.3311 22.4932 51.208 22.3115C51.1729 22.2588 51.1553 22.2178 51.1553 22.1885C51.1553 22.1533 51.1641 22.124 51.1816 22.1006C51.2051 22.0771 51.2754 22.0537 51.3926 22.0303C51.5156 22.0068 51.6914 21.9951 51.9199 21.9951ZM51.6914 33.6582C51.9961 33.4531 52.2275 33.1895 52.3857 32.8672C52.5439 32.5449 52.623 32.2139 52.623 31.874C52.623 31.0479 52.3623 30.4678 51.8408 30.1338C51.3193 29.7998 50.5312 29.627 49.4766 29.6152C49.0547 29.6094 48.7383 29.6035 48.5273 29.5977C48.3223 29.5918 48.0557 29.5713 47.7275 29.5361C47.3994 29.5068 47.1533 29.457 46.9893 29.3867C46.8252 29.3223 46.6494 29.2314 46.4619 29.1143C46.2803 29.0029 46.1514 28.8564 46.0752 28.6748C46.0049 28.4873 45.9697 28.2646 45.9697 28.0068C45.9697 27.5791 46.1074 27.2188 46.3828 26.9258C46.6582 26.627 46.8955 26.4775 47.0947 26.4775C47.2002 26.4775 47.2529 26.5303 47.2529 26.6357C47.2529 26.6768 47.2178 26.7822 47.1475 26.9521C47.083 27.1221 47.0508 27.2773 47.0508 27.418C47.0508 27.541 47.0801 27.6465 47.1387 27.7344C47.2031 27.8164 47.2852 27.8838 47.3848 27.9365C47.4844 27.9834 47.6279 28.0186 47.8154 28.042C48.0088 28.0654 48.2021 28.083 48.3955 28.0947C48.5947 28.1006 48.8525 28.1035 49.1689 28.1035C49.5674 28.1035 49.9189 28.1123 50.2236 28.1299C50.5342 28.1416 50.8623 28.1738 51.208 28.2266C51.5537 28.2793 51.8525 28.3525 52.1045 28.4463C52.3623 28.5342 52.6113 28.6572 52.8516 28.8154C53.0977 28.9736 53.2969 29.1582 53.4492 29.3691C53.6016 29.5859 53.7246 29.8525 53.8184 30.1689C53.9121 30.4854 53.959 30.8398 53.959 31.2324C53.959 31.6191 53.8828 31.9854 53.7305 32.3311C53.584 32.6826 53.3965 32.9727 53.168 33.2012C52.9453 33.4355 52.7051 33.623 52.4473 33.7637C52.1895 33.9102 51.9492 33.9893 51.7266 34.001C51.6094 34.001 51.5508 33.9541 51.5508 33.8604C51.5508 33.8018 51.5977 33.7344 51.6914 33.6582ZM53.2207 21.415C52.9746 21.5088 52.5205 21.5557 51.8584 21.5557C51.1494 21.5557 50.625 21.4883 50.2852 21.3535C49.6758 21.1133 49.1367 20.9932 48.668 20.9932C48.416 20.9932 48.0908 21.0488 47.6924 21.1602C47.2939 21.2656 46.8867 21.4561 46.4707 21.7314C46.2363 21.8955 46.0986 21.9775 46.0576 21.9775C45.9639 21.9775 45.917 21.9248 45.917 21.8193C45.917 21.7256 45.9932 21.5703 46.1455 21.3535C46.3682 21.0254 46.6201 20.7471 46.9014 20.5186C47.1826 20.2842 47.4668 20.1143 47.7539 20.0088C48.0469 19.9033 48.3105 19.8301 48.5449 19.7891C48.7852 19.748 49.0225 19.7275 49.2568 19.7275C49.9248 19.7275 50.5693 19.8594 51.1904 20.123C51.5361 20.2695 51.8438 20.3428 52.1133 20.3428H53.7832C53.9707 20.3428 54.0645 20.4072 54.0645 20.5361C54.0645 20.6709 53.9707 20.835 53.7832 21.0283C53.5957 21.2158 53.4082 21.3447 53.2207 21.415ZM45.6797 32.0586C45.6797 31.4668 45.8408 30.9512 46.1631 30.5117C46.4854 30.0723 46.7607 29.8525 46.9893 29.8525C47.1006 29.8525 47.1562 29.9111 47.1562 30.0283C47.1562 30.0459 47.127 30.1895 47.0684 30.459C47.0156 30.7285 46.9893 31.0098 46.9893 31.3027C46.9893 31.8477 47.2324 32.2725 47.7188 32.5771C48.2109 32.8877 48.8643 33.043 49.6787 33.043C49.9775 33.043 50.2793 33.0107 50.584 32.9463C50.8887 32.8818 51.1289 32.8174 51.3047 32.7529C51.4863 32.6885 51.5801 32.6562 51.5859 32.6562C51.6914 32.6562 51.7441 32.709 51.7441 32.8145C51.7441 32.9316 51.6768 33.0693 51.542 33.2275C51.4131 33.3916 51.2256 33.5557 50.9795 33.7197C50.7393 33.8838 50.4082 34.0215 49.9863 34.1328C49.5703 34.25 49.1133 34.3086 48.6152 34.3086C48.2988 34.3086 47.9766 34.2646 47.6484 34.1768C47.3262 34.0947 47.0127 33.9688 46.708 33.7988C46.4033 33.6289 46.1543 33.3916 45.9609 33.0869C45.7734 32.7881 45.6797 32.4453 45.6797 32.0586ZM59.0039 19.7275C59.4961 19.7275 59.9385 19.792 60.3311 19.9209C60.7236 20.0498 61.0547 20.2578 61.3242 20.5449C61.5938 20.8262 61.7988 21.1924 61.9395 21.6436C62.0859 22.0889 62.1592 22.6279 62.1592 23.2607V28.0244C62.1592 28.1709 62.1123 28.3086 62.0186 28.4375C61.9307 28.5664 61.8193 28.6807 61.6846 28.7803C61.5557 28.874 61.415 28.9473 61.2627 29C61.1162 29.0586 60.9873 29.0879 60.876 29.0879C60.6709 29.0879 60.5684 28.9619 60.5684 28.71V23.5859C60.5684 21.8574 59.8828 20.9932 58.5117 20.9932C57.7148 20.9932 56.9912 21.2129 56.3408 21.6523C56.083 21.8223 55.916 21.9072 55.8398 21.9072C55.752 21.9072 55.708 21.8604 55.708 21.7666C55.708 21.6025 55.7988 21.4092 55.9805 21.1865C56.7773 20.2139 57.7852 19.7275 59.0039 19.7275ZM59.9004 28.5078C59.6543 28.7305 59.3496 28.9121 58.9863 29.0527C58.623 29.1992 58.2744 29.2725 57.9404 29.2725C57.1611 29.2725 56.5635 29.0674 56.1475 28.6572C55.7373 28.2412 55.5322 27.7314 55.5322 27.1279C55.5322 26.6943 55.6816 26.3633 55.9805 26.1348C56.25 25.9238 56.4844 25.8184 56.6836 25.8184C56.748 25.8184 56.8037 25.8418 56.8506 25.8887C56.8975 25.9355 56.9209 26.0059 56.9209 26.0996C56.9209 26.7676 57.0352 27.2539 57.2637 27.5586C57.4922 27.8574 57.8994 28.0068 58.4854 28.0068C58.6611 28.0068 58.875 27.9775 59.127 27.9189C59.3789 27.8545 59.5928 27.7695 59.7686 27.6641C59.874 27.5996 59.9531 27.5674 60.0059 27.5674C60.0879 27.5674 60.1289 27.6758 60.1289 27.8926C60.1289 28.1621 60.0527 28.3672 59.9004 28.5078ZM59.8301 23.7617C59.9414 23.8203 60.0176 23.8994 60.0586 23.999C60.0996 24.0928 60.1201 24.2715 60.1201 24.5352C60.1201 24.7695 60.0996 24.9395 60.0586 25.0449C60.0234 25.1445 59.9561 25.1943 59.8564 25.1943C59.792 25.1943 59.7012 25.168 59.584 25.1152C59.0332 24.875 58.5352 24.7549 58.0898 24.7549C57.3691 24.7549 56.6836 25.0156 56.0332 25.5371C55.8281 25.7012 55.6904 25.7832 55.6201 25.7832C55.5264 25.7832 55.4795 25.7305 55.4795 25.625C55.4795 25.4609 55.5381 25.2822 55.6553 25.0889C55.9658 24.5674 56.373 24.1719 56.877 23.9023C57.3867 23.627 57.9521 23.4893 58.5732 23.4893C59.0479 23.4893 59.4668 23.5801 59.8301 23.7617ZM64.3389 28.71V24.2803C64.3389 23.9521 64.418 23.7002 64.5762 23.5244C64.7344 23.3428 64.9219 23.1787 65.1387 23.0322C65.3555 22.8799 65.5254 22.8037 65.6484 22.8037C65.8301 22.8037 65.9209 22.9297 65.9209 23.1816V27.9805C65.9209 28.3027 65.7773 28.5693 65.4902 28.7803C65.2031 28.9854 64.9219 29.0879 64.6465 29.0879C64.4414 29.0879 64.3389 28.9619 64.3389 28.71ZM68.1182 19.7275C68.4521 19.7275 68.8008 19.8008 69.1641 19.9473C69.5332 20.0938 69.7178 20.2842 69.7178 20.5186C69.7178 20.7061 69.5947 20.9023 69.3486 21.1074C69.1025 21.3066 68.8857 21.4062 68.6982 21.4062C68.54 21.4062 68.3174 21.333 68.0303 21.1865C67.7607 21.0576 67.5146 20.9932 67.292 20.9932C67.1514 20.9932 67.0166 21.0166 66.8877 21.0635C66.7588 21.1045 66.6094 21.1895 66.4395 21.3184C66.2695 21.4414 66.1289 21.5498 66.0176 21.6436C65.9121 21.7314 65.7275 21.8984 65.4639 22.1445C65.2061 22.3848 65.0039 22.5693 64.8574 22.6982C64.7285 22.8096 64.6201 22.8652 64.5322 22.8652C64.4033 22.8652 64.3389 22.7568 64.3389 22.54V20.835C64.3389 20.5186 64.4824 20.2549 64.7695 20.0439C65.0625 19.833 65.3438 19.7275 65.6133 19.7275C65.8184 19.7275 65.9209 19.8535 65.9209 20.1055V20.5977C65.9209 20.7852 65.9619 20.8789 66.0439 20.8789C66.1084 20.8789 66.2109 20.8086 66.3516 20.668C66.9785 20.041 67.5674 19.7275 68.1182 19.7275ZM78.041 19.7275C78.5332 19.7275 78.9756 19.792 79.3682 19.9209C79.7607 20.0498 80.0918 20.2578 80.3613 20.5449C80.6309 20.8262 80.8359 21.1924 80.9766 21.6436C81.123 22.0889 81.1963 22.6279 81.1963 23.2607V28.0244C81.1963 28.1709 81.1494 28.3086 81.0557 28.4375C80.9678 28.5664 80.8564 28.6807 80.7217 28.7803C80.5928 28.874 80.4521 28.9473 80.2998 29C80.1533 29.0586 80.0244 29.0879 79.9131 29.0879C79.708 29.0879 79.6055 28.9619 79.6055 28.71V23.5859C79.6055 21.8574 78.9199 20.9932 77.5488 20.9932C76.752 20.9932 76.0283 21.2129 75.3779 21.6523C75.1201 21.8223 74.9531 21.9072 74.877 21.9072C74.7891 21.9072 74.7451 21.8604 74.7451 21.7666C74.7451 21.6025 74.8359 21.4092 75.0176 21.1865C75.8145 20.2139 76.8223 19.7275 78.041 19.7275ZM78.9375 28.5078C78.6914 28.7305 78.3867 28.9121 78.0234 29.0527C77.6602 29.1992 77.3115 29.2725 76.9775 29.2725C76.1982 29.2725 75.6006 29.0674 75.1846 28.6572C74.7744 28.2412 74.5693 27.7314 74.5693 27.1279C74.5693 26.6943 74.7188 26.3633 75.0176 26.1348C75.2871 25.9238 75.5215 25.8184 75.7207 25.8184C75.7852 25.8184 75.8408 25.8418 75.8877 25.8887C75.9346 25.9355 75.958 26.0059 75.958 26.0996C75.958 26.7676 76.0723 27.2539 76.3008 27.5586C76.5293 27.8574 76.9365 28.0068 77.5225 28.0068C77.6982 28.0068 77.9121 27.9775 78.1641 27.9189C78.416 27.8545 78.6299 27.7695 78.8057 27.6641C78.9111 27.5996 78.9902 27.5674 79.043 27.5674C79.125 27.5674 79.166 27.6758 79.166 27.8926C79.166 28.1621 79.0898 28.3672 78.9375 28.5078ZM78.8672 23.7617C78.9785 23.8203 79.0547 23.8994 79.0957 23.999C79.1367 24.0928 79.1572 24.2715 79.1572 24.5352C79.1572 24.7695 79.1367 24.9395 79.0957 25.0449C79.0605 25.1445 78.9932 25.1943 78.8936 25.1943C78.8291 25.1943 78.7383 25.168 78.6211 25.1152C78.0703 24.875 77.5723 24.7549 77.127 24.7549C76.4062 24.7549 75.7207 25.0156 75.0703 25.5371C74.8652 25.7012 74.7275 25.7832 74.6572 25.7832C74.5635 25.7832 74.5166 25.7305 74.5166 25.625C74.5166 25.4609 74.5752 25.2822 74.6924 25.0889C75.0029 24.5674 75.4102 24.1719 75.9141 23.9023C76.4238 23.627 76.9893 23.4893 77.6104 23.4893C78.085 23.4893 78.5039 23.5801 78.8672 23.7617ZM85.4062 20.501C86.168 19.9854 86.9004 19.7275 87.6035 19.7275C88.5586 19.7275 89.2559 20.0234 89.6953 20.6152C90.1348 21.2012 90.3545 22.1533 90.3545 23.4717V27.9541C90.3545 28.2705 90.208 28.54 89.915 28.7627C89.6279 28.9795 89.3496 29.0879 89.0801 29.0879C88.875 29.0879 88.7725 28.9619 88.7725 28.71C88.7783 25.8447 88.7754 24.2744 88.7637 23.999C88.7578 23.7178 88.7344 23.3809 88.6934 22.9883C88.6582 22.5898 88.5996 22.2969 88.5176 22.1094C88.4355 21.9219 88.3213 21.7285 88.1748 21.5293C88.0342 21.3242 87.8496 21.1836 87.6211 21.1074C87.3926 21.0312 87.1172 20.9932 86.7949 20.9932C86.0801 20.9932 85.1455 21.4414 83.9912 22.3379C83.8037 22.4844 83.6572 22.5576 83.5518 22.5576C83.4346 22.5576 83.376 22.4697 83.376 22.2939V16.5986C83.376 16.2881 83.5225 16.0273 83.8154 15.8164C84.1143 15.6055 84.3926 15.5 84.6504 15.5C84.8555 15.5 84.958 15.626 84.958 15.8779L84.9229 20.2725C84.9229 20.5244 84.9814 20.6504 85.0986 20.6504C85.1689 20.6504 85.2715 20.6006 85.4062 20.501ZM83.376 28.71V23.999C83.376 23.6709 83.4551 23.4189 83.6133 23.2432C83.7656 23.0674 83.9531 22.9062 84.1758 22.7598C84.3984 22.6133 84.5684 22.54 84.6855 22.54C84.8672 22.54 84.958 22.666 84.958 22.918V27.998C84.958 28.3145 84.8086 28.5752 84.5098 28.7803C84.2109 28.9854 83.9355 29.0879 83.6836 29.0879C83.4785 29.0879 83.376 28.9619 83.376 28.71ZM95.9531 19.7275C97.2891 19.7275 98.2705 20.123 98.8975 20.9141C99.5303 21.6992 99.8467 22.8594 99.8467 24.3945C99.8467 24.8691 99.7852 25.3789 99.6621 25.9238C99.5449 26.4629 99.3838 26.9434 99.1787 27.3652C98.9561 27.8105 98.6836 28.1885 98.3613 28.499C98.0391 28.8096 97.7783 28.9648 97.5791 28.9648C97.4561 28.9648 97.3945 28.9092 97.3945 28.7979C97.3945 28.7627 97.415 28.7158 97.4561 28.6572C97.4971 28.5986 97.5527 28.5107 97.623 28.3936C97.6934 28.2705 97.7549 28.1299 97.8076 27.9717C98.0479 27.3154 98.168 26.3867 98.168 25.1855C98.168 24.5234 98.1211 23.9492 98.0273 23.4629C97.9395 22.9707 97.79 22.5342 97.5791 22.1533C97.374 21.7725 97.0869 21.4854 96.7178 21.292C96.3486 21.0928 95.8975 20.9932 95.3643 20.9932C94.626 20.9932 93.8643 21.2627 93.0791 21.8018C93.0498 21.8252 93.0059 21.8574 92.9473 21.8984C92.8887 21.9336 92.8418 21.9629 92.8066 21.9863C92.7773 22.0098 92.7451 22.0303 92.71 22.0479C92.6748 22.0654 92.6455 22.0742 92.6221 22.0742C92.54 22.0742 92.499 22.0244 92.499 21.9248C92.499 21.8604 92.5312 21.7666 92.5957 21.6436C92.666 21.5205 92.7246 21.4297 92.7715 21.3711C93.627 20.2754 94.6875 19.7275 95.9531 19.7275ZM93.8086 24.1484C93.8086 24.5586 93.8174 24.9102 93.835 25.2031C93.8525 25.4961 93.8848 25.8008 93.9316 26.1172C93.9844 26.4336 94.0605 26.6973 94.1602 26.9082C94.2656 27.1191 94.3945 27.3125 94.5469 27.4883C94.7051 27.6641 94.9043 27.7959 95.1445 27.8838C95.3848 27.9658 95.666 28.0068 95.9883 28.0068C96.2637 28.0068 96.5039 27.9688 96.709 27.8926C96.9199 27.8164 97.04 27.7783 97.0693 27.7783C97.1924 27.7783 97.2539 27.8428 97.2539 27.9717C97.2539 28.2354 97.0635 28.5195 96.6826 28.8242C96.3076 29.123 95.8447 29.2725 95.2939 29.2725C94.7842 29.2725 94.3389 29.1875 93.958 29.0176C93.583 28.8477 93.2812 28.625 93.0527 28.3496C92.8242 28.0742 92.6396 27.7285 92.499 27.3125C92.3643 26.8965 92.2734 26.4775 92.2266 26.0557C92.1797 25.6338 92.1562 25.1562 92.1562 24.623C92.1562 24.3242 92.1855 24.0107 92.2441 23.6826C92.3027 23.3486 92.3818 23.0938 92.4814 22.918C92.6045 22.707 92.8008 22.5137 93.0703 22.3379C93.3457 22.1621 93.5801 22.0742 93.7734 22.0742C93.9199 22.0742 93.9932 22.1621 93.9932 22.3379C93.9932 22.3672 93.9609 22.5928 93.8965 23.0146C93.8379 23.4365 93.8086 23.8145 93.8086 24.1484ZM101.763 28.71V24.2803C101.763 23.9521 101.842 23.7002 102 23.5244C102.158 23.3428 102.346 23.1787 102.562 23.0322C102.779 22.8799 102.949 22.8037 103.072 22.8037C103.254 22.8037 103.345 22.9297 103.345 23.1816V27.9805C103.345 28.3027 103.201 28.5693 102.914 28.7803C102.627 28.9854 102.346 29.0879 102.07 29.0879C101.865 29.0879 101.763 28.9619 101.763 28.71ZM105.542 19.7275C105.876 19.7275 106.225 19.8008 106.588 19.9473C106.957 20.0938 107.142 20.2842 107.142 20.5186C107.142 20.7061 107.019 20.9023 106.772 21.1074C106.526 21.3066 106.31 21.4062 106.122 21.4062C105.964 21.4062 105.741 21.333 105.454 21.1865C105.185 21.0576 104.938 20.9932 104.716 20.9932C104.575 20.9932 104.44 21.0166 104.312 21.0635C104.183 21.1045 104.033 21.1895 103.863 21.3184C103.693 21.4414 103.553 21.5498 103.441 21.6436C103.336 21.7314 103.151 21.8984 102.888 22.1445C102.63 22.3848 102.428 22.5693 102.281 22.6982C102.152 22.8096 102.044 22.8652 101.956 22.8652C101.827 22.8652 101.763 22.7568 101.763 22.54V20.835C101.763 20.5186 101.906 20.2549 102.193 20.0439C102.486 19.833 102.768 19.7275 103.037 19.7275C103.242 19.7275 103.345 19.8535 103.345 20.1055V20.5977C103.345 20.7852 103.386 20.8789 103.468 20.8789C103.532 20.8789 103.635 20.8086 103.775 20.668C104.402 20.041 104.991 19.7275 105.542 19.7275ZM111.721 19.7275C112.213 19.7275 112.655 19.792 113.048 19.9209C113.44 20.0498 113.771 20.2578 114.041 20.5449C114.311 20.8262 114.516 21.1924 114.656 21.6436C114.803 22.0889 114.876 22.6279 114.876 23.2607V28.0244C114.876 28.1709 114.829 28.3086 114.735 28.4375C114.647 28.5664 114.536 28.6807 114.401 28.7803C114.272 28.874 114.132 28.9473 113.979 29C113.833 29.0586 113.704 29.0879 113.593 29.0879C113.388 29.0879 113.285 28.9619 113.285 28.71V23.5859C113.285 21.8574 112.6 20.9932 111.229 20.9932C110.432 20.9932 109.708 21.2129 109.058 21.6523C108.8 21.8223 108.633 21.9072 108.557 21.9072C108.469 21.9072 108.425 21.8604 108.425 21.7666C108.425 21.6025 108.516 21.4092 108.697 21.1865C109.494 20.2139 110.502 19.7275 111.721 19.7275ZM112.617 28.5078C112.371 28.7305 112.066 28.9121 111.703 29.0527C111.34 29.1992 110.991 29.2725 110.657 29.2725C109.878 29.2725 109.28 29.0674 108.864 28.6572C108.454 28.2412 108.249 27.7314 108.249 27.1279C108.249 26.6943 108.398 26.3633 108.697 26.1348C108.967 25.9238 109.201 25.8184 109.4 25.8184C109.465 25.8184 109.521 25.8418 109.567 25.8887C109.614 25.9355 109.638 26.0059 109.638 26.0996C109.638 26.7676 109.752 27.2539 109.98 27.5586C110.209 27.8574 110.616 28.0068 111.202 28.0068C111.378 28.0068 111.592 27.9775 111.844 27.9189C112.096 27.8545 112.31 27.7695 112.485 27.6641C112.591 27.5996 112.67 27.5674 112.723 27.5674C112.805 27.5674 112.846 27.6758 112.846 27.8926C112.846 28.1621 112.77 28.3672 112.617 28.5078ZM112.547 23.7617C112.658 23.8203 112.734 23.8994 112.775 23.999C112.816 24.0928 112.837 24.2715 112.837 24.5352C112.837 24.7695 112.816 24.9395 112.775 25.0449C112.74 25.1445 112.673 25.1943 112.573 25.1943C112.509 25.1943 112.418 25.168 112.301 25.1152C111.75 24.875 111.252 24.7549 110.807 24.7549C110.086 24.7549 109.4 25.0156 108.75 25.5371C108.545 25.7012 108.407 25.7832 108.337 25.7832C108.243 25.7832 108.196 25.7305 108.196 25.625C108.196 25.4609 108.255 25.2822 108.372 25.0889C108.683 24.5674 109.09 24.1719 109.594 23.9023C110.104 23.627 110.669 23.4893 111.29 23.4893C111.765 23.4893 112.184 23.5801 112.547 23.7617Z" fill="#232323"/>
</g>
<defs>
<filter id="filter0_d_433_4849" x="0" y="0" width="139.55" height="48.5503" filterUnits="userSpaceOnUse" color-interpolation-filters="sRGB">
<feFlood flood-opacity="0" result="BackgroundImageFix"/>
<feColorMatrix in="SourceAlpha" type="matrix" values="0 0 0 0 0 0 0 0 0 0 0 0 0 0 0 0 0 0 127 0" result="hardAlpha"/>
<feOffset dx="3.5503" dy="3.5503"/>
<feComposite in2="hardAlpha" operator="out"/>
<feColorMatrix type="matrix" values="0 0 0 0 0.501961 0 0 0 0 0.501961 0 0 0 0 0.501961 0 0 0 1 0"/>
<feBlend mode="normal" in2="BackgroundImageFix" result="effect1_dropShadow_433_4849"/>
<feBlend mode="normal" in="SourceGraphic" in2="effect1_dropShadow_433_4849" result="shape"/>
</filter>
</defs>
</svg>
