<svg width="626" height="205" viewBox="0 0 626 205" fill="none" xmlns="http://www.w3.org/2000/svg">
<path d="M6.76 15.54C5.99333 15.5667 5.34667 15.63 4.82 15.73C4.29333 15.8233 3.86667 15.9467 3.54 16.1C3.21333 16.2467 2.97667 16.4233 2.83 16.63C2.69 16.8367 2.62 17.0633 2.62 17.31C2.62 17.55 2.65667 17.7567 2.73 17.93C2.81 18.0967 2.91667 18.2367 3.05 18.35C3.19 18.4567 3.35 18.5367 3.53 18.59C3.71667 18.6367 3.92 18.66 4.14 18.66C4.7 18.66 5.18 18.5567 5.58 18.35C5.98667 18.1367 6.38 17.83 6.76 17.43V15.54ZM1.06 11.22C2.21333 10.1467 3.58667 9.61 5.18 9.61C5.76667 9.61 6.28667 9.70667 6.74 9.9C7.2 10.0867 7.58333 10.3533 7.89 10.7C8.20333 11.0467 8.44 11.46 8.6 11.94C8.76667 12.4133 8.85 12.94 8.85 13.52V20H7.89C7.68333 20 7.52667 19.97 7.42 19.91C7.31333 19.8433 7.22333 19.7133 7.15 19.52L6.94 18.69C6.68 18.9233 6.42333 19.1333 6.17 19.32C5.91667 19.5 5.65333 19.6533 5.38 19.78C5.11333 19.9067 4.82333 20 4.51 20.06C4.20333 20.1267 3.86333 20.16 3.49 20.16C3.07667 20.16 2.69 20.1033 2.33 19.99C1.97667 19.8767 1.67 19.7067 1.41 19.48C1.15 19.2467 0.943333 18.96 0.79 18.62C0.643333 18.28 0.57 17.88 0.57 17.42C0.57 17.0267 0.673333 16.6433 0.88 16.27C1.09333 15.8967 1.44 15.5633 1.92 15.27C2.40667 14.97 3.04333 14.7233 3.83 14.53C4.62333 14.3367 5.6 14.2267 6.76 14.2V13.52C6.76 12.7867 6.60333 12.24 6.29 11.88C5.97667 11.52 5.51667 11.34 4.91 11.34C4.49667 11.34 4.15 11.3933 3.87 11.5C3.59 11.6 3.34667 11.71 3.14 11.83C2.93333 11.95 2.75 12.0633 2.59 12.17C2.43 12.27 2.26 12.32 2.08 12.32C1.93333 12.32 1.80667 12.2833 1.7 12.21C1.6 12.13 1.51667 12.0333 1.45 11.92L1.06 11.22ZM17.8786 12.31C17.5786 11.93 17.2486 11.6633 16.8886 11.51C16.5286 11.35 16.1386 11.27 15.7186 11.27C14.8786 11.27 14.2219 11.58 13.7486 12.2C13.2753 12.8133 13.0386 13.7233 13.0386 14.93C13.0386 15.5567 13.0919 16.0933 13.1986 16.54C13.3053 16.98 13.4586 17.34 13.6586 17.62C13.8586 17.9 14.1019 18.1033 14.3886 18.23C14.6753 18.3567 14.9986 18.42 15.3586 18.42C15.9053 18.42 16.3753 18.3033 16.7686 18.07C17.1686 17.83 17.5386 17.4933 17.8786 17.06V12.31ZM20.0286 9.8V23.39H17.8786V18.61C17.4586 19.07 16.9853 19.4433 16.4586 19.73C15.9386 20.01 15.3319 20.15 14.6386 20.15C14.0653 20.15 13.5453 20.0367 13.0786 19.81C12.6119 19.5767 12.2119 19.24 11.8786 18.8C11.5453 18.36 11.2853 17.8167 11.0986 17.17C10.9186 16.5167 10.8286 15.77 10.8286 14.93C10.8286 14.17 10.9286 13.4667 11.1286 12.82C11.3353 12.1733 11.6286 11.6133 12.0086 11.14C12.3886 10.66 12.8486 10.2867 13.3886 10.02C13.9353 9.74667 14.5453 9.61 15.2186 9.61C15.5453 9.61 15.8419 9.64 16.1086 9.7C16.3819 9.75333 16.6319 9.83667 16.8586 9.95C17.0919 10.0567 17.3053 10.19 17.4986 10.35C17.6919 10.5033 17.8753 10.68 18.0486 10.88L18.1786 10.21C18.2586 9.93667 18.4419 9.8 18.7286 9.8H20.0286ZM31.2577 9.8V20H29.9577C29.671 20 29.4877 19.8633 29.4077 19.59L29.2477 18.64C29.0343 18.8667 28.8077 19.0733 28.5677 19.26C28.3343 19.4467 28.0843 19.6067 27.8177 19.74C27.551 19.8733 27.2643 19.9767 26.9577 20.05C26.6577 20.1233 26.3343 20.16 25.9877 20.16C25.4277 20.16 24.9343 20.0667 24.5077 19.88C24.081 19.6933 23.721 19.43 23.4277 19.09C23.141 18.75 22.9243 18.3433 22.7777 17.87C22.631 17.39 22.5577 16.8633 22.5577 16.29V9.8H24.7077V16.29C24.7077 16.9767 24.8643 17.51 25.1777 17.89C25.4977 18.27 25.981 18.46 26.6277 18.46C27.101 18.46 27.541 18.3533 27.9477 18.14C28.361 17.92 28.7477 17.62 29.1077 17.24V9.8H31.2577ZM39.3186 15.54C38.5519 15.5667 37.9053 15.63 37.3786 15.73C36.8519 15.8233 36.4253 15.9467 36.0986 16.1C35.7719 16.2467 35.5353 16.4233 35.3886 16.63C35.2486 16.8367 35.1786 17.0633 35.1786 17.31C35.1786 17.55 35.2153 17.7567 35.2886 17.93C35.3686 18.0967 35.4753 18.2367 35.6086 18.35C35.7486 18.4567 35.9086 18.5367 36.0886 18.59C36.2753 18.6367 36.4786 18.66 36.6986 18.66C37.2586 18.66 37.7386 18.5567 38.1386 18.35C38.5453 18.1367 38.9386 17.83 39.3186 17.43V15.54ZM33.6186 11.22C34.7719 10.1467 36.1453 9.61 37.7386 9.61C38.3253 9.61 38.8453 9.70667 39.2986 9.9C39.7586 10.0867 40.1419 10.3533 40.4486 10.7C40.7619 11.0467 40.9986 11.46 41.1586 11.94C41.3253 12.4133 41.4086 12.94 41.4086 13.52V20H40.4486C40.2419 20 40.0853 19.97 39.9786 19.91C39.8719 19.8433 39.7819 19.7133 39.7086 19.52L39.4986 18.69C39.2386 18.9233 38.9819 19.1333 38.7286 19.32C38.4753 19.5 38.2119 19.6533 37.9386 19.78C37.6719 19.9067 37.3819 20 37.0686 20.06C36.7619 20.1267 36.4219 20.16 36.0486 20.16C35.6353 20.16 35.2486 20.1033 34.8886 19.99C34.5353 19.8767 34.2286 19.7067 33.9686 19.48C33.7086 19.2467 33.5019 18.96 33.3486 18.62C33.2019 18.28 33.1286 17.88 33.1286 17.42C33.1286 17.0267 33.2319 16.6433 33.4386 16.27C33.6519 15.8967 33.9986 15.5633 34.4786 15.27C34.9653 14.97 35.6019 14.7233 36.3886 14.53C37.1819 14.3367 38.1586 14.2267 39.3186 14.2V13.52C39.3186 12.7867 39.1619 12.24 38.8486 11.88C38.5353 11.52 38.0753 11.34 37.4686 11.34C37.0553 11.34 36.7086 11.3933 36.4286 11.5C36.1486 11.6 35.9053 11.71 35.6986 11.83C35.4919 11.95 35.3086 12.0633 35.1486 12.17C34.9886 12.27 34.8186 12.32 34.6386 12.32C34.4919 12.32 34.3653 12.2833 34.2586 12.21C34.1586 12.13 34.0753 12.0333 34.0086 11.92L33.6186 11.22Z" fill="black"/>
<path d="M170.64 200.768C170.987 200.768 171.296 200.72 171.568 200.624C171.84 200.523 172.067 200.384 172.248 200.208C172.435 200.027 172.576 199.813 172.672 199.568C172.768 199.323 172.816 199.056 172.816 198.768C172.816 198.416 172.76 198.112 172.648 197.856C172.541 197.6 172.389 197.389 172.192 197.224C172 197.053 171.771 196.928 171.504 196.848C171.237 196.763 170.949 196.72 170.64 196.72C170.331 196.72 170.043 196.763 169.776 196.848C169.509 196.928 169.277 197.053 169.08 197.224C168.888 197.389 168.736 197.6 168.624 197.856C168.517 198.112 168.464 198.416 168.464 198.768C168.464 199.056 168.512 199.323 168.608 199.568C168.704 199.813 168.843 200.027 169.024 200.208C169.211 200.384 169.44 200.523 169.712 200.624C169.984 200.72 170.293 200.768 170.64 200.768ZM170.64 191.672C170.325 191.672 170.048 191.72 169.808 191.816C169.573 191.912 169.379 192.04 169.224 192.2C169.069 192.36 168.952 192.549 168.872 192.768C168.797 192.981 168.76 193.208 168.76 193.448C168.76 193.688 168.792 193.923 168.856 194.152C168.925 194.381 169.032 194.587 169.176 194.768C169.325 194.944 169.52 195.085 169.76 195.192C170 195.299 170.293 195.352 170.64 195.352C170.987 195.352 171.28 195.299 171.52 195.192C171.76 195.085 171.952 194.944 172.096 194.768C172.245 194.587 172.352 194.381 172.416 194.152C172.485 193.923 172.52 193.688 172.52 193.448C172.52 193.208 172.48 192.981 172.4 192.768C172.325 192.549 172.208 192.36 172.048 192.2C171.893 192.04 171.699 191.912 171.464 191.816C171.229 191.72 170.955 191.672 170.64 191.672ZM172.456 195.992C173.165 196.211 173.696 196.557 174.048 197.032C174.405 197.507 174.584 198.096 174.584 198.8C174.584 199.307 174.488 199.765 174.296 200.176C174.104 200.587 173.835 200.936 173.488 201.224C173.141 201.512 172.725 201.736 172.24 201.896C171.76 202.051 171.227 202.128 170.64 202.128C170.053 202.128 169.517 202.051 169.032 201.896C168.552 201.736 168.139 201.512 167.792 201.224C167.445 200.936 167.176 200.587 166.984 200.176C166.792 199.765 166.696 199.307 166.696 198.8C166.696 198.096 166.872 197.507 167.224 197.032C167.581 196.557 168.115 196.211 168.824 195.992C168.248 195.763 167.813 195.429 167.52 194.992C167.232 194.555 167.088 194.029 167.088 193.416C167.088 192.984 167.173 192.581 167.344 192.208C167.515 191.835 167.755 191.512 168.064 191.24C168.379 190.963 168.755 190.747 169.192 190.592C169.629 190.432 170.112 190.352 170.64 190.352C171.168 190.352 171.648 190.432 172.08 190.592C172.517 190.747 172.891 190.963 173.2 191.24C173.515 191.512 173.757 191.835 173.928 192.208C174.104 192.581 174.192 192.984 174.192 193.416C174.192 194.029 174.045 194.555 173.752 194.992C173.464 195.429 173.032 195.763 172.456 195.992ZM184.121 196.24C184.121 197.248 184.012 198.12 183.793 198.856C183.58 199.592 183.284 200.203 182.905 200.688C182.527 201.173 182.081 201.533 181.569 201.768C181.057 202.003 180.505 202.12 179.913 202.12C179.321 202.12 178.769 202.003 178.257 201.768C177.745 201.533 177.3 201.173 176.921 200.688C176.548 200.203 176.255 199.592 176.041 198.856C175.828 198.12 175.721 197.248 175.721 196.24C175.721 195.232 175.828 194.36 176.041 193.624C176.255 192.883 176.548 192.272 176.921 191.792C177.3 191.307 177.745 190.947 178.257 190.712C178.769 190.472 179.321 190.352 179.913 190.352C180.505 190.352 181.057 190.472 181.569 190.712C182.081 190.947 182.527 191.307 182.905 191.792C183.284 192.272 183.58 192.883 183.793 193.624C184.012 194.36 184.121 195.232 184.121 196.24ZM182.345 196.24C182.345 195.387 182.276 194.677 182.137 194.112C182.004 193.541 181.825 193.085 181.601 192.744C181.377 192.403 181.119 192.16 180.825 192.016C180.532 191.872 180.228 191.8 179.913 191.8C179.593 191.8 179.287 191.872 178.993 192.016C178.705 192.16 178.449 192.403 178.225 192.744C178.001 193.085 177.823 193.541 177.689 194.112C177.556 194.677 177.489 195.387 177.489 196.24C177.489 197.093 177.556 197.805 177.689 198.376C177.823 198.941 178.001 199.395 178.225 199.736C178.449 200.077 178.705 200.32 178.993 200.464C179.287 200.608 179.593 200.68 179.913 200.68C180.228 200.68 180.532 200.608 180.825 200.464C181.119 200.32 181.377 200.077 181.601 199.736C181.825 199.395 182.004 198.941 182.137 198.376C182.276 197.805 182.345 197.093 182.345 196.24ZM193.403 196.24C193.403 197.248 193.293 198.12 193.075 198.856C192.861 199.592 192.565 200.203 192.187 200.688C191.808 201.173 191.363 201.533 190.851 201.768C190.339 202.003 189.787 202.12 189.195 202.12C188.603 202.12 188.051 202.003 187.539 201.768C187.027 201.533 186.581 201.173 186.203 200.688C185.829 200.203 185.536 199.592 185.323 198.856C185.109 198.12 185.003 197.248 185.003 196.24C185.003 195.232 185.109 194.36 185.323 193.624C185.536 192.883 185.829 192.272 186.203 191.792C186.581 191.307 187.027 190.947 187.539 190.712C188.051 190.472 188.603 190.352 189.195 190.352C189.787 190.352 190.339 190.472 190.851 190.712C191.363 190.947 191.808 191.307 192.187 191.792C192.565 192.272 192.861 192.883 193.075 193.624C193.293 194.36 193.403 195.232 193.403 196.24ZM191.627 196.24C191.627 195.387 191.557 194.677 191.419 194.112C191.285 193.541 191.107 193.085 190.883 192.744C190.659 192.403 190.4 192.16 190.107 192.016C189.813 191.872 189.509 191.8 189.195 191.8C188.875 191.8 188.568 191.872 188.275 192.016C187.987 192.16 187.731 192.403 187.507 192.744C187.283 193.085 187.104 193.541 186.971 194.112C186.837 194.677 186.771 195.387 186.771 196.24C186.771 197.093 186.837 197.805 186.971 198.376C187.104 198.941 187.283 199.395 187.507 199.736C187.731 200.077 187.987 200.32 188.275 200.464C188.568 200.608 188.875 200.68 189.195 200.68C189.509 200.68 189.813 200.608 190.107 200.464C190.4 200.32 190.659 200.077 190.883 199.736C191.107 199.395 191.285 198.941 191.419 198.376C191.557 197.805 191.627 197.093 191.627 196.24Z" fill="#7A7575"/>
<path d="M35.944 193.648C36.024 193.104 36.1733 192.627 36.392 192.216C36.616 191.805 36.896 191.464 37.232 191.192C37.568 190.915 37.952 190.707 38.384 190.568C38.8213 190.424 39.2933 190.352 39.8 190.352C40.312 190.352 40.776 190.427 41.192 190.576C41.6133 190.72 41.9733 190.923 42.272 191.184C42.576 191.445 42.808 191.757 42.968 192.12C43.1333 192.483 43.216 192.88 43.216 193.312C43.216 193.68 43.1707 194.005 43.08 194.288C42.9947 194.565 42.8693 194.811 42.704 195.024C42.544 195.237 42.3467 195.416 42.112 195.56C41.8773 195.704 41.6133 195.824 41.32 195.92C42.0347 196.128 42.5707 196.461 42.928 196.92C43.2853 197.373 43.464 197.944 43.464 198.632C43.464 199.187 43.36 199.68 43.152 200.112C42.944 200.544 42.6613 200.909 42.304 201.208C41.952 201.507 41.5387 201.736 41.064 201.896C40.5947 202.051 40.096 202.128 39.568 202.128C38.976 202.128 38.464 202.059 38.032 201.92C37.6 201.776 37.2267 201.573 36.912 201.312C36.6027 201.045 36.344 200.725 36.136 200.352C35.928 199.979 35.752 199.56 35.608 199.096L36.352 198.784C36.5493 198.699 36.736 198.675 36.912 198.712C37.0933 198.749 37.224 198.848 37.304 199.008C37.3893 199.179 37.4853 199.363 37.592 199.56C37.6987 199.752 37.8347 199.931 38 200.096C38.1707 200.256 38.3787 200.392 38.624 200.504C38.8747 200.611 39.1813 200.664 39.544 200.664C39.912 200.664 40.232 200.605 40.504 200.488C40.7813 200.365 41.0107 200.211 41.192 200.024C41.3787 199.832 41.5173 199.619 41.608 199.384C41.6987 199.149 41.744 198.917 41.744 198.688C41.744 198.4 41.7093 198.136 41.64 197.896C41.5707 197.651 41.4347 197.443 41.232 197.272C41.0347 197.101 40.752 196.968 40.384 196.872C40.0213 196.771 39.544 196.72 38.952 196.72V195.48C39.4373 195.475 39.8453 195.427 40.176 195.336C40.512 195.24 40.7787 195.112 40.976 194.952C41.1787 194.787 41.3227 194.589 41.408 194.36C41.4987 194.131 41.544 193.88 41.544 193.608C41.544 193.315 41.4987 193.056 41.408 192.832C41.3173 192.608 41.1893 192.421 41.024 192.272C40.864 192.117 40.672 192.003 40.448 191.928C40.224 191.853 39.976 191.816 39.704 191.816C39.4427 191.816 39.2 191.853 38.976 191.928C38.7573 192.003 38.56 192.107 38.384 192.24C38.2133 192.373 38.0693 192.533 37.952 192.72C37.8347 192.901 37.7493 193.101 37.696 193.32C37.6213 193.539 37.52 193.685 37.392 193.76C37.2693 193.835 37.088 193.851 36.848 193.808L35.944 193.648ZM53.1213 196.24C53.1213 197.248 53.0119 198.12 52.7933 198.856C52.5799 199.592 52.2839 200.203 51.9053 200.688C51.5266 201.173 51.0813 201.533 50.5693 201.768C50.0573 202.003 49.5053 202.12 48.9133 202.12C48.3213 202.12 47.7693 202.003 47.2573 201.768C46.7453 201.533 46.2999 201.173 45.9213 200.688C45.5479 200.203 45.2546 199.592 45.0413 198.856C44.8279 198.12 44.7213 197.248 44.7213 196.24C44.7213 195.232 44.8279 194.36 45.0413 193.624C45.2546 192.883 45.5479 192.272 45.9213 191.792C46.2999 191.307 46.7453 190.947 47.2573 190.712C47.7693 190.472 48.3213 190.352 48.9133 190.352C49.5053 190.352 50.0573 190.472 50.5693 190.712C51.0813 190.947 51.5266 191.307 51.9053 191.792C52.2839 192.272 52.5799 192.883 52.7933 193.624C53.0119 194.36 53.1213 195.232 53.1213 196.24ZM51.3453 196.24C51.3453 195.387 51.2759 194.677 51.1373 194.112C51.0039 193.541 50.8253 193.085 50.6013 192.744C50.3773 192.403 50.1186 192.16 49.8253 192.016C49.5319 191.872 49.2279 191.8 48.9133 191.8C48.5933 191.8 48.2866 191.872 47.9933 192.016C47.7053 192.16 47.4493 192.403 47.2253 192.744C47.0013 193.085 46.8226 193.541 46.6893 194.112C46.5559 194.677 46.4893 195.387 46.4893 196.24C46.4893 197.093 46.5559 197.805 46.6893 198.376C46.8226 198.941 47.0013 199.395 47.2253 199.736C47.4493 200.077 47.7053 200.32 47.9933 200.464C48.2866 200.608 48.5933 200.68 48.9133 200.68C49.2279 200.68 49.5319 200.608 49.8253 200.464C50.1186 200.32 50.3773 200.077 50.6013 199.736C50.8253 199.395 51.0039 198.941 51.1373 198.376C51.2759 197.805 51.3453 197.093 51.3453 196.24ZM62.4025 196.24C62.4025 197.248 62.2932 198.12 62.0745 198.856C61.8612 199.592 61.5652 200.203 61.1865 200.688C60.8078 201.173 60.3625 201.533 59.8505 201.768C59.3385 202.003 58.7865 202.12 58.1945 202.12C57.6025 202.12 57.0505 202.003 56.5385 201.768C56.0265 201.533 55.5812 201.173 55.2025 200.688C54.8292 200.203 54.5358 199.592 54.3225 198.856C54.1092 198.12 54.0025 197.248 54.0025 196.24C54.0025 195.232 54.1092 194.36 54.3225 193.624C54.5358 192.883 54.8292 192.272 55.2025 191.792C55.5812 191.307 56.0265 190.947 56.5385 190.712C57.0505 190.472 57.6025 190.352 58.1945 190.352C58.7865 190.352 59.3385 190.472 59.8505 190.712C60.3625 190.947 60.8078 191.307 61.1865 191.792C61.5652 192.272 61.8612 192.883 62.0745 193.624C62.2932 194.36 62.4025 195.232 62.4025 196.24ZM60.6265 196.24C60.6265 195.387 60.5572 194.677 60.4185 194.112C60.2852 193.541 60.1065 193.085 59.8825 192.744C59.6585 192.403 59.3998 192.16 59.1065 192.016C58.8132 191.872 58.5092 191.8 58.1945 191.8C57.8745 191.8 57.5678 191.872 57.2745 192.016C56.9865 192.16 56.7305 192.403 56.5065 192.744C56.2825 193.085 56.1038 193.541 55.9705 194.112C55.8372 194.677 55.7705 195.387 55.7705 196.24C55.7705 197.093 55.8372 197.805 55.9705 198.376C56.1038 198.941 56.2825 199.395 56.5065 199.736C56.7305 200.077 56.9865 200.32 57.2745 200.464C57.5678 200.608 57.8745 200.68 58.1945 200.68C58.5092 200.68 58.8132 200.608 59.1065 200.464C59.3998 200.32 59.6585 200.077 59.8825 199.736C60.1065 199.395 60.2852 198.941 60.4185 198.376C60.5572 197.805 60.6265 197.093 60.6265 196.24Z" fill="#7A7575"/>
<rect y="44" width="100" height="130" rx="8" fill="#D9D9D9"/>
<rect x="12" y="56" width="76" height="71" rx="4" fill="#17D4D4"/>
<path d="M21.98 155C21.788 155 21.6387 154.952 21.532 154.856C21.4253 154.749 21.372 154.605 21.372 154.424C21.372 154.243 21.4253 154.109 21.532 154.024C21.6387 153.928 21.788 153.88 21.98 153.88H24.06V144.808H24.748L22.428 146.344C22.2893 146.419 22.156 146.451 22.028 146.44C21.9107 146.429 21.8093 146.387 21.724 146.312C21.6493 146.227 21.596 146.131 21.564 146.024C21.532 145.907 21.5373 145.789 21.58 145.672C21.6227 145.544 21.7133 145.437 21.852 145.352L24.06 143.896C24.1987 143.811 24.332 143.741 24.46 143.688C24.588 143.635 24.716 143.608 24.844 143.608C24.9933 143.608 25.116 143.656 25.212 143.752C25.3187 143.837 25.372 143.976 25.372 144.168V153.88H27.292C27.484 153.88 27.6333 153.928 27.74 154.024C27.8467 154.109 27.9 154.243 27.9 154.424C27.9 154.616 27.8467 154.76 27.74 154.856C27.6333 154.952 27.484 155 27.292 155H21.98ZM31.7818 155.112C31.6324 155.112 31.5044 155.075 31.3978 155C31.2911 154.925 31.2218 154.824 31.1898 154.696C31.1684 154.557 31.2004 154.408 31.2858 154.248L36.4218 144.28V144.856H30.6618C30.4698 144.856 30.3204 144.808 30.2138 144.712C30.1071 144.605 30.0538 144.461 30.0538 144.28C30.0538 144.099 30.1071 143.96 30.2138 143.864C30.3204 143.768 30.4698 143.72 30.6618 143.72H37.0138C37.2058 143.72 37.3604 143.768 37.4778 143.864C37.5951 143.96 37.6538 144.099 37.6538 144.28C37.6538 144.429 37.6324 144.563 37.5898 144.68C37.5578 144.787 37.5098 144.909 37.4458 145.048L32.5178 154.664C32.4431 154.813 32.3471 154.925 32.2298 155C32.1124 155.075 31.9631 155.112 31.7818 155.112ZM40.7995 155C40.5648 155 40.3835 154.941 40.2555 154.824C40.1382 154.696 40.0795 154.515 40.0795 154.28V144.44C40.0795 144.205 40.1382 144.029 40.2555 143.912C40.3835 143.784 40.5648 143.72 40.7995 143.72H43.8875C45.7115 143.72 47.1195 144.2 48.1115 145.16C49.1035 146.12 49.5995 147.517 49.5995 149.352C49.5995 150.269 49.4715 151.08 49.2155 151.784C48.9702 152.477 48.6022 153.064 48.1115 153.544C47.6208 154.024 47.0235 154.387 46.3195 154.632C45.6155 154.877 44.8048 155 43.8875 155H40.7995ZM41.3915 153.88H43.7915C44.5382 153.88 45.1835 153.784 45.7275 153.592C46.2822 153.4 46.7408 153.117 47.1035 152.744C47.4768 152.371 47.7542 151.901 47.9355 151.336C48.1168 150.76 48.2075 150.099 48.2075 149.352C48.2075 147.848 47.8395 146.723 47.1035 145.976C46.3675 145.219 45.2635 144.84 43.7915 144.84H41.3915V153.88ZM57.2505 155.112C57.0478 155.112 56.8878 155.053 56.7705 154.936C56.6532 154.819 56.5945 154.653 56.5945 154.44V152.584H52.0025C51.7892 152.584 51.6185 152.536 51.4905 152.44C51.3732 152.333 51.3145 152.184 51.3145 151.992C51.3145 151.875 51.3412 151.757 51.3945 151.64C51.4478 151.512 51.5438 151.352 51.6825 151.16L56.5625 144.056C56.6585 143.907 56.7652 143.795 56.8825 143.72C56.9998 143.645 57.1385 143.608 57.2985 143.608C57.4692 143.608 57.6132 143.661 57.7305 143.768C57.8585 143.875 57.9225 144.045 57.9225 144.28V151.464H59.0905C59.2932 151.464 59.4478 151.512 59.5545 151.608C59.6612 151.704 59.7145 151.843 59.7145 152.024C59.7145 152.205 59.6612 152.344 59.5545 152.44C59.4478 152.536 59.2932 152.584 59.0905 152.584H57.9225V154.44C57.9225 154.653 57.8638 154.819 57.7465 154.936C57.6292 155.053 57.4638 155.112 57.2505 155.112ZM56.5945 151.464V145.256H56.9785L52.4985 151.816V151.464H56.5945ZM62.2682 155C62.0336 155 61.8523 154.941 61.7243 154.824C61.6069 154.696 61.5483 154.515 61.5483 154.28V144.44C61.5483 144.205 61.6069 144.029 61.7243 143.912C61.8523 143.784 62.0336 143.72 62.2682 143.72H65.3563C67.1803 143.72 68.5883 144.2 69.5803 145.16C70.5723 146.12 71.0683 147.517 71.0683 149.352C71.0683 150.269 70.9403 151.08 70.6843 151.784C70.4389 152.477 70.0709 153.064 69.5803 153.544C69.0896 154.024 68.4923 154.387 67.7883 154.632C67.0843 154.877 66.2736 155 65.3563 155H62.2682ZM62.8603 153.88H65.2603C66.0069 153.88 66.6523 153.784 67.1963 153.592C67.7509 153.4 68.2096 153.117 68.5723 152.744C68.9456 152.371 69.2229 151.901 69.4043 151.336C69.5856 150.76 69.6763 150.099 69.6763 149.352C69.6763 147.848 69.3083 146.723 68.5723 145.976C67.8363 145.219 66.7323 144.84 65.2603 144.84H62.8603V153.88ZM78.7193 155.112C78.5166 155.112 78.3566 155.053 78.2393 154.936C78.1219 154.819 78.0633 154.653 78.0633 154.44V152.584H73.4713C73.2579 152.584 73.0873 152.536 72.9593 152.44C72.8419 152.333 72.7833 152.184 72.7833 151.992C72.7833 151.875 72.8099 151.757 72.8633 151.64C72.9166 151.512 73.0126 151.352 73.1513 151.16L78.0313 144.056C78.1273 143.907 78.2339 143.795 78.3513 143.72C78.4686 143.645 78.6073 143.608 78.7673 143.608C78.9379 143.608 79.0819 143.661 79.1993 143.768C79.3273 143.875 79.3913 144.045 79.3913 144.28V151.464H80.5593C80.7619 151.464 80.9166 151.512 81.0233 151.608C81.1299 151.704 81.1833 151.843 81.1833 152.024C81.1833 152.205 81.1299 152.344 81.0233 152.44C80.9166 152.536 80.7619 152.584 80.5593 152.584H79.3913V154.44C79.3913 154.653 79.3326 154.819 79.2153 154.936C79.0979 155.053 78.9326 155.112 78.7193 155.112ZM78.0633 151.464V145.256H78.4473L73.9673 151.816V151.464H78.0633Z" fill="black"/>
<rect x="131" y="44" width="100" height="133" rx="8" fill="#D9D9D9"/>
<rect x="143" y="56" width="76" height="71" rx="4" fill="#008786"/>
<path d="M156.8 159.144C155.509 159.144 154.528 158.648 153.856 157.656C153.184 156.664 152.848 155.229 152.848 153.352C152.848 152.093 152.997 151.037 153.296 150.184C153.595 149.32 154.037 148.669 154.624 148.232C155.221 147.795 155.947 147.576 156.8 147.576C158.101 147.576 159.083 148.067 159.744 149.048C160.416 150.019 160.752 151.448 160.752 153.336C160.752 154.595 160.603 155.656 160.304 156.52C160.005 157.384 159.563 158.04 158.976 158.488C158.389 158.925 157.664 159.144 156.8 159.144ZM156.8 158.008C157.696 158.008 158.357 157.629 158.784 156.872C159.221 156.104 159.44 154.925 159.44 153.336C159.44 151.736 159.221 150.568 158.784 149.832C158.357 149.085 157.696 148.712 156.8 148.712C155.915 148.712 155.253 149.085 154.816 149.832C154.379 150.579 154.16 151.747 154.16 153.336C154.16 154.925 154.379 156.104 154.816 156.872C155.253 157.629 155.915 158.008 156.8 158.008ZM166.394 159.144C165.103 159.144 164.122 158.648 163.45 157.656C162.778 156.664 162.442 155.229 162.442 153.352C162.442 152.093 162.591 151.037 162.89 150.184C163.188 149.32 163.631 148.669 164.218 148.232C164.815 147.795 165.54 147.576 166.394 147.576C167.695 147.576 168.676 148.067 169.338 149.048C170.01 150.019 170.346 151.448 170.346 153.336C170.346 154.595 170.196 155.656 169.898 156.52C169.599 157.384 169.156 158.04 168.57 158.488C167.983 158.925 167.258 159.144 166.394 159.144ZM166.394 158.008C167.29 158.008 167.951 157.629 168.378 156.872C168.815 156.104 169.034 154.925 169.034 153.336C169.034 151.736 168.815 150.568 168.378 149.832C167.951 149.085 167.29 148.712 166.394 148.712C165.508 148.712 164.847 149.085 164.41 149.832C163.972 150.579 163.754 151.747 163.754 153.336C163.754 154.925 163.972 156.104 164.41 156.872C164.847 157.629 165.508 158.008 166.394 158.008ZM175.988 159.144C175.145 159.144 174.42 159.021 173.812 158.776C173.214 158.531 172.756 158.173 172.436 157.704C172.126 157.235 171.972 156.669 171.972 156.008C171.972 155.485 172.078 155.021 172.292 154.616C172.505 154.2 172.804 153.864 173.188 153.608C173.572 153.352 174.014 153.192 174.516 153.128V153.368C173.822 153.219 173.268 152.893 172.852 152.392C172.446 151.88 172.243 151.277 172.243 150.584C172.243 149.944 172.393 149.405 172.692 148.968C173.001 148.52 173.438 148.179 174.004 147.944C174.569 147.699 175.23 147.576 175.988 147.576C176.756 147.576 177.417 147.699 177.972 147.944C178.537 148.179 178.974 148.52 179.284 148.968C179.593 149.405 179.748 149.944 179.748 150.584C179.748 151.043 179.652 151.469 179.46 151.864C179.278 152.248 179.017 152.568 178.676 152.824C178.334 153.08 177.934 153.256 177.476 153.352V153.128C178.233 153.235 178.841 153.549 179.3 154.072C179.769 154.584 180.003 155.229 180.003 156.008C180.003 156.669 179.844 157.235 179.524 157.704C179.214 158.173 178.756 158.531 178.148 158.776C177.55 159.021 176.83 159.144 175.988 159.144ZM175.988 158.056C176.894 158.056 177.577 157.88 178.036 157.528C178.505 157.176 178.74 156.643 178.74 155.928C178.74 155.224 178.505 154.701 178.036 154.36C177.577 154.008 176.894 153.832 175.988 153.832C175.092 153.832 174.409 154.008 173.94 154.36C173.47 154.701 173.236 155.224 173.236 155.928C173.236 156.643 173.47 157.176 173.94 157.528C174.409 157.88 175.092 158.056 175.988 158.056ZM175.988 152.744C176.51 152.744 176.953 152.664 177.316 152.504C177.689 152.333 177.977 152.093 178.18 151.784C178.382 151.475 178.484 151.112 178.484 150.696C178.484 150.056 178.26 149.56 177.812 149.208C177.374 148.845 176.766 148.664 175.988 148.664C175.209 148.664 174.601 148.845 174.164 149.208C173.726 149.56 173.508 150.056 173.508 150.696C173.508 151.336 173.726 151.837 174.164 152.2C174.601 152.563 175.209 152.744 175.988 152.744ZM183.469 159.112C183.32 159.112 183.192 159.075 183.085 159C182.979 158.925 182.909 158.824 182.877 158.696C182.856 158.557 182.888 158.408 182.973 158.248L188.109 148.28V148.856H182.349C182.157 148.856 182.008 148.808 181.901 148.712C181.795 148.605 181.741 148.461 181.741 148.28C181.741 148.099 181.795 147.96 181.901 147.864C182.008 147.768 182.157 147.72 182.349 147.72H188.701C188.893 147.72 189.048 147.768 189.165 147.864C189.283 147.96 189.341 148.099 189.341 148.28C189.341 148.429 189.32 148.563 189.277 148.68C189.245 148.787 189.197 148.909 189.133 149.048L184.205 158.664C184.131 158.813 184.035 158.925 183.917 159C183.8 159.075 183.651 159.112 183.469 159.112ZM195.175 159.144C194.332 159.144 193.607 159.021 192.999 158.776C192.402 158.531 191.943 158.173 191.623 157.704C191.314 157.235 191.159 156.669 191.159 156.008C191.159 155.485 191.266 155.021 191.479 154.616C191.692 154.2 191.991 153.864 192.375 153.608C192.759 153.352 193.202 153.192 193.703 153.128V153.368C193.01 153.219 192.455 152.893 192.039 152.392C191.634 151.88 191.431 151.277 191.431 150.584C191.431 149.944 191.58 149.405 191.879 148.968C192.188 148.52 192.626 148.179 193.191 147.944C193.756 147.699 194.418 147.576 195.175 147.576C195.943 147.576 196.604 147.699 197.159 147.944C197.724 148.179 198.162 148.52 198.471 148.968C198.78 149.405 198.935 149.944 198.935 150.584C198.935 151.043 198.839 151.469 198.647 151.864C198.466 152.248 198.204 152.568 197.863 152.824C197.522 153.08 197.122 153.256 196.663 153.352V153.128C197.42 153.235 198.028 153.549 198.487 154.072C198.956 154.584 199.191 155.229 199.191 156.008C199.191 156.669 199.031 157.235 198.711 157.704C198.402 158.173 197.943 158.531 197.335 158.776C196.738 159.021 196.018 159.144 195.175 159.144ZM195.175 158.056C196.082 158.056 196.764 157.88 197.223 157.528C197.692 157.176 197.927 156.643 197.927 155.928C197.927 155.224 197.692 154.701 197.223 154.36C196.764 154.008 196.082 153.832 195.175 153.832C194.279 153.832 193.596 154.008 193.127 154.36C192.658 154.701 192.423 155.224 192.423 155.928C192.423 156.643 192.658 157.176 193.127 157.528C193.596 157.88 194.279 158.056 195.175 158.056ZM195.175 152.744C195.698 152.744 196.14 152.664 196.503 152.504C196.876 152.333 197.164 152.093 197.367 151.784C197.57 151.475 197.671 151.112 197.671 150.696C197.671 150.056 197.447 149.56 196.999 149.208C196.562 148.845 195.954 148.664 195.175 148.664C194.396 148.664 193.788 148.845 193.351 149.208C192.914 149.56 192.695 150.056 192.695 150.696C192.695 151.336 192.914 151.837 193.351 152.2C193.788 152.563 194.396 152.744 195.175 152.744ZM205.153 159.144C204.267 159.144 203.51 158.931 202.881 158.504C202.262 158.067 201.793 157.437 201.473 156.616C201.153 155.795 200.993 154.803 200.993 153.64C200.993 152.659 201.094 151.795 201.297 151.048C201.499 150.301 201.798 149.672 202.193 149.16C202.587 148.637 203.067 148.243 203.633 147.976C204.198 147.709 204.838 147.576 205.553 147.576C206.043 147.576 206.545 147.672 207.057 147.864C207.579 148.056 208.038 148.328 208.433 148.68C208.55 148.765 208.619 148.872 208.641 149C208.673 149.117 208.673 149.235 208.641 149.352C208.609 149.459 208.55 149.549 208.465 149.624C208.39 149.699 208.294 149.741 208.177 149.752C208.059 149.752 207.937 149.704 207.809 149.608C207.446 149.299 207.073 149.08 206.689 148.952C206.305 148.813 205.915 148.744 205.521 148.744C204.827 148.744 204.235 148.915 203.745 149.256C203.265 149.597 202.897 150.115 202.641 150.808C202.395 151.491 202.273 152.349 202.273 153.384V154.872H202.129C202.193 154.264 202.369 153.741 202.657 153.304C202.955 152.856 203.334 152.515 203.793 152.28C204.251 152.045 204.769 151.928 205.345 151.928C206.006 151.928 206.593 152.077 207.105 152.376C207.617 152.675 208.017 153.096 208.305 153.64C208.593 154.173 208.737 154.787 208.737 155.48C208.737 156.184 208.587 156.813 208.289 157.368C207.99 157.923 207.569 158.36 207.025 158.68C206.481 158.989 205.857 159.144 205.153 159.144ZM205.073 158.024C205.542 158.024 205.958 157.923 206.321 157.72C206.683 157.507 206.966 157.213 207.169 156.84C207.371 156.456 207.473 156.019 207.473 155.528C207.473 155.037 207.371 154.605 207.169 154.232C206.966 153.859 206.683 153.565 206.321 153.352C205.958 153.139 205.542 153.032 205.073 153.032C204.603 153.032 204.187 153.139 203.825 153.352C203.462 153.565 203.179 153.859 202.977 154.232C202.774 154.605 202.673 155.037 202.673 155.528C202.673 156.019 202.774 156.456 202.977 156.84C203.179 157.213 203.462 157.507 203.825 157.72C204.187 157.923 204.603 158.024 205.073 158.024Z" fill="black"/>
</svg>
