<svg width="295" height="221" viewBox="0 0 295 221" fill="none" xmlns="http://www.w3.org/2000/svg">
<rect width="295" height="221" rx="8" fill="#F5F5F5"/>
<path d="M38.76 23.54C37.9933 23.5667 37.3467 23.63 36.82 23.73C36.2933 23.8233 35.8667 23.9467 35.54 24.1C35.2133 24.2467 34.9767 24.4233 34.83 24.63C34.69 24.8367 34.62 25.0633 34.62 25.31C34.62 25.55 34.6567 25.7567 34.73 25.93C34.81 26.0967 34.9167 26.2367 35.05 26.35C35.19 26.4567 35.35 26.5367 35.53 26.59C35.7167 26.6367 35.92 26.66 36.14 26.66C36.7 26.66 37.18 26.5567 37.58 26.35C37.9867 26.1367 38.38 25.83 38.76 25.43V23.54ZM33.06 19.22C34.2133 18.1467 35.5867 17.61 37.18 17.61C37.7667 17.61 38.2867 17.7067 38.74 17.9C39.2 18.0867 39.5833 18.3533 39.89 18.7C40.2033 19.0467 40.44 19.46 40.6 19.94C40.7667 20.4133 40.85 20.94 40.85 21.52V28H39.89C39.6833 28 39.5267 27.97 39.42 27.91C39.3133 27.8433 39.2233 27.7133 39.15 27.52L38.94 26.69C38.68 26.9233 38.4233 27.1333 38.17 27.32C37.9167 27.5 37.6533 27.6533 37.38 27.78C37.1133 27.9067 36.8233 28 36.51 28.06C36.2033 28.1267 35.8633 28.16 35.49 28.16C35.0767 28.16 34.69 28.1033 34.33 27.99C33.9767 27.8767 33.67 27.7067 33.41 27.48C33.15 27.2467 32.9433 26.96 32.79 26.62C32.6433 26.28 32.57 25.88 32.57 25.42C32.57 25.0267 32.6733 24.6433 32.88 24.27C33.0933 23.8967 33.44 23.5633 33.92 23.27C34.4067 22.97 35.0433 22.7233 35.83 22.53C36.6233 22.3367 37.6 22.2267 38.76 22.2V21.52C38.76 20.7867 38.6033 20.24 38.29 19.88C37.9767 19.52 37.5167 19.34 36.91 19.34C36.4967 19.34 36.15 19.3933 35.87 19.5C35.59 19.6 35.3467 19.71 35.14 19.83C34.9333 19.95 34.75 20.0633 34.59 20.17C34.43 20.27 34.26 20.32 34.08 20.32C33.9333 20.32 33.8067 20.2833 33.7 20.21C33.6 20.13 33.5167 20.0333 33.45 19.92L33.06 19.22ZM49.8786 20.31C49.5786 19.93 49.2486 19.6633 48.8886 19.51C48.5286 19.35 48.1386 19.27 47.7186 19.27C46.8786 19.27 46.2219 19.58 45.7486 20.2C45.2753 20.8133 45.0386 21.7233 45.0386 22.93C45.0386 23.5567 45.0919 24.0933 45.1986 24.54C45.3053 24.98 45.4586 25.34 45.6586 25.62C45.8586 25.9 46.1019 26.1033 46.3886 26.23C46.6753 26.3567 46.9986 26.42 47.3586 26.42C47.9053 26.42 48.3753 26.3033 48.7686 26.07C49.1686 25.83 49.5386 25.4933 49.8786 25.06V20.31ZM52.0286 17.8V31.39H49.8786V26.61C49.4586 27.07 48.9853 27.4433 48.4586 27.73C47.9386 28.01 47.3319 28.15 46.6386 28.15C46.0653 28.15 45.5453 28.0367 45.0786 27.81C44.6119 27.5767 44.2119 27.24 43.8786 26.8C43.5453 26.36 43.2853 25.8167 43.0986 25.17C42.9186 24.5167 42.8286 23.77 42.8286 22.93C42.8286 22.17 42.9286 21.4667 43.1286 20.82C43.3353 20.1733 43.6286 19.6133 44.0086 19.14C44.3886 18.66 44.8486 18.2867 45.3886 18.02C45.9353 17.7467 46.5453 17.61 47.2186 17.61C47.5453 17.61 47.8419 17.64 48.1086 17.7C48.3819 17.7533 48.6319 17.8367 48.8586 17.95C49.0919 18.0567 49.3053 18.19 49.4986 18.35C49.6919 18.5033 49.8753 18.68 50.0486 18.88L50.1786 18.21C50.2586 17.9367 50.4419 17.8 50.7286 17.8H52.0286ZM63.2577 17.8V28H61.9577C61.671 28 61.4877 27.8633 61.4077 27.59L61.2477 26.64C61.0343 26.8667 60.8077 27.0733 60.5677 27.26C60.3343 27.4467 60.0843 27.6067 59.8177 27.74C59.551 27.8733 59.2643 27.9767 58.9577 28.05C58.6577 28.1233 58.3343 28.16 57.9877 28.16C57.4277 28.16 56.9343 28.0667 56.5077 27.88C56.081 27.6933 55.721 27.43 55.4277 27.09C55.141 26.75 54.9243 26.3433 54.7777 25.87C54.631 25.39 54.5577 24.8633 54.5577 24.29V17.8H56.7077V24.29C56.7077 24.9767 56.8643 25.51 57.1777 25.89C57.4977 26.27 57.981 26.46 58.6277 26.46C59.101 26.46 59.541 26.3533 59.9477 26.14C60.361 25.92 60.7477 25.62 61.1077 25.24V17.8H63.2577ZM71.3186 23.54C70.5519 23.5667 69.9053 23.63 69.3786 23.73C68.8519 23.8233 68.4253 23.9467 68.0986 24.1C67.7719 24.2467 67.5353 24.4233 67.3886 24.63C67.2486 24.8367 67.1786 25.0633 67.1786 25.31C67.1786 25.55 67.2153 25.7567 67.2886 25.93C67.3686 26.0967 67.4753 26.2367 67.6086 26.35C67.7486 26.4567 67.9086 26.5367 68.0886 26.59C68.2753 26.6367 68.4786 26.66 68.6986 26.66C69.2586 26.66 69.7386 26.5567 70.1386 26.35C70.5453 26.1367 70.9386 25.83 71.3186 25.43V23.54ZM65.6186 19.22C66.7719 18.1467 68.1453 17.61 69.7386 17.61C70.3253 17.61 70.8453 17.7067 71.2986 17.9C71.7586 18.0867 72.1419 18.3533 72.4486 18.7C72.7619 19.0467 72.9986 19.46 73.1586 19.94C73.3253 20.4133 73.4086 20.94 73.4086 21.52V28H72.4486C72.2419 28 72.0853 27.97 71.9786 27.91C71.8719 27.8433 71.7819 27.7133 71.7086 27.52L71.4986 26.69C71.2386 26.9233 70.9819 27.1333 70.7286 27.32C70.4753 27.5 70.2119 27.6533 69.9386 27.78C69.6719 27.9067 69.3819 28 69.0686 28.06C68.7619 28.1267 68.4219 28.16 68.0486 28.16C67.6353 28.16 67.2486 28.1033 66.8886 27.99C66.5353 27.8767 66.2286 27.7067 65.9686 27.48C65.7086 27.2467 65.5019 26.96 65.3486 26.62C65.2019 26.28 65.1286 25.88 65.1286 25.42C65.1286 25.0267 65.2319 24.6433 65.4386 24.27C65.6519 23.8967 65.9986 23.5633 66.4786 23.27C66.9653 22.97 67.6019 22.7233 68.3886 22.53C69.1819 22.3367 70.1586 22.2267 71.3186 22.2V21.52C71.3186 20.7867 71.1619 20.24 70.8486 19.88C70.5353 19.52 70.0753 19.34 69.4686 19.34C69.0553 19.34 68.7086 19.3933 68.4286 19.5C68.1486 19.6 67.9053 19.71 67.6986 19.83C67.4919 19.95 67.3086 20.0633 67.1486 20.17C66.9886 20.27 66.8186 20.32 66.6386 20.32C66.4919 20.32 66.3653 20.2833 66.2586 20.21C66.1586 20.13 66.0753 20.0333 66.0086 19.92L65.6186 19.22Z" fill="black"/>
<rect x="32" y="52" width="100" height="130" rx="8" fill="#D9D9D9"/>
<rect x="44" y="64" width="76" height="71" rx="4" fill="#17D4D4"/>
<path d="M53.98 163C53.788 163 53.6387 162.952 53.532 162.856C53.4253 162.749 53.372 162.605 53.372 162.424C53.372 162.243 53.4253 162.109 53.532 162.024C53.6387 161.928 53.788 161.88 53.98 161.88H56.06V152.808H56.748L54.428 154.344C54.2893 154.419 54.156 154.451 54.028 154.44C53.9107 154.429 53.8093 154.387 53.724 154.312C53.6493 154.227 53.596 154.131 53.564 154.024C53.532 153.907 53.5373 153.789 53.58 153.672C53.6227 153.544 53.7133 153.437 53.852 153.352L56.06 151.896C56.1987 151.811 56.332 151.741 56.46 151.688C56.588 151.635 56.716 151.608 56.844 151.608C56.9933 151.608 57.116 151.656 57.212 151.752C57.3187 151.837 57.372 151.976 57.372 152.168V161.88H59.292C59.484 161.88 59.6333 161.928 59.74 162.024C59.8467 162.109 59.9 162.243 59.9 162.424C59.9 162.616 59.8467 162.76 59.74 162.856C59.6333 162.952 59.484 163 59.292 163H53.98ZM63.7818 163.112C63.6324 163.112 63.5044 163.075 63.3978 163C63.2911 162.925 63.2218 162.824 63.1898 162.696C63.1684 162.557 63.2004 162.408 63.2858 162.248L68.4218 152.28V152.856H62.6618C62.4698 152.856 62.3204 152.808 62.2138 152.712C62.1071 152.605 62.0538 152.461 62.0538 152.28C62.0538 152.099 62.1071 151.96 62.2138 151.864C62.3204 151.768 62.4698 151.72 62.6618 151.72H69.0138C69.2058 151.72 69.3604 151.768 69.4778 151.864C69.5951 151.96 69.6538 152.099 69.6538 152.28C69.6538 152.429 69.6324 152.563 69.5898 152.68C69.5578 152.787 69.5098 152.909 69.4458 153.048L64.5178 162.664C64.4431 162.813 64.3471 162.925 64.2298 163C64.1124 163.075 63.9631 163.112 63.7818 163.112ZM72.7995 163C72.5648 163 72.3835 162.941 72.2555 162.824C72.1382 162.696 72.0795 162.515 72.0795 162.28V152.44C72.0795 152.205 72.1382 152.029 72.2555 151.912C72.3835 151.784 72.5648 151.72 72.7995 151.72H75.8875C77.7115 151.72 79.1195 152.2 80.1115 153.16C81.1035 154.12 81.5995 155.517 81.5995 157.352C81.5995 158.269 81.4715 159.08 81.2155 159.784C80.9702 160.477 80.6022 161.064 80.1115 161.544C79.6208 162.024 79.0235 162.387 78.3195 162.632C77.6155 162.877 76.8048 163 75.8875 163H72.7995ZM73.3915 161.88H75.7915C76.5382 161.88 77.1835 161.784 77.7275 161.592C78.2822 161.4 78.7408 161.117 79.1035 160.744C79.4768 160.371 79.7542 159.901 79.9355 159.336C80.1168 158.76 80.2075 158.099 80.2075 157.352C80.2075 155.848 79.8395 154.723 79.1035 153.976C78.3675 153.219 77.2635 152.84 75.7915 152.84H73.3915V161.88ZM89.2505 163.112C89.0478 163.112 88.8878 163.053 88.7705 162.936C88.6532 162.819 88.5945 162.653 88.5945 162.44V160.584H84.0025C83.7892 160.584 83.6185 160.536 83.4905 160.44C83.3732 160.333 83.3145 160.184 83.3145 159.992C83.3145 159.875 83.3412 159.757 83.3945 159.64C83.4478 159.512 83.5438 159.352 83.6825 159.16L88.5625 152.056C88.6585 151.907 88.7652 151.795 88.8825 151.72C88.9998 151.645 89.1385 151.608 89.2985 151.608C89.4692 151.608 89.6132 151.661 89.7305 151.768C89.8585 151.875 89.9225 152.045 89.9225 152.28V159.464H91.0905C91.2932 159.464 91.4478 159.512 91.5545 159.608C91.6612 159.704 91.7145 159.843 91.7145 160.024C91.7145 160.205 91.6612 160.344 91.5545 160.44C91.4478 160.536 91.2932 160.584 91.0905 160.584H89.9225V162.44C89.9225 162.653 89.8638 162.819 89.7465 162.936C89.6292 163.053 89.4638 163.112 89.2505 163.112ZM88.5945 159.464V153.256H88.9785L84.4985 159.816V159.464H88.5945ZM94.2682 163C94.0336 163 93.8523 162.941 93.7243 162.824C93.6069 162.696 93.5483 162.515 93.5483 162.28V152.44C93.5483 152.205 93.6069 152.029 93.7243 151.912C93.8523 151.784 94.0336 151.72 94.2682 151.72H97.3563C99.1803 151.72 100.588 152.2 101.58 153.16C102.572 154.12 103.068 155.517 103.068 157.352C103.068 158.269 102.94 159.08 102.684 159.784C102.439 160.477 102.071 161.064 101.58 161.544C101.09 162.024 100.492 162.387 99.7883 162.632C99.0843 162.877 98.2736 163 97.3563 163H94.2682ZM94.8603 161.88H97.2603C98.0069 161.88 98.6523 161.784 99.1963 161.592C99.7509 161.4 100.21 161.117 100.572 160.744C100.946 160.371 101.223 159.901 101.404 159.336C101.586 158.76 101.676 158.099 101.676 157.352C101.676 155.848 101.308 154.723 100.572 153.976C99.8363 153.219 98.7323 152.84 97.2603 152.84H94.8603V161.88ZM110.719 163.112C110.517 163.112 110.357 163.053 110.239 162.936C110.122 162.819 110.063 162.653 110.063 162.44V160.584H105.471C105.258 160.584 105.087 160.536 104.959 160.44C104.842 160.333 104.783 160.184 104.783 159.992C104.783 159.875 104.81 159.757 104.863 159.64C104.917 159.512 105.013 159.352 105.151 159.16L110.031 152.056C110.127 151.907 110.234 151.795 110.351 151.72C110.469 151.645 110.607 151.608 110.767 151.608C110.938 151.608 111.082 151.661 111.199 151.768C111.327 151.875 111.391 152.045 111.391 152.28V159.464H112.559C112.762 159.464 112.917 159.512 113.023 159.608C113.13 159.704 113.183 159.843 113.183 160.024C113.183 160.205 113.13 160.344 113.023 160.44C112.917 160.536 112.762 160.584 112.559 160.584H111.391V162.44C111.391 162.653 111.333 162.819 111.215 162.936C111.098 163.053 110.933 163.112 110.719 163.112ZM110.063 159.464V153.256H110.447L105.967 159.816V159.464H110.063Z" fill="black"/>
<path d="M68.944 201.648C69.024 201.104 69.1733 200.627 69.392 200.216C69.616 199.805 69.896 199.464 70.232 199.192C70.568 198.915 70.952 198.707 71.384 198.568C71.8213 198.424 72.2933 198.352 72.8 198.352C73.312 198.352 73.776 198.427 74.192 198.576C74.6133 198.72 74.9733 198.923 75.272 199.184C75.576 199.445 75.808 199.757 75.968 200.12C76.1333 200.483 76.216 200.88 76.216 201.312C76.216 201.68 76.1707 202.005 76.08 202.288C75.9947 202.565 75.8693 202.811 75.704 203.024C75.544 203.237 75.3467 203.416 75.112 203.56C74.8773 203.704 74.6133 203.824 74.32 203.92C75.0347 204.128 75.5707 204.461 75.928 204.92C76.2853 205.373 76.464 205.944 76.464 206.632C76.464 207.187 76.36 207.68 76.152 208.112C75.944 208.544 75.6613 208.909 75.304 209.208C74.952 209.507 74.5387 209.736 74.064 209.896C73.5947 210.051 73.096 210.128 72.568 210.128C71.976 210.128 71.464 210.059 71.032 209.92C70.6 209.776 70.2267 209.573 69.912 209.312C69.6027 209.045 69.344 208.725 69.136 208.352C68.928 207.979 68.752 207.56 68.608 207.096L69.352 206.784C69.5493 206.699 69.736 206.675 69.912 206.712C70.0933 206.749 70.224 206.848 70.304 207.008C70.3893 207.179 70.4853 207.363 70.592 207.56C70.6987 207.752 70.8347 207.931 71 208.096C71.1707 208.256 71.3787 208.392 71.624 208.504C71.8747 208.611 72.1813 208.664 72.544 208.664C72.912 208.664 73.232 208.605 73.504 208.488C73.7813 208.365 74.0107 208.211 74.192 208.024C74.3787 207.832 74.5173 207.619 74.608 207.384C74.6987 207.149 74.744 206.917 74.744 206.688C74.744 206.4 74.7093 206.136 74.64 205.896C74.5707 205.651 74.4347 205.443 74.232 205.272C74.0347 205.101 73.752 204.968 73.384 204.872C73.0213 204.771 72.544 204.72 71.952 204.72V203.48C72.4373 203.475 72.8453 203.427 73.176 203.336C73.512 203.24 73.7787 203.112 73.976 202.952C74.1787 202.787 74.3227 202.589 74.408 202.36C74.4987 202.131 74.544 201.88 74.544 201.608C74.544 201.315 74.4987 201.056 74.408 200.832C74.3173 200.608 74.1893 200.421 74.024 200.272C73.864 200.117 73.672 200.003 73.448 199.928C73.224 199.853 72.976 199.816 72.704 199.816C72.4427 199.816 72.2 199.853 71.976 199.928C71.7573 200.003 71.56 200.107 71.384 200.24C71.2133 200.373 71.0693 200.533 70.952 200.72C70.8347 200.901 70.7493 201.101 70.696 201.32C70.6213 201.539 70.52 201.685 70.392 201.76C70.2693 201.835 70.088 201.851 69.848 201.808L68.944 201.648ZM86.1213 204.24C86.1213 205.248 86.0119 206.12 85.7933 206.856C85.5799 207.592 85.2839 208.203 84.9053 208.688C84.5266 209.173 84.0813 209.533 83.5693 209.768C83.0573 210.003 82.5053 210.12 81.9133 210.12C81.3213 210.12 80.7693 210.003 80.2573 209.768C79.7453 209.533 79.2999 209.173 78.9213 208.688C78.5479 208.203 78.2546 207.592 78.0413 206.856C77.8279 206.12 77.7213 205.248 77.7213 204.24C77.7213 203.232 77.8279 202.36 78.0413 201.624C78.2546 200.883 78.5479 200.272 78.9213 199.792C79.2999 199.307 79.7453 198.947 80.2573 198.712C80.7693 198.472 81.3213 198.352 81.9133 198.352C82.5053 198.352 83.0573 198.472 83.5693 198.712C84.0813 198.947 84.5266 199.307 84.9053 199.792C85.2839 200.272 85.5799 200.883 85.7933 201.624C86.0119 202.36 86.1213 203.232 86.1213 204.24ZM84.3453 204.24C84.3453 203.387 84.2759 202.677 84.1373 202.112C84.0039 201.541 83.8253 201.085 83.6013 200.744C83.3773 200.403 83.1186 200.16 82.8253 200.016C82.5319 199.872 82.2279 199.8 81.9133 199.8C81.5933 199.8 81.2866 199.872 80.9933 200.016C80.7053 200.16 80.4493 200.403 80.2253 200.744C80.0013 201.085 79.8226 201.541 79.6893 202.112C79.5559 202.677 79.4893 203.387 79.4893 204.24C79.4893 205.093 79.5559 205.805 79.6893 206.376C79.8226 206.941 80.0013 207.395 80.2253 207.736C80.4493 208.077 80.7053 208.32 80.9933 208.464C81.2866 208.608 81.5933 208.68 81.9133 208.68C82.2279 208.68 82.5319 208.608 82.8253 208.464C83.1186 208.32 83.3773 208.077 83.6013 207.736C83.8253 207.395 84.0039 206.941 84.1373 206.376C84.2759 205.805 84.3453 205.093 84.3453 204.24ZM95.4025 204.24C95.4025 205.248 95.2932 206.12 95.0745 206.856C94.8612 207.592 94.5652 208.203 94.1865 208.688C93.8078 209.173 93.3625 209.533 92.8505 209.768C92.3385 210.003 91.7865 210.12 91.1945 210.12C90.6025 210.12 90.0505 210.003 89.5385 209.768C89.0265 209.533 88.5812 209.173 88.2025 208.688C87.8292 208.203 87.5358 207.592 87.3225 206.856C87.1092 206.12 87.0025 205.248 87.0025 204.24C87.0025 203.232 87.1092 202.36 87.3225 201.624C87.5358 200.883 87.8292 200.272 88.2025 199.792C88.5812 199.307 89.0265 198.947 89.5385 198.712C90.0505 198.472 90.6025 198.352 91.1945 198.352C91.7865 198.352 92.3385 198.472 92.8505 198.712C93.3625 198.947 93.8078 199.307 94.1865 199.792C94.5652 200.272 94.8612 200.883 95.0745 201.624C95.2932 202.36 95.4025 203.232 95.4025 204.24ZM93.6265 204.24C93.6265 203.387 93.5572 202.677 93.4185 202.112C93.2852 201.541 93.1065 201.085 92.8825 200.744C92.6585 200.403 92.3998 200.16 92.1065 200.016C91.8132 199.872 91.5092 199.8 91.1945 199.8C90.8745 199.8 90.5678 199.872 90.2745 200.016C89.9865 200.16 89.7305 200.403 89.5065 200.744C89.2825 201.085 89.1038 201.541 88.9705 202.112C88.8372 202.677 88.7705 203.387 88.7705 204.24C88.7705 205.093 88.8372 205.805 88.9705 206.376C89.1038 206.941 89.2825 207.395 89.5065 207.736C89.7305 208.077 89.9865 208.32 90.2745 208.464C90.5678 208.608 90.8745 208.68 91.1945 208.68C91.5092 208.68 91.8132 208.608 92.1065 208.464C92.3998 208.32 92.6585 208.077 92.8825 207.736C93.1065 207.395 93.2852 206.941 93.4185 206.376C93.5572 205.805 93.6265 205.093 93.6265 204.24Z" fill="#7A7575"/>
<rect x="163" y="52" width="100" height="133" rx="8" fill="#D9D9D9"/>
<rect x="175" y="64" width="76" height="71" rx="4" fill="#008786"/>
<path d="M188.8 167.144C187.509 167.144 186.528 166.648 185.856 165.656C185.184 164.664 184.848 163.229 184.848 161.352C184.848 160.093 184.997 159.037 185.296 158.184C185.595 157.32 186.037 156.669 186.624 156.232C187.221 155.795 187.947 155.576 188.8 155.576C190.101 155.576 191.083 156.067 191.744 157.048C192.416 158.019 192.752 159.448 192.752 161.336C192.752 162.595 192.603 163.656 192.304 164.52C192.005 165.384 191.563 166.04 190.976 166.488C190.389 166.925 189.664 167.144 188.8 167.144ZM188.8 166.008C189.696 166.008 190.357 165.629 190.784 164.872C191.221 164.104 191.44 162.925 191.44 161.336C191.44 159.736 191.221 158.568 190.784 157.832C190.357 157.085 189.696 156.712 188.8 156.712C187.915 156.712 187.253 157.085 186.816 157.832C186.379 158.579 186.16 159.747 186.16 161.336C186.16 162.925 186.379 164.104 186.816 164.872C187.253 165.629 187.915 166.008 188.8 166.008ZM198.394 167.144C197.103 167.144 196.122 166.648 195.45 165.656C194.778 164.664 194.442 163.229 194.442 161.352C194.442 160.093 194.591 159.037 194.89 158.184C195.188 157.32 195.631 156.669 196.218 156.232C196.815 155.795 197.54 155.576 198.394 155.576C199.695 155.576 200.676 156.067 201.338 157.048C202.01 158.019 202.346 159.448 202.346 161.336C202.346 162.595 202.196 163.656 201.898 164.52C201.599 165.384 201.156 166.04 200.57 166.488C199.983 166.925 199.258 167.144 198.394 167.144ZM198.394 166.008C199.29 166.008 199.951 165.629 200.378 164.872C200.815 164.104 201.034 162.925 201.034 161.336C201.034 159.736 200.815 158.568 200.378 157.832C199.951 157.085 199.29 156.712 198.394 156.712C197.508 156.712 196.847 157.085 196.41 157.832C195.972 158.579 195.754 159.747 195.754 161.336C195.754 162.925 195.972 164.104 196.41 164.872C196.847 165.629 197.508 166.008 198.394 166.008ZM207.988 167.144C207.145 167.144 206.42 167.021 205.812 166.776C205.214 166.531 204.756 166.173 204.436 165.704C204.126 165.235 203.972 164.669 203.972 164.008C203.972 163.485 204.078 163.021 204.292 162.616C204.505 162.2 204.804 161.864 205.188 161.608C205.572 161.352 206.014 161.192 206.516 161.128V161.368C205.822 161.219 205.268 160.893 204.852 160.392C204.446 159.88 204.243 159.277 204.243 158.584C204.243 157.944 204.393 157.405 204.692 156.968C205.001 156.52 205.438 156.179 206.004 155.944C206.569 155.699 207.23 155.576 207.988 155.576C208.756 155.576 209.417 155.699 209.972 155.944C210.537 156.179 210.974 156.52 211.284 156.968C211.593 157.405 211.748 157.944 211.748 158.584C211.748 159.043 211.652 159.469 211.46 159.864C211.278 160.248 211.017 160.568 210.676 160.824C210.334 161.08 209.934 161.256 209.476 161.352V161.128C210.233 161.235 210.841 161.549 211.3 162.072C211.769 162.584 212.003 163.229 212.003 164.008C212.003 164.669 211.844 165.235 211.524 165.704C211.214 166.173 210.756 166.531 210.148 166.776C209.55 167.021 208.83 167.144 207.988 167.144ZM207.988 166.056C208.894 166.056 209.577 165.88 210.036 165.528C210.505 165.176 210.74 164.643 210.74 163.928C210.74 163.224 210.505 162.701 210.036 162.36C209.577 162.008 208.894 161.832 207.988 161.832C207.092 161.832 206.409 162.008 205.94 162.36C205.47 162.701 205.236 163.224 205.236 163.928C205.236 164.643 205.47 165.176 205.94 165.528C206.409 165.88 207.092 166.056 207.988 166.056ZM207.988 160.744C208.51 160.744 208.953 160.664 209.316 160.504C209.689 160.333 209.977 160.093 210.18 159.784C210.382 159.475 210.484 159.112 210.484 158.696C210.484 158.056 210.26 157.56 209.812 157.208C209.374 156.845 208.766 156.664 207.988 156.664C207.209 156.664 206.601 156.845 206.164 157.208C205.726 157.56 205.508 158.056 205.508 158.696C205.508 159.336 205.726 159.837 206.164 160.2C206.601 160.563 207.209 160.744 207.988 160.744ZM215.469 167.112C215.32 167.112 215.192 167.075 215.085 167C214.979 166.925 214.909 166.824 214.877 166.696C214.856 166.557 214.888 166.408 214.973 166.248L220.109 156.28V156.856H214.349C214.157 156.856 214.008 156.808 213.901 156.712C213.795 156.605 213.741 156.461 213.741 156.28C213.741 156.099 213.795 155.96 213.901 155.864C214.008 155.768 214.157 155.72 214.349 155.72H220.701C220.893 155.72 221.048 155.768 221.165 155.864C221.283 155.96 221.341 156.099 221.341 156.28C221.341 156.429 221.32 156.563 221.277 156.68C221.245 156.787 221.197 156.909 221.133 157.048L216.205 166.664C216.131 166.813 216.035 166.925 215.917 167C215.8 167.075 215.651 167.112 215.469 167.112ZM227.175 167.144C226.332 167.144 225.607 167.021 224.999 166.776C224.402 166.531 223.943 166.173 223.623 165.704C223.314 165.235 223.159 164.669 223.159 164.008C223.159 163.485 223.266 163.021 223.479 162.616C223.692 162.2 223.991 161.864 224.375 161.608C224.759 161.352 225.202 161.192 225.703 161.128V161.368C225.01 161.219 224.455 160.893 224.039 160.392C223.634 159.88 223.431 159.277 223.431 158.584C223.431 157.944 223.58 157.405 223.879 156.968C224.188 156.52 224.626 156.179 225.191 155.944C225.756 155.699 226.418 155.576 227.175 155.576C227.943 155.576 228.604 155.699 229.159 155.944C229.724 156.179 230.162 156.52 230.471 156.968C230.78 157.405 230.935 157.944 230.935 158.584C230.935 159.043 230.839 159.469 230.647 159.864C230.466 160.248 230.204 160.568 229.863 160.824C229.522 161.08 229.122 161.256 228.663 161.352V161.128C229.42 161.235 230.028 161.549 230.487 162.072C230.956 162.584 231.191 163.229 231.191 164.008C231.191 164.669 231.031 165.235 230.711 165.704C230.402 166.173 229.943 166.531 229.335 166.776C228.738 167.021 228.018 167.144 227.175 167.144ZM227.175 166.056C228.082 166.056 228.764 165.88 229.223 165.528C229.692 165.176 229.927 164.643 229.927 163.928C229.927 163.224 229.692 162.701 229.223 162.36C228.764 162.008 228.082 161.832 227.175 161.832C226.279 161.832 225.596 162.008 225.127 162.36C224.658 162.701 224.423 163.224 224.423 163.928C224.423 164.643 224.658 165.176 225.127 165.528C225.596 165.88 226.279 166.056 227.175 166.056ZM227.175 160.744C227.698 160.744 228.14 160.664 228.503 160.504C228.876 160.333 229.164 160.093 229.367 159.784C229.57 159.475 229.671 159.112 229.671 158.696C229.671 158.056 229.447 157.56 228.999 157.208C228.562 156.845 227.954 156.664 227.175 156.664C226.396 156.664 225.788 156.845 225.351 157.208C224.914 157.56 224.695 158.056 224.695 158.696C224.695 159.336 224.914 159.837 225.351 160.2C225.788 160.563 226.396 160.744 227.175 160.744ZM237.153 167.144C236.267 167.144 235.51 166.931 234.881 166.504C234.262 166.067 233.793 165.437 233.473 164.616C233.153 163.795 232.993 162.803 232.993 161.64C232.993 160.659 233.094 159.795 233.297 159.048C233.499 158.301 233.798 157.672 234.193 157.16C234.587 156.637 235.067 156.243 235.633 155.976C236.198 155.709 236.838 155.576 237.553 155.576C238.043 155.576 238.545 155.672 239.057 155.864C239.579 156.056 240.038 156.328 240.433 156.68C240.55 156.765 240.619 156.872 240.641 157C240.673 157.117 240.673 157.235 240.641 157.352C240.609 157.459 240.55 157.549 240.465 157.624C240.39 157.699 240.294 157.741 240.177 157.752C240.059 157.752 239.937 157.704 239.809 157.608C239.446 157.299 239.073 157.08 238.689 156.952C238.305 156.813 237.915 156.744 237.521 156.744C236.827 156.744 236.235 156.915 235.745 157.256C235.265 157.597 234.897 158.115 234.641 158.808C234.395 159.491 234.273 160.349 234.273 161.384V162.872H234.129C234.193 162.264 234.369 161.741 234.657 161.304C234.955 160.856 235.334 160.515 235.793 160.28C236.251 160.045 236.769 159.928 237.345 159.928C238.006 159.928 238.593 160.077 239.105 160.376C239.617 160.675 240.017 161.096 240.305 161.64C240.593 162.173 240.737 162.787 240.737 163.48C240.737 164.184 240.587 164.813 240.289 165.368C239.99 165.923 239.569 166.36 239.025 166.68C238.481 166.989 237.857 167.144 237.153 167.144ZM237.073 166.024C237.542 166.024 237.958 165.923 238.321 165.72C238.683 165.507 238.966 165.213 239.169 164.84C239.371 164.456 239.473 164.019 239.473 163.528C239.473 163.037 239.371 162.605 239.169 162.232C238.966 161.859 238.683 161.565 238.321 161.352C237.958 161.139 237.542 161.032 237.073 161.032C236.603 161.032 236.187 161.139 235.825 161.352C235.462 161.565 235.179 161.859 234.977 162.232C234.774 162.605 234.673 163.037 234.673 163.528C234.673 164.019 234.774 164.456 234.977 164.84C235.179 165.213 235.462 165.507 235.825 165.72C236.187 165.923 236.603 166.024 237.073 166.024Z" fill="black"/>
<path d="M203.64 208.768C203.987 208.768 204.296 208.72 204.568 208.624C204.84 208.523 205.067 208.384 205.248 208.208C205.435 208.027 205.576 207.813 205.672 207.568C205.768 207.323 205.816 207.056 205.816 206.768C205.816 206.416 205.76 206.112 205.648 205.856C205.541 205.6 205.389 205.389 205.192 205.224C205 205.053 204.771 204.928 204.504 204.848C204.237 204.763 203.949 204.72 203.64 204.72C203.331 204.72 203.043 204.763 202.776 204.848C202.509 204.928 202.277 205.053 202.08 205.224C201.888 205.389 201.736 205.6 201.624 205.856C201.517 206.112 201.464 206.416 201.464 206.768C201.464 207.056 201.512 207.323 201.608 207.568C201.704 207.813 201.843 208.027 202.024 208.208C202.211 208.384 202.44 208.523 202.712 208.624C202.984 208.72 203.293 208.768 203.64 208.768ZM203.64 199.672C203.325 199.672 203.048 199.72 202.808 199.816C202.573 199.912 202.379 200.04 202.224 200.2C202.069 200.36 201.952 200.549 201.872 200.768C201.797 200.981 201.76 201.208 201.76 201.448C201.76 201.688 201.792 201.923 201.856 202.152C201.925 202.381 202.032 202.587 202.176 202.768C202.325 202.944 202.52 203.085 202.76 203.192C203 203.299 203.293 203.352 203.64 203.352C203.987 203.352 204.28 203.299 204.52 203.192C204.76 203.085 204.952 202.944 205.096 202.768C205.245 202.587 205.352 202.381 205.416 202.152C205.485 201.923 205.52 201.688 205.52 201.448C205.52 201.208 205.48 200.981 205.4 200.768C205.325 200.549 205.208 200.36 205.048 200.2C204.893 200.04 204.699 199.912 204.464 199.816C204.229 199.72 203.955 199.672 203.64 199.672ZM205.456 203.992C206.165 204.211 206.696 204.557 207.048 205.032C207.405 205.507 207.584 206.096 207.584 206.8C207.584 207.307 207.488 207.765 207.296 208.176C207.104 208.587 206.835 208.936 206.488 209.224C206.141 209.512 205.725 209.736 205.24 209.896C204.76 210.051 204.227 210.128 203.64 210.128C203.053 210.128 202.517 210.051 202.032 209.896C201.552 209.736 201.139 209.512 200.792 209.224C200.445 208.936 200.176 208.587 199.984 208.176C199.792 207.765 199.696 207.307 199.696 206.8C199.696 206.096 199.872 205.507 200.224 205.032C200.581 204.557 201.115 204.211 201.824 203.992C201.248 203.763 200.813 203.429 200.52 202.992C200.232 202.555 200.088 202.029 200.088 201.416C200.088 200.984 200.173 200.581 200.344 200.208C200.515 199.835 200.755 199.512 201.064 199.24C201.379 198.963 201.755 198.747 202.192 198.592C202.629 198.432 203.112 198.352 203.64 198.352C204.168 198.352 204.648 198.432 205.08 198.592C205.517 198.747 205.891 198.963 206.2 199.24C206.515 199.512 206.757 199.835 206.928 200.208C207.104 200.581 207.192 200.984 207.192 201.416C207.192 202.029 207.045 202.555 206.752 202.992C206.464 203.429 206.032 203.763 205.456 203.992ZM217.121 204.24C217.121 205.248 217.012 206.12 216.793 206.856C216.58 207.592 216.284 208.203 215.905 208.688C215.527 209.173 215.081 209.533 214.569 209.768C214.057 210.003 213.505 210.12 212.913 210.12C212.321 210.12 211.769 210.003 211.257 209.768C210.745 209.533 210.3 209.173 209.921 208.688C209.548 208.203 209.255 207.592 209.041 206.856C208.828 206.12 208.721 205.248 208.721 204.24C208.721 203.232 208.828 202.36 209.041 201.624C209.255 200.883 209.548 200.272 209.921 199.792C210.3 199.307 210.745 198.947 211.257 198.712C211.769 198.472 212.321 198.352 212.913 198.352C213.505 198.352 214.057 198.472 214.569 198.712C215.081 198.947 215.527 199.307 215.905 199.792C216.284 200.272 216.58 200.883 216.793 201.624C217.012 202.36 217.121 203.232 217.121 204.24ZM215.345 204.24C215.345 203.387 215.276 202.677 215.137 202.112C215.004 201.541 214.825 201.085 214.601 200.744C214.377 200.403 214.119 200.16 213.825 200.016C213.532 199.872 213.228 199.8 212.913 199.8C212.593 199.8 212.287 199.872 211.993 200.016C211.705 200.16 211.449 200.403 211.225 200.744C211.001 201.085 210.823 201.541 210.689 202.112C210.556 202.677 210.489 203.387 210.489 204.24C210.489 205.093 210.556 205.805 210.689 206.376C210.823 206.941 211.001 207.395 211.225 207.736C211.449 208.077 211.705 208.32 211.993 208.464C212.287 208.608 212.593 208.68 212.913 208.68C213.228 208.68 213.532 208.608 213.825 208.464C214.119 208.32 214.377 208.077 214.601 207.736C214.825 207.395 215.004 206.941 215.137 206.376C215.276 205.805 215.345 205.093 215.345 204.24ZM226.403 204.24C226.403 205.248 226.293 206.12 226.075 206.856C225.861 207.592 225.565 208.203 225.187 208.688C224.808 209.173 224.363 209.533 223.851 209.768C223.339 210.003 222.787 210.12 222.195 210.12C221.603 210.12 221.051 210.003 220.539 209.768C220.027 209.533 219.581 209.173 219.203 208.688C218.829 208.203 218.536 207.592 218.323 206.856C218.109 206.12 218.003 205.248 218.003 204.24C218.003 203.232 218.109 202.36 218.323 201.624C218.536 200.883 218.829 200.272 219.203 199.792C219.581 199.307 220.027 198.947 220.539 198.712C221.051 198.472 221.603 198.352 222.195 198.352C222.787 198.352 223.339 198.472 223.851 198.712C224.363 198.947 224.808 199.307 225.187 199.792C225.565 200.272 225.861 200.883 226.075 201.624C226.293 202.36 226.403 203.232 226.403 204.24ZM224.627 204.24C224.627 203.387 224.557 202.677 224.419 202.112C224.285 201.541 224.107 201.085 223.883 200.744C223.659 200.403 223.4 200.16 223.107 200.016C222.813 199.872 222.509 199.8 222.195 199.8C221.875 199.8 221.568 199.872 221.275 200.016C220.987 200.16 220.731 200.403 220.507 200.744C220.283 201.085 220.104 201.541 219.971 202.112C219.837 202.677 219.771 203.387 219.771 204.24C219.771 205.093 219.837 205.805 219.971 206.376C220.104 206.941 220.283 207.395 220.507 207.736C220.731 208.077 220.987 208.32 221.275 208.464C221.568 208.608 221.875 208.68 222.195 208.68C222.509 208.68 222.813 208.608 223.107 208.464C223.4 208.32 223.659 208.077 223.883 207.736C224.107 207.395 224.285 206.941 224.419 206.376C224.557 205.805 224.627 205.093 224.627 204.24Z" fill="#7A7575"/>
</svg>
