<svg width="459" height="112" viewBox="0 0 459 112" fill="none" xmlns="http://www.w3.org/2000/svg">
<rect x="417" y="56" width="28.2727" height="26.8007" rx="13.4003" fill="#24C2AF"/>
<path d="M435.957 65.9825C436.006 67.6545 435.377 69.3597 434.069 71.0979C432.762 72.8196 430.825 74.7647 428.259 76.9334H435.833V78.3984H425.428V77.5045C427.564 75.7663 429.269 74.2515 430.543 72.9603C431.835 71.6525 432.786 70.444 433.399 69.3348C434.028 68.2091 434.343 67.1 434.343 66.0074C434.343 64.8485 434.036 63.9711 433.424 63.3752C432.828 62.7627 431.975 62.4564 430.866 62.4564C429.691 62.4564 428.78 62.7709 428.135 63.4C427.489 64.0125 427.1 65.0141 426.968 66.4047C426.487 66.4047 426.156 66.3384 425.974 66.206C425.792 66.0736 425.701 65.8418 425.701 65.5107C425.701 64.683 425.9 63.9298 426.297 63.251C426.711 62.5557 427.307 62.0094 428.085 61.6121C428.88 61.2148 429.807 61.0162 430.866 61.0162C432.406 61.0162 433.622 61.43 434.516 62.2578C435.41 63.0689 435.89 64.3105 435.957 65.9825Z" fill="#2E2776"/>
<rect x="14" y="56" width="28.2727" height="26.8007" rx="13.4003" fill="#24C2AF"/>
<path d="M31.6225 77.0327V78.3984H24.0736V77.0327H27.1031V63.0772C26.6727 63.4414 26.176 63.7642 25.6132 64.0456C25.0669 64.3105 24.5868 64.443 24.1729 64.443C23.8749 64.443 23.6432 64.3685 23.4776 64.2195C23.3286 64.0539 23.2542 63.8635 23.2542 63.6483C23.2542 63.4828 23.2955 63.3338 23.3783 63.2014C24.0405 63.1351 24.7441 62.9199 25.489 62.5557C26.234 62.175 26.9375 61.6618 27.5997 61.0162H28.7172V77.0327H31.6225Z" fill="#2E2776"/>
<rect width="305" height="84" transform="translate(76.2734 14)" fill="black"/>
<path d="M142.389 43.476C142.324 43.5507 142.231 43.588 142.109 43.588C141.671 43.588 140.971 43.1867 140.009 42.384C139.057 41.572 138.213 40.7647 137.475 39.962C137.522 40.214 137.611 40.6387 137.741 41.236C137.797 41.4693 137.844 41.6933 137.881 41.908C137.928 42.1227 137.951 42.2907 137.951 42.412C137.951 42.6827 137.853 42.846 137.657 42.902C137.611 43.0233 137.485 42.72 137.279 41.992C137.083 41.264 136.897 40.424 136.719 39.472C136.551 38.5107 136.467 37.708 136.467 37.064C136.467 36.7373 136.495 36.4713 136.551 36.266C136.673 36.1727 136.775 36.126 136.859 36.126C137.027 36.126 137.144 36.2707 137.209 36.56C137.275 36.84 137.335 37.2833 137.391 37.89L137.419 38.212C137.783 38.1933 138.278 38.114 138.903 37.974C139.538 37.834 140.103 37.6427 140.597 37.4C141.101 37.148 141.353 36.8493 141.353 36.504C141.353 36.3173 141.218 36.112 140.947 35.888C140.686 35.6547 140.28 35.4587 139.729 35.3C139.188 35.1413 138.521 35.062 137.727 35.062H137.279C136.747 35.062 136.332 35.1507 136.033 35.328C135.735 35.496 135.585 35.86 135.585 36.42C135.445 36.42 135.319 36.3313 135.207 36.154C135.095 35.9767 135.039 35.8133 135.039 35.664C135.039 35.0853 135.315 34.7073 135.865 34.53C136.425 34.3527 137.228 34.264 138.273 34.264C138.824 34.264 139.398 34.3527 139.995 34.53C140.593 34.7073 141.097 34.9873 141.507 35.37C141.918 35.7433 142.123 36.21 142.123 36.77C142.123 37.1527 141.951 37.47 141.605 37.722C141.269 37.974 140.873 38.17 140.415 38.31C139.958 38.45 139.398 38.5947 138.735 38.744C138.185 38.8653 137.825 38.954 137.657 39.01C138.376 39.9807 139.067 40.7367 139.729 41.278C140.401 41.8193 141.101 42.3093 141.829 42.748C142.081 42.8973 142.259 43.0093 142.361 43.084C142.464 43.1587 142.515 43.2287 142.515 43.294C142.515 43.3593 142.473 43.42 142.389 43.476ZM146.376 43C145.778 43 145.228 42.8833 144.724 42.65C144.22 42.4167 143.818 42.0853 143.52 41.656C143.221 41.2267 143.072 40.732 143.072 40.172C143.072 39.5467 143.188 38.9633 143.422 38.422C143.655 37.8713 143.996 37.4327 144.444 37.106C144.901 36.77 145.433 36.602 146.04 36.602C146.674 36.602 147.155 36.8073 147.482 37.218C147.808 37.6193 147.962 38.128 147.944 38.744C147.944 39.2947 147.724 39.7147 147.286 40.004C146.856 40.2933 146.306 40.438 145.634 40.438C145.531 40.438 145.377 40.4287 145.172 40.41C144.836 40.3727 144.598 40.3213 144.458 40.256C144.318 40.1907 144.248 40.06 144.248 39.864C144.248 39.7987 144.266 39.752 144.304 39.724C144.341 39.6867 144.416 39.668 144.528 39.668C144.649 39.668 144.864 39.696 145.172 39.752C145.47 39.808 145.736 39.836 145.97 39.836C146.828 39.836 147.258 39.4627 147.258 38.716C147.258 38.268 147.174 37.9133 147.006 37.652C146.847 37.3907 146.562 37.26 146.152 37.26C145.704 37.26 145.302 37.3813 144.948 37.624C144.593 37.8573 144.318 38.1653 144.122 38.548C143.935 38.9307 143.842 39.3367 143.842 39.766C143.842 40.5033 144.047 41.11 144.458 41.586C144.868 42.0527 145.503 42.286 146.362 42.286C146.464 42.286 146.637 42.2767 146.88 42.258C146.982 42.2487 147.108 42.2207 147.258 42.174C147.407 42.1273 147.514 42.0947 147.58 42.076C147.981 41.936 148.275 41.866 148.462 41.866C148.602 41.866 148.709 41.9033 148.784 41.978C148.55 42.3327 148.2 42.594 147.734 42.762C147.276 42.9207 146.824 43 146.376 43ZM152.791 43.014C151.699 43.014 150.85 42.7667 150.243 42.272C149.646 41.768 149.347 40.9933 149.347 39.948C149.347 39.416 149.478 38.912 149.739 38.436C150.01 37.9507 150.369 37.5633 150.817 37.274C151.274 36.9753 151.764 36.826 152.287 36.826C152.819 36.826 153.272 36.9427 153.645 37.176C154.018 37.4 154.205 37.7267 154.205 38.156C154.205 38.4547 154.149 38.6693 154.037 38.8C153.934 38.9213 153.818 38.982 153.687 38.982C153.687 38.534 153.566 38.17 153.323 37.89C153.08 37.61 152.735 37.47 152.287 37.47C151.839 37.47 151.452 37.5913 151.125 37.834C150.798 38.0673 150.546 38.38 150.369 38.772C150.201 39.1547 150.117 39.556 150.117 39.976C150.117 40.8627 150.416 41.4647 151.013 41.782C151.62 42.0993 152.418 42.258 153.407 42.258C153.743 42.258 154.182 42.2393 154.723 42.202C154.742 42.202 154.784 42.2207 154.849 42.258C154.914 42.2953 154.966 42.3187 155.003 42.328V42.412C155.003 42.6827 154.765 42.8507 154.289 42.916C153.813 42.9813 153.314 43.014 152.791 43.014ZM158.466 43.014C157.915 43.014 157.416 42.8927 156.968 42.65C156.529 42.398 156.184 42.0527 155.932 41.614C155.689 41.166 155.568 40.6573 155.568 40.088C155.568 39.1547 155.908 38.4593 156.59 38.002C157.28 37.5447 158.125 37.316 159.124 37.316C159.581 37.316 160.006 37.428 160.398 37.652C160.799 37.876 161.121 38.198 161.364 38.618C161.606 39.038 161.728 39.5233 161.728 40.074C161.728 40.6713 161.574 41.194 161.266 41.642C160.958 42.0807 160.552 42.4213 160.048 42.664C159.553 42.8973 159.026 43.014 158.466 43.014ZM158.312 42.216C159.18 42.216 159.838 42.02 160.286 41.628C160.734 41.236 160.958 40.662 160.958 39.906C160.958 39.3927 160.78 38.9493 160.426 38.576C160.08 38.2027 159.595 38.016 158.97 38.016C158.55 38.016 158.125 38.0953 157.696 38.254C157.266 38.4127 156.912 38.6507 156.632 38.968C156.352 39.2853 156.212 39.668 156.212 40.116C156.212 40.4893 156.305 40.8393 156.492 41.166C156.678 41.4833 156.93 41.74 157.248 41.936C157.574 42.1227 157.929 42.216 158.312 42.216ZM164.073 43C163.691 42.2533 163.387 41.376 163.163 40.368C162.949 39.36 162.841 38.4873 162.841 37.75C162.841 37.4607 162.907 37.274 163.037 37.19C163.112 37.1433 163.168 37.12 163.205 37.12C163.271 37.12 163.317 37.1713 163.345 37.274C163.383 37.3767 163.42 37.5633 163.457 37.834L163.527 38.338C163.63 37.834 163.826 37.4373 164.115 37.148C164.414 36.8493 164.778 36.7 165.207 36.7C165.683 36.7 166.038 36.7933 166.271 36.98C166.505 37.1573 166.621 37.456 166.621 37.876C166.155 37.652 165.73 37.54 165.347 37.54C164.983 37.54 164.671 37.638 164.409 37.834C164.148 38.03 163.966 38.3193 163.863 38.702C163.779 38.9633 163.737 39.2107 163.737 39.444C163.737 39.696 163.77 39.934 163.835 40.158C163.91 40.3727 164.022 40.6387 164.171 40.956C164.311 41.2827 164.419 41.5627 164.493 41.796C164.577 42.0293 164.624 42.2813 164.633 42.552C164.633 42.7107 164.577 42.8273 164.465 42.902C164.353 42.9673 164.223 43 164.073 43ZM169.569 42.986C169.131 42.986 168.748 42.8367 168.421 42.538C168.104 42.2393 167.861 41.852 167.693 41.376C167.535 40.9 167.455 40.4053 167.455 39.892C167.455 38.996 167.642 38.24 168.015 37.624C168.398 37.008 168.977 36.7 169.751 36.7C170.218 36.7 170.624 36.784 170.969 36.952C171.324 37.1107 171.786 37.3813 172.355 37.764L172.719 38.016C172.673 37.708 172.603 37.3533 172.509 36.952C172.416 36.5507 172.355 36.2753 172.327 36.126C172.169 35.398 172.052 34.8567 171.977 34.502C171.912 34.138 171.879 33.816 171.879 33.536C171.879 33.0413 172.019 32.794 172.299 32.794C172.402 33.018 172.523 33.4987 172.663 34.236C172.803 34.964 172.981 35.9627 173.195 37.232C173.419 38.576 173.615 39.6727 173.783 40.522C173.951 41.3713 174.091 41.9033 174.203 42.118C174.203 42.3327 174.045 42.44 173.727 42.44C173.485 42.44 173.317 42.3 173.223 42.02C173.139 41.74 173.088 41.25 173.069 40.55H172.957C172.565 41.2593 172.057 41.8427 171.431 42.3C170.806 42.7573 170.185 42.986 169.569 42.986ZM169.751 42.3C170.134 42.3 170.545 42.1413 170.983 41.824C171.431 41.4973 171.809 41.1053 172.117 40.648C172.425 40.1813 172.579 39.7613 172.579 39.388V38.968C171.618 37.96 170.731 37.456 169.919 37.456C169.35 37.456 168.911 37.666 168.603 38.086C168.295 38.4967 168.141 39.038 168.141 39.71L168.155 40.004C168.211 40.7133 168.37 41.2733 168.631 41.684C168.893 42.0947 169.266 42.3 169.751 42.3Z" fill="#ECEA67"/>
<rect x="92.7734" y="58.5" width="124" height="23" rx="3.5" fill="#E7EED2"/>
<rect x="92.7734" y="58.5" width="124" height="23" rx="3.5" stroke="#CBF1AA"/>
<path d="M154.521 73.014C153.952 73.014 153.439 72.8973 152.981 72.664C152.533 72.4213 152.179 72.0713 151.917 71.614C151.665 71.1473 151.539 70.592 151.539 69.948C151.539 69.416 151.679 68.9213 151.959 68.464C152.239 67.9973 152.599 67.6287 153.037 67.358C153.476 67.0873 153.919 66.952 154.367 66.952C154.778 66.952 155.179 67.106 155.571 67.414C155.973 67.722 156.299 68.1187 156.551 68.604C156.803 69.0893 156.929 69.5887 156.929 70.102C156.929 70.9607 156.719 71.6607 156.299 72.202C155.889 72.7433 155.296 73.014 154.521 73.014ZM154.311 72.216C155.534 72.216 156.145 71.5533 156.145 70.228C156.145 69.7987 156.071 69.3927 155.921 69.01C155.772 68.6273 155.553 68.3193 155.263 68.086C154.983 67.8527 154.657 67.736 154.283 67.736C153.714 67.736 153.238 67.9227 152.855 68.296C152.482 68.6693 152.258 69.1873 152.183 69.85C152.174 69.9247 152.169 70.032 152.169 70.172C152.169 70.816 152.37 71.32 152.771 71.684C153.182 72.0387 153.695 72.216 154.311 72.216Z" fill="#686363"/>
<path d="M290.897 42.468C291.663 42.468 292.255 42.3607 292.675 42.146C293.095 41.9313 293.305 41.6187 293.305 41.208C293.305 40.844 293.179 40.5313 292.927 40.27C292.675 39.9993 292.363 39.7707 291.989 39.584C291.616 39.3973 291.107 39.178 290.463 38.926C290.407 38.9073 290.272 38.856 290.057 38.772C289.18 38.4173 288.503 38.0627 288.027 37.708C287.561 37.3533 287.327 36.896 287.327 36.336C287.327 35.7107 287.575 35.2393 288.069 34.922C288.564 34.6047 289.199 34.446 289.973 34.446C290.543 34.446 291.065 34.5207 291.541 34.67C292.027 34.81 292.409 35.006 292.689 35.258C292.979 35.51 293.123 35.7947 293.123 36.112C293.011 36.168 292.904 36.196 292.801 36.196C292.689 36.196 292.573 36.1727 292.451 36.126C292.339 36.07 292.171 35.9813 291.947 35.86C291.583 35.664 291.243 35.51 290.925 35.398C290.608 35.2767 290.235 35.216 289.805 35.216C289.264 35.216 288.825 35.3093 288.489 35.496C288.153 35.6827 287.985 35.944 287.985 36.28C287.985 36.5413 288.097 36.7793 288.321 36.994C288.555 37.2087 288.844 37.4 289.189 37.568C289.544 37.7267 290.015 37.918 290.603 38.142C291.35 38.4313 291.966 38.702 292.451 38.954C292.937 39.206 293.347 39.528 293.683 39.92C294.029 40.3027 294.201 40.76 294.201 41.292C294.201 41.9173 293.903 42.4027 293.305 42.748C292.708 43.084 291.966 43.252 291.079 43.252C290.379 43.252 289.689 43.1493 289.007 42.944C288.326 42.7387 287.743 42.4353 287.257 42.034C286.772 41.6233 286.464 41.1333 286.333 40.564C286.333 40.312 286.403 40.0973 286.543 39.92C286.683 39.7333 286.856 39.64 287.061 39.64C287.061 40.2467 287.229 40.7647 287.565 41.194C287.911 41.614 288.373 41.9313 288.951 42.146C289.539 42.3607 290.188 42.468 290.897 42.468ZM298.76 43.014C297.668 43.014 296.819 42.7667 296.212 42.272C295.615 41.768 295.316 40.9933 295.316 39.948C295.316 39.416 295.447 38.912 295.708 38.436C295.979 37.9507 296.338 37.5633 296.786 37.274C297.243 36.9753 297.733 36.826 298.256 36.826C298.788 36.826 299.241 36.9427 299.614 37.176C299.987 37.4 300.174 37.7267 300.174 38.156C300.174 38.4547 300.118 38.6693 300.006 38.8C299.903 38.9213 299.787 38.982 299.656 38.982C299.656 38.534 299.535 38.17 299.292 37.89C299.049 37.61 298.704 37.47 298.256 37.47C297.808 37.47 297.421 37.5913 297.094 37.834C296.767 38.0673 296.515 38.38 296.338 38.772C296.17 39.1547 296.086 39.556 296.086 39.976C296.086 40.8627 296.385 41.4647 296.982 41.782C297.589 42.0993 298.387 42.258 299.376 42.258C299.712 42.258 300.151 42.2393 300.692 42.202C300.711 42.202 300.753 42.2207 300.818 42.258C300.883 42.2953 300.935 42.3187 300.972 42.328V42.412C300.972 42.6827 300.734 42.8507 300.258 42.916C299.782 42.9813 299.283 43.014 298.76 43.014ZM304.435 43.014C303.884 43.014 303.385 42.8927 302.937 42.65C302.498 42.398 302.153 42.0527 301.901 41.614C301.658 41.166 301.537 40.6573 301.537 40.088C301.537 39.1547 301.877 38.4593 302.559 38.002C303.249 37.5447 304.094 37.316 305.093 37.316C305.55 37.316 305.975 37.428 306.367 37.652C306.768 37.876 307.09 38.198 307.333 38.618C307.575 39.038 307.697 39.5233 307.697 40.074C307.697 40.6713 307.543 41.194 307.235 41.642C306.927 42.0807 306.521 42.4213 306.017 42.664C305.522 42.8973 304.995 43.014 304.435 43.014ZM304.281 42.216C305.149 42.216 305.807 42.02 306.255 41.628C306.703 41.236 306.927 40.662 306.927 39.906C306.927 39.3927 306.749 38.9493 306.395 38.576C306.049 38.2027 305.564 38.016 304.939 38.016C304.519 38.016 304.094 38.0953 303.665 38.254C303.235 38.4127 302.881 38.6507 302.601 38.968C302.321 39.2853 302.181 39.668 302.181 40.116C302.181 40.4893 302.274 40.8393 302.461 41.166C302.647 41.4833 302.899 41.74 303.217 41.936C303.543 42.1227 303.898 42.216 304.281 42.216ZM310.042 43C309.659 42.2533 309.356 41.376 309.132 40.368C308.917 39.36 308.81 38.4873 308.81 37.75C308.81 37.4607 308.875 37.274 309.006 37.19C309.081 37.1433 309.137 37.12 309.174 37.12C309.239 37.12 309.286 37.1713 309.314 37.274C309.351 37.3767 309.389 37.5633 309.426 37.834L309.496 38.338C309.599 37.834 309.795 37.4373 310.084 37.148C310.383 36.8493 310.747 36.7 311.176 36.7C311.652 36.7 312.007 36.7933 312.24 36.98C312.473 37.1573 312.59 37.456 312.59 37.876C312.123 37.652 311.699 37.54 311.316 37.54C310.952 37.54 310.639 37.638 310.378 37.834C310.117 38.03 309.935 38.3193 309.832 38.702C309.748 38.9633 309.706 39.2107 309.706 39.444C309.706 39.696 309.739 39.934 309.804 40.158C309.879 40.3727 309.991 40.6387 310.14 40.956C310.28 41.2827 310.387 41.5627 310.462 41.796C310.546 42.0293 310.593 42.2813 310.602 42.552C310.602 42.7107 310.546 42.8273 310.434 42.902C310.322 42.9673 310.191 43 310.042 43ZM316.448 43C315.851 43 315.3 42.8833 314.796 42.65C314.292 42.4167 313.891 42.0853 313.592 41.656C313.293 41.2267 313.144 40.732 313.144 40.172C313.144 39.5467 313.261 38.9633 313.494 38.422C313.727 37.8713 314.068 37.4327 314.516 37.106C314.973 36.77 315.505 36.602 316.112 36.602C316.747 36.602 317.227 36.8073 317.554 37.218C317.881 37.6193 318.035 38.128 318.016 38.744C318.016 39.2947 317.797 39.7147 317.358 40.004C316.929 40.2933 316.378 40.438 315.706 40.438C315.603 40.438 315.449 40.4287 315.244 40.41C314.908 40.3727 314.67 40.3213 314.53 40.256C314.39 40.1907 314.32 40.06 314.32 39.864C314.32 39.7987 314.339 39.752 314.376 39.724C314.413 39.6867 314.488 39.668 314.6 39.668C314.721 39.668 314.936 39.696 315.244 39.752C315.543 39.808 315.809 39.836 316.042 39.836C316.901 39.836 317.33 39.4627 317.33 38.716C317.33 38.268 317.246 37.9133 317.078 37.652C316.919 37.3907 316.635 37.26 316.224 37.26C315.776 37.26 315.375 37.3813 315.02 37.624C314.665 37.8573 314.39 38.1653 314.194 38.548C314.007 38.9307 313.914 39.3367 313.914 39.766C313.914 40.5033 314.119 41.11 314.53 41.586C314.941 42.0527 315.575 42.286 316.434 42.286C316.537 42.286 316.709 42.2767 316.952 42.258C317.055 42.2487 317.181 42.2207 317.33 42.174C317.479 42.1273 317.587 42.0947 317.652 42.076C318.053 41.936 318.347 41.866 318.534 41.866C318.674 41.866 318.781 41.9033 318.856 41.978C318.623 42.3327 318.273 42.594 317.806 42.762C317.349 42.9207 316.896 43 316.448 43Z" fill="#ECEA67"/>
<rect x="240.773" y="58.5" width="124" height="23" rx="3.5" fill="#E7EED2"/>
<rect x="240.773" y="58.5" width="124" height="23" rx="3.5" stroke="#CBF1AA"/>
<path d="M302.521 73.014C301.952 73.014 301.439 72.8973 300.981 72.664C300.533 72.4213 300.179 72.0713 299.917 71.614C299.665 71.1473 299.539 70.592 299.539 69.948C299.539 69.416 299.679 68.9213 299.959 68.464C300.239 67.9973 300.599 67.6287 301.037 67.358C301.476 67.0873 301.919 66.952 302.367 66.952C302.778 66.952 303.179 67.106 303.571 67.414C303.973 67.722 304.299 68.1187 304.551 68.604C304.803 69.0893 304.929 69.5887 304.929 70.102C304.929 70.9607 304.719 71.6607 304.299 72.202C303.889 72.7433 303.296 73.014 302.521 73.014ZM302.311 72.216C303.534 72.216 304.145 71.5533 304.145 70.228C304.145 69.7987 304.071 69.3927 303.921 69.01C303.772 68.6273 303.553 68.3193 303.263 68.086C302.983 67.8527 302.657 67.736 302.283 67.736C301.714 67.736 301.238 67.9227 300.855 68.296C300.482 68.6693 300.258 69.1873 300.183 69.85C300.174 69.9247 300.169 70.032 300.169 70.172C300.169 70.816 300.37 71.32 300.771 71.684C301.182 72.0387 301.695 72.216 302.311 72.216Z" fill="#686363"/>
<path d="M45.4063 69C45.4063 71.4669 47.4061 73.4668 49.873 73.4668C52.34 73.4668 54.3398 71.4669 54.3398 69C54.3398 66.5331 52.34 64.5332 49.873 64.5332C47.4061 64.5332 45.4063 66.5331 45.4063 69ZM90.1273 69L81.7521 64.1646V73.8354L90.1273 69ZM49.873 69.8375H82.5897V68.1625H49.873V69.8375Z" fill="#FFA712"/>
<path d="M413.721 69C413.721 66.5331 411.721 64.5332 409.254 64.5332C406.787 64.5332 404.787 66.5331 404.787 69C404.787 71.4669 406.787 73.4668 409.254 73.4668C411.721 73.4668 413.721 71.4669 413.721 69ZM369 69L377.375 73.8354V64.1646L369 69ZM409.254 68.1625L376.537 68.1625V69.8375H409.254V68.1625Z" fill="#FFA712"/>
</svg>
