<svg width="236" height="214" viewBox="0 0 236 214" fill="none" xmlns="http://www.w3.org/2000/svg">
<rect x="178" y="178.797" width="28.2727" height="26.8007" rx="13.4003" fill="#24C2AF"/>
<path d="M196.957 188.779C197.006 190.451 196.377 192.157 195.069 193.895C193.762 195.616 191.825 197.562 189.259 199.73H196.833V201.195H186.428V200.301C188.564 198.563 190.269 197.048 191.543 195.757C192.835 194.449 193.786 193.241 194.399 192.132C195.028 191.006 195.343 189.897 195.343 188.804C195.343 187.645 195.036 186.768 194.424 186.172C193.828 185.56 192.975 185.253 191.866 185.253C190.691 185.253 189.78 185.568 189.135 186.197C188.489 186.809 188.1 187.811 187.968 189.202C187.487 189.202 187.156 189.135 186.974 189.003C186.792 188.87 186.701 188.639 186.701 188.308C186.701 187.48 186.9 186.727 187.297 186.048C187.711 185.353 188.307 184.806 189.085 184.409C189.88 184.012 190.807 183.813 191.866 183.813C193.406 183.813 194.622 184.227 195.516 185.055C196.41 185.866 196.89 187.107 196.957 188.779Z" fill="white"/>
<rect x="30" y="16" width="28.2727" height="26.8007" rx="13.4003" fill="#24C2AF"/>
<path d="M47.6225 37.0327V38.3984H40.0736V37.0327H43.1031V23.0772C42.6727 23.4414 42.176 23.7642 41.6132 24.0456C41.0669 24.3105 40.5868 24.443 40.1729 24.443C39.8749 24.443 39.6432 24.3685 39.4776 24.2195C39.3286 24.0539 39.2542 23.8635 39.2542 23.6483C39.2542 23.4828 39.2955 23.3338 39.3783 23.2014C40.0405 23.1351 40.7441 22.9199 41.489 22.5557C42.234 22.175 42.9375 21.6618 43.5997 21.0162H44.7172V37.0327H47.6225Z" fill="white"/>
<rect x="8" y="146.797" width="72" height="220" rx="4" transform="rotate(-90 8 146.797)" fill="black"/>
<rect x="24" y="90.7969" width="40" height="40" rx="20" fill="#008B8B"/>
<path d="M32 112.359C32.2845 114.519 33.154 116.561 34.5154 118.265C35.8768 119.97 37.6787 121.274 39.7279 122.037C41.777 122.8 43.9961 122.993 46.1471 122.596C48.2981 122.198 50.2999 121.226 51.9378 119.782C53.5757 118.338 54.788 116.478 55.4445 114.4C56.1011 112.322 56.1771 110.106 55.6646 107.989C55.1521 105.871 54.0703 103.933 52.5352 102.381C51.0001 100.829 49.0697 99.7228 46.951 99.1802C41.0775 97.6805 34.9977 100.69 32.7532 106.299" stroke="white" stroke-width="1.82416" stroke-linecap="round" stroke-linejoin="round"/>
<path d="M32.6662 99.1406V106.833H41" stroke="white" stroke-width="2" stroke-linecap="round" stroke-linejoin="round"/>
<rect x="172" y="90.7969" width="40" height="40" rx="20" fill="#008B8B"/>
<path d="M189.6 115.597C189.94 115.597 190.225 115.482 190.456 115.251C190.685 115.022 190.8 114.737 190.8 114.397V107.167C190.8 106.827 190.685 106.547 190.456 106.327C190.225 106.107 189.94 105.997 189.6 105.997C189.26 105.997 188.975 106.112 188.746 106.341C188.515 106.572 188.4 106.857 188.4 107.197V114.427C188.4 114.767 188.515 115.047 188.746 115.267C188.975 115.487 189.26 115.597 189.6 115.597ZM194.4 115.597C194.74 115.597 195.025 115.482 195.256 115.251C195.485 115.022 195.6 114.737 195.6 114.397V107.167C195.6 106.827 195.485 106.547 195.256 106.327C195.025 106.107 194.74 105.997 194.4 105.997C194.06 105.997 193.775 106.112 193.546 106.341C193.315 106.572 193.2 106.857 193.2 107.197V114.427C193.2 114.767 193.315 115.047 193.546 115.267C193.775 115.487 194.06 115.597 194.4 115.597ZM192 122.797C190.34 122.797 188.78 122.482 187.32 121.851C185.86 121.222 184.59 120.367 183.51 119.287C182.43 118.207 181.575 116.937 180.946 115.477C180.315 114.017 180 112.457 180 110.797C180 109.137 180.315 107.577 180.946 106.117C181.575 104.657 182.43 103.387 183.51 102.307C184.59 101.227 185.86 100.372 187.32 99.7413C188.78 99.1117 190.34 98.7969 192 98.7969C193.66 98.7969 195.22 99.1117 196.68 99.7413C198.14 100.372 199.41 101.227 200.49 102.307C201.57 103.387 202.425 104.657 203.054 106.117C203.685 107.577 204 109.137 204 110.797C204 112.457 203.685 114.017 203.054 115.477C202.425 116.937 201.57 118.207 200.49 119.287C199.41 120.367 198.14 121.222 196.68 121.851C195.22 122.482 193.66 122.797 192 122.797ZM192 120.397C194.66 120.397 196.925 119.462 198.796 117.592C200.665 115.722 201.6 113.457 201.6 110.797C201.6 108.137 200.665 105.872 198.796 104.001C196.925 102.132 194.66 101.197 192 101.197C189.34 101.197 187.075 102.132 185.206 104.001C183.335 105.872 182.4 108.137 182.4 110.797C182.4 113.457 183.335 115.722 185.206 117.592C187.075 119.462 189.34 120.397 192 120.397Z" fill="white"/>
<path d="M44 44.5332C41.5331 44.5332 39.5332 46.5331 39.5332 49C39.5332 51.4669 41.5331 53.4668 44 53.4668C46.4669 53.4668 48.4668 51.4669 48.4668 49C48.4668 46.5331 46.4669 44.5332 44 44.5332ZM44 88L48.8354 79.6248H39.1646L44 88ZM43.1625 49V80.4623H44.8375V49H43.1625Z" fill="#FFA712"/>
<path d="M192 177.467C194.467 177.467 196.467 175.467 196.467 173C196.467 170.533 194.467 168.533 192 168.533C189.533 168.533 187.533 170.533 187.533 173C187.533 175.467 189.533 177.467 192 177.467ZM192 134L187.165 142.375H196.835L192 134ZM192.838 173V141.538H191.162V173H192.838Z" fill="#FFA712"/>
</svg>
