<svg width="199" height="34" viewBox="0 0 199 34" fill="none" xmlns="http://www.w3.org/2000/svg">
<rect x="0.625413" y="0.625413" width="196.769" height="32.3047" rx="4.37789" fill="black"/>
<rect x="0.625413" y="0.625413" width="196.769" height="32.3047" rx="4.37789" stroke="#6D6060" stroke-width="1.25083"/>
<path d="M16.552 22.7812V10.0456H20.8552C21.8502 10.0456 22.6669 10.2155 23.3054 10.5555C23.9438 10.8913 24.4164 11.3536 24.7232 11.9422C25.03 12.5309 25.1834 13.2005 25.1834 13.9508C25.1834 14.7012 25.03 15.3666 24.7232 15.947C24.4164 16.5274 23.9459 16.9834 23.3116 17.3151C22.6773 17.6426 21.8668 17.8064 20.8801 17.8064H17.3977V16.4134H20.8304C21.5103 16.4134 22.0575 16.3139 22.4721 16.1149C22.8908 15.9159 23.1934 15.634 23.38 15.2692C23.5707 14.9002 23.666 14.4608 23.666 13.9508C23.666 13.4409 23.5707 12.9953 23.38 12.6139C23.1893 12.2324 22.8846 11.9381 22.4659 11.7308C22.0471 11.5194 21.4937 11.4137 20.8055 11.4137H18.0942V22.7812H16.552ZM22.5467 17.0601L25.6809 22.7812H23.8899L20.8055 17.0601H22.5467ZM31.4564 22.9802C30.536 22.9802 29.7421 22.7771 29.0747 22.3708C28.4113 21.9604 27.8994 21.3883 27.5387 20.6545C27.1821 19.9166 27.0039 19.0584 27.0039 18.08C27.0039 17.1016 27.1821 16.2393 27.5387 15.4931C27.8994 14.7427 28.401 14.1581 29.0436 13.7394C29.6903 13.3166 30.4448 13.1051 31.3071 13.1051C31.8046 13.1051 32.2959 13.188 32.7809 13.3539C33.266 13.5197 33.7075 13.7892 34.1055 14.1623C34.5035 14.5313 34.8206 15.0204 35.057 15.6299C35.2933 16.2393 35.4114 16.9897 35.4114 17.881V18.5029H28.0486V17.2343H33.9189C33.9189 16.6953 33.8112 16.2144 33.5956 15.7916C33.3841 15.3687 33.0815 15.035 32.6877 14.7904C32.298 14.5458 31.8378 14.4235 31.3071 14.4235C30.7226 14.4235 30.2168 14.5686 29.7898 14.8588C29.3669 15.1448 29.0415 15.5179 28.8135 15.9781C28.5855 16.4383 28.4715 16.9316 28.4715 17.4581V18.3039C28.4715 19.0252 28.5958 19.6367 28.8446 20.1383C29.0975 20.6358 29.4478 21.0152 29.8955 21.2764C30.3433 21.5334 30.8635 21.6619 31.4564 21.6619C31.8419 21.6619 32.1902 21.608 32.5011 21.5002C32.8162 21.3883 33.0877 21.2225 33.3157 21.0027C33.5438 20.7789 33.72 20.5011 33.8443 20.1694L35.2622 20.5674C35.1129 21.0483 34.8621 21.4712 34.5097 21.836C34.1573 22.1967 33.722 22.4786 33.2038 22.6818C32.6856 22.8807 32.1031 22.9802 31.4564 22.9802ZM44.4097 15.3687L43.0914 15.7418C43.0085 15.5221 42.8862 15.3086 42.7245 15.1013C42.5669 14.8899 42.3514 14.7157 42.0777 14.5789C41.8041 14.4421 41.4538 14.3737 41.0268 14.3737C40.4423 14.3737 39.9551 14.5084 39.5654 14.7779C39.1799 15.0432 38.9871 15.3811 38.9871 15.7916C38.9871 16.1564 39.1198 16.4445 39.3851 16.6559C39.6504 16.8674 40.065 17.0436 40.6288 17.1845L42.0466 17.5328C42.9007 17.74 43.537 18.0572 43.9558 18.4842C44.3745 18.9071 44.5838 19.4522 44.5838 20.1197C44.5838 20.6669 44.4263 21.1561 44.1112 21.5873C43.8003 22.0184 43.365 22.3584 42.8053 22.6071C42.2456 22.8559 41.5948 22.9802 40.8527 22.9802C39.8784 22.9802 39.0721 22.7688 38.4336 22.3459C37.7952 21.9231 37.391 21.3054 37.221 20.4928L38.614 20.1446C38.7466 20.6586 38.9975 21.0442 39.3664 21.3012C39.7396 21.5583 40.2267 21.6868 40.8278 21.6868C41.5118 21.6868 42.0549 21.5417 42.4571 21.2515C42.8634 20.9571 43.0665 20.6047 43.0665 20.1943C43.0665 19.8627 42.9504 19.5849 42.7183 19.361C42.4861 19.133 42.1296 18.963 41.6487 18.8511L40.0567 18.478C39.182 18.2707 38.5394 17.9494 38.1289 17.5141C37.7227 17.0747 37.5195 16.5253 37.5195 15.8662C37.5195 15.3272 37.6708 14.8505 37.9735 14.4359C38.2803 14.0213 38.6969 13.6959 39.2234 13.4596C39.7541 13.2233 40.3552 13.1051 41.0268 13.1051C41.972 13.1051 42.7141 13.3124 43.2531 13.727C43.7961 14.1416 44.1817 14.6888 44.4097 15.3687ZM50.947 13.2295V14.4732H45.997V13.2295H50.947ZM47.4397 10.9411H48.9073V20.0451C48.9073 20.4596 48.9674 20.7706 49.0876 20.9779C49.212 21.181 49.3696 21.3178 49.5603 21.3883C49.7551 21.4546 49.9603 21.4878 50.1759 21.4878C50.3376 21.4878 50.4702 21.4795 50.5739 21.4629C50.6775 21.4422 50.7604 21.4256 50.8226 21.4132L51.1211 22.7315C51.0216 22.7688 50.8827 22.8061 50.7045 22.8434C50.5262 22.8849 50.3003 22.9056 50.0267 22.9056C49.6121 22.9056 49.2058 22.8165 48.8078 22.6382C48.414 22.46 48.0865 22.1884 47.8253 21.8236C47.5682 21.4588 47.4397 20.9986 47.4397 20.4431V10.9411ZM55.9654 23.0051C55.3601 23.0051 54.8108 22.8911 54.3175 22.6631C53.8241 22.4309 53.4324 22.0972 53.1422 21.6619C52.852 21.2225 52.7069 20.6918 52.7069 20.0699C52.7069 19.5227 52.8147 19.0791 53.0302 18.7392C53.2458 18.3951 53.5339 18.1256 53.8946 17.9307C54.2553 17.7359 54.6533 17.5908 55.0886 17.4954C55.528 17.3959 55.9696 17.3172 56.4131 17.2591C56.9936 17.1845 57.4641 17.1285 57.8248 17.0912C58.1896 17.0498 58.4549 16.9814 58.6207 16.886C58.7907 16.7907 58.8757 16.6248 58.8757 16.3885V16.3388C58.8757 15.7252 58.7078 15.2485 58.372 14.9085C58.0403 14.5686 57.5366 14.3986 56.8609 14.3986C56.1603 14.3986 55.611 14.552 55.213 14.8588C54.815 15.1655 54.5351 15.4931 54.3735 15.8413L52.9805 15.3438C53.2292 14.7634 53.5609 14.3115 53.9755 13.9882C54.3942 13.6606 54.8502 13.4326 55.3436 13.3041C55.841 13.1715 56.3302 13.1051 56.8111 13.1051C57.1179 13.1051 57.4703 13.1424 57.8683 13.2171C58.2704 13.2875 58.6581 13.4347 59.0312 13.6586C59.4084 13.8824 59.7214 14.2203 59.9702 14.6722C60.2189 15.1241 60.3433 15.7294 60.3433 16.488V22.7812H58.8757V21.4878H58.8011C58.7016 21.6951 58.5358 21.9169 58.3036 22.1532C58.0714 22.3895 57.7626 22.5905 57.377 22.7564C56.9915 22.9222 56.5209 23.0051 55.9654 23.0051ZM56.1893 21.6868C56.7697 21.6868 57.2589 21.5728 57.6569 21.3448C58.059 21.1167 58.3616 20.8224 58.5648 20.4617C58.7721 20.101 58.8757 19.7217 58.8757 19.3237V17.9805C58.8135 18.0551 58.6767 18.1235 58.4653 18.1857C58.258 18.2438 58.0175 18.2956 57.7439 18.3412C57.4745 18.3826 57.2112 18.4199 56.9542 18.4531C56.7013 18.4821 56.4961 18.507 56.3385 18.5277C55.9571 18.5775 55.6006 18.6583 55.2689 18.7703C54.9414 18.878 54.6761 19.0418 54.4729 19.2615C54.274 19.4771 54.1745 19.7715 54.1745 20.1446C54.1745 20.6545 54.3631 21.04 54.7403 21.3012C55.1218 21.5583 55.6047 21.6868 56.1893 21.6868ZM63.022 22.7812V13.2295H64.4398V14.6722H64.5393C64.7134 14.1996 65.0285 13.8161 65.4845 13.5218C65.9405 13.2274 66.4546 13.0802 67.0267 13.0802C67.1345 13.0802 67.2693 13.0823 67.4309 13.0865C67.5926 13.0906 67.7149 13.0968 67.7978 13.1051V14.5976C67.7481 14.5851 67.6341 14.5665 67.4558 14.5416C67.2817 14.5126 67.0972 14.4981 66.9024 14.4981C66.438 14.4981 66.0235 14.5955 65.6586 14.7904C65.298 14.9811 65.0119 15.2464 64.8005 15.5863C64.5932 15.9221 64.4895 16.3056 64.4895 16.7368V22.7812H63.022ZM74.29 13.2295V14.4732H69.34V13.2295H74.29ZM70.7828 10.9411H72.2503V20.0451C72.2503 20.4596 72.3105 20.7706 72.4307 20.9779C72.5551 21.181 72.7126 21.3178 72.9033 21.3883C73.0981 21.4546 73.3034 21.4878 73.5189 21.4878C73.6806 21.4878 73.8133 21.4795 73.9169 21.4629C74.0206 21.4422 74.1035 21.4256 74.1657 21.4132L74.4642 22.7315C74.3647 22.7688 74.2258 22.8061 74.0475 22.8434C73.8693 22.8849 73.6433 22.9056 73.3697 22.9056C72.9551 22.9056 72.5488 22.8165 72.1508 22.6382C71.757 22.46 71.4295 22.1884 71.1683 21.8236C70.9113 21.4588 70.7828 20.9986 70.7828 20.4431V10.9411ZM90.3278 14.0255C90.191 13.6068 90.0106 13.2316 89.7868 12.8999C89.5671 12.5641 89.3038 12.278 88.997 12.0417C88.6944 11.8054 88.3503 11.6251 87.9647 11.5007C87.5792 11.3764 87.1563 11.3142 86.6961 11.3142C85.9416 11.3142 85.2555 11.509 84.6378 11.8987C84.0201 12.2884 83.5288 12.8626 83.164 13.6213C82.7992 14.3799 82.6167 15.3106 82.6167 16.4134C82.6167 17.5162 82.8012 18.4469 83.1702 19.2056C83.5392 19.9642 84.0387 20.5384 84.6689 20.9281C85.299 21.3178 86.0079 21.5127 86.7956 21.5127C87.5253 21.5127 88.1679 21.3572 88.7234 21.0463C89.2831 20.7312 89.7184 20.2876 90.0293 19.7155C90.3444 19.1392 90.5019 18.4614 90.5019 17.682L90.9745 17.7815H87.1439V16.4134H91.9944V17.7815C91.9944 18.8304 91.7705 19.7424 91.3228 20.5177C90.8792 21.2929 90.2656 21.8941 89.4821 22.3211C88.7027 22.7439 87.8072 22.9554 86.7956 22.9554C85.668 22.9554 84.6772 22.69 83.8231 22.1594C82.9733 21.6287 82.31 20.8742 81.8332 19.8958C81.3606 18.9174 81.1243 17.7566 81.1243 16.4134C81.1243 15.406 81.259 14.5002 81.5285 13.6959C81.8021 12.8875 82.1877 12.1993 82.6851 11.6313C83.1826 11.0634 83.7713 10.628 84.4512 10.3254C85.1311 10.0228 85.8794 9.87145 86.6961 9.87145C87.3677 9.87145 87.9937 9.97302 88.5742 10.1762C89.1587 10.3752 89.679 10.6591 90.135 11.0281C90.5952 11.3929 90.9787 11.8303 91.2855 12.3402C91.5922 12.846 91.8037 13.4078 91.9198 14.0255H90.3278ZM97.2475 23.0051C96.6423 23.0051 96.0929 22.8911 95.5996 22.6631C95.1063 22.4309 94.7145 22.0972 94.4243 21.6619C94.1341 21.2225 93.989 20.6918 93.989 20.0699C93.989 19.5227 94.0968 19.0791 94.3124 18.7392C94.5279 18.3951 94.8161 18.1256 95.1767 17.9307C95.5374 17.7359 95.9354 17.5908 96.3707 17.4954C96.8102 17.3959 97.2517 17.3172 97.6953 17.2591C98.2757 17.1845 98.7462 17.1285 99.1069 17.0912C99.4717 17.0498 99.737 16.9814 99.9029 16.886C100.073 16.7907 100.158 16.6248 100.158 16.3885V16.3388C100.158 15.7252 99.9899 15.2485 99.6541 14.9085C99.3225 14.5686 98.8188 14.3986 98.143 14.3986C97.4424 14.3986 96.8931 14.552 96.4951 14.8588C96.0971 15.1655 95.8173 15.4931 95.6556 15.8413L94.2626 15.3438C94.5113 14.7634 94.843 14.3115 95.2576 13.9882C95.6763 13.6606 96.1323 13.4326 96.6257 13.3041C97.1232 13.1715 97.6124 13.1051 98.0933 13.1051C98.4 13.1051 98.7524 13.1424 99.1504 13.2171C99.5526 13.2875 99.9402 13.4347 100.313 13.6586C100.691 13.8824 101.004 14.2203 101.252 14.6722C101.501 15.1241 101.625 15.7294 101.625 16.488V22.7812H100.158V21.4878H100.083C99.9837 21.6951 99.8179 21.9169 99.5857 22.1532C99.3536 22.3895 99.0447 22.5905 98.6591 22.7564C98.2736 22.9222 97.8031 23.0051 97.2475 23.0051ZM97.4714 21.6868C98.0518 21.6868 98.541 21.5728 98.939 21.3448C99.3411 21.1167 99.6438 20.8224 99.8469 20.4617C100.054 20.101 100.158 19.7217 100.158 19.3237V17.9805C100.096 18.0551 99.9588 18.1235 99.7474 18.1857C99.5401 18.2438 99.2997 18.2956 99.026 18.3412C98.7566 18.3826 98.4933 18.4199 98.2363 18.4531C97.9834 18.4821 97.7782 18.507 97.6206 18.5277C97.2392 18.5775 96.8827 18.6583 96.551 18.7703C96.2235 18.878 95.9582 19.0418 95.7551 19.2615C95.5561 19.4771 95.4566 19.7715 95.4566 20.1446C95.4566 20.6545 95.6452 21.04 96.0225 21.3012C96.4039 21.5583 96.8868 21.6868 97.4714 21.6868ZM104.304 22.7812V13.2295H105.722V14.722H105.846C106.045 14.212 106.367 13.8161 106.81 13.5342C107.254 13.2481 107.786 13.1051 108.408 13.1051C109.038 13.1051 109.563 13.2481 109.982 13.5342C110.405 13.8161 110.734 14.212 110.97 14.722H111.07C111.314 14.2286 111.681 13.8368 112.171 13.5466C112.66 13.2523 113.246 13.1051 113.93 13.1051C114.784 13.1051 115.483 13.3725 116.026 13.9073C116.569 14.438 116.841 15.265 116.841 16.3885V22.7812H115.373V16.3885C115.373 15.6838 115.18 15.1801 114.795 14.8774C114.409 14.5748 113.955 14.4235 113.433 14.4235C112.761 14.4235 112.241 14.6266 111.872 15.0329C111.503 15.435 111.319 15.9449 111.319 16.5627V22.7812H109.826V16.2393C109.826 15.6962 109.65 15.2588 109.298 14.9272C108.945 14.5914 108.491 14.4235 107.936 14.4235C107.554 14.4235 107.198 14.525 106.866 14.7282C106.539 14.9313 106.273 15.2132 106.07 15.5739C105.871 15.9304 105.772 16.3429 105.772 16.8114V22.7812H104.304ZM123.529 22.9802C122.609 22.9802 121.815 22.7771 121.147 22.3708C120.484 21.9604 119.972 21.3883 119.611 20.6545C119.255 19.9166 119.076 19.0584 119.076 18.08C119.076 17.1016 119.255 16.2393 119.611 15.4931C119.972 14.7427 120.473 14.1581 121.116 13.7394C121.763 13.3166 122.517 13.1051 123.38 13.1051C123.877 13.1051 124.368 13.188 124.853 13.3539C125.338 13.5197 125.78 13.7892 126.178 14.1623C126.576 14.5313 126.893 15.0204 127.129 15.6299C127.366 16.2393 127.484 16.9897 127.484 17.881V18.5029H120.121V17.2343H125.991C125.991 16.6953 125.884 16.2144 125.668 15.7916C125.457 15.3687 125.154 15.035 124.76 14.7904C124.37 14.5458 123.91 14.4235 123.38 14.4235C122.795 14.4235 122.289 14.5686 121.862 14.8588C121.439 15.1448 121.114 15.5179 120.886 15.9781C120.658 16.4383 120.544 16.9316 120.544 17.4581V18.3039C120.544 19.0252 120.668 19.6367 120.917 20.1383C121.17 20.6358 121.52 21.0152 121.968 21.2764C122.416 21.5334 122.936 21.6619 123.529 21.6619C123.914 21.6619 124.263 21.608 124.574 21.5002C124.889 21.3883 125.16 21.2225 125.388 21.0027C125.616 20.7789 125.792 20.5011 125.917 20.1694L127.335 20.5674C127.185 21.0483 126.935 21.4712 126.582 21.836C126.23 22.1967 125.794 22.4786 125.276 22.6818C124.758 22.8807 124.176 22.9802 123.529 22.9802ZM137.452 23.0051C136.847 23.0051 136.298 22.8911 135.804 22.6631C135.311 22.4309 134.919 22.0972 134.629 21.6619C134.339 21.2225 134.194 20.6918 134.194 20.0699C134.194 19.5227 134.302 19.0791 134.517 18.7392C134.733 18.3951 135.021 18.1256 135.381 17.9307C135.742 17.7359 136.14 17.5908 136.575 17.4954C137.015 17.3959 137.456 17.3172 137.9 17.2591C138.48 17.1845 138.951 17.1285 139.312 17.0912C139.676 17.0498 139.942 16.9814 140.108 16.886C140.278 16.7907 140.363 16.6248 140.363 16.3885V16.3388C140.363 15.7252 140.195 15.2485 139.859 14.9085C139.527 14.5686 139.024 14.3986 138.348 14.3986C137.647 14.3986 137.098 14.552 136.7 14.8588C136.302 15.1655 136.022 15.4931 135.86 15.8413L134.467 15.3438C134.716 14.7634 135.048 14.3115 135.462 13.9882C135.881 13.6606 136.337 13.4326 136.83 13.3041C137.328 13.1715 137.817 13.1051 138.298 13.1051C138.605 13.1051 138.957 13.1424 139.355 13.2171C139.757 13.2875 140.145 13.4347 140.518 13.6586C140.895 13.8824 141.208 14.2203 141.457 14.6722C141.706 15.1241 141.83 15.7294 141.83 16.488V22.7812H140.363V21.4878H140.288C140.188 21.6951 140.023 21.9169 139.79 22.1532C139.558 22.3895 139.249 22.5905 138.864 22.7564C138.478 22.9222 138.008 23.0051 137.452 23.0051ZM137.676 21.6868C138.257 21.6868 138.746 21.5728 139.144 21.3448C139.546 21.1167 139.849 20.8224 140.052 20.4617C140.259 20.101 140.363 19.7217 140.363 19.3237V17.9805C140.3 18.0551 140.164 18.1235 139.952 18.1857C139.745 18.2438 139.504 18.2956 139.231 18.3412C138.961 18.3826 138.698 18.4199 138.441 18.4531C138.188 18.4821 137.983 18.507 137.825 18.5277C137.444 18.5775 137.087 18.6583 136.756 18.7703C136.428 18.878 136.163 19.0418 135.96 19.2615C135.761 19.4771 135.661 19.7715 135.661 20.1446C135.661 20.6545 135.85 21.04 136.227 21.3012C136.609 21.5583 137.092 21.6868 137.676 21.6868ZM151.275 15.3687L149.956 15.7418C149.873 15.5221 149.751 15.3086 149.589 15.1013C149.432 14.8899 149.216 14.7157 148.943 14.5789C148.669 14.4421 148.319 14.3737 147.892 14.3737C147.307 14.3737 146.82 14.5084 146.43 14.7779C146.045 15.0432 145.852 15.3811 145.852 15.7916C145.852 16.1564 145.985 16.4445 146.25 16.6559C146.515 16.8674 146.93 17.0436 147.494 17.1845L148.912 17.5328C149.766 17.74 150.402 18.0572 150.821 18.4842C151.239 18.9071 151.449 19.4522 151.449 20.1197C151.449 20.6669 151.291 21.1561 150.976 21.5873C150.665 22.0184 150.23 22.3584 149.67 22.6071C149.111 22.8559 148.46 22.9802 147.718 22.9802C146.743 22.9802 145.937 22.7688 145.299 22.3459C144.66 21.9231 144.256 21.3054 144.086 20.4928L145.479 20.1446C145.612 20.6586 145.862 21.0442 146.231 21.3012C146.604 21.5583 147.092 21.6868 147.693 21.6868C148.377 21.6868 148.92 21.5417 149.322 21.2515C149.728 20.9571 149.931 20.6047 149.931 20.1943C149.931 19.8627 149.815 19.5849 149.583 19.361C149.351 19.133 148.995 18.963 148.514 18.8511L146.922 18.478C146.047 18.2707 145.404 17.9494 144.994 17.5141C144.588 17.0747 144.384 16.5253 144.384 15.8662C144.384 15.3272 144.536 14.8505 144.838 14.4359C145.145 14.0213 145.562 13.6959 146.088 13.4596C146.619 13.2233 147.22 13.1051 147.892 13.1051C148.837 13.1051 149.579 13.3124 150.118 13.727C150.661 14.1416 151.047 14.6888 151.275 15.3687ZM158.583 22.7812V13.2295H160.051V22.7812H158.583ZM159.329 11.6375C159.043 11.6375 158.797 11.5401 158.589 11.3453C158.386 11.1504 158.285 10.9162 158.285 10.6426C158.285 10.3689 158.386 10.1347 158.589 9.93986C158.797 9.74501 159.043 9.64758 159.329 9.64758C159.615 9.64758 159.86 9.74501 160.063 9.93986C160.27 10.1347 160.374 10.3689 160.374 10.6426C160.374 10.9162 160.27 11.1504 160.063 11.3453C159.86 11.5401 159.615 11.6375 159.329 11.6375ZM164.206 17.0353V22.7812H162.739V13.2295H164.156V14.722H164.281C164.505 14.2369 164.845 13.8472 165.301 13.5529C165.757 13.2544 166.345 13.1051 167.067 13.1051C167.713 13.1051 168.279 13.2378 168.764 13.5031C169.249 13.7643 169.627 14.1623 169.896 14.6971C170.166 15.2277 170.3 15.8993 170.3 16.7119V22.7812H168.833V16.8114C168.833 16.061 168.638 15.4765 168.248 15.0578C167.859 14.6349 167.324 14.4235 166.644 14.4235C166.175 14.4235 165.757 14.525 165.388 14.7282C165.023 14.9313 164.735 15.2277 164.523 15.6174C164.312 16.0071 164.206 16.4797 164.206 17.0353ZM172.982 22.7812V13.2295H174.45V22.7812H172.982ZM173.728 11.6375C173.442 11.6375 173.196 11.5401 172.988 11.3453C172.785 11.1504 172.684 10.9162 172.684 10.6426C172.684 10.3689 172.785 10.1347 172.988 9.93986C173.196 9.74501 173.442 9.64758 173.728 9.64758C174.014 9.64758 174.259 9.74501 174.462 9.93986C174.67 10.1347 174.773 10.3689 174.773 10.6426C174.773 10.9162 174.67 11.1504 174.462 11.3453C174.259 11.5401 174.014 11.6375 173.728 11.6375ZM181.292 13.2295V14.4732H176.342V13.2295H181.292ZM177.785 10.9411H179.252V20.0451C179.252 20.4596 179.312 20.7706 179.432 20.9779C179.557 21.181 179.714 21.3178 179.905 21.3883C180.1 21.4546 180.305 21.4878 180.521 21.4878C180.682 21.4878 180.815 21.4795 180.919 21.4629C181.022 21.4422 181.105 21.4256 181.167 21.4132L181.466 22.7315C181.366 22.7688 181.228 22.8061 181.049 22.8434C180.871 22.8849 180.645 22.9056 180.371 22.9056C179.957 22.9056 179.551 22.8165 179.153 22.6382C178.759 22.46 178.431 22.1884 178.17 21.8236C177.913 21.4588 177.785 20.9986 177.785 20.4431V10.9411Z" fill="#FFA500"/>
</svg>
