<svg width="426" height="227" viewBox="0 0 426 227" fill="none" xmlns="http://www.w3.org/2000/svg">
<rect width="426" height="227" rx="8" fill="#F5F5F5"/>
<path d="M37.72 17.64C38.4733 17.64 39.1533 17.7633 39.76 18.01C40.3733 18.2567 40.8933 18.6067 41.32 19.06C41.7533 19.5133 42.0867 20.0633 42.32 20.71C42.5533 21.3567 42.67 22.0833 42.67 22.89C42.67 23.6967 42.5533 24.4233 42.32 25.07C42.0867 25.7167 41.7533 26.27 41.32 26.73C40.8933 27.1833 40.3733 27.5333 39.76 27.78C39.1533 28.0267 38.4733 28.15 37.72 28.15C36.96 28.15 36.2733 28.0267 35.66 27.78C35.0533 27.5333 34.5333 27.1833 34.1 26.73C33.6667 26.27 33.3333 25.7167 33.1 25.07C32.8667 24.4233 32.75 23.6967 32.75 22.89C32.75 22.0833 32.8667 21.3567 33.1 20.71C33.3333 20.0633 33.6667 19.5133 34.1 19.06C34.5333 18.6067 35.0533 18.2567 35.66 18.01C36.2733 17.7633 36.96 17.64 37.72 17.64ZM37.72 26.47C38.64 26.47 39.3233 26.1633 39.77 25.55C40.2233 24.93 40.45 24.0467 40.45 22.9C40.45 21.7533 40.2233 20.87 39.77 20.25C39.3233 19.6233 38.64 19.31 37.72 19.31C36.7867 19.31 36.0933 19.6233 35.64 20.25C35.1867 20.87 34.96 21.7533 34.96 22.9C34.96 24.0467 35.1867 24.93 35.64 25.55C36.0933 26.1633 36.7867 26.47 37.72 26.47ZM46.7658 19.69C47.0858 19.0433 47.4724 18.5367 47.9258 18.17C48.3791 17.7967 48.9224 17.61 49.5558 17.61C49.7758 17.61 49.9824 17.6367 50.1758 17.69C50.3691 17.7367 50.5424 17.81 50.6958 17.91L50.5458 19.53C50.5191 19.6433 50.4758 19.7233 50.4158 19.77C50.3624 19.81 50.2891 19.83 50.1958 19.83C50.0958 19.83 49.9524 19.8133 49.7658 19.78C49.5791 19.74 49.3824 19.72 49.1758 19.72C48.8758 19.72 48.6091 19.7633 48.3758 19.85C48.1491 19.9367 47.9424 20.0633 47.7558 20.23C47.5758 20.3967 47.4158 20.6 47.2758 20.84C47.1358 21.08 47.0058 21.3533 46.8858 21.66V28H44.7358V17.8H45.9858C46.2124 17.8 46.3691 17.8433 46.4558 17.93C46.5424 18.01 46.6024 18.1533 46.6358 18.36L46.7658 19.69ZM57.4123 23.54C56.6457 23.5667 55.999 23.63 55.4723 23.73C54.9457 23.8233 54.519 23.9467 54.1923 24.1C53.8657 24.2467 53.629 24.4233 53.4823 24.63C53.3423 24.8367 53.2723 25.0633 53.2723 25.31C53.2723 25.55 53.309 25.7567 53.3823 25.93C53.4623 26.0967 53.569 26.2367 53.7023 26.35C53.8423 26.4567 54.0023 26.5367 54.1823 26.59C54.369 26.6367 54.5723 26.66 54.7923 26.66C55.3523 26.66 55.8323 26.5567 56.2323 26.35C56.639 26.1367 57.0323 25.83 57.4123 25.43V23.54ZM51.7123 19.22C52.8657 18.1467 54.239 17.61 55.8323 17.61C56.419 17.61 56.939 17.7067 57.3923 17.9C57.8523 18.0867 58.2357 18.3533 58.5423 18.7C58.8557 19.0467 59.0923 19.46 59.2523 19.94C59.419 20.4133 59.5023 20.94 59.5023 21.52V28H58.5423C58.3357 28 58.179 27.97 58.0723 27.91C57.9657 27.8433 57.8757 27.7133 57.8023 27.52L57.5923 26.69C57.3323 26.9233 57.0757 27.1333 56.8223 27.32C56.569 27.5 56.3057 27.6533 56.0323 27.78C55.7657 27.9067 55.4757 28 55.1623 28.06C54.8557 28.1267 54.5157 28.16 54.1423 28.16C53.729 28.16 53.3423 28.1033 52.9823 27.99C52.629 27.8767 52.3223 27.7067 52.0623 27.48C51.8023 27.2467 51.5957 26.96 51.4423 26.62C51.2957 26.28 51.2223 25.88 51.2223 25.42C51.2223 25.0267 51.3257 24.6433 51.5323 24.27C51.7457 23.8967 52.0923 23.5633 52.5723 23.27C53.059 22.97 53.6957 22.7233 54.4823 22.53C55.2757 22.3367 56.2523 22.2267 57.4123 22.2V21.52C57.4123 20.7867 57.2557 20.24 56.9423 19.88C56.629 19.52 56.169 19.34 55.5623 19.34C55.149 19.34 54.8023 19.3933 54.5223 19.5C54.2423 19.6 53.999 19.71 53.7923 19.83C53.5857 19.95 53.4023 20.0633 53.2423 20.17C53.0823 20.27 52.9123 20.32 52.7323 20.32C52.5857 20.32 52.459 20.2833 52.3523 20.21C52.2523 20.13 52.169 20.0333 52.1023 19.92L51.7123 19.22ZM64.0309 19.15C64.2509 18.9233 64.4776 18.72 64.7109 18.54C64.9509 18.3533 65.2043 18.1933 65.4709 18.06C65.7376 17.9267 66.0209 17.8233 66.3209 17.75C66.6209 17.6767 66.9476 17.64 67.3009 17.64C67.8609 17.64 68.3509 17.7333 68.7709 17.92C69.1976 18.1067 69.5543 18.37 69.8409 18.71C70.1343 19.05 70.3543 19.46 70.5009 19.94C70.6476 20.4133 70.7209 20.9367 70.7209 21.51V28H68.5809V21.51C68.5809 20.8233 68.4209 20.29 68.1009 19.91C67.7876 19.53 67.3076 19.34 66.6609 19.34C66.1809 19.34 65.7343 19.45 65.3209 19.67C64.9143 19.89 64.5309 20.19 64.1709 20.57V28H62.0209V17.8H63.3209C63.6143 17.8 63.8009 17.9367 63.8809 18.21L64.0309 19.15ZM76.8719 22.81C77.5385 22.81 78.0385 22.64 78.3719 22.3C78.7052 21.96 78.8719 21.5167 78.8719 20.97C78.8719 20.41 78.7052 19.9667 78.3719 19.64C78.0385 19.3133 77.5385 19.15 76.8719 19.15C76.2119 19.15 75.7119 19.3133 75.3719 19.64C75.0385 19.9667 74.8719 20.41 74.8719 20.97C74.8719 21.2367 74.9152 21.4833 75.0019 21.71C75.0885 21.9367 75.2152 22.1333 75.3819 22.3C75.5485 22.46 75.7552 22.5867 76.0019 22.68C76.2552 22.7667 76.5452 22.81 76.8719 22.81ZM79.8619 28.5C79.8619 28.2733 79.7952 28.0933 79.6619 27.96C79.5352 27.82 79.3619 27.7133 79.1419 27.64C78.9219 27.56 78.6652 27.5033 78.3719 27.47C78.0785 27.43 77.7652 27.4033 77.4319 27.39C77.1052 27.37 76.7685 27.3533 76.4219 27.34C76.0819 27.32 75.7519 27.2867 75.4319 27.24C75.1119 27.4067 74.8485 27.6067 74.6419 27.84C74.4419 28.0733 74.3419 28.3433 74.3419 28.65C74.3419 28.85 74.3919 29.0367 74.4919 29.21C74.5985 29.3833 74.7585 29.5333 74.9719 29.66C75.1919 29.7867 75.4685 29.8867 75.8019 29.96C76.1419 30.0333 76.5485 30.07 77.0219 30.07C77.9685 30.07 78.6785 29.9233 79.1519 29.63C79.6252 29.3367 79.8619 28.96 79.8619 28.5ZM82.0219 18.17V18.97C82.0219 19.2367 81.8619 19.4 81.5419 19.46L80.5219 19.63C80.6952 20.0167 80.7819 20.4467 80.7819 20.92C80.7819 21.42 80.6819 21.8733 80.4819 22.28C80.2885 22.6867 80.0185 23.0333 79.6719 23.32C79.3252 23.6067 78.9119 23.8267 78.4319 23.98C77.9519 24.1333 77.4319 24.21 76.8719 24.21C76.6585 24.21 76.4485 24.2 76.2419 24.18C76.0419 24.1533 75.8452 24.12 75.6519 24.08C75.4585 24.1933 75.3152 24.3133 75.2219 24.44C75.1285 24.5667 75.0819 24.6967 75.0819 24.83C75.0819 25.05 75.1785 25.2133 75.3719 25.32C75.5652 25.4267 75.8185 25.5033 76.1319 25.55C76.4519 25.5967 76.8152 25.6267 77.2219 25.64C77.6285 25.6533 78.0419 25.6767 78.4619 25.71C78.8819 25.7433 79.2952 25.8 79.7019 25.88C80.1085 25.9533 80.4685 26.08 80.7819 26.26C81.1019 26.4333 81.3585 26.67 81.5519 26.97C81.7452 27.27 81.8419 27.66 81.8419 28.14C81.8419 28.58 81.7319 29.01 81.5119 29.43C81.2919 29.85 80.9719 30.2233 80.5519 30.55C80.1385 30.8767 79.6319 31.1367 79.0319 31.33C78.4319 31.53 77.7485 31.63 76.9819 31.63C76.2219 31.63 75.5585 31.5567 74.9919 31.41C74.4319 31.2633 73.9619 31.0633 73.5819 30.81C73.2085 30.5633 72.9285 30.2767 72.7419 29.95C72.5619 29.6233 72.4719 29.2833 72.4719 28.93C72.4719 28.45 72.6219 28.04 72.9219 27.7C73.2285 27.36 73.6419 27.0933 74.1619 26.9C73.8819 26.7667 73.6552 26.5833 73.4819 26.35C73.3152 26.1167 73.2319 25.81 73.2319 25.43C73.2319 25.13 73.3419 24.8167 73.5619 24.49C73.7819 24.1633 74.1119 23.8867 74.5519 23.66C74.0452 23.38 73.6452 23.01 73.3519 22.55C73.0585 22.0833 72.9119 21.54 72.9119 20.92C72.9119 20.4133 73.0085 19.9567 73.2019 19.55C73.4019 19.1433 73.6785 18.7967 74.0319 18.51C74.3852 18.2233 74.8019 18.0033 75.2819 17.85C75.7685 17.6967 76.2985 17.62 76.8719 17.62C77.7519 17.62 78.5185 17.8033 79.1719 18.17H82.0219ZM90.2344 21.75C90.2344 21.39 90.181 21.0567 90.0744 20.75C89.9744 20.4367 89.8244 20.1667 89.6244 19.94C89.4244 19.7067 89.1744 19.5267 88.8744 19.4C88.581 19.2667 88.241 19.2 87.8544 19.2C87.0744 19.2 86.461 19.4233 86.0144 19.87C85.5677 20.3167 85.2844 20.9433 85.1644 21.75H90.2344ZM85.1044 23.07C85.131 23.65 85.221 24.1533 85.3744 24.58C85.5277 25 85.731 25.35 85.9844 25.63C86.2444 25.91 86.551 26.12 86.9044 26.26C87.2644 26.3933 87.6644 26.46 88.1044 26.46C88.5244 26.46 88.8877 26.4133 89.1944 26.32C89.501 26.22 89.7677 26.1133 89.9944 26C90.221 25.88 90.4144 25.7733 90.5744 25.68C90.7344 25.58 90.881 25.53 91.0144 25.53C91.1877 25.53 91.321 25.5967 91.4144 25.73L92.0244 26.52C91.771 26.82 91.4844 27.0733 91.1644 27.28C90.8444 27.4867 90.5044 27.6567 90.1444 27.79C89.7844 27.9167 89.4144 28.0067 89.0344 28.06C88.6544 28.12 88.2844 28.15 87.9244 28.15C87.2177 28.15 86.561 28.0333 85.9544 27.8C85.3544 27.56 84.831 27.21 84.3844 26.75C83.9444 26.29 83.5977 25.72 83.3444 25.04C83.0977 24.36 82.9744 23.5767 82.9744 22.69C82.9744 21.9833 83.0844 21.3233 83.3044 20.71C83.531 20.0967 83.851 19.5633 84.2644 19.11C84.6844 18.6567 85.191 18.3 85.7844 18.04C86.3844 17.7733 87.061 17.64 87.8144 17.64C88.441 17.64 89.021 17.7433 89.5544 17.95C90.0877 18.15 90.5477 18.4467 90.9344 18.84C91.321 19.2333 91.621 19.7167 91.8344 20.29C92.0544 20.8567 92.1644 21.5033 92.1644 22.23C92.1644 22.5633 92.1277 22.7867 92.0544 22.9C91.981 23.0133 91.8477 23.07 91.6544 23.07H85.1044Z" fill="black"/>
<rect x="32" y="52" width="100" height="133" rx="8" fill="#D9D9D9"/>
<rect x="44" y="64" width="76" height="71" rx="4" fill="#FFE0AE"/>
<path d="M55.096 167.112C54.872 167.112 54.696 167.053 54.568 166.936C54.4507 166.808 54.392 166.627 54.392 166.392V156.44C54.392 156.205 54.4507 156.029 54.568 155.912C54.696 155.784 54.8773 155.72 55.112 155.72H60.92C61.1013 155.72 61.24 155.768 61.336 155.864C61.432 155.96 61.48 156.093 61.48 156.264C61.48 156.445 61.432 156.584 61.336 156.68C61.24 156.776 61.1013 156.824 60.92 156.824H55.704V160.76H60.584C60.7653 160.76 60.904 160.808 61 160.904C61.1067 161 61.16 161.133 61.16 161.304C61.16 161.485 61.1067 161.624 61 161.72C60.904 161.816 60.7653 161.864 60.584 161.864H55.704V166.392C55.704 166.872 55.5013 167.112 55.096 167.112ZM63.8616 167.112C63.6376 167.112 63.4616 167.053 63.3336 166.936C63.2163 166.808 63.1576 166.627 63.1576 166.392V156.44C63.1576 156.205 63.2163 156.029 63.3336 155.912C63.4616 155.784 63.643 155.72 63.8776 155.72H69.6856C69.867 155.72 70.0056 155.768 70.1016 155.864C70.1976 155.96 70.2456 156.093 70.2456 156.264C70.2456 156.445 70.1976 156.584 70.1016 156.68C70.0056 156.776 69.867 156.824 69.6856 156.824H64.4696V160.76H69.3496C69.531 160.76 69.6696 160.808 69.7656 160.904C69.8723 161 69.9256 161.133 69.9256 161.304C69.9256 161.485 69.8723 161.624 69.7656 161.72C69.6696 161.816 69.531 161.864 69.3496 161.864H64.4696V166.392C64.4696 166.872 64.267 167.112 63.8616 167.112ZM72.6432 167C72.4086 167 72.2273 166.941 72.0993 166.824C71.9819 166.696 71.9233 166.515 71.9233 166.28V156.44C71.9233 156.205 71.9819 156.029 72.0993 155.912C72.2273 155.784 72.4086 155.72 72.6432 155.72H78.5953C78.7766 155.72 78.9153 155.768 79.0113 155.864C79.1073 155.96 79.1553 156.093 79.1553 156.264C79.1553 156.445 79.1073 156.584 79.0113 156.68C78.9153 156.776 78.7766 156.824 78.5953 156.824H73.2033V160.728H78.2593C78.4406 160.728 78.5793 160.776 78.6753 160.872C78.7713 160.957 78.8193 161.091 78.8193 161.272C78.8193 161.453 78.7713 161.592 78.6753 161.688C78.5793 161.784 78.4406 161.832 78.2593 161.832H73.2033V165.896H78.5953C78.7766 165.896 78.9153 165.944 79.0113 166.04C79.1073 166.136 79.1553 166.269 79.1553 166.44C79.1553 166.621 79.1073 166.76 79.0113 166.856C78.9153 166.952 78.7766 167 78.5953 167H72.6432ZM84.6594 167.144C83.3687 167.144 82.3874 166.648 81.7154 165.656C81.0434 164.664 80.7074 163.229 80.7074 161.352C80.7074 160.093 80.8567 159.037 81.1554 158.184C81.454 157.32 81.8967 156.669 82.4834 156.232C83.0807 155.795 83.806 155.576 84.6594 155.576C85.9607 155.576 86.942 156.067 87.6034 157.048C88.2754 158.019 88.6114 159.448 88.6114 161.336C88.6114 162.595 88.462 163.656 88.1634 164.52C87.8647 165.384 87.422 166.04 86.8354 166.488C86.2487 166.925 85.5234 167.144 84.6594 167.144ZM84.6594 166.008C85.5554 166.008 86.2167 165.629 86.6434 164.872C87.0807 164.104 87.2994 162.925 87.2994 161.336C87.2994 159.736 87.0807 158.568 86.6434 157.832C86.2167 157.085 85.5554 156.712 84.6594 156.712C83.774 156.712 83.1127 157.085 82.6754 157.832C82.238 158.579 82.0194 159.747 82.0194 161.336C82.0194 162.925 82.238 164.104 82.6754 164.872C83.1127 165.629 83.774 166.008 84.6594 166.008ZM90.6051 167.112C90.4345 167.112 90.2958 167.075 90.1891 167C90.0931 166.915 90.0345 166.808 90.0131 166.68C90.0025 166.541 90.0345 166.387 90.1091 166.216L94.5091 156.2C94.6051 155.987 94.7171 155.837 94.8451 155.752C94.9838 155.656 95.1331 155.608 95.2931 155.608C95.4531 155.608 95.5971 155.656 95.7251 155.752C95.8638 155.837 95.9758 155.987 96.0611 156.2L100.477 166.216C100.562 166.387 100.594 166.541 100.573 166.68C100.562 166.819 100.509 166.925 100.413 167C100.317 167.075 100.184 167.112 100.013 167.112C99.8211 167.112 99.6665 167.064 99.5491 166.968C99.4318 166.861 99.3358 166.712 99.2611 166.52L98.0771 163.784L98.7171 164.12H91.8371L92.4931 163.784L91.3251 166.52C91.2291 166.723 91.1278 166.872 91.0211 166.968C90.9145 167.064 90.7758 167.112 90.6051 167.112ZM95.2771 157.256L92.7011 163.32L92.3171 163.016H98.2371L97.8851 163.32L95.3091 157.256H95.2771ZM103.221 167C102.987 167 102.805 166.941 102.677 166.824C102.56 166.696 102.501 166.515 102.501 166.28V156.44C102.501 156.205 102.56 156.029 102.677 155.912C102.805 155.784 102.987 155.72 103.221 155.72H109.173C109.355 155.72 109.493 155.768 109.589 155.864C109.685 155.96 109.733 156.093 109.733 156.264C109.733 156.445 109.685 156.584 109.589 156.68C109.493 156.776 109.355 156.824 109.173 156.824H103.781V160.728H108.837C109.019 160.728 109.157 160.776 109.253 160.872C109.349 160.957 109.397 161.091 109.397 161.272C109.397 161.453 109.349 161.592 109.253 161.688C109.157 161.784 109.019 161.832 108.837 161.832H103.781V165.896H109.173C109.355 165.896 109.493 165.944 109.589 166.04C109.685 166.136 109.733 166.269 109.733 166.44C109.733 166.621 109.685 166.76 109.589 166.856C109.493 166.952 109.355 167 109.173 167H103.221Z" fill="black"/>
<path d="M69.98 213C69.756 213 69.58 212.936 69.452 212.808C69.324 212.68 69.26 212.509 69.26 212.296C69.26 212.072 69.324 211.901 69.452 211.784C69.58 211.667 69.756 211.608 69.98 211.608H71.932V203.096H72.764L70.428 204.584C70.2573 204.68 70.0973 204.717 69.948 204.696C69.8093 204.675 69.6867 204.616 69.58 204.52C69.484 204.424 69.4147 204.307 69.372 204.168C69.34 204.029 69.3507 203.885 69.404 203.736C69.468 203.587 69.58 203.464 69.74 203.368L71.948 201.976C72.1293 201.869 72.3 201.784 72.46 201.72C72.6307 201.645 72.7907 201.608 72.94 201.608C73.1213 201.608 73.2707 201.661 73.388 201.768C73.516 201.864 73.58 202.029 73.58 202.264V211.608H75.372C75.6067 211.608 75.788 211.667 75.916 211.784C76.044 211.901 76.108 212.072 76.108 212.296C76.108 212.52 76.044 212.696 75.916 212.824C75.788 212.941 75.6067 213 75.372 213H69.98ZM81.8938 213.144C80.5818 213.144 79.5791 212.648 78.8858 211.656C78.2031 210.653 77.8618 209.219 77.8618 207.352C77.8618 206.083 78.0164 205.021 78.3258 204.168C78.6351 203.315 79.0884 202.669 79.6858 202.232C80.2831 201.795 81.0191 201.576 81.8938 201.576C83.2164 201.576 84.2191 202.067 84.9018 203.048C85.5844 204.019 85.9258 205.448 85.9258 207.336C85.9258 208.584 85.7711 209.64 85.4618 210.504C85.1524 211.368 84.6991 212.024 84.1018 212.472C83.5044 212.92 82.7684 213.144 81.8938 213.144ZM81.8938 211.768C82.7151 211.768 83.3178 211.411 83.7018 210.696C84.0964 209.971 84.2938 208.851 84.2938 207.336C84.2938 205.811 84.0964 204.701 83.7018 204.008C83.3178 203.304 82.7151 202.952 81.8938 202.952C81.0831 202.952 80.4804 203.304 80.0858 204.008C79.6911 204.701 79.4938 205.811 79.4938 207.336C79.4938 208.851 79.6911 209.971 80.0858 210.696C80.4804 211.411 81.0831 211.768 81.8938 211.768ZM91.4875 213.144C90.1755 213.144 89.1728 212.648 88.4795 211.656C87.7968 210.653 87.4555 209.219 87.4555 207.352C87.4555 206.083 87.6102 205.021 87.9195 204.168C88.2288 203.315 88.6822 202.669 89.2795 202.232C89.8768 201.795 90.6128 201.576 91.4875 201.576C92.8102 201.576 93.8128 202.067 94.4955 203.048C95.1782 204.019 95.5195 205.448 95.5195 207.336C95.5195 208.584 95.3648 209.64 95.0555 210.504C94.7462 211.368 94.2928 212.024 93.6955 212.472C93.0982 212.92 92.3622 213.144 91.4875 213.144ZM91.4875 211.768C92.3088 211.768 92.9115 211.411 93.2955 210.696C93.6902 209.971 93.8875 208.851 93.8875 207.336C93.8875 205.811 93.6902 204.701 93.2955 204.008C92.9115 203.304 92.3088 202.952 91.4875 202.952C90.6768 202.952 90.0742 203.304 89.6795 204.008C89.2848 204.701 89.0875 205.811 89.0875 207.336C89.0875 208.851 89.2848 209.971 89.6795 210.696C90.0742 211.411 90.6768 211.768 91.4875 211.768Z" fill="#7A7575"/>
<rect x="163" y="52" width="100" height="133" rx="8" fill="#D9D9D9"/>
<rect x="175" y="64" width="76" height="71" rx="4" fill="#FFB640"/>
<path d="M186.096 167.112C185.872 167.112 185.696 167.053 185.568 166.936C185.451 166.808 185.392 166.627 185.392 166.392V156.44C185.392 156.205 185.451 156.029 185.568 155.912C185.696 155.784 185.877 155.72 186.112 155.72H191.92C192.101 155.72 192.24 155.768 192.336 155.864C192.432 155.96 192.48 156.093 192.48 156.264C192.48 156.445 192.432 156.584 192.336 156.68C192.24 156.776 192.101 156.824 191.92 156.824H186.704V160.76H191.584C191.765 160.76 191.904 160.808 192 160.904C192.107 161 192.16 161.133 192.16 161.304C192.16 161.485 192.107 161.624 192 161.72C191.904 161.816 191.765 161.864 191.584 161.864H186.704V166.392C186.704 166.872 186.501 167.112 186.096 167.112ZM194.862 167.112C194.638 167.112 194.462 167.053 194.334 166.936C194.216 166.808 194.158 166.627 194.158 166.392V156.44C194.158 156.205 194.216 156.029 194.334 155.912C194.462 155.784 194.643 155.72 194.878 155.72H200.686C200.867 155.72 201.006 155.768 201.102 155.864C201.198 155.96 201.246 156.093 201.246 156.264C201.246 156.445 201.198 156.584 201.102 156.68C201.006 156.776 200.867 156.824 200.686 156.824H195.47V160.76H200.35C200.531 160.76 200.67 160.808 200.766 160.904C200.872 161 200.926 161.133 200.926 161.304C200.926 161.485 200.872 161.624 200.766 161.72C200.67 161.816 200.531 161.864 200.35 161.864H195.47V166.392C195.47 166.872 195.267 167.112 194.862 167.112ZM203.643 167C203.409 167 203.227 166.941 203.099 166.824C202.982 166.696 202.923 166.515 202.923 166.28V156.44C202.923 156.205 202.982 156.029 203.099 155.912C203.227 155.784 203.409 155.72 203.643 155.72H207.435C208.214 155.72 208.87 155.837 209.403 156.072C209.947 156.296 210.363 156.627 210.651 157.064C210.939 157.501 211.083 158.035 211.083 158.664C211.083 159.368 210.875 159.955 210.459 160.424C210.054 160.893 209.499 161.203 208.795 161.352V161.128C209.595 161.224 210.219 161.512 210.667 161.992C211.126 162.472 211.355 163.107 211.355 163.896C211.355 164.899 211.03 165.667 210.379 166.2C209.729 166.733 208.811 167 207.627 167H203.643ZM204.203 165.944H207.499C208.353 165.944 208.993 165.773 209.419 165.432C209.846 165.091 210.059 164.573 210.059 163.88C210.059 163.176 209.846 162.659 209.419 162.328C208.993 161.987 208.353 161.816 207.499 161.816H204.203V165.944ZM204.203 160.76H207.243C208.075 160.76 208.705 160.589 209.131 160.248C209.569 159.907 209.787 159.416 209.787 158.776C209.787 158.115 209.569 157.619 209.131 157.288C208.705 156.947 208.075 156.776 207.243 156.776H204.203V160.76ZM217.528 167.144C216.642 167.144 215.885 166.931 215.256 166.504C214.637 166.067 214.168 165.437 213.848 164.616C213.528 163.795 213.368 162.803 213.368 161.64C213.368 160.659 213.469 159.795 213.672 159.048C213.874 158.301 214.173 157.672 214.568 157.16C214.962 156.637 215.442 156.243 216.008 155.976C216.573 155.709 217.213 155.576 217.928 155.576C218.418 155.576 218.92 155.672 219.432 155.864C219.954 156.056 220.413 156.328 220.808 156.68C220.925 156.765 220.994 156.872 221.016 157C221.048 157.117 221.048 157.235 221.016 157.352C220.984 157.459 220.925 157.549 220.84 157.624C220.765 157.699 220.669 157.741 220.552 157.752C220.434 157.752 220.312 157.704 220.184 157.608C219.821 157.299 219.448 157.08 219.064 156.952C218.68 156.813 218.29 156.744 217.896 156.744C217.202 156.744 216.61 156.915 216.12 157.256C215.64 157.597 215.272 158.115 215.016 158.808C214.77 159.491 214.648 160.349 214.648 161.384V162.872H214.504C214.568 162.264 214.744 161.741 215.032 161.304C215.33 160.856 215.709 160.515 216.168 160.28C216.626 160.045 217.144 159.928 217.72 159.928C218.381 159.928 218.968 160.077 219.48 160.376C219.992 160.675 220.392 161.096 220.68 161.64C220.968 162.173 221.112 162.787 221.112 163.48C221.112 164.184 220.962 164.813 220.664 165.368C220.365 165.923 219.944 166.36 219.4 166.68C218.856 166.989 218.232 167.144 217.528 167.144ZM217.448 166.024C217.917 166.024 218.333 165.923 218.696 165.72C219.058 165.507 219.341 165.213 219.544 164.84C219.746 164.456 219.848 164.019 219.848 163.528C219.848 163.037 219.746 162.605 219.544 162.232C219.341 161.859 219.058 161.565 218.696 161.352C218.333 161.139 217.917 161.032 217.448 161.032C216.978 161.032 216.562 161.139 216.2 161.352C215.837 161.565 215.554 161.859 215.352 162.232C215.149 162.605 215.048 163.037 215.048 163.528C215.048 164.019 215.149 164.456 215.352 164.84C215.554 165.213 215.837 165.507 216.2 165.72C216.562 165.923 216.978 166.024 217.448 166.024ZM228.626 167.112C228.423 167.112 228.263 167.053 228.146 166.936C228.028 166.819 227.97 166.653 227.97 166.44V164.584H223.378C223.164 164.584 222.994 164.536 222.866 164.44C222.748 164.333 222.69 164.184 222.69 163.992C222.69 163.875 222.716 163.757 222.77 163.64C222.823 163.512 222.919 163.352 223.058 163.16L227.938 156.056C228.034 155.907 228.14 155.795 228.258 155.72C228.375 155.645 228.514 155.608 228.674 155.608C228.844 155.608 228.988 155.661 229.106 155.768C229.234 155.875 229.298 156.045 229.298 156.28V163.464H230.466C230.668 163.464 230.823 163.512 230.93 163.608C231.036 163.704 231.09 163.843 231.09 164.024C231.09 164.205 231.036 164.344 230.93 164.44C230.823 164.536 230.668 164.584 230.466 164.584H229.298V166.44C229.298 166.653 229.239 166.819 229.122 166.936C229.004 167.053 228.839 167.112 228.626 167.112ZM227.97 163.464V157.256H228.354L223.874 163.816V163.464H227.97ZM236.331 167.144C235.041 167.144 234.059 166.648 233.387 165.656C232.715 164.664 232.379 163.229 232.379 161.352C232.379 160.093 232.529 159.037 232.827 158.184C233.126 157.32 233.569 156.669 234.155 156.232C234.753 155.795 235.478 155.576 236.331 155.576C237.633 155.576 238.614 156.067 239.275 157.048C239.947 158.019 240.283 159.448 240.283 161.336C240.283 162.595 240.134 163.656 239.835 164.52C239.537 165.384 239.094 166.04 238.507 166.488C237.921 166.925 237.195 167.144 236.331 167.144ZM236.331 166.008C237.227 166.008 237.889 165.629 238.315 164.872C238.753 164.104 238.971 162.925 238.971 161.336C238.971 159.736 238.753 158.568 238.315 157.832C237.889 157.085 237.227 156.712 236.331 156.712C235.446 156.712 234.785 157.085 234.347 157.832C233.91 158.579 233.691 159.747 233.691 161.336C233.691 162.925 233.91 164.104 234.347 164.872C234.785 165.629 235.446 166.008 236.331 166.008Z" fill="black"/>
<path d="M203.124 210.144C202.527 210.144 201.919 210.064 201.3 209.904C200.681 209.733 200.143 209.483 199.684 209.152C199.513 209.045 199.396 208.917 199.332 208.768C199.279 208.608 199.268 208.464 199.3 208.336C199.332 208.197 199.396 208.08 199.492 207.984C199.599 207.888 199.727 207.835 199.876 207.824C200.025 207.803 200.191 207.845 200.372 207.952C200.831 208.229 201.279 208.432 201.716 208.56C202.153 208.677 202.607 208.736 203.076 208.736C203.588 208.736 204.02 208.661 204.372 208.512C204.724 208.363 204.985 208.144 205.156 207.856C205.337 207.568 205.428 207.221 205.428 206.816C205.428 206.208 205.225 205.755 204.82 205.456C204.425 205.147 203.849 204.992 203.092 204.992H202.004C201.759 204.992 201.572 204.933 201.444 204.816C201.316 204.688 201.252 204.512 201.252 204.288C201.252 204.075 201.316 203.909 201.444 203.792C201.572 203.664 201.759 203.6 202.004 203.6H202.932C203.391 203.6 203.78 203.525 204.1 203.376C204.42 203.216 204.665 202.997 204.836 202.72C205.017 202.432 205.108 202.085 205.108 201.68C205.108 201.136 204.927 200.72 204.564 200.432C204.212 200.133 203.695 199.984 203.012 199.984C202.575 199.984 202.159 200.043 201.764 200.16C201.38 200.277 200.98 200.485 200.564 200.784C200.404 200.891 200.249 200.939 200.1 200.928C199.961 200.907 199.839 200.853 199.732 200.768C199.636 200.672 199.567 200.555 199.524 200.416C199.492 200.277 199.503 200.133 199.556 199.984C199.609 199.835 199.716 199.707 199.876 199.6C200.324 199.269 200.831 199.019 201.396 198.848C201.961 198.667 202.543 198.576 203.14 198.576C203.887 198.576 204.527 198.693 205.06 198.928C205.604 199.163 206.015 199.499 206.292 199.936C206.58 200.373 206.724 200.896 206.724 201.504C206.724 201.963 206.639 202.379 206.468 202.752C206.297 203.125 206.052 203.445 205.732 203.712C205.423 203.968 205.044 204.149 204.596 204.256V204.08C205.375 204.208 205.977 204.528 206.404 205.04C206.831 205.541 207.044 206.171 207.044 206.928C207.044 207.589 206.884 208.165 206.564 208.656C206.255 209.136 205.807 209.504 205.22 209.76C204.633 210.016 203.935 210.144 203.124 210.144ZM212.894 210.144C211.582 210.144 210.579 209.648 209.886 208.656C209.203 207.653 208.862 206.219 208.862 204.352C208.862 203.083 209.016 202.021 209.326 201.168C209.635 200.315 210.088 199.669 210.686 199.232C211.283 198.795 212.019 198.576 212.894 198.576C214.216 198.576 215.219 199.067 215.902 200.048C216.584 201.019 216.926 202.448 216.926 204.336C216.926 205.584 216.771 206.64 216.462 207.504C216.152 208.368 215.699 209.024 215.102 209.472C214.504 209.92 213.768 210.144 212.894 210.144ZM212.894 208.768C213.715 208.768 214.318 208.411 214.702 207.696C215.096 206.971 215.294 205.851 215.294 204.336C215.294 202.811 215.096 201.701 214.702 201.008C214.318 200.304 213.715 199.952 212.894 199.952C212.083 199.952 211.48 200.304 211.086 201.008C210.691 201.701 210.494 202.811 210.494 204.336C210.494 205.851 210.691 206.971 211.086 207.696C211.48 208.411 212.083 208.768 212.894 208.768ZM222.488 210.144C221.176 210.144 220.173 209.648 219.48 208.656C218.797 207.653 218.456 206.219 218.456 204.352C218.456 203.083 218.61 202.021 218.92 201.168C219.229 200.315 219.682 199.669 220.28 199.232C220.877 198.795 221.613 198.576 222.488 198.576C223.81 198.576 224.813 199.067 225.496 200.048C226.178 201.019 226.52 202.448 226.52 204.336C226.52 205.584 226.365 206.64 226.056 207.504C225.746 208.368 225.293 209.024 224.696 209.472C224.098 209.92 223.362 210.144 222.488 210.144ZM222.488 208.768C223.309 208.768 223.912 208.411 224.296 207.696C224.69 206.971 224.888 205.851 224.888 204.336C224.888 202.811 224.69 201.701 224.296 201.008C223.912 200.304 223.309 199.952 222.488 199.952C221.677 199.952 221.074 200.304 220.68 201.008C220.285 201.701 220.088 202.811 220.088 204.336C220.088 205.851 220.285 206.971 220.68 207.696C221.074 208.411 221.677 208.768 222.488 208.768Z" fill="#7A7575"/>
<rect x="294" y="52" width="100" height="133" rx="8" fill="#D9D9D9"/>
<rect x="306" y="64" width="76" height="71" rx="4" fill="#F77900"/>
<path d="M317.596 167.112C317.372 167.112 317.196 167.053 317.068 166.936C316.951 166.808 316.892 166.627 316.892 166.392V156.44C316.892 156.205 316.951 156.029 317.068 155.912C317.196 155.784 317.377 155.72 317.612 155.72H323.42C323.601 155.72 323.74 155.768 323.836 155.864C323.932 155.96 323.98 156.093 323.98 156.264C323.98 156.445 323.932 156.584 323.836 156.68C323.74 156.776 323.601 156.824 323.42 156.824H318.204V160.76H323.084C323.265 160.76 323.404 160.808 323.5 160.904C323.607 161 323.66 161.133 323.66 161.304C323.66 161.485 323.607 161.624 323.5 161.72C323.404 161.816 323.265 161.864 323.084 161.864H318.204V166.392C318.204 166.872 318.001 167.112 317.596 167.112ZM326.954 167.112C326.804 167.112 326.676 167.075 326.57 167C326.463 166.925 326.394 166.824 326.362 166.696C326.34 166.557 326.372 166.408 326.458 166.248L331.594 156.28V156.856H325.834C325.642 156.856 325.492 156.808 325.386 156.712C325.279 156.605 325.226 156.461 325.226 156.28C325.226 156.099 325.279 155.96 325.386 155.864C325.492 155.768 325.642 155.72 325.834 155.72H332.186C332.378 155.72 332.532 155.768 332.65 155.864C332.767 155.96 332.826 156.099 332.826 156.28C332.826 156.429 332.804 156.563 332.762 156.68C332.73 156.787 332.682 156.909 332.618 157.048L327.69 166.664C327.615 166.813 327.519 166.925 327.402 167C327.284 167.075 327.135 167.112 326.954 167.112ZM336.547 167.112C336.398 167.112 336.27 167.075 336.163 167C336.057 166.925 335.987 166.824 335.955 166.696C335.934 166.557 335.966 166.408 336.051 166.248L341.187 156.28V156.856H335.427C335.235 156.856 335.086 156.808 334.979 156.712C334.873 156.605 334.819 156.461 334.819 156.28C334.819 156.099 334.873 155.96 334.979 155.864C335.086 155.768 335.235 155.72 335.427 155.72H341.779C341.971 155.72 342.126 155.768 342.243 155.864C342.361 155.96 342.419 156.099 342.419 156.28C342.419 156.429 342.398 156.563 342.355 156.68C342.323 156.787 342.275 156.909 342.211 157.048L337.283 166.664C337.209 166.813 337.113 166.925 336.995 167C336.878 167.075 336.729 167.112 336.547 167.112ZM347.469 167.144C346.989 167.144 346.488 167.048 345.965 166.856C345.442 166.664 344.984 166.387 344.589 166.024C344.472 165.939 344.397 165.837 344.365 165.72C344.344 165.603 344.349 165.491 344.381 165.384C344.413 165.267 344.466 165.171 344.541 165.096C344.626 165.011 344.728 164.968 344.845 164.968C344.962 164.957 345.085 165 345.213 165.096C345.576 165.405 345.949 165.629 346.333 165.768C346.717 165.907 347.106 165.976 347.501 165.976C348.194 165.976 348.781 165.805 349.261 165.464C349.752 165.123 350.12 164.605 350.365 163.912C350.621 163.219 350.749 162.36 350.749 161.336V159.848H350.893C350.829 160.445 350.648 160.968 350.349 161.416C350.061 161.864 349.688 162.205 349.229 162.44C348.77 162.675 348.253 162.792 347.677 162.792C347.016 162.792 346.429 162.643 345.917 162.344C345.405 162.045 345.005 161.624 344.717 161.08C344.429 160.536 344.285 159.923 344.285 159.24C344.285 158.525 344.434 157.896 344.733 157.352C345.042 156.797 345.464 156.365 345.997 156.056C346.541 155.736 347.165 155.576 347.869 155.576C348.754 155.576 349.506 155.795 350.125 156.232C350.754 156.659 351.229 157.283 351.549 158.104C351.869 158.925 352.029 159.917 352.029 161.08C352.029 162.061 351.928 162.925 351.725 163.672C351.522 164.419 351.224 165.053 350.829 165.576C350.434 166.088 349.954 166.477 349.389 166.744C348.824 167.011 348.184 167.144 347.469 167.144ZM347.949 161.688C348.429 161.688 348.85 161.581 349.213 161.368C349.576 161.155 349.858 160.861 350.061 160.488C350.264 160.104 350.365 159.667 350.365 159.176C350.365 158.685 350.264 158.253 350.061 157.88C349.858 157.507 349.576 157.213 349.213 157C348.85 156.787 348.429 156.68 347.949 156.68C347.48 156.68 347.064 156.787 346.701 157C346.349 157.213 346.066 157.507 345.853 157.88C345.65 158.253 345.549 158.685 345.549 159.176C345.549 159.667 345.65 160.104 345.853 160.488C346.066 160.861 346.349 161.155 346.701 161.368C347.064 161.581 347.48 161.688 347.949 161.688ZM357.847 167.144C356.556 167.144 355.575 166.648 354.903 165.656C354.231 164.664 353.895 163.229 353.895 161.352C353.895 160.093 354.044 159.037 354.343 158.184C354.642 157.32 355.084 156.669 355.671 156.232C356.268 155.795 356.994 155.576 357.847 155.576C359.148 155.576 360.13 156.067 360.791 157.048C361.463 158.019 361.799 159.448 361.799 161.336C361.799 162.595 361.65 163.656 361.351 164.52C361.052 165.384 360.61 166.04 360.023 166.488C359.436 166.925 358.711 167.144 357.847 167.144ZM357.847 166.008C358.743 166.008 359.404 165.629 359.831 164.872C360.268 164.104 360.487 162.925 360.487 161.336C360.487 159.736 360.268 158.568 359.831 157.832C359.404 157.085 358.743 156.712 357.847 156.712C356.962 156.712 356.3 157.085 355.863 157.832C355.426 158.579 355.207 159.747 355.207 161.336C355.207 162.925 355.426 164.104 355.863 164.872C356.3 165.629 356.962 166.008 357.847 166.008ZM367.441 167.144C366.15 167.144 365.169 166.648 364.497 165.656C363.825 164.664 363.489 163.229 363.489 161.352C363.489 160.093 363.638 159.037 363.937 158.184C364.235 157.32 364.678 156.669 365.265 156.232C365.862 155.795 366.587 155.576 367.441 155.576C368.742 155.576 369.723 156.067 370.385 157.048C371.057 158.019 371.393 159.448 371.393 161.336C371.393 162.595 371.243 163.656 370.945 164.52C370.646 165.384 370.203 166.04 369.617 166.488C369.03 166.925 368.305 167.144 367.441 167.144ZM367.441 166.008C368.337 166.008 368.998 165.629 369.425 164.872C369.862 164.104 370.081 162.925 370.081 161.336C370.081 159.736 369.862 158.568 369.425 157.832C368.998 157.085 368.337 156.712 367.441 156.712C366.555 156.712 365.894 157.085 365.457 157.832C365.019 158.579 364.801 159.747 364.801 161.336C364.801 162.925 365.019 164.104 365.457 164.872C365.894 165.629 366.555 166.008 367.441 166.008Z" fill="black"/>
<path d="M332.22 210.112C332.028 210.112 331.863 210.069 331.724 209.984C331.596 209.888 331.516 209.76 331.484 209.6C331.463 209.429 331.5 209.243 331.596 209.04L336.604 199.488V200.112H331.1C330.865 200.112 330.684 200.053 330.556 199.936C330.428 199.808 330.364 199.637 330.364 199.424C330.364 199.2 330.428 199.029 330.556 198.912C330.684 198.784 330.865 198.72 331.1 198.72H337.388C337.623 198.72 337.809 198.784 337.948 198.912C338.097 199.029 338.172 199.2 338.172 199.424C338.172 199.616 338.145 199.781 338.092 199.92C338.049 200.059 337.985 200.213 337.9 200.384L333.148 209.568C333.052 209.76 332.929 209.899 332.78 209.984C332.631 210.069 332.444 210.112 332.22 210.112ZM343.894 210.144C342.582 210.144 341.579 209.648 340.886 208.656C340.203 207.653 339.862 206.219 339.862 204.352C339.862 203.083 340.016 202.021 340.326 201.168C340.635 200.315 341.088 199.669 341.686 199.232C342.283 198.795 343.019 198.576 343.894 198.576C345.216 198.576 346.219 199.067 346.902 200.048C347.584 201.019 347.926 202.448 347.926 204.336C347.926 205.584 347.771 206.64 347.462 207.504C347.152 208.368 346.699 209.024 346.102 209.472C345.504 209.92 344.768 210.144 343.894 210.144ZM343.894 208.768C344.715 208.768 345.318 208.411 345.702 207.696C346.096 206.971 346.294 205.851 346.294 204.336C346.294 202.811 346.096 201.701 345.702 201.008C345.318 200.304 344.715 199.952 343.894 199.952C343.083 199.952 342.48 200.304 342.086 201.008C341.691 201.701 341.494 202.811 341.494 204.336C341.494 205.851 341.691 206.971 342.086 207.696C342.48 208.411 343.083 208.768 343.894 208.768ZM353.488 210.144C352.176 210.144 351.173 209.648 350.48 208.656C349.797 207.653 349.456 206.219 349.456 204.352C349.456 203.083 349.61 202.021 349.92 201.168C350.229 200.315 350.682 199.669 351.28 199.232C351.877 198.795 352.613 198.576 353.488 198.576C354.81 198.576 355.813 199.067 356.496 200.048C357.178 201.019 357.52 202.448 357.52 204.336C357.52 205.584 357.365 206.64 357.056 207.504C356.746 208.368 356.293 209.024 355.696 209.472C355.098 209.92 354.362 210.144 353.488 210.144ZM353.488 208.768C354.309 208.768 354.912 208.411 355.296 207.696C355.69 206.971 355.888 205.851 355.888 204.336C355.888 202.811 355.69 201.701 355.296 201.008C354.912 200.304 354.309 199.952 353.488 199.952C352.677 199.952 352.074 200.304 351.68 201.008C351.285 201.701 351.088 202.811 351.088 204.336C351.088 205.851 351.285 206.971 351.68 207.696C352.074 208.411 352.677 208.768 353.488 208.768Z" fill="#7A7575"/>
</svg>
