<svg width="884" height="840" viewBox="0 0 884 840" fill="none" xmlns="http://www.w3.org/2000/svg">
<rect x="580.521" y="236.656" width="293.257" height="593.345" rx="18" fill="#232323"/>
<rect x="580.521" y="236.656" width="293.257" height="593.345" rx="18" stroke="#F5F5F5" stroke-width="20"/>
<rect x="786.107" y="637.125" width="28.2436" height="28.2436" rx="14.1218" fill="#008786"/>
<path d="M798.535 654.636C798.775 654.636 798.976 654.554 799.139 654.392C799.301 654.23 799.382 654.029 799.382 653.788V648.683C799.382 648.443 799.301 648.246 799.139 648.09C798.976 647.935 798.775 647.857 798.535 647.857C798.295 647.857 798.094 647.938 797.932 648.1C797.769 648.263 797.688 648.465 797.688 648.705V653.81C797.688 654.05 797.769 654.247 797.932 654.403C798.094 654.558 798.295 654.636 798.535 654.636ZM801.924 654.636C802.164 654.636 802.365 654.554 802.528 654.392C802.69 654.23 802.771 654.029 802.771 653.788V648.683C802.771 648.443 802.69 648.246 802.528 648.09C802.365 647.935 802.164 647.857 801.924 647.857C801.684 647.857 801.483 647.938 801.321 648.1C801.158 648.263 801.077 648.465 801.077 648.705V653.81C801.077 654.05 801.158 654.247 801.321 654.403C801.483 654.558 801.684 654.636 801.924 654.636ZM800.229 659.72C799.057 659.72 797.956 659.497 796.925 659.052C795.894 658.607 794.997 658.004 794.235 657.241C793.472 656.479 792.869 655.582 792.424 654.551C791.979 653.52 791.756 652.419 791.756 651.247C791.756 650.074 791.979 648.973 792.424 647.942C792.869 646.911 793.472 646.014 794.235 645.252C794.997 644.489 795.894 643.885 796.925 643.44C797.956 642.996 799.057 642.773 800.229 642.773C801.402 642.773 802.503 642.996 803.534 643.44C804.565 643.885 805.462 644.489 806.224 645.252C806.987 646.014 807.59 646.911 808.035 647.942C808.48 648.973 808.703 650.074 808.703 651.247C808.703 652.419 808.48 653.52 808.035 654.551C807.59 655.582 806.987 656.479 806.224 657.241C805.462 658.004 804.565 658.607 803.534 659.052C802.503 659.497 801.402 659.72 800.229 659.72ZM800.229 658.025C802.108 658.025 803.707 657.365 805.028 656.045C806.348 654.724 807.008 653.125 807.008 651.247C807.008 649.368 806.348 647.769 805.028 646.448C803.707 645.128 802.108 644.468 800.229 644.468C798.351 644.468 796.752 645.128 795.432 646.448C794.111 647.769 793.451 649.368 793.451 651.247C793.451 653.125 794.111 654.724 795.432 656.045C796.752 657.365 798.351 658.025 800.229 658.025Z" fill="#FCF9F9"/>
<rect x="639.241" y="637.125" width="28.2436" height="28.2436" rx="14.1218" fill="#008786"/>
<path d="M644.89 652.35C645.091 653.875 645.705 655.316 646.666 656.52C647.628 657.724 648.9 658.644 650.347 659.183C651.794 659.722 653.361 659.858 654.879 659.577C656.398 659.297 657.812 658.61 658.968 657.591C660.125 656.571 660.981 655.258 661.444 653.791C661.908 652.324 661.962 650.759 661.6 649.264C661.238 647.769 660.474 646.4 659.39 645.304C658.306 644.208 656.943 643.427 655.447 643.044C651.3 641.985 647.007 644.11 645.422 648.071" stroke="#FCF9F9" stroke-width="1.28802" stroke-linecap="round" stroke-linejoin="round"/>
<path d="M645.361 643.016V648.447H651.245" stroke="#FCF9F9" stroke-width="1.41218" stroke-linecap="round" stroke-linejoin="round"/>
<path d="M673.904 282.682C673.844 282.75 673.76 282.784 673.65 282.784C673.251 282.784 672.616 282.419 671.743 281.691C670.879 280.954 670.112 280.221 669.443 279.492C669.485 279.721 669.566 280.106 669.684 280.649C669.735 280.86 669.777 281.064 669.811 281.259C669.854 281.454 669.875 281.606 669.875 281.716C669.875 281.962 669.786 282.11 669.608 282.161C669.566 282.271 669.451 281.996 669.265 281.335C669.087 280.674 668.917 279.911 668.756 279.047C668.604 278.174 668.528 277.446 668.528 276.861C668.528 276.565 668.553 276.323 668.604 276.137C668.714 276.052 668.807 276.01 668.883 276.01C669.036 276.01 669.142 276.141 669.201 276.404C669.261 276.658 669.316 277.06 669.366 277.611L669.392 277.903C669.722 277.886 670.171 277.814 670.739 277.687C671.315 277.56 671.828 277.386 672.277 277.166C672.734 276.937 672.963 276.666 672.963 276.353C672.963 276.183 672.84 275.997 672.595 275.794C672.357 275.582 671.989 275.404 671.489 275.26C670.998 275.116 670.392 275.044 669.671 275.044H669.265C668.782 275.044 668.405 275.124 668.134 275.285C667.862 275.438 667.727 275.768 667.727 276.276C667.6 276.276 667.485 276.196 667.384 276.035C667.282 275.874 667.231 275.726 667.231 275.59C667.231 275.065 667.481 274.722 667.981 274.561C668.489 274.4 669.218 274.319 670.167 274.319C670.667 274.319 671.188 274.4 671.73 274.561C672.273 274.722 672.73 274.976 673.103 275.323C673.476 275.662 673.662 276.086 673.662 276.594C673.662 276.942 673.506 277.23 673.192 277.458C672.887 277.687 672.527 277.865 672.112 277.992C671.697 278.119 671.188 278.251 670.587 278.386C670.087 278.496 669.76 278.577 669.608 278.628C670.26 279.509 670.887 280.195 671.489 280.687C672.099 281.178 672.734 281.623 673.395 282.021C673.624 282.157 673.785 282.258 673.878 282.326C673.972 282.394 674.018 282.458 674.018 282.517C674.018 282.576 673.98 282.631 673.904 282.682ZM677.542 282.25C676.999 282.25 676.5 282.144 676.042 281.932C675.584 281.72 675.22 281.42 674.949 281.03C674.678 280.64 674.542 280.191 674.542 279.683C674.542 279.115 674.648 278.585 674.86 278.094C675.072 277.594 675.381 277.196 675.788 276.899C676.203 276.594 676.686 276.442 677.237 276.442C677.813 276.442 678.249 276.628 678.546 277.001C678.842 277.365 678.982 277.827 678.965 278.386C678.965 278.886 678.766 279.267 678.368 279.53C677.978 279.793 677.478 279.924 676.868 279.924C676.775 279.924 676.635 279.916 676.449 279.899C676.144 279.865 675.928 279.818 675.8 279.759C675.673 279.7 675.61 279.581 675.61 279.403C675.61 279.344 675.627 279.301 675.661 279.276C675.695 279.242 675.762 279.225 675.864 279.225C675.974 279.225 676.169 279.251 676.449 279.301C676.72 279.352 676.961 279.378 677.173 279.378C677.953 279.378 678.342 279.039 678.342 278.361C678.342 277.954 678.266 277.632 678.114 277.395C677.97 277.158 677.711 277.039 677.338 277.039C676.932 277.039 676.567 277.149 676.245 277.37C675.923 277.581 675.673 277.861 675.495 278.208C675.326 278.556 675.241 278.924 675.241 279.314C675.241 279.983 675.428 280.534 675.8 280.966C676.173 281.39 676.749 281.602 677.529 281.602C677.622 281.602 677.779 281.593 677.999 281.576C678.092 281.568 678.207 281.542 678.342 281.5C678.478 281.458 678.575 281.428 678.635 281.411C678.999 281.284 679.266 281.221 679.435 281.221C679.563 281.221 679.66 281.254 679.728 281.322C679.516 281.644 679.198 281.881 678.775 282.034C678.359 282.178 677.948 282.25 677.542 282.25ZM683.385 282.263C682.394 282.263 681.622 282.038 681.072 281.589C680.529 281.132 680.258 280.428 680.258 279.479C680.258 278.996 680.377 278.539 680.614 278.107C680.86 277.666 681.186 277.314 681.593 277.052C682.008 276.781 682.453 276.645 682.927 276.645C683.41 276.645 683.821 276.751 684.16 276.963C684.499 277.166 684.669 277.463 684.669 277.852C684.669 278.124 684.618 278.318 684.516 278.437C684.423 278.547 684.317 278.602 684.198 278.602C684.198 278.196 684.088 277.865 683.868 277.611C683.648 277.357 683.334 277.23 682.927 277.23C682.521 277.23 682.169 277.34 681.872 277.56C681.576 277.772 681.347 278.056 681.186 278.412C681.034 278.759 680.957 279.123 680.957 279.505C680.957 280.31 681.228 280.856 681.771 281.144C682.321 281.432 683.046 281.576 683.944 281.576C684.249 281.576 684.647 281.559 685.139 281.526C685.156 281.526 685.194 281.542 685.253 281.576C685.312 281.61 685.359 281.631 685.393 281.64V281.716C685.393 281.962 685.177 282.114 684.745 282.174C684.313 282.233 683.859 282.263 683.385 282.263ZM688.556 282.263C688.056 282.263 687.602 282.153 687.196 281.932C686.797 281.703 686.484 281.39 686.255 280.992C686.035 280.585 685.925 280.123 685.925 279.606C685.925 278.759 686.234 278.128 686.852 277.713C687.48 277.297 688.246 277.09 689.153 277.09C689.568 277.09 689.954 277.192 690.31 277.395C690.674 277.598 690.966 277.891 691.186 278.272C691.407 278.653 691.517 279.094 691.517 279.594C691.517 280.136 691.377 280.61 691.098 281.017C690.818 281.415 690.449 281.725 689.992 281.945C689.543 282.157 689.064 282.263 688.556 282.263ZM688.416 281.538C689.204 281.538 689.801 281.36 690.208 281.004C690.615 280.649 690.818 280.127 690.818 279.441C690.818 278.975 690.657 278.573 690.335 278.234C690.021 277.895 689.581 277.725 689.013 277.725C688.632 277.725 688.246 277.797 687.857 277.941C687.467 278.085 687.145 278.302 686.891 278.59C686.636 278.878 686.509 279.225 686.509 279.632C686.509 279.971 686.594 280.288 686.764 280.585C686.933 280.873 687.162 281.106 687.45 281.284C687.746 281.454 688.068 281.538 688.416 281.538ZM693.665 282.25C693.318 281.572 693.042 280.776 692.839 279.861C692.644 278.945 692.547 278.153 692.547 277.484C692.547 277.221 692.606 277.052 692.725 276.976C692.793 276.933 692.843 276.912 692.877 276.912C692.937 276.912 692.979 276.959 693.004 277.052C693.038 277.145 693.072 277.314 693.106 277.56L693.17 278.018C693.263 277.56 693.441 277.2 693.703 276.937C693.975 276.666 694.305 276.531 694.695 276.531C695.127 276.531 695.449 276.615 695.661 276.785C695.872 276.946 695.978 277.217 695.978 277.598C695.555 277.395 695.169 277.293 694.822 277.293C694.491 277.293 694.208 277.382 693.97 277.56C693.733 277.738 693.568 278.001 693.475 278.348C693.398 278.585 693.36 278.81 693.36 279.022C693.36 279.251 693.39 279.467 693.449 279.67C693.517 279.865 693.619 280.106 693.754 280.394C693.881 280.691 693.979 280.945 694.047 281.157C694.123 281.369 694.165 281.598 694.174 281.843C694.174 281.987 694.123 282.093 694.021 282.161C693.919 282.22 693.801 282.25 693.665 282.25ZM698.674 282.237C698.276 282.237 697.928 282.102 697.632 281.831C697.343 281.559 697.123 281.208 696.971 280.776C696.827 280.344 696.755 279.894 696.755 279.428C696.755 278.615 696.924 277.929 697.263 277.37C697.61 276.81 698.136 276.531 698.839 276.531C699.263 276.531 699.631 276.607 699.945 276.759C700.267 276.903 700.686 277.149 701.203 277.497L701.533 277.725C701.491 277.446 701.427 277.124 701.343 276.759C701.258 276.395 701.203 276.145 701.178 276.01C701.033 275.349 700.928 274.857 700.86 274.535C700.8 274.205 700.771 273.912 700.771 273.658C700.771 273.209 700.898 272.985 701.152 272.985C701.245 273.188 701.355 273.624 701.483 274.294C701.61 274.955 701.771 275.861 701.966 277.014C702.169 278.234 702.347 279.229 702.499 280C702.652 280.771 702.779 281.254 702.881 281.449C702.881 281.644 702.737 281.742 702.448 281.742C702.228 281.742 702.076 281.615 701.991 281.36C701.915 281.106 701.868 280.661 701.851 280.026H701.749C701.394 280.67 700.932 281.199 700.364 281.615C699.796 282.03 699.233 282.237 698.674 282.237ZM698.839 281.615C699.186 281.615 699.559 281.47 699.957 281.182C700.364 280.886 700.707 280.53 700.987 280.115C701.266 279.691 701.406 279.31 701.406 278.971V278.59C700.534 277.675 699.729 277.217 698.991 277.217C698.475 277.217 698.076 277.408 697.797 277.789C697.517 278.162 697.377 278.653 697.377 279.263L697.39 279.53C697.441 280.174 697.585 280.682 697.822 281.055C698.059 281.428 698.398 281.615 698.839 281.615Z" fill="#CBF3C4"/>
<rect x="652.853" y="300.597" width="65.2726" height="25.2979" rx="3.84968" fill="#EAFBE8"/>
<rect x="652.853" y="300.597" width="65.2726" height="25.2979" rx="3.84968" stroke="#FFE0AE" stroke-width="1.09991"/>
<path d="M682.177 317.874C682.074 317.874 681.987 317.853 681.915 317.812C681.843 317.771 681.735 317.689 681.592 317.566L681.73 316.749C681.915 315.61 682.059 314.66 682.161 313.901C682.264 313.131 682.336 312.34 682.377 311.529C682.028 311.837 681.556 312.34 680.96 313.038C680.611 313.449 680.339 313.752 680.144 313.947C679.959 314.132 679.816 314.224 679.713 314.224C679.631 314.214 679.554 314.168 679.482 314.085C679.42 313.993 679.39 313.885 679.39 313.762C679.39 313.618 679.441 313.49 679.544 313.377L682.254 310.482C682.346 310.379 682.418 310.241 682.469 310.066C682.521 309.892 682.572 309.651 682.623 309.343C682.685 308.953 682.757 308.66 682.839 308.465C682.921 308.26 683.055 308.157 683.239 308.157C683.321 308.157 683.383 308.167 683.424 308.188C683.465 308.198 683.501 308.234 683.532 308.296L683.547 308.804C683.547 308.988 683.455 309.887 683.27 311.498C683.096 313.1 682.906 314.563 682.7 315.887C682.495 317.211 682.321 317.874 682.177 317.874ZM690.667 317.242C690.472 317.242 690.262 317.222 690.036 317.181C689.82 317.129 689.605 317.078 689.389 317.027C688.855 316.873 688.424 316.796 688.095 316.796C687.787 316.796 687.444 316.821 687.064 316.873C686.499 316.924 686.145 316.95 686.001 316.95C685.385 316.95 684.913 316.837 684.585 316.611C684.266 316.385 684.087 316.062 684.046 315.641C684.025 315.384 684.097 315.204 684.261 315.102C684.425 314.989 684.687 314.932 685.046 314.932C685.252 314.932 685.442 314.963 685.616 315.025C685.801 315.076 686.037 315.158 686.325 315.271C686.612 315.394 686.869 315.487 687.095 315.548C687.32 315.61 687.562 315.641 687.818 315.641C688.095 315.641 688.378 315.466 688.665 315.117C688.963 314.768 689.204 314.311 689.389 313.747C689.584 313.182 689.682 312.592 689.682 311.976C689.682 311.216 689.574 310.631 689.358 310.22C689.153 309.799 688.763 309.589 688.188 309.589C687.1 309.589 686.314 310.22 685.832 311.483C685.647 311.411 685.514 311.319 685.431 311.206C685.36 311.083 685.324 310.918 685.324 310.713C685.324 310.415 685.437 310.128 685.662 309.851C685.899 309.563 686.227 309.332 686.648 309.158C687.079 308.973 687.577 308.881 688.142 308.881C688.953 308.881 689.558 309.158 689.959 309.712C690.369 310.267 690.575 310.995 690.575 311.899C690.575 312.802 690.385 313.618 690.005 314.347C689.635 315.066 689.184 315.636 688.65 316.056C688.906 316.159 689.153 316.226 689.389 316.257C689.635 316.287 689.902 316.303 690.19 316.303C690.539 316.313 690.78 316.349 690.913 316.411C691.057 316.462 691.129 316.595 691.129 316.811C691.129 316.903 691.083 317.001 690.99 317.104C690.898 317.196 690.79 317.242 690.667 317.242Z" fill="#767474"/>
<path d="M757.96 281.767C758.655 281.767 759.193 281.67 759.574 281.475C759.956 281.28 760.146 280.996 760.146 280.623C760.146 280.293 760.032 280.009 759.803 279.772C759.574 279.526 759.291 279.318 758.952 279.149C758.613 278.979 758.151 278.78 757.566 278.552C757.515 278.535 757.393 278.488 757.198 278.412C756.401 278.09 755.787 277.768 755.355 277.446C754.931 277.124 754.719 276.709 754.719 276.2C754.719 275.633 754.944 275.205 755.393 274.917C755.842 274.628 756.418 274.484 757.121 274.484C757.638 274.484 758.113 274.552 758.545 274.688C758.986 274.815 759.333 274.993 759.587 275.222C759.85 275.45 759.981 275.709 759.981 275.997C759.879 276.048 759.782 276.073 759.689 276.073C759.587 276.073 759.481 276.052 759.371 276.01C759.269 275.959 759.117 275.878 758.914 275.768C758.583 275.59 758.274 275.45 757.986 275.349C757.698 275.239 757.359 275.183 756.969 275.183C756.478 275.183 756.079 275.268 755.774 275.438C755.469 275.607 755.317 275.844 755.317 276.149C755.317 276.387 755.418 276.603 755.622 276.798C755.834 276.992 756.096 277.166 756.41 277.319C756.732 277.463 757.16 277.636 757.693 277.84C758.371 278.102 758.93 278.348 759.371 278.577C759.812 278.806 760.184 279.098 760.49 279.454C760.803 279.801 760.96 280.216 760.96 280.699C760.96 281.267 760.689 281.708 760.146 282.021C759.604 282.326 758.93 282.479 758.126 282.479C757.49 282.479 756.863 282.386 756.245 282.199C755.626 282.013 755.096 281.737 754.656 281.373C754.215 281 753.936 280.555 753.817 280.039C753.817 279.81 753.881 279.615 754.008 279.454C754.135 279.284 754.291 279.2 754.478 279.2C754.478 279.75 754.63 280.221 754.935 280.61C755.249 280.992 755.668 281.28 756.194 281.475C756.727 281.67 757.316 281.767 757.96 281.767ZM765.117 282.263C764.126 282.263 763.355 282.038 762.804 281.589C762.262 281.132 761.991 280.428 761.991 279.479C761.991 278.996 762.109 278.539 762.346 278.107C762.592 277.666 762.918 277.314 763.325 277.052C763.74 276.781 764.185 276.645 764.66 276.645C765.143 276.645 765.553 276.751 765.892 276.963C766.231 277.166 766.401 277.463 766.401 277.852C766.401 278.124 766.35 278.318 766.248 278.437C766.155 278.547 766.049 278.602 765.931 278.602C765.931 278.196 765.82 277.865 765.6 277.611C765.38 277.357 765.066 277.23 764.66 277.23C764.253 277.23 763.901 277.34 763.605 277.56C763.308 277.772 763.079 278.056 762.918 278.412C762.766 278.759 762.69 279.123 762.69 279.505C762.69 280.31 762.961 280.856 763.503 281.144C764.054 281.432 764.778 281.576 765.676 281.576C765.981 281.576 766.38 281.559 766.871 281.526C766.888 281.526 766.926 281.542 766.985 281.576C767.045 281.61 767.091 281.631 767.125 281.64V281.716C767.125 281.962 766.909 282.114 766.477 282.174C766.045 282.233 765.592 282.263 765.117 282.263ZM770.288 282.263C769.788 282.263 769.335 282.153 768.928 281.932C768.53 281.703 768.216 281.39 767.987 280.992C767.767 280.585 767.657 280.123 767.657 279.606C767.657 278.759 767.966 278.128 768.585 277.713C769.212 277.297 769.979 277.09 770.885 277.09C771.3 277.09 771.686 277.192 772.042 277.395C772.406 277.598 772.698 277.891 772.919 278.272C773.139 278.653 773.249 279.094 773.249 279.594C773.249 280.136 773.109 280.61 772.83 281.017C772.55 281.415 772.182 281.725 771.724 281.945C771.275 282.157 770.796 282.263 770.288 282.263ZM770.148 281.538C770.936 281.538 771.533 281.36 771.94 281.004C772.347 280.649 772.55 280.127 772.55 279.441C772.55 278.975 772.389 278.573 772.067 278.234C771.754 277.895 771.313 277.725 770.745 277.725C770.364 277.725 769.979 277.797 769.589 277.941C769.199 278.085 768.877 278.302 768.623 278.59C768.369 278.878 768.242 279.225 768.242 279.632C768.242 279.971 768.326 280.288 768.496 280.585C768.665 280.873 768.894 281.106 769.182 281.284C769.479 281.454 769.801 281.538 770.148 281.538ZM775.398 282.25C775.05 281.572 774.775 280.776 774.571 279.861C774.377 278.945 774.279 278.153 774.279 277.484C774.279 277.221 774.338 277.052 774.457 276.976C774.525 276.933 774.576 276.912 774.61 276.912C774.669 276.912 774.711 276.959 774.737 277.052C774.771 277.145 774.804 277.314 774.838 277.56L774.902 278.018C774.995 277.56 775.173 277.2 775.436 276.937C775.707 276.666 776.037 276.531 776.427 276.531C776.859 276.531 777.181 276.615 777.393 276.785C777.605 276.946 777.711 277.217 777.711 277.598C777.287 277.395 776.901 277.293 776.554 277.293C776.224 277.293 775.94 277.382 775.703 277.56C775.465 277.738 775.3 278.001 775.207 278.348C775.131 278.585 775.092 278.81 775.092 279.022C775.092 279.251 775.122 279.467 775.181 279.67C775.249 279.865 775.351 280.106 775.486 280.394C775.614 280.691 775.711 280.945 775.779 281.157C775.855 281.369 775.897 281.598 775.906 281.843C775.906 281.987 775.855 282.093 775.753 282.161C775.652 282.22 775.533 282.25 775.398 282.25ZM781.232 282.25C780.69 282.25 780.19 282.144 779.732 281.932C779.275 281.72 778.911 281.42 778.639 281.03C778.368 280.64 778.233 280.191 778.233 279.683C778.233 279.115 778.339 278.585 778.55 278.094C778.762 277.594 779.071 277.196 779.478 276.899C779.893 276.594 780.376 276.442 780.927 276.442C781.503 276.442 781.94 276.628 782.236 277.001C782.533 277.365 782.673 277.827 782.656 278.386C782.656 278.886 782.456 279.267 782.058 279.53C781.668 279.793 781.169 279.924 780.559 279.924C780.465 279.924 780.326 279.916 780.139 279.899C779.834 279.865 779.618 279.818 779.491 279.759C779.364 279.7 779.3 279.581 779.3 279.403C779.3 279.344 779.317 279.301 779.351 279.276C779.385 279.242 779.453 279.225 779.554 279.225C779.665 279.225 779.859 279.251 780.139 279.301C780.41 279.352 780.652 279.378 780.864 279.378C781.643 279.378 782.033 279.039 782.033 278.361C782.033 277.954 781.957 277.632 781.804 277.395C781.66 277.158 781.402 277.039 781.029 277.039C780.622 277.039 780.258 277.149 779.936 277.37C779.614 277.581 779.364 277.861 779.186 278.208C779.016 278.556 778.932 278.924 778.932 279.314C778.932 279.983 779.118 280.534 779.491 280.966C779.864 281.39 780.44 281.602 781.219 281.602C781.313 281.602 781.469 281.593 781.69 281.576C781.783 281.568 781.897 281.542 782.033 281.5C782.168 281.458 782.266 281.428 782.325 281.411C782.689 281.284 782.956 281.221 783.126 281.221C783.253 281.221 783.35 281.254 783.418 281.322C783.206 281.644 782.889 281.881 782.465 282.034C782.05 282.178 781.639 282.25 781.232 282.25Z" fill="#CBF3C4"/>
<rect x="736.172" y="300.597" width="65.2726" height="25.2979" rx="3.84968" fill="#EAFBE8"/>
<rect x="736.172" y="300.597" width="65.2726" height="25.2979" rx="3.84968" stroke="#FFE0AE" stroke-width="1.09991"/>
<path d="M765.496 317.874C765.393 317.874 765.306 317.853 765.234 317.812C765.162 317.771 765.054 317.689 764.91 317.566L765.049 316.749C765.234 315.61 765.378 314.66 765.48 313.901C765.583 313.131 765.655 312.34 765.696 311.529C765.347 311.837 764.875 312.34 764.279 313.038C763.93 313.449 763.658 313.752 763.463 313.947C763.278 314.132 763.135 314.224 763.032 314.224C762.95 314.214 762.873 314.168 762.801 314.085C762.739 313.993 762.708 313.885 762.708 313.762C762.708 313.618 762.76 313.49 762.862 313.377L765.573 310.482C765.665 310.379 765.737 310.241 765.788 310.066C765.84 309.892 765.891 309.651 765.942 309.343C766.004 308.953 766.076 308.66 766.158 308.465C766.24 308.26 766.373 308.157 766.558 308.157C766.64 308.157 766.702 308.167 766.743 308.188C766.784 308.198 766.82 308.234 766.851 308.296L766.866 308.804C766.866 308.988 766.774 309.887 766.589 311.498C766.414 313.1 766.225 314.563 766.019 315.887C765.814 317.211 765.639 317.874 765.496 317.874ZM773.986 317.242C773.791 317.242 773.58 317.222 773.355 317.181C773.139 317.129 772.923 317.078 772.708 317.027C772.174 316.873 771.743 316.796 771.414 316.796C771.106 316.796 770.762 316.821 770.383 316.873C769.818 316.924 769.464 316.95 769.32 316.95C768.704 316.95 768.232 316.837 767.903 316.611C767.585 316.385 767.405 316.062 767.364 315.641C767.344 315.384 767.416 315.204 767.58 315.102C767.744 314.989 768.006 314.932 768.365 314.932C768.571 314.932 768.761 314.963 768.935 315.025C769.12 315.076 769.356 315.158 769.643 315.271C769.931 315.394 770.188 315.487 770.413 315.548C770.639 315.61 770.88 315.641 771.137 315.641C771.414 315.641 771.697 315.466 771.984 315.117C772.282 314.768 772.523 314.311 772.708 313.747C772.903 313.182 773 312.592 773 311.976C773 311.216 772.893 310.631 772.677 310.22C772.472 309.799 772.082 309.589 771.507 309.589C770.419 309.589 769.633 310.22 769.151 311.483C768.966 311.411 768.832 311.319 768.75 311.206C768.678 311.083 768.643 310.918 768.643 310.713C768.643 310.415 768.755 310.128 768.981 309.851C769.217 309.563 769.546 309.332 769.967 309.158C770.398 308.973 770.896 308.881 771.46 308.881C772.271 308.881 772.877 309.158 773.278 309.712C773.688 310.267 773.893 310.995 773.893 311.899C773.893 312.802 773.704 313.618 773.324 314.347C772.954 315.066 772.502 315.636 771.969 316.056C772.225 316.159 772.472 316.226 772.708 316.257C772.954 316.287 773.221 316.303 773.509 316.303C773.858 316.313 774.099 316.349 774.232 316.411C774.376 316.462 774.448 316.595 774.448 316.811C774.448 316.903 774.402 317.001 774.309 317.104C774.217 317.196 774.109 317.242 773.986 317.242Z" fill="#767474"/>
<rect x="601.112" y="351.158" width="251.368" height="251.368" rx="4.23654" fill="white"/>
<rect x="601.112" y="351.158" width="251.368" height="251.368" rx="4.23654" stroke="#575757" stroke-width="2.82436"/>
<rect x="761.042" y="477.189" width="10.5913" height="10.5913" rx="5.29567" fill="#1FEE34" stroke="#686363" stroke-width="0.70609"/>
<rect x="693.257" y="477.197" width="10.5913" height="10.5913" rx="2.47131" fill="#BE4FD0"/>
<rect x="693.257" y="477.197" width="10.5913" height="10.5913" rx="2.47131" stroke="#6D6060" stroke-width="0.70609"/>
<rect x="693.257" y="477.197" width="10.5913" height="10.5913" rx="2.47131" stroke="#6D6060" stroke-width="0.70609"/>
<rect x="693.257" y="477.197" width="10.5913" height="10.5913" rx="2.47131" stroke="#6D6060" stroke-width="0.70609"/>
<rect x="693.257" y="465.9" width="10.5913" height="10.5913" rx="2.47131" fill="#BE4FD0"/>
<rect x="693.257" y="465.9" width="10.5913" height="10.5913" rx="2.47131" stroke="#6D6060" stroke-width="0.70609"/>
<rect x="693.257" y="465.9" width="10.5913" height="10.5913" rx="2.47131" stroke="#6D6060" stroke-width="0.70609"/>
<rect x="693.257" y="465.9" width="10.5913" height="10.5913" rx="2.47131" stroke="#6D6060" stroke-width="0.70609"/>
<rect x="681.959" y="465.9" width="10.5913" height="10.5913" rx="2.47131" fill="#BE4FD0"/>
<rect x="681.959" y="465.9" width="10.5913" height="10.5913" rx="2.47131" stroke="#6D6060" stroke-width="0.70609"/>
<rect x="681.959" y="465.9" width="10.5913" height="10.5913" rx="2.47131" stroke="#6D6060" stroke-width="0.70609"/>
<rect x="681.959" y="465.9" width="10.5913" height="10.5913" rx="2.47131" stroke="#6D6060" stroke-width="0.70609"/>
<rect x="704.554" y="477.197" width="10.5913" height="10.5913" rx="2.47131" fill="#BE4FD0"/>
<rect x="704.554" y="477.197" width="10.5913" height="10.5913" rx="2.47131" stroke="#6D6060" stroke-width="0.70609"/>
<rect x="704.554" y="477.197" width="10.5913" height="10.5913" rx="2.47131" stroke="#6D6060" stroke-width="0.70609"/>
<rect x="704.554" y="477.197" width="10.5913" height="10.5913" rx="2.47131" stroke="#6D6060" stroke-width="0.70609"/>
<rect x="715.852" y="477.197" width="10.5913" height="10.5913" rx="2.47131" fill="#BE4FD0"/>
<rect x="715.852" y="477.197" width="10.5913" height="10.5913" rx="2.47131" stroke="#6D6060" stroke-width="0.70609"/>
<rect x="715.852" y="477.197" width="10.5913" height="10.5913" rx="2.47131" stroke="#6D6060" stroke-width="0.70609"/>
<rect x="715.852" y="477.197" width="10.5913" height="10.5913" rx="2.47131" stroke="#6D6060" stroke-width="0.70609"/>
<rect x="727.149" y="477.197" width="10.5913" height="10.5913" rx="2.47131" fill="#BE4FD0"/>
<rect x="727.149" y="477.197" width="10.5913" height="10.5913" rx="2.47131" stroke="#6D6060" stroke-width="0.70609"/>
<rect x="727.149" y="477.197" width="10.5913" height="10.5913" rx="2.47131" stroke="#6D6060" stroke-width="0.70609"/>
<rect x="727.149" y="477.197" width="10.5913" height="10.5913" rx="2.47131" stroke="#6D6060" stroke-width="0.70609"/>
<rect x="670.662" y="465.9" width="10.5913" height="10.5913" rx="2.47131" fill="#BE4FD0"/>
<rect x="670.662" y="465.9" width="10.5913" height="10.5913" rx="2.47131" stroke="#6D6060" stroke-width="0.70609"/>
<rect x="670.662" y="465.9" width="10.5913" height="10.5913" rx="2.47131" stroke="#6D6060" stroke-width="0.70609"/>
<rect x="670.662" y="465.9" width="10.5913" height="10.5913" rx="2.47131" stroke="#6D6060" stroke-width="0.70609"/>
<rect x="686.196" y="698.57" width="22.5949" height="22.5949" rx="11.2974" fill="#0013F7"/>
<path d="M697.954 712.456L695.959 710.42C695.882 710.341 695.824 710.256 695.786 710.165C695.748 710.074 695.729 709.976 695.729 709.871C695.729 709.767 695.748 709.669 695.786 709.577C695.824 709.486 695.882 709.401 695.959 709.323L697.954 707.286C698.197 707.038 698.475 706.983 698.788 707.12C699.102 707.257 699.259 707.502 699.259 707.854V711.888C699.259 712.241 699.102 712.485 698.788 712.622C698.475 712.76 698.197 712.704 697.954 712.456Z" fill="#FCF9F9"/>
<rect x="746.214" y="698.57" width="22.5949" height="22.5949" rx="11.2974" fill="#DF0019"/>
<path d="M757.051 712.456C756.808 712.704 756.53 712.76 756.217 712.622C755.903 712.485 755.746 712.241 755.746 711.888V707.854C755.746 707.502 755.903 707.257 756.217 707.12C756.53 706.983 756.808 707.038 757.051 707.286L759.046 709.323C759.123 709.401 759.181 709.486 759.219 709.577C759.257 709.669 759.277 709.767 759.277 709.871C759.277 709.976 759.257 710.074 759.219 710.165C759.181 710.256 759.123 710.341 759.046 710.42L757.051 712.456Z" fill="#FCF9F9"/>
<rect x="715.852" y="668.203" width="22.5949" height="22.5949" rx="11.2974" fill="#F77900"/>
<path d="M725.133 681.265C724.78 681.265 724.535 681.108 724.399 680.794C724.261 680.481 724.317 680.203 724.565 679.96L726.601 677.965C726.68 677.888 726.764 677.83 726.856 677.792C726.947 677.754 727.045 677.734 727.15 677.734C727.254 677.734 727.352 677.754 727.443 677.792C727.535 677.83 727.62 677.888 727.698 677.965L729.734 679.96C729.982 680.203 730.038 680.481 729.9 680.794C729.764 681.108 729.519 681.265 729.167 681.265H725.133Z" fill="#FCF9F9"/>
<rect x="715.852" y="728.219" width="22.5949" height="22.5949" rx="11.2974" fill="#00AD16"/>
<path d="M726.601 741.05L724.565 739.055C724.317 738.812 724.261 738.534 724.399 738.22C724.535 737.907 724.78 737.75 725.133 737.75H729.167C729.519 737.75 729.764 737.907 729.9 738.22C730.038 738.534 729.982 738.812 729.734 739.055L727.698 741.05C727.62 741.127 727.535 741.185 727.443 741.223C727.352 741.261 727.254 741.28 727.15 741.28C727.045 741.28 726.947 741.261 726.856 741.223C726.764 741.185 726.68 741.127 726.601 741.05Z" fill="#FCF9F9"/>
<rect x="10" y="10" width="545.331" height="820" rx="18" fill="#232323"/>
<rect x="10" y="10" width="545.331" height="820" rx="18" stroke="#F5F5F5" stroke-width="20"/>
<rect x="88.4091" y="161.136" width="388.513" height="388.513" rx="6.59946" fill="#F7F4F4"/>
<rect x="88.4091" y="161.136" width="388.513" height="388.513" rx="6.59946" stroke="#767474" stroke-width="4.39964"/>
<rect x="332.211" y="349.542" width="16.4986" height="16.4986" rx="8.24932" fill="#1FEE34" stroke="#686363" stroke-width="1.09991"/>
<rect x="226.62" y="349.542" width="16.4986" height="16.4986" rx="3.84968" fill="#BE4FD0"/>
<rect x="226.62" y="349.542" width="16.4986" height="16.4986" rx="3.84968" stroke="#767474" stroke-width="1.09991"/>
<rect x="226.62" y="349.542" width="16.4986" height="16.4986" rx="3.84968" stroke="#767474" stroke-width="1.09991"/>
<rect x="226.62" y="349.542" width="16.4986" height="16.4986" rx="3.84968" stroke="#767474" stroke-width="1.09991"/>
<rect x="226.62" y="331.941" width="16.4986" height="16.4986" rx="3.84968" fill="#BE4FD0"/>
<rect x="226.62" y="331.941" width="16.4986" height="16.4986" rx="3.84968" stroke="#767474" stroke-width="1.09991"/>
<rect x="226.62" y="331.941" width="16.4986" height="16.4986" rx="3.84968" stroke="#767474" stroke-width="1.09991"/>
<rect x="226.62" y="331.941" width="16.4986" height="16.4986" rx="3.84968" stroke="#767474" stroke-width="1.09991"/>
<rect x="209.022" y="331.941" width="16.4986" height="16.4986" rx="3.84968" fill="#BE4FD0"/>
<rect x="209.022" y="331.941" width="16.4986" height="16.4986" rx="3.84968" stroke="#767474" stroke-width="1.09991"/>
<rect x="209.022" y="331.941" width="16.4986" height="16.4986" rx="3.84968" stroke="#767474" stroke-width="1.09991"/>
<rect x="209.022" y="331.941" width="16.4986" height="16.4986" rx="3.84968" stroke="#767474" stroke-width="1.09991"/>
<rect x="244.219" y="349.542" width="16.4986" height="16.4986" rx="3.84968" fill="#BE4FD0"/>
<rect x="244.219" y="349.542" width="16.4986" height="16.4986" rx="3.84968" stroke="#767474" stroke-width="1.09991"/>
<rect x="244.219" y="349.542" width="16.4986" height="16.4986" rx="3.84968" stroke="#767474" stroke-width="1.09991"/>
<rect x="244.219" y="349.542" width="16.4986" height="16.4986" rx="3.84968" stroke="#767474" stroke-width="1.09991"/>
<rect x="261.818" y="349.542" width="16.4986" height="16.4986" rx="3.84968" fill="#BE4FD0"/>
<rect x="261.818" y="349.542" width="16.4986" height="16.4986" rx="3.84968" stroke="#767474" stroke-width="1.09991"/>
<rect x="261.818" y="349.542" width="16.4986" height="16.4986" rx="3.84968" stroke="#767474" stroke-width="1.09991"/>
<rect x="261.818" y="349.542" width="16.4986" height="16.4986" rx="3.84968" stroke="#767474" stroke-width="1.09991"/>
<rect x="279.416" y="349.542" width="16.4986" height="16.4986" rx="3.84968" fill="#BE4FD0"/>
<rect x="279.416" y="349.542" width="16.4986" height="16.4986" rx="3.84968" stroke="#767474" stroke-width="1.09991"/>
<rect x="279.416" y="349.542" width="16.4986" height="16.4986" rx="3.84968" stroke="#767474" stroke-width="1.09991"/>
<rect x="279.416" y="349.542" width="16.4986" height="16.4986" rx="3.84968" stroke="#767474" stroke-width="1.09991"/>
<rect x="191.423" y="331.941" width="16.4986" height="16.4986" rx="3.84968" fill="#BE4FD0"/>
<rect x="191.423" y="331.941" width="16.4986" height="16.4986" rx="3.84968" stroke="#767474" stroke-width="1.09991"/>
<rect x="191.423" y="331.941" width="16.4986" height="16.4986" rx="3.84968" stroke="#767474" stroke-width="1.09991"/>
<rect x="191.423" y="331.941" width="16.4986" height="16.4986" rx="3.84968" stroke="#767474" stroke-width="1.09991"/>
<path d="M198.187 60.1699C198.108 60.2603 197.995 60.3055 197.849 60.3055C197.318 60.3055 196.47 59.8197 195.307 58.8481C194.154 57.8652 193.132 56.888 192.239 55.9164C192.296 56.2215 192.403 56.7355 192.561 57.4585C192.629 57.741 192.686 58.0121 192.731 58.2719C192.787 58.5318 192.816 58.7351 192.816 58.882C192.816 59.2096 192.697 59.4073 192.46 59.4751C192.403 59.622 192.251 59.2548 192.002 58.3736C191.765 57.4924 191.539 56.4757 191.324 55.3233C191.121 54.1597 191.019 53.1881 191.019 52.4086C191.019 52.0132 191.053 51.6912 191.121 51.4426C191.268 51.3297 191.392 51.2732 191.494 51.2732C191.697 51.2732 191.838 51.4483 191.917 51.7985C191.996 52.1374 192.07 52.6741 192.138 53.4084L192.172 53.7982C192.612 53.7756 193.211 53.6795 193.968 53.5101C194.736 53.3406 195.42 53.109 196.018 52.8153C196.628 52.5103 196.933 52.1487 196.933 51.7307C196.933 51.5048 196.77 51.2562 196.442 50.9851C196.126 50.7027 195.634 50.4654 194.968 50.2734C194.312 50.0813 193.505 49.9853 192.544 49.9853H192.002C191.358 49.9853 190.855 50.0926 190.494 50.3073C190.132 50.5106 189.952 50.9512 189.952 51.6291C189.782 51.6291 189.63 51.5217 189.494 51.3071C189.359 51.0924 189.291 50.8947 189.291 50.714C189.291 50.0135 189.624 49.556 190.291 49.3413C190.968 49.1267 191.94 49.0193 193.205 49.0193C193.872 49.0193 194.567 49.1267 195.29 49.3413C196.013 49.556 196.623 49.8949 197.12 50.3581C197.617 50.81 197.865 51.3749 197.865 52.0527C197.865 52.5159 197.656 52.9 197.238 53.205C196.832 53.5101 196.352 53.7473 195.798 53.9168C195.244 54.0862 194.567 54.2614 193.765 54.4421C193.098 54.589 192.663 54.6963 192.46 54.7641C193.33 55.939 194.166 56.8541 194.968 57.5094C195.781 58.1646 196.628 58.7577 197.51 59.2887C197.815 59.4695 198.029 59.605 198.154 59.6954C198.278 59.7858 198.34 59.8705 198.34 59.9496C198.34 60.0287 198.289 60.1021 198.187 60.1699ZM203.097 59.5938C202.374 59.5938 201.708 59.4525 201.098 59.1701C200.488 58.8877 200.002 58.4866 199.64 57.9669C199.279 57.4472 199.098 56.8485 199.098 56.1706C199.098 55.4137 199.239 54.7076 199.522 54.0524C199.804 53.3858 200.216 52.8548 200.759 52.4594C201.312 52.0527 201.956 51.8494 202.691 51.8494C203.459 51.8494 204.041 52.0979 204.436 52.595C204.832 53.0808 205.018 53.6965 204.995 54.4421C204.995 55.1087 204.73 55.6171 204.199 55.9673C203.679 56.3175 203.013 56.4926 202.199 56.4926C202.075 56.4926 201.889 56.4813 201.64 56.4587C201.233 56.4135 200.945 56.3514 200.776 56.2723C200.606 56.1932 200.522 56.0351 200.522 55.7978C200.522 55.7187 200.544 55.6622 200.589 55.6283C200.635 55.5832 200.725 55.5606 200.86 55.5606C201.007 55.5606 201.267 55.5945 201.64 55.6622C202.001 55.73 202.323 55.7639 202.606 55.7639C203.645 55.7639 204.165 55.312 204.165 54.4082C204.165 53.8659 204.063 53.4366 203.86 53.1203C203.668 52.804 203.323 52.6458 202.826 52.6458C202.284 52.6458 201.798 52.7927 201.369 53.0864C200.94 53.3689 200.606 53.7417 200.369 54.2049C200.143 54.6681 200.03 55.1595 200.03 55.6792C200.03 56.5717 200.279 57.306 200.776 57.8822C201.273 58.4471 202.041 58.7295 203.08 58.7295C203.205 58.7295 203.414 58.7182 203.707 58.6956C203.832 58.6843 203.984 58.6504 204.165 58.5939C204.346 58.5374 204.476 58.4979 204.555 58.4753C205.041 58.3058 205.396 58.2211 205.622 58.2211C205.792 58.2211 205.922 58.2663 206.012 58.3567C205.73 58.786 205.306 59.1023 204.741 59.3057C204.188 59.4977 203.64 59.5938 203.097 59.5938ZM210.948 59.6107C209.626 59.6107 208.598 59.3113 207.863 58.7125C207.14 58.1025 206.779 57.1648 206.779 55.8995C206.779 55.2555 206.937 54.6455 207.253 54.0693C207.581 53.4818 208.016 53.013 208.558 52.6628C209.112 52.3013 209.705 52.1205 210.337 52.1205C210.981 52.1205 211.529 52.2617 211.981 52.5441C212.433 52.8153 212.659 53.2107 212.659 53.7304C212.659 54.0919 212.591 54.3517 212.456 54.5099C212.331 54.6568 212.19 54.7302 212.032 54.7302C212.032 54.1879 211.885 53.7473 211.591 53.4084C211.298 53.0695 210.88 52.9 210.337 52.9C209.795 52.9 209.326 53.0469 208.931 53.3406C208.536 53.6231 208.23 54.0015 208.016 54.476C207.812 54.9392 207.711 55.425 207.711 55.9334C207.711 57.0066 208.072 57.7353 208.795 58.1194C209.53 58.5035 210.496 58.6956 211.693 58.6956C212.1 58.6956 212.631 58.673 213.286 58.6278C213.309 58.6278 213.36 58.6504 213.439 58.6956C213.518 58.7408 213.58 58.769 213.625 58.7803V58.882C213.625 59.2096 213.337 59.413 212.761 59.4921C212.185 59.5712 211.58 59.6107 210.948 59.6107ZM217.901 59.6107C217.235 59.6107 216.63 59.4638 216.088 59.1701C215.557 58.8651 215.139 58.4471 214.834 57.9161C214.54 57.3738 214.393 56.7581 214.393 56.0689C214.393 54.9392 214.806 54.0975 215.63 53.544C216.466 52.9904 217.489 52.7136 218.698 52.7136C219.251 52.7136 219.765 52.8492 220.24 53.1203C220.726 53.3915 221.115 53.7812 221.409 54.2896C221.703 54.798 221.85 55.3855 221.85 56.052C221.85 56.775 221.663 57.4077 221.29 57.95C220.918 58.481 220.426 58.8933 219.816 59.187C219.217 59.4695 218.579 59.6107 217.901 59.6107ZM217.715 58.6448C218.765 58.6448 219.562 58.4075 220.104 57.933C220.646 57.4585 220.918 56.7637 220.918 55.8486C220.918 55.2273 220.703 54.6907 220.274 54.2388C219.856 53.7869 219.268 53.5609 218.511 53.5609C218.003 53.5609 217.489 53.6569 216.969 53.849C216.449 54.0411 216.02 54.3291 215.681 54.7133C215.342 55.0974 215.173 55.5606 215.173 56.1028C215.173 56.5547 215.286 56.9784 215.512 57.3738C215.738 57.7579 216.043 58.0686 216.427 58.3058C216.822 58.5318 217.252 58.6448 217.715 58.6448ZM224.773 59.5938C224.31 58.69 223.943 57.628 223.672 56.4079C223.412 55.1877 223.282 54.1314 223.282 53.2389C223.282 52.8887 223.361 52.6628 223.519 52.5611C223.61 52.5046 223.677 52.4764 223.723 52.4764C223.802 52.4764 223.858 52.5385 223.892 52.6628C223.937 52.787 223.983 53.013 224.028 53.3406L224.112 53.9507C224.237 53.3406 224.474 52.8605 224.824 52.5103C225.186 52.1487 225.626 51.968 226.146 51.968C226.722 51.968 227.151 52.081 227.434 52.3069C227.716 52.5216 227.858 52.8831 227.858 53.3915C227.293 53.1203 226.779 52.9847 226.315 52.9847C225.875 52.9847 225.496 53.1034 225.18 53.3406C224.864 53.5779 224.643 53.9281 224.519 54.3913C224.417 54.7076 224.367 55.007 224.367 55.2894C224.367 55.5945 224.406 55.8825 224.485 56.1537C224.576 56.4135 224.711 56.7355 224.892 57.1196C225.061 57.515 225.191 57.8539 225.282 58.1364C225.383 58.4188 225.44 58.7238 225.451 59.0515C225.451 59.2435 225.383 59.3847 225.248 59.4751C225.112 59.5542 224.954 59.5938 224.773 59.5938ZM231.511 59.5768C230.98 59.5768 230.516 59.396 230.121 59.0345C229.737 58.673 229.443 58.2042 229.24 57.628C229.048 57.0518 228.952 56.4531 228.952 55.8317C228.952 54.7471 229.178 53.8321 229.63 53.0864C230.093 52.3408 230.793 51.968 231.731 51.968C232.296 51.968 232.787 52.0697 233.205 52.273C233.635 52.4651 234.194 52.7927 234.883 53.2559L235.324 53.5609C235.267 53.1881 235.182 52.7588 235.069 52.273C234.956 51.7872 234.883 51.4539 234.849 51.2732C234.657 50.392 234.516 49.7367 234.425 49.3074C234.346 48.8668 234.307 48.4771 234.307 48.1381C234.307 47.5394 234.476 47.24 234.815 47.24C234.939 47.5111 235.086 48.093 235.256 48.9855C235.425 49.8667 235.64 51.0755 235.9 52.6119C236.171 54.2388 236.408 55.5662 236.611 56.5943C236.815 57.6223 236.984 58.2663 237.12 58.5261C237.12 58.786 236.928 58.9159 236.544 58.9159C236.25 58.9159 236.047 58.7464 235.934 58.4075C235.832 58.0686 235.77 57.4755 235.747 56.6282H235.612C235.137 57.4868 234.521 58.1929 233.764 58.7464C233.008 59.3 232.256 59.5768 231.511 59.5768ZM231.731 58.7464C232.194 58.7464 232.691 58.5544 233.222 58.1703C233.764 57.7749 234.222 57.3004 234.595 56.7468C234.968 56.1819 235.154 55.6735 235.154 55.2216V54.7133C233.99 53.4931 232.917 52.8831 231.934 52.8831C231.245 52.8831 230.714 53.1373 230.341 53.6456C229.969 54.1427 229.782 54.798 229.782 55.6114L229.799 55.9673C229.867 56.8259 230.059 57.5037 230.375 58.0008C230.692 58.4979 231.143 58.7464 231.731 58.7464Z" fill="#CBF3C4"/>
<rect x="153.295" y="73.9406" width="120.348" height="25.2979" rx="3.84968" fill="#EAFBE8"/>
<rect x="153.295" y="73.9406" width="120.348" height="25.2979" rx="3.84968" stroke="#FFE0AE" stroke-width="1.09991"/>
<path d="M210.156 91.2173C210.053 91.2173 209.966 91.1968 209.894 91.1557C209.822 91.1146 209.714 91.0325 209.571 90.9093L209.709 90.0932C209.894 88.9537 210.038 88.0041 210.14 87.2444C210.243 86.4745 210.315 85.684 210.356 84.873C210.007 85.181 209.535 85.684 208.939 86.3821C208.59 86.7927 208.318 87.0956 208.123 87.2906C207.938 87.4754 207.795 87.5678 207.692 87.5678C207.61 87.5575 207.533 87.5113 207.461 87.4292C207.399 87.3368 207.369 87.229 207.369 87.1058C207.369 86.9621 207.42 86.8338 207.523 86.7209L210.233 83.8259C210.325 83.7232 210.397 83.5846 210.448 83.4101C210.5 83.2356 210.551 82.9944 210.602 82.6864C210.664 82.2963 210.736 82.0037 210.818 81.8087C210.9 81.6033 211.034 81.5007 211.218 81.5007C211.3 81.5007 211.362 81.511 211.403 81.5315C211.444 81.5418 211.48 81.5777 211.511 81.6393L211.526 82.1474C211.526 82.3322 211.434 83.2305 211.249 84.8422C211.075 86.4437 210.885 87.9066 210.679 89.2308C210.474 90.5551 210.3 91.2173 210.156 91.2173ZM218.646 90.5859C218.451 90.5859 218.241 90.5654 218.015 90.5243C217.799 90.473 217.584 90.4217 217.368 90.3704C216.834 90.2164 216.403 90.1394 216.074 90.1394C215.766 90.1394 215.423 90.165 215.043 90.2164C214.478 90.2677 214.124 90.2934 213.98 90.2934C213.364 90.2934 212.892 90.1804 212.564 89.9546C212.245 89.7287 212.066 89.4054 212.025 88.9845C212.004 88.7278 212.076 88.5482 212.24 88.4455C212.404 88.3326 212.666 88.2761 213.025 88.2761C213.231 88.2761 213.421 88.3069 213.595 88.3685C213.78 88.4198 214.016 88.502 214.304 88.6149C214.591 88.7381 214.848 88.8305 215.074 88.8921C215.299 88.9537 215.541 88.9845 215.797 88.9845C216.074 88.9845 216.357 88.81 216.644 88.4609C216.942 88.1119 217.183 87.655 217.368 87.0904C217.563 86.5258 217.661 85.9355 217.661 85.3196C217.661 84.5599 217.553 83.9747 217.337 83.5641C217.132 83.1432 216.742 82.9328 216.167 82.9328C215.079 82.9328 214.293 83.5641 213.811 84.8268C213.626 84.755 213.493 84.6626 213.41 84.5496C213.339 84.4264 213.303 84.2622 213.303 84.0569C213.303 83.7592 213.416 83.4717 213.641 83.1945C213.878 82.9071 214.206 82.6761 214.627 82.5016C215.058 82.3168 215.556 82.2244 216.121 82.2244C216.932 82.2244 217.537 82.5016 217.938 83.056C218.348 83.6103 218.554 84.3392 218.554 85.2426C218.554 86.146 218.364 86.9621 217.984 87.691C217.614 88.4096 217.163 88.9793 216.629 89.4002C216.885 89.5029 217.132 89.5696 217.368 89.6004C217.614 89.6312 217.881 89.6466 218.169 89.6466C218.518 89.6569 218.759 89.6928 218.892 89.7544C219.036 89.8057 219.108 89.9392 219.108 90.1548C219.108 90.2472 219.062 90.3447 218.969 90.4473C218.877 90.5397 218.769 90.5859 218.646 90.5859Z" fill="#767474"/>
<path d="M337.565 58.9498C338.491 58.9498 339.208 58.8199 339.717 58.56C340.225 58.3002 340.479 57.9217 340.479 57.4246C340.479 56.984 340.327 56.6056 340.022 56.2892C339.717 55.9616 339.338 55.6848 338.886 55.4589C338.435 55.2329 337.819 54.9674 337.039 54.6624C336.971 54.6398 336.808 54.5777 336.548 54.476C335.486 54.0467 334.667 53.6174 334.091 53.1881C333.526 52.7588 333.243 52.2052 333.243 51.5274C333.243 50.7704 333.543 50.1999 334.141 49.8158C334.74 49.4317 335.508 49.2396 336.446 49.2396C337.135 49.2396 337.768 49.33 338.344 49.5108C338.932 49.6802 339.395 49.9175 339.734 50.2225C340.084 50.5276 340.259 50.8721 340.259 51.2562C340.123 51.324 339.994 51.3579 339.869 51.3579C339.734 51.3579 339.592 51.3297 339.446 51.2732C339.31 51.2054 339.107 51.0981 338.836 50.9512C338.395 50.714 337.983 50.5276 337.598 50.392C337.214 50.2451 336.762 50.1717 336.243 50.1717C335.588 50.1717 335.057 50.2847 334.65 50.5106C334.243 50.7366 334.04 51.0529 334.04 51.4596C334.04 51.7759 334.175 52.064 334.447 52.3238C334.729 52.5837 335.079 52.8153 335.497 53.0186C335.926 53.2107 336.497 53.4423 337.209 53.7134C338.113 54.0637 338.858 54.3913 339.446 54.6963C340.033 55.0013 340.53 55.3911 340.937 55.8656C341.355 56.3288 341.564 56.8824 341.564 57.5263C341.564 58.2832 341.202 58.8707 340.479 59.2887C339.756 59.6954 338.858 59.8988 337.785 59.8988C336.938 59.8988 336.102 59.7745 335.277 59.526C334.452 59.2774 333.746 58.9103 333.159 58.4245C332.571 57.9274 332.198 57.3343 332.04 56.6451C332.04 56.3401 332.125 56.0802 332.294 55.8656C332.464 55.6396 332.673 55.5267 332.921 55.5267C332.921 56.261 333.125 56.888 333.531 57.4077C333.949 57.9161 334.509 58.3002 335.209 58.56C335.921 58.8199 336.706 58.9498 337.565 58.9498ZM347.166 59.6107C345.845 59.6107 344.816 59.3113 344.082 58.7125C343.359 58.1025 342.998 57.1648 342.998 55.8995C342.998 55.2555 343.156 54.6455 343.472 54.0693C343.8 53.4818 344.235 53.013 344.777 52.6628C345.33 52.3013 345.924 52.1205 346.556 52.1205C347.2 52.1205 347.748 52.2617 348.2 52.5441C348.652 52.8153 348.878 53.2107 348.878 53.7304C348.878 54.0919 348.81 54.3517 348.675 54.5099C348.55 54.6568 348.409 54.7302 348.251 54.7302C348.251 54.1879 348.104 53.7473 347.81 53.4084C347.517 53.0695 347.099 52.9 346.556 52.9C346.014 52.9 345.545 53.0469 345.15 53.3406C344.754 53.6231 344.449 54.0015 344.235 54.476C344.031 54.9392 343.93 55.425 343.93 55.9334C343.93 57.0066 344.291 57.7353 345.014 58.1194C345.748 58.5035 346.714 58.6956 347.912 58.6956C348.319 58.6956 348.85 58.673 349.505 58.6278C349.527 58.6278 349.578 58.6504 349.657 58.6956C349.736 58.7408 349.799 58.769 349.844 58.7803V58.882C349.844 59.2096 349.556 59.413 348.98 59.4921C348.403 59.5712 347.799 59.6107 347.166 59.6107ZM354.12 59.6107C353.453 59.6107 352.849 59.4638 352.307 59.1701C351.776 58.8651 351.358 58.4471 351.053 57.9161C350.759 57.3738 350.612 56.7581 350.612 56.0689C350.612 54.9392 351.024 54.0975 351.849 53.544C352.685 52.9904 353.708 52.7136 354.916 52.7136C355.47 52.7136 355.984 52.8492 356.459 53.1203C356.944 53.3915 357.334 53.7812 357.628 54.2896C357.922 54.798 358.068 55.3855 358.068 56.052C358.068 56.775 357.882 57.4077 357.509 57.95C357.136 58.481 356.645 58.8933 356.035 59.187C355.436 59.4695 354.798 59.6107 354.12 59.6107ZM353.934 58.6448C354.984 58.6448 355.781 58.4075 356.323 57.933C356.865 57.4585 357.136 56.7637 357.136 55.8486C357.136 55.2273 356.922 54.6907 356.492 54.2388C356.074 53.7869 355.487 53.5609 354.73 53.5609C354.222 53.5609 353.708 53.6569 353.188 53.849C352.668 54.0411 352.239 54.3291 351.9 54.7133C351.561 55.0974 351.392 55.5606 351.392 56.1028C351.392 56.5547 351.505 56.9784 351.731 57.3738C351.956 57.7579 352.262 58.0686 352.646 58.3058C353.041 58.5318 353.47 58.6448 353.934 58.6448ZM360.992 59.5938C360.529 58.69 360.162 57.628 359.891 56.4079C359.631 55.1877 359.501 54.1314 359.501 53.2389C359.501 52.8887 359.58 52.6628 359.738 52.5611C359.828 52.5046 359.896 52.4764 359.941 52.4764C360.021 52.4764 360.077 52.5385 360.111 52.6628C360.156 52.787 360.201 53.013 360.247 53.3406L360.331 53.9507C360.456 53.3406 360.693 52.8605 361.043 52.5103C361.404 52.1487 361.845 51.968 362.365 51.968C362.941 51.968 363.37 52.081 363.653 52.3069C363.935 52.5216 364.076 52.8831 364.076 53.3915C363.511 53.1203 362.997 52.9847 362.534 52.9847C362.094 52.9847 361.715 53.1034 361.399 53.3406C361.083 53.5779 360.862 53.9281 360.738 54.3913C360.636 54.7076 360.585 55.007 360.585 55.2894C360.585 55.5945 360.625 55.8825 360.704 56.1537C360.794 56.4135 360.93 56.7355 361.111 57.1196C361.28 57.515 361.41 57.8539 361.501 58.1364C361.602 58.4188 361.659 58.7238 361.67 59.0515C361.67 59.2435 361.602 59.3847 361.467 59.4751C361.331 59.5542 361.173 59.5938 360.992 59.5938ZM368.831 59.5938C368.108 59.5938 367.441 59.4525 366.831 59.1701C366.221 58.8877 365.735 58.4866 365.374 57.9669C365.012 57.4472 364.832 56.8485 364.832 56.1706C364.832 55.4137 364.973 54.7076 365.255 54.0524C365.538 53.3858 365.95 52.8548 366.492 52.4594C367.046 52.0527 367.69 51.8494 368.424 51.8494C369.192 51.8494 369.774 52.0979 370.17 52.595C370.565 53.0808 370.751 53.6965 370.729 54.4421C370.729 55.1087 370.463 55.6171 369.932 55.9673C369.413 56.3175 368.746 56.4926 367.933 56.4926C367.809 56.4926 367.622 56.4813 367.374 56.4587C366.967 56.4135 366.679 56.3514 366.509 56.2723C366.34 56.1932 366.255 56.0351 366.255 55.7978C366.255 55.7187 366.278 55.6622 366.323 55.6283C366.368 55.5832 366.458 55.5606 366.594 55.5606C366.741 55.5606 367.001 55.5945 367.374 55.6622C367.735 55.73 368.057 55.7639 368.339 55.7639C369.379 55.7639 369.899 55.312 369.899 54.4082C369.899 53.8659 369.797 53.4366 369.594 53.1203C369.401 52.804 369.057 52.6458 368.56 52.6458C368.018 52.6458 367.532 52.7927 367.102 53.0864C366.673 53.3689 366.34 53.7417 366.103 54.2049C365.877 54.6681 365.764 55.1595 365.764 55.6792C365.764 56.5717 366.012 57.306 366.509 57.8822C367.006 58.4471 367.775 58.7295 368.814 58.7295C368.938 58.7295 369.147 58.7182 369.441 58.6956C369.565 58.6843 369.718 58.6504 369.899 58.5939C370.079 58.5374 370.209 58.4979 370.288 58.4753C370.774 58.3058 371.13 58.2211 371.356 58.2211C371.525 58.2211 371.655 58.2663 371.746 58.3567C371.463 58.786 371.04 59.1023 370.475 59.3057C369.921 59.4977 369.373 59.5938 368.831 59.5938Z" fill="#CBF3C4"/>
<rect x="291.688" y="73.9406" width="120.348" height="25.2979" rx="3.84968" fill="#EBFFED"/>
<rect x="291.688" y="73.9406" width="120.348" height="25.2979" rx="3.84968" stroke="#FFE0AE" stroke-width="1.09991"/>
<path d="M348.549 91.2173C348.447 91.2173 348.359 91.1968 348.288 91.1557C348.216 91.1146 348.108 91.0325 347.964 90.9093L348.103 90.0932C348.288 88.9537 348.431 88.0041 348.534 87.2444C348.637 86.4745 348.708 85.684 348.75 84.873C348.4 85.181 347.928 85.684 347.333 86.3821C346.984 86.7927 346.712 87.0956 346.517 87.2906C346.332 87.4754 346.188 87.5678 346.086 87.5678C346.003 87.5575 345.926 87.5113 345.855 87.4292C345.793 87.3368 345.762 87.229 345.762 87.1058C345.762 86.9621 345.814 86.8338 345.916 86.7209L348.626 83.8259C348.719 83.7232 348.791 83.5846 348.842 83.4101C348.893 83.2356 348.945 82.9944 348.996 82.6864C349.058 82.2963 349.129 82.0037 349.211 81.8087C349.294 81.6033 349.427 81.5007 349.612 81.5007C349.694 81.5007 349.756 81.511 349.797 81.5315C349.838 81.5418 349.874 81.5777 349.904 81.6393L349.92 82.1474C349.92 82.3322 349.827 83.2305 349.643 84.8422C349.468 86.4437 349.278 87.9066 349.073 89.2308C348.868 90.5551 348.693 91.2173 348.549 91.2173ZM357.04 90.5859C356.845 90.5859 356.634 90.5654 356.408 90.5243C356.193 90.473 355.977 90.4217 355.761 90.3704C355.228 90.2164 354.797 90.1394 354.468 90.1394C354.16 90.1394 353.816 90.165 353.436 90.2164C352.872 90.2677 352.517 90.2934 352.374 90.2934C351.758 90.2934 351.286 90.1804 350.957 89.9546C350.639 89.7287 350.459 89.4054 350.418 88.9845C350.398 88.7278 350.469 88.5482 350.634 88.4455C350.798 88.3326 351.06 88.2761 351.419 88.2761C351.624 88.2761 351.814 88.3069 351.989 88.3685C352.174 88.4198 352.41 88.502 352.697 88.6149C352.985 88.7381 353.241 88.8305 353.467 88.8921C353.693 88.9537 353.934 88.9845 354.191 88.9845C354.468 88.9845 354.75 88.81 355.038 88.4609C355.335 88.1119 355.577 87.655 355.761 87.0904C355.957 86.5258 356.054 85.9355 356.054 85.3196C356.054 84.5599 355.946 83.9747 355.731 83.5641C355.525 83.1432 355.135 82.9328 354.56 82.9328C353.472 82.9328 352.687 83.5641 352.204 84.8268C352.02 84.755 351.886 84.6626 351.804 84.5496C351.732 84.4264 351.696 84.2622 351.696 84.0569C351.696 83.7592 351.809 83.4717 352.035 83.1945C352.271 82.9071 352.6 82.6761 353.021 82.5016C353.452 82.3168 353.95 82.2244 354.514 82.2244C355.325 82.2244 355.931 82.5016 356.331 83.056C356.742 83.6103 356.947 84.3392 356.947 85.2426C356.947 86.146 356.757 86.9621 356.377 87.691C356.008 88.4096 355.556 88.9793 355.022 89.4002C355.279 89.5029 355.525 89.5696 355.761 89.6004C356.008 89.6312 356.275 89.6466 356.562 89.6466C356.911 89.6569 357.153 89.6928 357.286 89.7544C357.43 89.8057 357.502 89.9392 357.502 90.1548C357.502 90.2472 357.455 90.3447 357.363 90.4473C357.271 90.5397 357.163 90.5859 357.04 90.5859Z" fill="#767474"/>
<rect x="370.221" y="601.82" width="28.2436" height="28.2436" rx="14.1218" fill="#008786"/>
<path d="M382.648 619.331C382.888 619.331 383.09 619.25 383.252 619.087C383.414 618.925 383.495 618.724 383.495 618.484V613.379C383.495 613.139 383.414 612.941 383.252 612.786C383.09 612.63 382.888 612.553 382.648 612.553C382.408 612.553 382.207 612.634 382.045 612.796C381.882 612.958 381.801 613.16 381.801 613.4V618.505C381.801 618.745 381.882 618.943 382.045 619.098C382.207 619.253 382.408 619.331 382.648 619.331ZM386.037 619.331C386.277 619.331 386.479 619.25 386.641 619.087C386.804 618.925 386.885 618.724 386.885 618.484V613.379C386.885 613.139 386.804 612.941 386.641 612.786C386.479 612.63 386.277 612.553 386.037 612.553C385.797 612.553 385.596 612.634 385.434 612.796C385.271 612.958 385.19 613.16 385.19 613.4V618.505C385.19 618.745 385.271 618.943 385.434 619.098C385.596 619.253 385.797 619.331 386.037 619.331ZM384.343 624.415C383.171 624.415 382.069 624.192 381.038 623.747C380.007 623.303 379.111 622.699 378.348 621.937C377.585 621.174 376.982 620.277 376.537 619.246C376.092 618.215 375.87 617.114 375.87 615.942C375.87 614.77 376.092 613.668 376.537 612.637C376.982 611.606 377.585 610.71 378.348 609.947C379.111 609.185 380.007 608.581 381.038 608.136C382.069 607.691 383.171 607.469 384.343 607.469C385.515 607.469 386.616 607.691 387.647 608.136C388.678 608.581 389.575 609.185 390.337 609.947C391.1 610.71 391.704 611.606 392.148 612.637C392.593 613.668 392.816 614.77 392.816 615.942C392.816 617.114 392.593 618.215 392.148 619.246C391.704 620.277 391.1 621.174 390.337 621.937C389.575 622.699 388.678 623.303 387.647 623.747C386.616 624.192 385.515 624.415 384.343 624.415ZM384.343 622.72C386.221 622.72 387.82 622.06 389.141 620.74C390.461 619.419 391.121 617.82 391.121 615.942C391.121 614.064 390.461 612.464 389.141 611.144C387.82 609.823 386.221 609.163 384.343 609.163C382.465 609.163 380.865 609.823 379.545 611.144C378.225 612.464 377.564 614.064 377.564 615.942C377.564 617.82 378.225 619.419 379.545 620.74C380.865 622.06 382.465 622.72 384.343 622.72Z" fill="#FCF9F9"/>
<rect x="173.928" y="601.82" width="28.2436" height="28.2436" rx="14.1218" fill="#008786"/>
<path d="M179.577 617.045C179.778 618.57 180.392 620.011 181.353 621.215C182.314 622.419 183.586 623.34 185.033 623.878C186.48 624.417 188.047 624.553 189.566 624.273C191.085 623.992 192.498 623.305 193.655 622.286C194.811 621.267 195.667 619.953 196.131 618.486C196.594 617.019 196.648 615.454 196.286 613.959C195.924 612.464 195.16 611.095 194.076 610C192.993 608.904 191.63 608.123 190.134 607.739C185.986 606.681 181.693 608.806 180.109 612.766" stroke="#FCF9F9" stroke-width="1.28802" stroke-linecap="round" stroke-linejoin="round"/>
<path d="M180.047 607.711V613.142H185.932" stroke="#FCF9F9" stroke-width="1.41218" stroke-linecap="round" stroke-linejoin="round"/>
<rect x="241.006" y="663.25" width="22.5949" height="22.5949" rx="11.2974" fill="#0013F7"/>
<path d="M252.764 677.136L250.769 675.099C250.692 675.021 250.635 674.936 250.596 674.845C250.558 674.753 250.539 674.655 250.539 674.551C250.539 674.446 250.558 674.349 250.596 674.257C250.635 674.166 250.692 674.081 250.769 674.003L252.764 671.966C253.007 671.718 253.285 671.663 253.599 671.8C253.912 671.937 254.069 672.181 254.069 672.534V676.568C254.069 676.92 253.912 677.165 253.599 677.302C253.285 677.439 253.007 677.384 252.764 677.136Z" fill="#FCF9F9"/>
<rect x="301.024" y="663.25" width="22.5949" height="22.5949" rx="11.2974" fill="#DF0019"/>
<path d="M311.861 677.136C311.618 677.384 311.34 677.439 311.027 677.302C310.713 677.165 310.556 676.92 310.556 676.568V672.534C310.556 672.181 310.713 671.937 311.027 671.8C311.34 671.663 311.618 671.718 311.861 671.966L313.856 674.003C313.933 674.081 313.991 674.166 314.029 674.257C314.067 674.349 314.087 674.446 314.087 674.551C314.087 674.655 314.067 674.753 314.029 674.845C313.991 674.936 313.933 675.021 313.856 675.099L311.861 677.136Z" fill="#FCF9F9"/>
<rect x="270.662" y="632.883" width="22.5949" height="22.5949" rx="11.2974" fill="#F77900"/>
<path d="M279.943 645.945C279.59 645.945 279.345 645.788 279.209 645.474C279.071 645.161 279.127 644.883 279.375 644.64L281.411 642.644C281.49 642.568 281.574 642.51 281.666 642.472C281.757 642.433 281.855 642.414 281.96 642.414C282.064 642.414 282.162 642.433 282.253 642.472C282.345 642.51 282.43 642.568 282.508 642.644L284.544 644.64C284.793 644.883 284.848 645.161 284.711 645.474C284.574 645.788 284.329 645.945 283.977 645.945H279.943Z" fill="#FCF9F9"/>
<rect x="270.662" y="692.898" width="22.5949" height="22.5949" rx="11.2974" fill="#00AD16"/>
<path d="M281.411 705.73L279.375 703.734C279.127 703.491 279.071 703.213 279.209 702.9C279.345 702.587 279.59 702.43 279.943 702.43H283.977C284.329 702.43 284.574 702.587 284.711 702.9C284.848 703.213 284.793 703.491 284.544 703.734L282.508 705.73C282.43 705.807 282.345 705.864 282.253 705.903C282.162 705.941 282.064 705.96 281.96 705.96C281.855 705.96 281.757 705.941 281.666 705.903C281.574 705.864 281.49 705.807 281.411 705.73Z" fill="#FCF9F9"/>
</svg>
