<svg width="1433" height="556" viewBox="0 0 1433 556" fill="none" xmlns="http://www.w3.org/2000/svg">
<rect x="839.976" y="257.539" width="583.024" height="288.338" rx="18" fill="#232323"/>
<rect x="839.976" y="257.539" width="583.024" height="288.338" rx="18" stroke="#F5F5F5" stroke-width="20"/>
<rect x="1327.71" y="388.18" width="27.7352" height="27.7352" rx="13.8676" fill="#008786"/>
<path d="M1339.92 405.375C1340.15 405.375 1340.35 405.295 1340.51 405.136C1340.67 404.977 1340.75 404.779 1340.75 404.543V399.53C1340.75 399.294 1340.67 399.1 1340.51 398.948C1340.35 398.795 1340.15 398.719 1339.92 398.719C1339.68 398.719 1339.48 398.798 1339.32 398.958C1339.17 399.117 1339.09 399.315 1339.09 399.551V404.564C1339.09 404.8 1339.17 404.994 1339.32 405.147C1339.48 405.299 1339.68 405.375 1339.92 405.375ZM1343.25 405.375C1343.48 405.375 1343.68 405.295 1343.84 405.136C1344 404.977 1344.08 404.779 1344.08 404.543V399.53C1344.08 399.294 1344 399.1 1343.84 398.948C1343.68 398.795 1343.48 398.719 1343.25 398.719C1343.01 398.719 1342.81 398.798 1342.65 398.958C1342.49 399.117 1342.41 399.315 1342.41 399.551V404.564C1342.41 404.8 1342.49 404.994 1342.65 405.147C1342.81 405.299 1343.01 405.375 1343.25 405.375ZM1341.58 410.368C1340.43 410.368 1339.35 410.149 1338.34 409.712C1337.32 409.275 1336.44 408.683 1335.69 407.934C1334.95 407.185 1334.35 406.304 1333.92 405.292C1333.48 404.28 1333.26 403.198 1333.26 402.047C1333.26 400.896 1333.48 399.814 1333.92 398.802C1334.35 397.79 1334.95 396.909 1335.69 396.16C1336.44 395.411 1337.32 394.818 1338.34 394.381C1339.35 393.945 1340.43 393.727 1341.58 393.727C1342.73 393.727 1343.81 393.945 1344.83 394.381C1345.84 394.818 1346.72 395.411 1347.47 396.16C1348.22 396.909 1348.81 397.79 1349.25 398.802C1349.68 399.814 1349.9 400.896 1349.9 402.047C1349.9 403.198 1349.68 404.28 1349.25 405.292C1348.81 406.304 1348.22 407.185 1347.47 407.934C1346.72 408.683 1345.84 409.275 1344.83 409.712C1343.81 410.149 1342.73 410.368 1341.58 410.368ZM1341.58 408.704C1343.43 408.704 1345 408.055 1346.29 406.759C1347.59 405.462 1348.24 403.892 1348.24 402.047C1348.24 400.203 1347.59 398.632 1346.29 397.335C1345 396.039 1343.43 395.391 1341.58 395.391C1339.74 395.391 1338.17 396.039 1336.87 397.335C1335.57 398.632 1334.92 400.203 1334.92 402.047C1334.92 403.892 1335.57 405.462 1336.87 406.759C1338.17 408.055 1339.74 408.704 1341.58 408.704Z" fill="#FCF9F9"/>
<rect x="1183.49" y="388.18" width="27.7352" height="27.7352" rx="13.8676" fill="#008786"/>
<path d="M1189.04 403.131C1189.24 404.628 1189.84 406.044 1190.78 407.226C1191.73 408.408 1192.98 409.312 1194.4 409.841C1195.82 410.37 1197.36 410.504 1198.85 410.228C1200.34 409.953 1201.73 409.278 1202.86 408.277C1204 407.276 1204.84 405.986 1205.29 404.545C1205.75 403.105 1205.8 401.568 1205.45 400.1C1205.09 398.632 1204.34 397.288 1203.28 396.212C1202.21 395.136 1200.87 394.369 1199.4 393.992C1195.33 392.953 1191.12 395.039 1189.56 398.929" stroke="#FCF9F9" stroke-width="1.26484" stroke-linecap="round" stroke-linejoin="round"/>
<path d="M1189.5 393.969V399.302H1195.28" stroke="#FCF9F9" stroke-width="1.38676" stroke-linecap="round" stroke-linejoin="round"/>
<rect x="862.457" y="278.629" width="246.843" height="246.843" rx="4.16028" fill="white"/>
<rect x="862.457" y="278.629" width="246.843" height="246.843" rx="4.16028" stroke="#575757" stroke-width="2.77352"/>
<rect x="1009.11" y="402.401" width="10.4007" height="10.4007" rx="5.20035" fill="#1FEE34" stroke="#686363" stroke-width="0.69338"/>
<rect x="941.849" y="402.401" width="10.4007" height="10.4007" rx="2.42683" fill="#BE4FD0"/>
<rect x="941.849" y="402.401" width="10.4007" height="10.4007" rx="2.42683" stroke="#6D6060" stroke-width="0.69338"/>
<rect x="941.849" y="402.401" width="10.4007" height="10.4007" rx="2.42683" stroke="#6D6060" stroke-width="0.69338"/>
<rect x="941.849" y="402.401" width="10.4007" height="10.4007" rx="2.42683" stroke="#6D6060" stroke-width="0.69338"/>
<rect x="941.849" y="391.308" width="10.4007" height="10.4007" rx="2.42683" fill="#BE4FD0"/>
<rect x="941.849" y="391.308" width="10.4007" height="10.4007" rx="2.42683" stroke="#6D6060" stroke-width="0.69338"/>
<rect x="941.849" y="391.308" width="10.4007" height="10.4007" rx="2.42683" stroke="#6D6060" stroke-width="0.69338"/>
<rect x="941.849" y="391.308" width="10.4007" height="10.4007" rx="2.42683" stroke="#6D6060" stroke-width="0.69338"/>
<rect x="930.755" y="391.308" width="10.4007" height="10.4007" rx="2.42683" fill="#BE4FD0"/>
<rect x="930.755" y="391.308" width="10.4007" height="10.4007" rx="2.42683" stroke="#6D6060" stroke-width="0.69338"/>
<rect x="930.755" y="391.308" width="10.4007" height="10.4007" rx="2.42683" stroke="#6D6060" stroke-width="0.69338"/>
<rect x="930.755" y="391.308" width="10.4007" height="10.4007" rx="2.42683" stroke="#6D6060" stroke-width="0.69338"/>
<rect x="952.943" y="402.401" width="10.4007" height="10.4007" rx="2.42683" fill="#BE4FD0"/>
<rect x="952.943" y="402.401" width="10.4007" height="10.4007" rx="2.42683" stroke="#6D6060" stroke-width="0.69338"/>
<rect x="952.943" y="402.401" width="10.4007" height="10.4007" rx="2.42683" stroke="#6D6060" stroke-width="0.69338"/>
<rect x="952.943" y="402.401" width="10.4007" height="10.4007" rx="2.42683" stroke="#6D6060" stroke-width="0.69338"/>
<rect x="964.037" y="402.401" width="10.4007" height="10.4007" rx="2.42683" fill="#BE4FD0"/>
<rect x="964.037" y="402.401" width="10.4007" height="10.4007" rx="2.42683" stroke="#6D6060" stroke-width="0.69338"/>
<rect x="964.037" y="402.401" width="10.4007" height="10.4007" rx="2.42683" stroke="#6D6060" stroke-width="0.69338"/>
<rect x="964.037" y="402.401" width="10.4007" height="10.4007" rx="2.42683" stroke="#6D6060" stroke-width="0.69338"/>
<rect x="975.131" y="402.401" width="10.4007" height="10.4007" rx="2.42683" fill="#BE4FD0"/>
<rect x="975.131" y="402.401" width="10.4007" height="10.4007" rx="2.42683" stroke="#6D6060" stroke-width="0.69338"/>
<rect x="975.131" y="402.401" width="10.4007" height="10.4007" rx="2.42683" stroke="#6D6060" stroke-width="0.69338"/>
<rect x="975.131" y="402.401" width="10.4007" height="10.4007" rx="2.42683" stroke="#6D6060" stroke-width="0.69338"/>
<rect x="919.661" y="391.308" width="10.4007" height="10.4007" rx="2.42683" fill="#BE4FD0"/>
<rect x="919.661" y="391.308" width="10.4007" height="10.4007" rx="2.42683" stroke="#6D6060" stroke-width="0.69338"/>
<rect x="919.661" y="391.308" width="10.4007" height="10.4007" rx="2.42683" stroke="#6D6060" stroke-width="0.69338"/>
<rect x="919.661" y="391.308" width="10.4007" height="10.4007" rx="2.42683" stroke="#6D6060" stroke-width="0.69338"/>
<rect x="1228.56" y="449.891" width="22.1882" height="22.1882" rx="11.0941" fill="#0013F7"/>
<path d="M1240.11 463.523L1238.15 461.523C1238.07 461.446 1238.02 461.363 1237.98 461.273C1237.94 461.183 1237.92 461.087 1237.92 460.984C1237.92 460.882 1237.94 460.786 1237.98 460.696C1238.02 460.606 1238.07 460.523 1238.15 460.446L1240.11 458.446C1240.35 458.203 1240.62 458.148 1240.93 458.283C1241.23 458.417 1241.39 458.658 1241.39 459.004V462.965C1241.39 463.311 1241.23 463.552 1240.93 463.686C1240.62 463.821 1240.35 463.766 1240.11 463.523Z" fill="#FCF9F9"/>
<rect x="1287.5" y="449.891" width="22.1882" height="22.1882" rx="11.0941" fill="#DF0019"/>
<path d="M1298.14 463.523C1297.9 463.766 1297.63 463.821 1297.32 463.686C1297.01 463.552 1296.86 463.311 1296.86 462.965V459.004C1296.86 458.658 1297.01 458.417 1297.32 458.283C1297.63 458.148 1297.9 458.203 1298.14 458.446L1300.1 460.446C1300.18 460.523 1300.23 460.606 1300.27 460.696C1300.31 460.786 1300.33 460.882 1300.33 460.984C1300.33 461.087 1300.31 461.183 1300.27 461.273C1300.23 461.363 1300.18 461.446 1300.1 461.523L1298.14 463.523Z" fill="#FCF9F9"/>
<rect x="1257.68" y="420.078" width="22.1882" height="22.1882" rx="11.0941" fill="#F77900"/>
<path d="M1266.8 432.904C1266.45 432.904 1266.21 432.75 1266.08 432.442C1265.94 432.135 1266 431.862 1266.24 431.623L1268.24 429.664C1268.32 429.588 1268.4 429.532 1268.49 429.494C1268.58 429.456 1268.67 429.438 1268.78 429.438C1268.88 429.438 1268.98 429.456 1269.07 429.494C1269.16 429.532 1269.24 429.588 1269.32 429.664L1271.32 431.623C1271.56 431.862 1271.61 432.135 1271.48 432.442C1271.34 432.75 1271.1 432.904 1270.76 432.904H1266.8Z" fill="#FCF9F9"/>
<rect x="1257.68" y="479.016" width="22.1882" height="22.1882" rx="11.0941" fill="#00AD16"/>
<path d="M1268.24 491.616L1266.24 489.656C1266 489.418 1265.94 489.145 1266.08 488.837C1266.21 488.529 1266.45 488.375 1266.8 488.375H1270.76C1271.1 488.375 1271.34 488.529 1271.48 488.837C1271.61 489.145 1271.56 489.418 1271.32 489.656L1269.32 491.616C1269.24 491.691 1269.16 491.748 1269.07 491.785C1268.98 491.823 1268.88 491.842 1268.78 491.842C1268.67 491.842 1268.58 491.823 1268.49 491.785C1268.4 491.748 1268.32 491.691 1268.24 491.616Z" fill="#FCF9F9"/>
<path d="M1201.4 290.362C1201.35 290.428 1201.26 290.462 1201.15 290.462C1200.76 290.462 1200.14 290.104 1199.28 289.388C1198.43 288.664 1197.68 287.945 1197.02 287.229C1197.06 287.454 1197.14 287.832 1197.26 288.365C1197.31 288.573 1197.35 288.773 1197.39 288.964C1197.43 289.155 1197.45 289.305 1197.45 289.413C1197.45 289.655 1197.36 289.8 1197.19 289.85C1197.14 289.958 1197.03 289.688 1196.85 289.039C1196.67 288.39 1196.51 287.641 1196.35 286.792C1196.2 285.935 1196.12 285.22 1196.12 284.646C1196.12 284.354 1196.15 284.117 1196.2 283.934C1196.31 283.851 1196.4 283.809 1196.47 283.809C1196.62 283.809 1196.73 283.938 1196.79 284.196C1196.84 284.446 1196.9 284.841 1196.95 285.382L1196.97 285.669C1197.3 285.652 1197.74 285.582 1198.3 285.457C1198.86 285.332 1199.37 285.161 1199.81 284.945C1200.26 284.721 1200.48 284.454 1200.48 284.146C1200.48 283.98 1200.36 283.797 1200.12 283.597C1199.89 283.389 1199.52 283.214 1199.03 283.073C1198.55 282.932 1197.95 282.861 1197.25 282.861H1196.85C1196.37 282.861 1196 282.94 1195.74 283.098C1195.47 283.248 1195.34 283.572 1195.34 284.072C1195.21 284.072 1195.1 283.992 1195 283.834C1194.9 283.676 1194.85 283.531 1194.85 283.398C1194.85 282.882 1195.1 282.545 1195.59 282.387C1196.09 282.229 1196.8 282.149 1197.73 282.149C1198.23 282.149 1198.74 282.229 1199.27 282.387C1199.8 282.545 1200.25 282.794 1200.62 283.135C1200.98 283.468 1201.17 283.884 1201.17 284.384C1201.17 284.725 1201.01 285.008 1200.7 285.232C1200.41 285.457 1200.05 285.632 1199.64 285.756C1199.24 285.881 1198.74 286.01 1198.15 286.143C1197.66 286.251 1197.34 286.331 1197.19 286.38C1197.83 287.246 1198.44 287.92 1199.03 288.402C1199.63 288.885 1200.26 289.322 1200.9 289.713C1201.13 289.846 1201.29 289.946 1201.38 290.012C1201.47 290.079 1201.52 290.141 1201.52 290.2C1201.52 290.258 1201.48 290.312 1201.4 290.362ZM1204.98 289.938C1204.44 289.938 1203.95 289.833 1203.5 289.625C1203.05 289.417 1202.7 289.122 1202.43 288.739C1202.16 288.357 1202.03 287.916 1202.03 287.416C1202.03 286.859 1202.13 286.339 1202.34 285.856C1202.55 285.365 1202.85 284.974 1203.25 284.683C1203.66 284.384 1204.14 284.234 1204.68 284.234C1205.24 284.234 1205.67 284.417 1205.96 284.783C1206.25 285.141 1206.39 285.594 1206.37 286.143C1206.37 286.634 1206.18 287.009 1205.79 287.267C1205.4 287.525 1204.91 287.654 1204.31 287.654C1204.22 287.654 1204.09 287.645 1203.9 287.629C1203.6 287.595 1203.39 287.549 1203.27 287.491C1203.14 287.433 1203.08 287.317 1203.08 287.142C1203.08 287.084 1203.1 287.042 1203.13 287.017C1203.16 286.984 1203.23 286.967 1203.33 286.967C1203.44 286.967 1203.63 286.992 1203.9 287.042C1204.17 287.092 1204.41 287.117 1204.61 287.117C1205.38 287.117 1205.76 286.784 1205.76 286.118C1205.76 285.719 1205.69 285.403 1205.54 285.17C1205.4 284.937 1205.14 284.82 1204.78 284.82C1204.38 284.82 1204.02 284.929 1203.7 285.145C1203.39 285.353 1203.14 285.627 1202.97 285.969C1202.8 286.31 1202.72 286.672 1202.72 287.054C1202.72 287.712 1202.9 288.253 1203.27 288.677C1203.63 289.093 1204.2 289.301 1204.96 289.301C1205.06 289.301 1205.21 289.293 1205.43 289.276C1205.52 289.268 1205.63 289.243 1205.76 289.201C1205.9 289.16 1205.99 289.13 1206.05 289.114C1206.41 288.989 1206.67 288.927 1206.84 288.927C1206.96 288.927 1207.06 288.96 1207.12 289.026C1206.91 289.343 1206.6 289.576 1206.19 289.725C1205.78 289.867 1205.38 289.938 1204.98 289.938ZM1210.71 289.95C1209.74 289.95 1208.98 289.729 1208.44 289.288C1207.91 288.839 1207.64 288.149 1207.64 287.217C1207.64 286.742 1207.76 286.293 1207.99 285.869C1208.23 285.436 1208.56 285.091 1208.95 284.833C1209.36 284.567 1209.8 284.433 1210.26 284.433C1210.74 284.433 1211.14 284.537 1211.48 284.745C1211.81 284.945 1211.97 285.236 1211.97 285.619C1211.97 285.885 1211.92 286.077 1211.83 286.193C1211.73 286.301 1211.63 286.356 1211.51 286.356C1211.51 285.956 1211.4 285.632 1211.19 285.382C1210.97 285.132 1210.66 285.008 1210.26 285.008C1209.87 285.008 1209.52 285.116 1209.23 285.332C1208.94 285.54 1208.71 285.819 1208.56 286.168C1208.41 286.509 1208.33 286.867 1208.33 287.242C1208.33 288.032 1208.6 288.569 1209.13 288.852C1209.67 289.135 1210.38 289.276 1211.26 289.276C1211.56 289.276 1211.95 289.259 1212.44 289.226C1212.45 289.226 1212.49 289.243 1212.55 289.276C1212.61 289.309 1212.65 289.33 1212.69 289.338V289.413C1212.69 289.655 1212.47 289.804 1212.05 289.863C1211.63 289.921 1211.18 289.95 1210.71 289.95ZM1215.79 289.95C1215.3 289.95 1214.86 289.842 1214.46 289.625C1214.07 289.401 1213.76 289.093 1213.53 288.702C1213.32 288.303 1213.21 287.849 1213.21 287.341C1213.21 286.509 1213.51 285.89 1214.12 285.482C1214.74 285.074 1215.49 284.87 1216.38 284.87C1216.79 284.87 1217.16 284.97 1217.51 285.17C1217.87 285.37 1218.16 285.657 1218.38 286.031C1218.59 286.405 1218.7 286.838 1218.7 287.329C1218.7 287.862 1218.56 288.327 1218.29 288.727C1218.01 289.118 1217.65 289.422 1217.2 289.638C1216.76 289.846 1216.29 289.95 1215.79 289.95ZM1215.65 289.239C1216.43 289.239 1217.02 289.064 1217.41 288.714C1217.81 288.365 1218.01 287.853 1218.01 287.179C1218.01 286.722 1217.86 286.326 1217.54 285.994C1217.23 285.661 1216.8 285.494 1216.24 285.494C1215.87 285.494 1215.49 285.565 1215.11 285.706C1214.72 285.848 1214.41 286.06 1214.16 286.343C1213.91 286.626 1213.78 286.967 1213.78 287.366C1213.78 287.699 1213.87 288.011 1214.03 288.303C1214.2 288.585 1214.42 288.814 1214.71 288.989C1215 289.155 1215.31 289.239 1215.65 289.239ZM1220.81 289.938C1220.47 289.272 1220.2 288.49 1220 287.591C1219.81 286.692 1219.71 285.915 1219.71 285.257C1219.71 284.999 1219.77 284.833 1219.89 284.758C1219.95 284.716 1220 284.696 1220.04 284.696C1220.09 284.696 1220.14 284.741 1220.16 284.833C1220.19 284.924 1220.23 285.091 1220.26 285.332L1220.32 285.781C1220.41 285.332 1220.59 284.978 1220.85 284.721C1221.11 284.454 1221.44 284.321 1221.82 284.321C1222.24 284.321 1222.56 284.404 1222.77 284.571C1222.98 284.729 1223.08 284.995 1223.08 285.37C1222.67 285.17 1222.29 285.07 1221.95 285.07C1221.62 285.07 1221.34 285.157 1221.11 285.332C1220.88 285.507 1220.71 285.765 1220.62 286.106C1220.55 286.339 1220.51 286.559 1220.51 286.767C1220.51 286.992 1220.54 287.204 1220.6 287.404C1220.66 287.595 1220.76 287.832 1220.9 288.115C1221.02 288.407 1221.12 288.656 1221.18 288.864C1221.26 289.072 1221.3 289.297 1221.31 289.538C1221.31 289.68 1221.26 289.784 1221.16 289.85C1221.06 289.908 1220.94 289.938 1220.81 289.938ZM1225.73 289.925C1225.34 289.925 1225 289.792 1224.7 289.526C1224.42 289.259 1224.21 288.914 1224.06 288.49C1223.91 288.065 1223.84 287.624 1223.84 287.167C1223.84 286.368 1224.01 285.694 1224.34 285.145C1224.68 284.596 1225.2 284.321 1225.89 284.321C1226.31 284.321 1226.67 284.396 1226.98 284.546C1227.29 284.687 1227.7 284.929 1228.21 285.27L1228.54 285.494C1228.49 285.22 1228.43 284.904 1228.35 284.546C1228.27 284.188 1228.21 283.943 1228.19 283.809C1228.05 283.16 1227.94 282.678 1227.87 282.362C1227.82 282.037 1227.79 281.75 1227.79 281.5C1227.79 281.059 1227.91 280.839 1228.16 280.839C1228.25 281.039 1228.36 281.467 1228.49 282.124C1228.61 282.773 1228.77 283.664 1228.96 284.795C1229.16 285.994 1229.33 286.971 1229.48 287.728C1229.63 288.486 1229.76 288.96 1229.86 289.151C1229.86 289.343 1229.72 289.438 1229.43 289.438C1229.22 289.438 1229.07 289.313 1228.99 289.064C1228.91 288.814 1228.86 288.377 1228.85 287.753H1228.75C1228.4 288.386 1227.95 288.906 1227.39 289.313C1226.83 289.721 1226.28 289.925 1225.73 289.925ZM1225.89 289.313C1226.23 289.313 1226.6 289.172 1226.99 288.889C1227.39 288.598 1227.72 288.248 1228 287.841C1228.27 287.425 1228.41 287.05 1228.41 286.717V286.343C1227.55 285.444 1226.76 284.995 1226.04 284.995C1225.53 284.995 1225.14 285.182 1224.87 285.557C1224.59 285.923 1224.45 286.405 1224.45 287.005L1224.47 287.267C1224.52 287.899 1224.66 288.398 1224.89 288.764C1225.12 289.13 1225.46 289.313 1225.89 289.313Z" fill="#CBF3C4"/>
<rect x="1164.62" y="308.72" width="95.9931" height="24.8425" rx="3.78038" fill="#EAFBE8"/>
<rect x="1164.62" y="308.72" width="95.9931" height="24.8425" rx="3.78038" stroke="#FFE0AE" stroke-width="1.08011"/>
<path d="M1209.24 325.761C1209.14 325.761 1209.06 325.74 1208.99 325.7C1208.92 325.66 1208.81 325.579 1208.67 325.458L1208.81 324.657C1208.99 323.538 1209.13 322.605 1209.23 321.859C1209.33 321.103 1209.4 320.327 1209.44 319.531C1209.1 319.833 1208.63 320.327 1208.05 321.012C1207.71 321.416 1207.44 321.713 1207.25 321.905C1207.07 322.086 1206.93 322.177 1206.82 322.177C1206.74 322.167 1206.67 322.121 1206.6 322.041C1206.54 321.95 1206.51 321.844 1206.51 321.723C1206.51 321.582 1206.56 321.456 1206.66 321.345L1209.32 318.502C1209.41 318.401 1209.48 318.265 1209.53 318.094C1209.58 317.923 1209.63 317.686 1209.68 317.383C1209.74 317 1209.81 316.713 1209.89 316.521C1209.97 316.32 1210.11 316.219 1210.29 316.219C1210.37 316.219 1210.43 316.229 1210.47 316.249C1210.51 316.259 1210.54 316.295 1210.57 316.355L1210.59 316.854C1210.59 317.035 1210.5 317.918 1210.32 319.5C1210.15 321.073 1209.96 322.509 1209.76 323.81C1209.56 325.11 1209.39 325.761 1209.24 325.761ZM1217.58 325.141C1217.39 325.141 1217.18 325.12 1216.96 325.08C1216.75 325.03 1216.54 324.979 1216.33 324.929C1215.8 324.778 1215.38 324.702 1215.06 324.702C1214.75 324.702 1214.42 324.727 1214.04 324.778C1213.49 324.828 1213.14 324.853 1213 324.853C1212.39 324.853 1211.93 324.742 1211.61 324.521C1211.3 324.299 1211.12 323.981 1211.08 323.568C1211.06 323.316 1211.13 323.14 1211.29 323.039C1211.45 322.928 1211.71 322.872 1212.06 322.872C1212.26 322.872 1212.45 322.903 1212.62 322.963C1212.8 323.014 1213.03 323.094 1213.32 323.205C1213.6 323.326 1213.85 323.417 1214.07 323.477C1214.29 323.538 1214.53 323.568 1214.78 323.568C1215.06 323.568 1215.33 323.397 1215.62 323.054C1215.91 322.711 1216.14 322.262 1216.33 321.708C1216.52 321.154 1216.61 320.574 1216.61 319.969C1216.61 319.223 1216.51 318.648 1216.3 318.245C1216.09 317.832 1215.71 317.625 1215.15 317.625C1214.08 317.625 1213.31 318.245 1212.83 319.485C1212.65 319.415 1212.52 319.324 1212.44 319.213C1212.37 319.092 1212.33 318.931 1212.33 318.729C1212.33 318.437 1212.45 318.154 1212.67 317.882C1212.9 317.6 1213.22 317.373 1213.63 317.202C1214.06 317.02 1214.55 316.93 1215.1 316.93C1215.9 316.93 1216.49 317.202 1216.89 317.746C1217.29 318.291 1217.49 319.006 1217.49 319.893C1217.49 320.781 1217.3 321.582 1216.93 322.298C1216.57 323.003 1216.12 323.563 1215.6 323.976C1215.85 324.077 1216.09 324.143 1216.33 324.173C1216.57 324.203 1216.83 324.218 1217.11 324.218C1217.46 324.228 1217.69 324.264 1217.82 324.324C1217.96 324.374 1218.03 324.506 1218.03 324.717C1218.03 324.808 1217.99 324.904 1217.9 325.005C1217.81 325.095 1217.7 325.141 1217.58 325.141Z" fill="#767474"/>
<path d="M1315.9 289.463C1316.58 289.463 1317.11 289.368 1317.48 289.176C1317.86 288.985 1318.04 288.706 1318.04 288.34C1318.04 288.015 1317.93 287.737 1317.71 287.504C1317.48 287.262 1317.2 287.059 1316.87 286.892C1316.54 286.726 1316.08 286.53 1315.51 286.306C1315.46 286.289 1315.34 286.243 1315.15 286.168C1314.36 285.852 1313.76 285.536 1313.34 285.22C1312.92 284.904 1312.71 284.496 1312.71 283.997C1312.71 283.439 1312.93 283.019 1313.37 282.736C1313.82 282.453 1314.38 282.312 1315.07 282.312C1315.58 282.312 1316.05 282.378 1316.47 282.511C1316.9 282.636 1317.24 282.811 1317.49 283.036C1317.75 283.26 1317.88 283.514 1317.88 283.797C1317.78 283.847 1317.68 283.872 1317.59 283.872C1317.49 283.872 1317.39 283.851 1317.28 283.809C1317.18 283.759 1317.03 283.68 1316.83 283.572C1316.51 283.398 1316.2 283.26 1315.92 283.16C1315.64 283.052 1315.3 282.998 1314.92 282.998C1314.44 282.998 1314.05 283.081 1313.75 283.248C1313.45 283.414 1313.3 283.647 1313.3 283.947C1313.3 284.18 1313.4 284.392 1313.6 284.583C1313.81 284.775 1314.07 284.945 1314.37 285.095C1314.69 285.236 1315.11 285.407 1315.63 285.607C1316.3 285.865 1316.85 286.106 1317.28 286.331C1317.71 286.555 1318.08 286.842 1318.38 287.192C1318.69 287.533 1318.84 287.941 1318.84 288.415C1318.84 288.972 1318.57 289.405 1318.04 289.713C1317.51 290.012 1316.85 290.162 1316.06 290.162C1315.43 290.162 1314.82 290.071 1314.21 289.888C1313.6 289.705 1313.08 289.434 1312.65 289.076C1312.22 288.71 1311.94 288.273 1311.83 287.766C1311.83 287.541 1311.89 287.35 1312.01 287.192C1312.14 287.025 1312.29 286.942 1312.48 286.942C1312.48 287.483 1312.63 287.945 1312.93 288.327C1313.23 288.702 1313.64 288.985 1314.16 289.176C1314.68 289.368 1315.26 289.463 1315.9 289.463ZM1322.92 289.95C1321.95 289.95 1321.19 289.729 1320.65 289.288C1320.12 288.839 1319.85 288.149 1319.85 287.217C1319.85 286.742 1319.97 286.293 1320.2 285.869C1320.44 285.436 1320.76 285.091 1321.16 284.833C1321.57 284.567 1322.01 284.433 1322.47 284.433C1322.95 284.433 1323.35 284.537 1323.68 284.745C1324.02 284.945 1324.18 285.236 1324.18 285.619C1324.18 285.885 1324.13 286.077 1324.03 286.193C1323.94 286.301 1323.84 286.356 1323.72 286.356C1323.72 285.956 1323.61 285.632 1323.4 285.382C1323.18 285.132 1322.87 285.008 1322.47 285.008C1322.07 285.008 1321.73 285.116 1321.44 285.332C1321.15 285.54 1320.92 285.819 1320.76 286.168C1320.61 286.509 1320.54 286.867 1320.54 287.242C1320.54 288.032 1320.81 288.569 1321.34 288.852C1321.88 289.135 1322.59 289.276 1323.47 289.276C1323.77 289.276 1324.16 289.259 1324.65 289.226C1324.66 289.226 1324.7 289.243 1324.76 289.276C1324.82 289.309 1324.86 289.33 1324.9 289.338V289.413C1324.9 289.655 1324.68 289.804 1324.26 289.863C1323.83 289.921 1323.39 289.95 1322.92 289.95ZM1328 289.95C1327.51 289.95 1327.07 289.842 1326.67 289.625C1326.27 289.401 1325.97 289.093 1325.74 288.702C1325.53 288.303 1325.42 287.849 1325.42 287.341C1325.42 286.509 1325.72 285.89 1326.33 285.482C1326.94 285.074 1327.7 284.87 1328.59 284.87C1329 284.87 1329.37 284.97 1329.72 285.17C1330.08 285.37 1330.37 285.657 1330.58 286.031C1330.8 286.405 1330.91 286.838 1330.91 287.329C1330.91 287.862 1330.77 288.327 1330.5 288.727C1330.22 289.118 1329.86 289.422 1329.41 289.638C1328.97 289.846 1328.5 289.95 1328 289.95ZM1327.86 289.239C1328.64 289.239 1329.22 289.064 1329.62 288.714C1330.02 288.365 1330.22 287.853 1330.22 287.179C1330.22 286.722 1330.06 286.326 1329.75 285.994C1329.44 285.661 1329.01 285.494 1328.45 285.494C1328.08 285.494 1327.7 285.565 1327.31 285.706C1326.93 285.848 1326.62 286.06 1326.37 286.343C1326.12 286.626 1325.99 286.967 1325.99 287.366C1325.99 287.699 1326.08 288.011 1326.24 288.303C1326.41 288.585 1326.63 288.814 1326.92 288.989C1327.21 289.155 1327.52 289.239 1327.86 289.239ZM1333.02 289.938C1332.68 289.272 1332.41 288.49 1332.21 287.591C1332.02 286.692 1331.92 285.915 1331.92 285.257C1331.92 284.999 1331.98 284.833 1332.1 284.758C1332.16 284.716 1332.21 284.696 1332.25 284.696C1332.3 284.696 1332.34 284.741 1332.37 284.833C1332.4 284.924 1332.44 285.091 1332.47 285.332L1332.53 285.781C1332.62 285.332 1332.8 284.978 1333.06 284.721C1333.32 284.454 1333.65 284.321 1334.03 284.321C1334.45 284.321 1334.77 284.404 1334.98 284.571C1335.19 284.729 1335.29 284.995 1335.29 285.37C1334.87 285.17 1334.5 285.07 1334.15 285.07C1333.83 285.07 1333.55 285.157 1333.32 285.332C1333.09 285.507 1332.92 285.765 1332.83 286.106C1332.76 286.339 1332.72 286.559 1332.72 286.767C1332.72 286.992 1332.75 287.204 1332.81 287.404C1332.87 287.595 1332.97 287.832 1333.11 288.115C1333.23 288.407 1333.33 288.656 1333.39 288.864C1333.47 289.072 1333.51 289.297 1333.52 289.538C1333.52 289.68 1333.47 289.784 1333.37 289.85C1333.27 289.908 1333.15 289.938 1333.02 289.938ZM1338.75 289.938C1338.22 289.938 1337.73 289.833 1337.28 289.625C1336.83 289.417 1336.47 289.122 1336.2 288.739C1335.94 288.357 1335.8 287.916 1335.8 287.416C1335.8 286.859 1335.91 286.339 1336.12 285.856C1336.32 285.365 1336.63 284.974 1337.03 284.683C1337.43 284.384 1337.91 284.234 1338.45 284.234C1339.01 284.234 1339.44 284.417 1339.73 284.783C1340.03 285.141 1340.16 285.594 1340.15 286.143C1340.15 286.634 1339.95 287.009 1339.56 287.267C1339.18 287.525 1338.69 287.654 1338.09 287.654C1338 287.654 1337.86 287.645 1337.68 287.629C1337.38 287.595 1337.16 287.549 1337.04 287.491C1336.91 287.433 1336.85 287.317 1336.85 287.142C1336.85 287.084 1336.87 287.042 1336.9 287.017C1336.93 286.984 1337 286.967 1337.1 286.967C1337.21 286.967 1337.4 286.992 1337.68 287.042C1337.94 287.092 1338.18 287.117 1338.39 287.117C1339.15 287.117 1339.53 286.784 1339.53 286.118C1339.53 285.719 1339.46 285.403 1339.31 285.17C1339.17 284.937 1338.91 284.82 1338.55 284.82C1338.15 284.82 1337.79 284.929 1337.48 285.145C1337.16 285.353 1336.91 285.627 1336.74 285.969C1336.57 286.31 1336.49 286.672 1336.49 287.054C1336.49 287.712 1336.67 288.253 1337.04 288.677C1337.4 289.093 1337.97 289.301 1338.74 289.301C1338.83 289.301 1338.98 289.293 1339.2 289.276C1339.29 289.268 1339.4 289.243 1339.53 289.201C1339.67 289.16 1339.76 289.13 1339.82 289.114C1340.18 288.989 1340.44 288.927 1340.61 288.927C1340.73 288.927 1340.83 288.96 1340.9 289.026C1340.69 289.343 1340.38 289.576 1339.96 289.725C1339.55 289.867 1339.15 289.938 1338.75 289.938Z" fill="#CBF3C4"/>
<rect x="1278.33" y="308.72" width="95.9931" height="24.8425" rx="3.78038" fill="#EAFBE8"/>
<rect x="1278.33" y="308.72" width="95.9931" height="24.8425" rx="3.78038" stroke="#FFE0AE" stroke-width="1.08011"/>
<path d="M1322.96 325.761C1322.86 325.761 1322.77 325.74 1322.7 325.7C1322.63 325.66 1322.52 325.579 1322.38 325.458L1322.52 324.657C1322.7 323.538 1322.84 322.605 1322.94 321.859C1323.04 321.103 1323.11 320.327 1323.15 319.531C1322.81 319.833 1322.35 320.327 1321.76 321.012C1321.42 321.416 1321.15 321.713 1320.96 321.905C1320.78 322.086 1320.64 322.177 1320.54 322.177C1320.46 322.167 1320.38 322.121 1320.31 322.041C1320.25 321.95 1320.22 321.844 1320.22 321.723C1320.22 321.582 1320.27 321.456 1320.37 321.345L1323.03 318.502C1323.12 318.401 1323.19 318.265 1323.25 318.094C1323.3 317.923 1323.35 317.686 1323.4 317.383C1323.46 317 1323.53 316.713 1323.61 316.521C1323.69 316.32 1323.82 316.219 1324 316.219C1324.08 316.219 1324.14 316.229 1324.18 316.249C1324.22 316.259 1324.26 316.295 1324.29 316.355L1324.3 316.854C1324.3 317.035 1324.21 317.918 1324.03 319.5C1323.86 321.073 1323.67 322.509 1323.47 323.81C1323.27 325.11 1323.1 325.761 1322.96 325.761ZM1331.3 325.141C1331.1 325.141 1330.9 325.12 1330.68 325.08C1330.46 325.03 1330.25 324.979 1330.04 324.929C1329.52 324.778 1329.09 324.702 1328.77 324.702C1328.47 324.702 1328.13 324.727 1327.76 324.778C1327.2 324.828 1326.85 324.853 1326.71 324.853C1326.11 324.853 1325.64 324.742 1325.32 324.521C1325.01 324.299 1324.83 323.981 1324.79 323.568C1324.77 323.316 1324.84 323.14 1325 323.039C1325.17 322.928 1325.42 322.872 1325.78 322.872C1325.98 322.872 1326.16 322.903 1326.34 322.963C1326.52 323.014 1326.75 323.094 1327.03 323.205C1327.31 323.326 1327.57 323.417 1327.79 323.477C1328.01 323.538 1328.25 323.568 1328.5 323.568C1328.77 323.568 1329.05 323.397 1329.33 323.054C1329.62 322.711 1329.86 322.262 1330.04 321.708C1330.23 321.154 1330.33 320.574 1330.33 319.969C1330.33 319.223 1330.22 318.648 1330.01 318.245C1329.81 317.832 1329.43 317.625 1328.86 317.625C1327.79 317.625 1327.02 318.245 1326.55 319.485C1326.37 319.415 1326.23 319.324 1326.15 319.213C1326.08 319.092 1326.05 318.931 1326.05 318.729C1326.05 318.437 1326.16 318.154 1326.38 317.882C1326.61 317.6 1326.94 317.373 1327.35 317.202C1327.77 317.02 1328.26 316.93 1328.82 316.93C1329.61 316.93 1330.21 317.202 1330.6 317.746C1331 318.291 1331.2 319.006 1331.2 319.893C1331.2 320.781 1331.02 321.582 1330.64 322.298C1330.28 323.003 1329.84 323.563 1329.31 323.976C1329.57 324.077 1329.81 324.143 1330.04 324.173C1330.28 324.203 1330.54 324.218 1330.83 324.218C1331.17 324.228 1331.41 324.264 1331.54 324.324C1331.68 324.374 1331.75 324.506 1331.75 324.717C1331.75 324.808 1331.7 324.904 1331.61 325.005C1331.52 325.095 1331.42 325.141 1331.3 325.141Z" fill="#767474"/>
<rect x="10" y="10" width="805.599" height="535.875" rx="18" fill="#232323"/>
<rect x="10" y="10" width="805.599" height="535.875" rx="18" stroke="#F5F5F5" stroke-width="20"/>
<rect x="59.4423" y="78.8554" width="381.519" height="381.519" rx="6.48066" fill="#F7F4F4"/>
<rect x="59.4423" y="78.8554" width="381.519" height="381.519" rx="6.48066" stroke="#767474" stroke-width="4.32044"/>
<rect x="300.62" y="270.274" width="16.2017" height="16.2017" rx="8.10083" fill="#1FEE34" stroke="#686363" stroke-width="1.08011"/>
<rect x="196.931" y="270.282" width="16.2017" height="16.2017" rx="3.78038" fill="#BE4FD0"/>
<rect x="196.931" y="270.282" width="16.2017" height="16.2017" rx="3.78038" stroke="#767474" stroke-width="1.08011"/>
<rect x="196.931" y="270.282" width="16.2017" height="16.2017" rx="3.78038" stroke="#767474" stroke-width="1.08011"/>
<rect x="196.931" y="270.282" width="16.2017" height="16.2017" rx="3.78038" stroke="#767474" stroke-width="1.08011"/>
<rect x="196.931" y="252.993" width="16.2017" height="16.2017" rx="3.78038" fill="#BE4FD0"/>
<rect x="196.931" y="252.993" width="16.2017" height="16.2017" rx="3.78038" stroke="#767474" stroke-width="1.08011"/>
<rect x="196.931" y="252.993" width="16.2017" height="16.2017" rx="3.78038" stroke="#767474" stroke-width="1.08011"/>
<rect x="196.931" y="252.993" width="16.2017" height="16.2017" rx="3.78038" stroke="#767474" stroke-width="1.08011"/>
<rect x="179.649" y="252.993" width="16.2017" height="16.2017" rx="3.78038" fill="#BE4FD0"/>
<rect x="179.649" y="252.993" width="16.2017" height="16.2017" rx="3.78038" stroke="#767474" stroke-width="1.08011"/>
<rect x="179.649" y="252.993" width="16.2017" height="16.2017" rx="3.78038" stroke="#767474" stroke-width="1.08011"/>
<rect x="179.649" y="252.993" width="16.2017" height="16.2017" rx="3.78038" stroke="#767474" stroke-width="1.08011"/>
<rect x="214.213" y="270.282" width="16.2017" height="16.2017" rx="3.78038" fill="#BE4FD0"/>
<rect x="214.213" y="270.282" width="16.2017" height="16.2017" rx="3.78038" stroke="#767474" stroke-width="1.08011"/>
<rect x="214.213" y="270.282" width="16.2017" height="16.2017" rx="3.78038" stroke="#767474" stroke-width="1.08011"/>
<rect x="214.213" y="270.282" width="16.2017" height="16.2017" rx="3.78038" stroke="#767474" stroke-width="1.08011"/>
<rect x="231.495" y="270.282" width="16.2017" height="16.2017" rx="3.78038" fill="#BE4FD0"/>
<rect x="231.495" y="270.282" width="16.2017" height="16.2017" rx="3.78038" stroke="#767474" stroke-width="1.08011"/>
<rect x="231.495" y="270.282" width="16.2017" height="16.2017" rx="3.78038" stroke="#767474" stroke-width="1.08011"/>
<rect x="231.495" y="270.282" width="16.2017" height="16.2017" rx="3.78038" stroke="#767474" stroke-width="1.08011"/>
<rect x="248.776" y="270.282" width="16.2017" height="16.2017" rx="3.78038" fill="#BE4FD0"/>
<rect x="248.776" y="270.282" width="16.2017" height="16.2017" rx="3.78038" stroke="#767474" stroke-width="1.08011"/>
<rect x="248.776" y="270.282" width="16.2017" height="16.2017" rx="3.78038" stroke="#767474" stroke-width="1.08011"/>
<rect x="248.776" y="270.282" width="16.2017" height="16.2017" rx="3.78038" stroke="#767474" stroke-width="1.08011"/>
<rect x="162.368" y="252.993" width="16.2017" height="16.2017" rx="3.78038" fill="#BE4FD0"/>
<rect x="162.368" y="252.993" width="16.2017" height="16.2017" rx="3.78038" stroke="#767474" stroke-width="1.08011"/>
<rect x="162.368" y="252.993" width="16.2017" height="16.2017" rx="3.78038" stroke="#767474" stroke-width="1.08011"/>
<rect x="162.368" y="252.993" width="16.2017" height="16.2017" rx="3.78038" stroke="#767474" stroke-width="1.08011"/>
<path d="M533.754 119.769C533.677 119.858 533.566 119.902 533.422 119.902C532.9 119.902 532.068 119.425 530.925 118.471C529.794 117.506 528.79 116.546 527.913 115.592C527.969 115.892 528.074 116.396 528.23 117.106C528.296 117.384 528.352 117.65 528.396 117.905C528.451 118.16 528.479 118.36 528.479 118.504C528.479 118.826 528.363 119.02 528.13 119.087C528.074 119.231 527.924 118.87 527.68 118.005C527.447 117.14 527.226 116.141 527.015 115.01C526.815 113.867 526.715 112.913 526.715 112.147C526.715 111.759 526.749 111.443 526.815 111.199C526.959 111.088 527.081 111.032 527.181 111.032C527.381 111.032 527.52 111.204 527.597 111.548C527.675 111.881 527.747 112.408 527.814 113.129L527.847 113.512C528.279 113.49 528.867 113.395 529.611 113.229C530.365 113.063 531.036 112.835 531.624 112.547C532.223 112.247 532.523 111.892 532.523 111.482C532.523 111.26 532.362 111.016 532.04 110.749C531.73 110.472 531.247 110.239 530.593 110.051C529.949 109.862 529.156 109.768 528.213 109.768H527.68C527.048 109.768 526.554 109.873 526.199 110.084C525.844 110.283 525.667 110.716 525.667 111.382C525.5 111.382 525.351 111.276 525.218 111.066C525.084 110.855 525.018 110.661 525.018 110.483C525.018 109.795 525.345 109.346 526 109.135C526.665 108.924 527.619 108.819 528.862 108.819C529.516 108.819 530.199 108.924 530.909 109.135C531.619 109.346 532.218 109.679 532.706 110.134C533.194 110.577 533.438 111.132 533.438 111.798C533.438 112.253 533.233 112.63 532.823 112.929C532.423 113.229 531.952 113.462 531.408 113.628C530.864 113.795 530.199 113.967 529.411 114.144C528.757 114.288 528.329 114.394 528.13 114.46C528.984 115.614 529.805 116.513 530.593 117.156C531.391 117.8 532.223 118.382 533.089 118.904C533.388 119.081 533.599 119.214 533.721 119.303C533.843 119.392 533.904 119.475 533.904 119.553C533.904 119.63 533.854 119.702 533.754 119.769ZM538.576 119.203C537.866 119.203 537.211 119.064 536.612 118.787C536.013 118.51 535.536 118.116 535.181 117.606C534.826 117.095 534.649 116.507 534.649 115.842C534.649 115.098 534.787 114.405 535.065 113.761C535.342 113.107 535.747 112.586 536.279 112.197C536.823 111.798 537.455 111.598 538.177 111.598C538.931 111.598 539.502 111.842 539.891 112.33C540.279 112.807 540.462 113.412 540.44 114.144C540.44 114.799 540.179 115.298 539.658 115.642C539.147 115.986 538.493 116.158 537.694 116.158C537.572 116.158 537.389 116.147 537.145 116.125C536.745 116.08 536.463 116.019 536.296 115.941C536.13 115.864 536.046 115.708 536.046 115.476C536.046 115.398 536.069 115.342 536.113 115.309C536.157 115.265 536.246 115.243 536.379 115.243C536.524 115.243 536.779 115.276 537.145 115.342C537.5 115.409 537.816 115.442 538.093 115.442C539.114 115.442 539.624 114.998 539.624 114.111C539.624 113.578 539.524 113.157 539.325 112.846C539.136 112.536 538.798 112.38 538.31 112.38C537.777 112.38 537.3 112.524 536.879 112.813C536.457 113.09 536.13 113.456 535.897 113.911C535.675 114.366 535.564 114.849 535.564 115.359C535.564 116.235 535.808 116.957 536.296 117.522C536.784 118.077 537.539 118.354 538.559 118.354C538.681 118.354 538.887 118.343 539.175 118.321C539.297 118.31 539.447 118.277 539.624 118.221C539.802 118.166 539.929 118.127 540.007 118.105C540.484 117.938 540.834 117.855 541.055 117.855C541.222 117.855 541.349 117.9 541.438 117.988C541.161 118.41 540.745 118.721 540.19 118.92C539.647 119.109 539.108 119.203 538.576 119.203ZM546.285 119.22C544.987 119.22 543.977 118.926 543.256 118.338C542.546 117.739 542.191 116.818 542.191 115.575C542.191 114.943 542.346 114.344 542.657 113.778C542.979 113.201 543.406 112.741 543.938 112.397C544.482 112.042 545.064 111.864 545.686 111.864C546.318 111.864 546.856 112.003 547.3 112.28C547.744 112.547 547.966 112.935 547.966 113.445C547.966 113.8 547.899 114.055 547.766 114.211C547.644 114.355 547.505 114.427 547.35 114.427C547.35 113.895 547.206 113.462 546.917 113.129C546.629 112.796 546.218 112.63 545.686 112.63C545.153 112.63 544.693 112.774 544.305 113.063C543.916 113.34 543.617 113.712 543.406 114.178C543.206 114.632 543.106 115.109 543.106 115.609C543.106 116.663 543.461 117.378 544.171 117.755C544.892 118.133 545.841 118.321 547.017 118.321C547.416 118.321 547.938 118.299 548.581 118.255C548.603 118.255 548.653 118.277 548.731 118.321C548.809 118.366 548.87 118.393 548.914 118.404V118.504C548.914 118.826 548.631 119.026 548.065 119.103C547.5 119.181 546.906 119.22 546.285 119.22ZM553.113 119.22C552.459 119.22 551.865 119.076 551.333 118.787C550.811 118.488 550.401 118.077 550.101 117.556C549.813 117.023 549.669 116.419 549.669 115.742C549.669 114.632 550.073 113.806 550.883 113.262C551.704 112.719 552.708 112.447 553.895 112.447C554.439 112.447 554.944 112.58 555.41 112.846C555.887 113.112 556.27 113.495 556.558 113.994C556.846 114.494 556.991 115.071 556.991 115.725C556.991 116.435 556.808 117.056 556.441 117.589C556.075 118.11 555.593 118.515 554.994 118.804C554.406 119.081 553.779 119.22 553.113 119.22ZM552.93 118.271C553.962 118.271 554.744 118.038 555.277 117.572C555.809 117.106 556.075 116.424 556.075 115.525C556.075 114.915 555.865 114.388 555.443 113.945C555.033 113.501 554.456 113.279 553.712 113.279C553.213 113.279 552.708 113.373 552.198 113.562C551.688 113.75 551.266 114.033 550.933 114.41C550.6 114.788 550.434 115.243 550.434 115.775C550.434 116.219 550.545 116.635 550.767 117.023C550.989 117.4 551.288 117.705 551.665 117.938C552.054 118.16 552.475 118.271 552.93 118.271ZM559.862 119.203C559.407 118.316 559.046 117.273 558.78 116.075C558.525 114.876 558.397 113.839 558.397 112.963C558.397 112.619 558.475 112.397 558.63 112.297C558.719 112.242 558.786 112.214 558.83 112.214C558.908 112.214 558.963 112.275 558.996 112.397C559.041 112.519 559.085 112.741 559.13 113.063L559.213 113.662C559.335 113.063 559.568 112.591 559.912 112.247C560.267 111.892 560.699 111.715 561.21 111.715C561.775 111.715 562.197 111.826 562.474 112.047C562.752 112.258 562.89 112.613 562.89 113.112C562.336 112.846 561.831 112.713 561.376 112.713C560.943 112.713 560.572 112.83 560.261 113.063C559.95 113.296 559.734 113.639 559.612 114.094C559.512 114.405 559.462 114.699 559.462 114.976C559.462 115.276 559.501 115.559 559.579 115.825C559.668 116.08 559.801 116.396 559.978 116.774C560.145 117.162 560.272 117.495 560.361 117.772C560.461 118.049 560.516 118.349 560.527 118.671C560.527 118.859 560.461 118.998 560.328 119.087C560.195 119.164 560.039 119.203 559.862 119.203ZM566.478 119.186C565.956 119.186 565.501 119.009 565.113 118.654C564.736 118.299 564.448 117.839 564.248 117.273C564.059 116.707 563.965 116.119 563.965 115.509C563.965 114.444 564.187 113.545 564.631 112.813C565.085 112.081 565.773 111.715 566.694 111.715C567.249 111.715 567.731 111.814 568.142 112.014C568.563 112.203 569.113 112.524 569.789 112.979L570.222 113.279C570.167 112.913 570.083 112.491 569.972 112.014C569.861 111.537 569.789 111.21 569.756 111.032C569.567 110.167 569.429 109.524 569.34 109.102C569.262 108.669 569.224 108.287 569.224 107.954C569.224 107.366 569.39 107.072 569.723 107.072C569.845 107.338 569.989 107.909 570.155 108.786C570.322 109.651 570.533 110.838 570.788 112.347C571.054 113.945 571.287 115.248 571.487 116.258C571.686 117.267 571.853 117.9 571.986 118.155C571.986 118.41 571.797 118.537 571.42 118.537C571.132 118.537 570.932 118.371 570.821 118.038C570.721 117.705 570.66 117.123 570.638 116.291H570.505C570.039 117.134 569.434 117.827 568.691 118.371C567.948 118.915 567.21 119.186 566.478 119.186ZM566.694 118.371C567.149 118.371 567.637 118.182 568.158 117.805C568.691 117.417 569.14 116.951 569.506 116.407C569.873 115.853 570.056 115.353 570.056 114.91V114.41C568.913 113.212 567.859 112.613 566.894 112.613C566.217 112.613 565.696 112.863 565.33 113.362C564.963 113.85 564.78 114.494 564.78 115.292L564.797 115.642C564.864 116.485 565.052 117.151 565.363 117.639C565.673 118.127 566.117 118.371 566.694 118.371Z" fill="#CBF3C4"/>
<rect x="489.611" y="133.985" width="118.181" height="24.8425" rx="3.78038" fill="#EAFBE8"/>
<rect x="489.611" y="133.985" width="118.181" height="24.8425" rx="3.78038" stroke="#FFE0AE" stroke-width="1.08011"/>
<path d="M545.332 151.026C545.231 151.026 545.146 151.006 545.075 150.966C545.005 150.925 544.899 150.845 544.758 150.724L544.894 149.922C545.075 148.803 545.216 147.871 545.317 147.125C545.418 146.369 545.489 145.593 545.529 144.796C545.186 145.099 544.722 145.593 544.138 146.278C543.795 146.681 543.528 146.979 543.336 147.17C543.155 147.352 543.014 147.442 542.913 147.442C542.832 147.432 542.757 147.387 542.686 147.306C542.626 147.216 542.595 147.11 542.595 146.989C542.595 146.848 542.646 146.722 542.747 146.611L545.408 143.768C545.499 143.667 545.569 143.531 545.62 143.36C545.67 143.188 545.72 142.951 545.771 142.649C545.831 142.266 545.902 141.979 545.983 141.787C546.063 141.585 546.194 141.485 546.376 141.485C546.456 141.485 546.517 141.495 546.557 141.515C546.597 141.525 546.633 141.56 546.663 141.621L546.678 142.12C546.678 142.301 546.587 143.183 546.406 144.766C546.235 146.339 546.048 147.775 545.846 149.076C545.645 150.376 545.473 151.026 545.332 151.026ZM553.67 150.406C553.478 150.406 553.272 150.386 553.05 150.346C552.838 150.295 552.626 150.245 552.415 150.195C551.89 150.043 551.467 149.968 551.144 149.968C550.842 149.968 550.504 149.993 550.131 150.043C549.577 150.094 549.229 150.119 549.088 150.119C548.483 150.119 548.019 150.008 547.697 149.786C547.384 149.564 547.208 149.247 547.167 148.834C547.147 148.582 547.218 148.405 547.379 148.304C547.54 148.193 547.798 148.138 548.15 148.138C548.352 148.138 548.538 148.168 548.71 148.229C548.891 148.279 549.123 148.36 549.405 148.471C549.688 148.592 549.94 148.682 550.162 148.743C550.383 148.803 550.62 148.834 550.872 148.834C551.144 148.834 551.422 148.662 551.704 148.319C551.996 147.977 552.233 147.528 552.415 146.974C552.606 146.419 552.702 145.84 552.702 145.235C552.702 144.489 552.596 143.914 552.384 143.511C552.183 143.098 551.8 142.891 551.235 142.891C550.167 142.891 549.395 143.511 548.922 144.751C548.74 144.68 548.609 144.589 548.528 144.479C548.458 144.358 548.423 144.196 548.423 143.995C548.423 143.702 548.533 143.42 548.755 143.148C548.987 142.866 549.31 142.639 549.723 142.467C550.146 142.286 550.635 142.195 551.19 142.195C551.986 142.195 552.581 142.467 552.974 143.012C553.377 143.556 553.579 144.272 553.579 145.159C553.579 146.046 553.392 146.848 553.019 147.563C552.657 148.269 552.213 148.829 551.689 149.242C551.941 149.343 552.183 149.408 552.415 149.438C552.657 149.469 552.919 149.484 553.201 149.484C553.544 149.494 553.781 149.529 553.912 149.59C554.053 149.64 554.123 149.771 554.123 149.983C554.123 150.074 554.078 150.169 553.987 150.27C553.897 150.361 553.791 150.406 553.67 150.406Z" fill="#767474"/>
<path d="M670.695 118.571C671.604 118.571 672.309 118.443 672.808 118.188C673.307 117.933 673.557 117.561 673.557 117.073C673.557 116.64 673.407 116.269 673.108 115.958C672.808 115.636 672.436 115.365 671.993 115.143C671.549 114.921 670.944 114.66 670.179 114.361C670.112 114.338 669.951 114.277 669.696 114.178C668.653 113.756 667.849 113.334 667.283 112.913C666.729 112.491 666.451 111.948 666.451 111.282C666.451 110.539 666.745 109.978 667.333 109.601C667.921 109.224 668.676 109.035 669.596 109.035C670.273 109.035 670.894 109.124 671.46 109.302C672.037 109.468 672.492 109.701 672.825 110.001C673.169 110.3 673.341 110.638 673.341 111.016C673.207 111.082 673.08 111.116 672.958 111.116C672.825 111.116 672.686 111.088 672.542 111.032C672.409 110.966 672.209 110.86 671.943 110.716C671.51 110.483 671.105 110.3 670.728 110.167C670.351 110.023 669.907 109.951 669.397 109.951C668.753 109.951 668.232 110.062 667.832 110.283C667.433 110.505 667.233 110.816 667.233 111.215C667.233 111.526 667.366 111.809 667.633 112.064C667.91 112.319 668.254 112.547 668.664 112.746C669.086 112.935 669.646 113.162 670.345 113.429C671.233 113.773 671.965 114.094 672.542 114.394C673.119 114.693 673.607 115.076 674.006 115.542C674.417 115.997 674.622 116.541 674.622 117.173C674.622 117.916 674.267 118.493 673.557 118.904C672.847 119.303 671.965 119.503 670.911 119.503C670.079 119.503 669.258 119.381 668.448 119.137C667.638 118.892 666.945 118.532 666.368 118.055C665.791 117.567 665.425 116.984 665.27 116.308C665.27 116.008 665.353 115.753 665.519 115.542C665.686 115.32 665.891 115.209 666.135 115.209C666.135 115.93 666.335 116.546 666.734 117.056C667.145 117.556 667.694 117.933 668.382 118.188C669.08 118.443 669.852 118.571 670.695 118.571ZM680.124 119.22C678.826 119.22 677.816 118.926 677.095 118.338C676.385 117.739 676.03 116.818 676.03 115.575C676.03 114.943 676.185 114.344 676.496 113.778C676.817 113.201 677.245 112.741 677.777 112.397C678.321 112.042 678.903 111.864 679.524 111.864C680.157 111.864 680.695 112.003 681.139 112.28C681.582 112.547 681.804 112.935 681.804 113.445C681.804 113.8 681.738 114.055 681.605 114.211C681.483 114.355 681.344 114.427 681.189 114.427C681.189 113.895 681.044 113.462 680.756 113.129C680.467 112.796 680.057 112.63 679.524 112.63C678.992 112.63 678.532 112.774 678.143 113.063C677.755 113.34 677.455 113.712 677.245 114.178C677.045 114.632 676.945 115.109 676.945 115.609C676.945 116.663 677.3 117.378 678.01 117.755C678.731 118.133 679.68 118.321 680.856 118.321C681.255 118.321 681.777 118.299 682.42 118.255C682.442 118.255 682.492 118.277 682.57 118.321C682.647 118.366 682.708 118.393 682.753 118.404V118.504C682.753 118.826 682.47 119.026 681.904 119.103C681.338 119.181 680.745 119.22 680.124 119.22ZM686.952 119.22C686.297 119.22 685.704 119.076 685.171 118.787C684.65 118.488 684.239 118.077 683.94 117.556C683.651 117.023 683.507 116.419 683.507 115.742C683.507 114.632 683.912 113.806 684.722 113.262C685.543 112.719 686.547 112.447 687.734 112.447C688.278 112.447 688.783 112.58 689.248 112.846C689.725 113.112 690.108 113.495 690.397 113.994C690.685 114.494 690.829 115.071 690.829 115.725C690.829 116.435 690.646 117.056 690.28 117.589C689.914 118.11 689.432 118.515 688.832 118.804C688.244 119.081 687.618 119.22 686.952 119.22ZM686.769 118.271C687.801 118.271 688.583 118.038 689.115 117.572C689.648 117.106 689.914 116.424 689.914 115.525C689.914 114.915 689.703 114.388 689.282 113.945C688.871 113.501 688.294 113.279 687.551 113.279C687.052 113.279 686.547 113.373 686.037 113.562C685.526 113.75 685.105 114.033 684.772 114.41C684.439 114.788 684.273 115.243 684.273 115.775C684.273 116.219 684.384 116.635 684.606 117.023C684.827 117.4 685.127 117.705 685.504 117.938C685.892 118.16 686.314 118.271 686.769 118.271ZM693.7 119.203C693.246 118.316 692.885 117.273 692.619 116.075C692.364 114.876 692.236 113.839 692.236 112.963C692.236 112.619 692.314 112.397 692.469 112.297C692.558 112.242 692.624 112.214 692.669 112.214C692.746 112.214 692.802 112.275 692.835 112.397C692.88 112.519 692.924 112.741 692.968 113.063L693.051 113.662C693.174 113.063 693.406 112.591 693.75 112.247C694.105 111.892 694.538 111.715 695.048 111.715C695.614 111.715 696.036 111.826 696.313 112.047C696.59 112.258 696.729 112.613 696.729 113.112C696.174 112.846 695.67 112.713 695.215 112.713C694.782 112.713 694.41 112.83 694.1 113.063C693.789 113.296 693.573 113.639 693.451 114.094C693.351 114.405 693.301 114.699 693.301 114.976C693.301 115.276 693.34 115.559 693.418 115.825C693.506 116.08 693.639 116.396 693.817 116.774C693.983 117.162 694.111 117.495 694.2 117.772C694.3 118.049 694.355 118.349 694.366 118.671C694.366 118.859 694.3 118.998 694.166 119.087C694.033 119.164 693.878 119.203 693.7 119.203ZM701.398 119.203C700.688 119.203 700.034 119.064 699.435 118.787C698.835 118.51 698.358 118.116 698.003 117.606C697.648 117.095 697.471 116.507 697.471 115.842C697.471 115.098 697.61 114.405 697.887 113.761C698.164 113.107 698.569 112.586 699.102 112.197C699.645 111.798 700.278 111.598 700.999 111.598C701.753 111.598 702.325 111.842 702.713 112.33C703.101 112.807 703.284 113.412 703.262 114.144C703.262 114.799 703.001 115.298 702.48 115.642C701.969 115.986 701.315 116.158 700.516 116.158C700.394 116.158 700.211 116.147 699.967 116.125C699.568 116.08 699.285 116.019 699.118 115.941C698.952 115.864 698.869 115.708 698.869 115.476C698.869 115.398 698.891 115.342 698.935 115.309C698.98 115.265 699.068 115.243 699.202 115.243C699.346 115.243 699.601 115.276 699.967 115.342C700.322 115.409 700.638 115.442 700.916 115.442C701.936 115.442 702.447 114.998 702.447 114.111C702.447 113.578 702.347 113.157 702.147 112.846C701.958 112.536 701.62 112.38 701.132 112.38C700.599 112.38 700.122 112.524 699.701 112.813C699.279 113.09 698.952 113.456 698.719 113.911C698.497 114.366 698.386 114.849 698.386 115.359C698.386 116.235 698.63 116.957 699.118 117.522C699.606 118.077 700.361 118.354 701.382 118.354C701.504 118.354 701.709 118.343 701.997 118.321C702.119 118.31 702.269 118.277 702.447 118.221C702.624 118.166 702.752 118.127 702.829 118.105C703.306 117.938 703.656 117.855 703.878 117.855C704.044 117.855 704.172 117.9 704.26 117.988C703.983 118.41 703.567 118.721 703.012 118.92C702.469 119.109 701.931 119.203 701.398 119.203Z" fill="#CBF3C4"/>
<rect x="625.514" y="133.985" width="118.181" height="24.8425" rx="3.78038" fill="#EBFFED"/>
<rect x="625.514" y="133.985" width="118.181" height="24.8425" rx="3.78038" stroke="#FFE0AE" stroke-width="1.08011"/>
<path d="M681.235 151.026C681.134 151.026 681.048 151.006 680.978 150.966C680.907 150.925 680.801 150.845 680.66 150.724L680.796 149.922C680.978 148.803 681.119 147.871 681.22 147.125C681.32 146.369 681.391 145.593 681.431 144.796C681.088 145.099 680.625 145.593 680.04 146.278C679.697 146.681 679.43 146.979 679.239 147.17C679.057 147.352 678.916 147.442 678.815 147.442C678.735 147.432 678.659 147.387 678.588 147.306C678.528 147.216 678.498 147.11 678.498 146.989C678.498 146.848 678.548 146.722 678.649 146.611L681.31 143.768C681.401 143.667 681.472 143.531 681.522 143.36C681.572 143.188 681.623 142.951 681.673 142.649C681.734 142.266 681.804 141.979 681.885 141.787C681.966 141.585 682.097 141.485 682.278 141.485C682.359 141.485 682.419 141.495 682.459 141.515C682.5 141.525 682.535 141.56 682.565 141.621L682.58 142.12C682.58 142.301 682.49 143.183 682.308 144.766C682.137 146.339 681.95 147.775 681.749 149.076C681.547 150.376 681.376 151.026 681.235 151.026ZM689.572 150.406C689.381 150.406 689.174 150.386 688.952 150.346C688.74 150.295 688.529 150.245 688.317 150.195C687.793 150.043 687.369 149.968 687.047 149.968C686.744 149.968 686.407 149.993 686.034 150.043C685.479 150.094 685.131 150.119 684.99 150.119C684.385 150.119 683.922 150.008 683.599 149.786C683.287 149.564 683.11 149.247 683.07 148.834C683.05 148.582 683.12 148.405 683.281 148.304C683.443 148.193 683.7 148.138 684.053 148.138C684.254 148.138 684.441 148.168 684.612 148.229C684.794 148.279 685.026 148.36 685.308 148.471C685.59 148.592 685.842 148.682 686.064 148.743C686.286 148.803 686.523 148.834 686.775 148.834C687.047 148.834 687.324 148.662 687.606 148.319C687.899 147.977 688.136 147.528 688.317 146.974C688.509 146.419 688.604 145.84 688.604 145.235C688.604 144.489 688.498 143.914 688.287 143.511C688.085 143.098 687.702 142.891 687.137 142.891C686.069 142.891 685.298 143.511 684.824 144.751C684.642 144.68 684.511 144.589 684.431 144.479C684.36 144.358 684.325 144.196 684.325 143.995C684.325 143.702 684.436 143.42 684.658 143.148C684.889 142.866 685.212 142.639 685.625 142.467C686.049 142.286 686.538 142.195 687.092 142.195C687.889 142.195 688.483 142.467 688.876 143.012C689.28 143.556 689.481 144.272 689.481 145.159C689.481 146.046 689.295 146.848 688.922 147.563C688.559 148.269 688.115 148.829 687.591 149.242C687.843 149.343 688.085 149.408 688.317 149.438C688.559 149.469 688.821 149.484 689.103 149.484C689.446 149.494 689.683 149.529 689.814 149.59C689.955 149.64 690.026 149.771 690.026 149.983C690.026 150.074 689.98 150.169 689.89 150.27C689.799 150.361 689.693 150.406 689.572 150.406Z" fill="#767474"/>
<rect x="698.819" y="280.711" width="27.7352" height="27.7352" rx="13.8676" fill="#008786"/>
<path d="M711.022 297.907C711.258 297.907 711.456 297.827 711.615 297.667C711.775 297.508 711.854 297.31 711.854 297.075V292.061C711.854 291.826 711.775 291.632 711.615 291.479C711.456 291.326 711.258 291.25 711.022 291.25C710.786 291.25 710.589 291.33 710.43 291.489C710.27 291.649 710.19 291.846 710.19 292.082V297.095C710.19 297.331 710.27 297.525 710.43 297.678C710.589 297.83 710.786 297.907 711.022 297.907ZM714.35 297.907C714.586 297.907 714.784 297.827 714.944 297.667C715.103 297.508 715.182 297.31 715.182 297.075V292.061C715.182 291.826 715.103 291.632 714.944 291.479C714.784 291.326 714.586 291.25 714.35 291.25C714.115 291.25 713.917 291.33 713.758 291.489C713.598 291.649 713.518 291.846 713.518 292.082V297.095C713.518 297.331 713.598 297.525 713.758 297.678C713.917 297.83 714.115 297.907 714.35 297.907ZM712.686 302.899C711.535 302.899 710.454 302.68 709.441 302.243C708.429 301.807 707.548 301.214 706.799 300.465C706.051 299.716 705.458 298.836 705.021 297.823C704.584 296.811 704.366 295.729 704.366 294.578C704.366 293.427 704.584 292.346 705.021 291.333C705.458 290.321 706.051 289.44 706.799 288.692C707.548 287.943 708.429 287.35 709.441 286.913C710.454 286.476 711.535 286.258 712.686 286.258C713.837 286.258 714.919 286.476 715.931 286.913C716.944 287.35 717.824 287.943 718.573 288.692C719.322 289.44 719.915 290.321 720.351 291.333C720.788 292.346 721.007 293.427 721.007 294.578C721.007 295.729 720.788 296.811 720.351 297.823C719.915 298.836 719.322 299.716 718.573 300.465C717.824 301.214 716.944 301.807 715.931 302.243C714.919 302.68 713.837 302.899 712.686 302.899ZM712.686 301.235C714.531 301.235 716.101 300.587 717.398 299.29C718.695 297.993 719.343 296.423 719.343 294.578C719.343 292.734 718.695 291.163 717.398 289.866C716.101 288.57 714.531 287.922 712.686 287.922C710.842 287.922 709.272 288.57 707.975 289.866C706.678 291.163 706.03 292.734 706.03 294.578C706.03 296.423 706.678 297.993 707.975 299.29C709.272 300.587 710.842 301.235 712.686 301.235Z" fill="#FCF9F9"/>
<rect x="506.059" y="280.711" width="27.7352" height="27.7352" rx="13.8676" fill="#008786"/>
<path d="M511.606 295.662C511.803 297.159 512.406 298.575 513.35 299.757C514.294 300.939 515.543 301.843 516.964 302.372C518.385 302.901 519.924 303.035 521.415 302.759C522.907 302.484 524.295 301.809 525.43 300.808C526.566 299.807 527.407 298.517 527.862 297.077C528.317 295.636 528.37 294.099 528.015 292.631C527.659 291.163 526.909 289.819 525.845 288.743C524.78 287.667 523.442 286.9 521.973 286.524C517.9 285.484 513.685 287.571 512.128 291.46" stroke="#FCF9F9" stroke-width="1.26484" stroke-linecap="round" stroke-linejoin="round"/>
<path d="M512.068 286.5V291.834H517.847" stroke="#FCF9F9" stroke-width="1.38676" stroke-linecap="round" stroke-linejoin="round"/>
<rect x="571.93" y="341.023" width="22.1882" height="22.1882" rx="11.0941" fill="#0013F7"/>
<path d="M583.476 354.656L581.517 352.656C581.441 352.579 581.385 352.495 581.347 352.406C581.309 352.316 581.291 352.22 581.291 352.117C581.291 352.015 581.309 351.919 581.347 351.829C581.385 351.739 581.441 351.656 581.517 351.579L583.476 349.579C583.715 349.335 583.988 349.281 584.295 349.416C584.603 349.55 584.757 349.79 584.757 350.137V354.098C584.757 354.444 584.603 354.684 584.295 354.819C583.988 354.954 583.715 354.899 583.476 354.656Z" fill="#FCF9F9"/>
<rect x="630.867" y="341.023" width="22.1882" height="22.1882" rx="11.0941" fill="#DF0019"/>
<path d="M641.509 354.656C641.271 354.899 640.998 354.954 640.69 354.819C640.382 354.684 640.228 354.444 640.228 354.098V350.137C640.228 349.79 640.382 349.55 640.69 349.416C640.998 349.281 641.271 349.335 641.509 349.579L643.469 351.579C643.544 351.656 643.601 351.739 643.638 351.829C643.676 351.919 643.695 352.015 643.695 352.117C643.695 352.22 643.676 352.316 643.638 352.406C643.601 352.495 643.544 352.579 643.469 352.656L641.509 354.656Z" fill="#FCF9F9"/>
<rect x="601.052" y="311.211" width="22.1882" height="22.1882" rx="11.0941" fill="#F77900"/>
<path d="M610.165 324.037C609.819 324.037 609.579 323.883 609.445 323.575C609.31 323.268 609.364 322.995 609.608 322.756L611.608 320.796C611.685 320.721 611.768 320.665 611.858 320.627C611.947 320.589 612.044 320.57 612.146 320.57C612.249 320.57 612.345 320.589 612.435 320.627C612.524 320.665 612.608 320.721 612.685 320.796L614.684 322.756C614.928 322.995 614.982 323.268 614.848 323.575C614.713 323.883 614.473 324.037 614.127 324.037H610.165Z" fill="#FCF9F9"/>
<rect x="601.052" y="370.148" width="22.1882" height="22.1882" rx="11.0941" fill="#00AD16"/>
<path d="M611.608 382.749L609.608 380.789C609.364 380.55 609.31 380.277 609.445 379.97C609.579 379.662 609.819 379.508 610.165 379.508H614.127C614.473 379.508 614.713 379.662 614.848 379.97C614.982 380.277 614.928 380.55 614.684 380.789L612.685 382.749C612.608 382.824 612.524 382.881 612.435 382.918C612.345 382.956 612.249 382.975 612.146 382.975C612.044 382.975 611.947 382.956 611.858 382.918C611.768 382.881 611.685 382.824 611.608 382.749Z" fill="#FCF9F9"/>
</svg>
