<svg width="140" height="49" viewBox="0 0 140 49" fill="none" xmlns="http://www.w3.org/2000/svg">
<g filter="url(#filter0_d_426_5582)">
<rect width="136" height="45" rx="4.73373" fill="#F0F0F0" shape-rendering="crispEdges"/>
<rect x="0.591716" y="0.591716" width="134.817" height="43.8166" rx="4.14201" stroke="#808080" stroke-width="1.18343" shape-rendering="crispEdges"/>
<path d="M53.7197 22.0303C54.1826 22.1182 54.5957 22.2266 54.959 22.3555C55.3281 22.4844 55.6387 22.6221 55.8906 22.7686C56.1426 22.9092 56.3594 23.0732 56.541 23.2607C56.7227 23.4482 56.8633 23.6299 56.9629 23.8057C57.0684 23.9814 57.1504 24.1836 57.209 24.4121C57.2676 24.6406 57.3057 24.8516 57.3232 25.0449C57.3408 25.2324 57.3496 25.4521 57.3496 25.7041C57.3496 26.1729 57.2617 26.6211 57.0859 27.0488C56.9102 27.4766 56.6904 27.8311 56.4268 28.1123C56.1689 28.3877 55.8994 28.6074 55.6182 28.7715C55.3369 28.9355 55.082 29.0176 54.8535 29.0176C54.7305 29.0176 54.6689 28.959 54.6689 28.8418C54.6689 28.7656 54.7158 28.6807 54.8096 28.5869C55.1084 28.2998 55.3281 27.9512 55.4688 27.541C55.6094 27.1309 55.6797 26.7588 55.6797 26.4248C55.6797 26.2256 55.6768 26.0703 55.6709 25.959C55.665 25.8477 55.6445 25.6953 55.6094 25.502C55.5801 25.3086 55.5332 25.1533 55.4688 25.0361C55.4102 24.9131 55.3193 24.7754 55.1963 24.623C55.0732 24.4648 54.9238 24.3359 54.748 24.2363C54.5723 24.1309 54.3467 24.0342 54.0713 23.9463C53.8018 23.8525 53.4912 23.7793 53.1396 23.7266C52.6943 23.6621 52.293 23.5771 51.9355 23.4717C51.584 23.3604 51.291 23.2432 51.0566 23.1201C50.8281 22.9971 50.6289 22.8535 50.459 22.6895C50.2949 22.5254 50.1689 22.373 50.0811 22.2324C49.9932 22.0859 49.9258 21.9219 49.8789 21.7402C49.832 21.5586 49.8027 21.4092 49.791 21.292C49.7793 21.1689 49.7734 21.0312 49.7734 20.8789C49.7734 20.7031 49.7998 20.5361 49.8525 20.3779C49.9346 20.126 50.1221 19.8857 50.415 19.6572C50.708 19.4287 50.9629 19.3145 51.1797 19.3145C51.2852 19.3145 51.3643 19.3379 51.417 19.3848C51.4756 19.4258 51.5049 19.5166 51.5049 19.6572C51.5049 20.1025 51.5312 20.4541 51.584 20.7119C51.6426 20.9697 51.7627 21.1865 51.9443 21.3623C52.126 21.5381 52.3457 21.6699 52.6035 21.7578C52.8613 21.8457 53.2334 21.9365 53.7197 22.0303ZM52.2871 29.2725C51.8418 29.2725 51.4492 29.2139 51.1094 29.0967C50.7754 28.9854 50.4092 28.748 50.0107 28.3848C49.8174 28.209 49.7207 28.0244 49.7207 27.8311C49.7207 27.6729 49.7852 27.5293 49.9141 27.4004C50.3008 27.0137 50.6494 26.8203 50.96 26.8203C51.1592 26.8203 51.3818 26.9229 51.6279 27.1279C51.9678 27.4209 52.249 27.6113 52.4717 27.6992C52.7002 27.7871 52.9668 27.8311 53.2715 27.8311C53.5293 27.8311 53.7666 27.7812 53.9834 27.6816C54.2061 27.582 54.3379 27.5322 54.3789 27.5322C54.5254 27.5322 54.5986 27.626 54.5986 27.8135C54.5986 27.9072 54.5605 28.0273 54.4844 28.1738C54.4082 28.3203 54.2881 28.4814 54.124 28.6572C53.9658 28.8271 53.7227 28.9707 53.3945 29.0879C53.0723 29.2109 52.7031 29.2725 52.2871 29.2725ZM56.6641 17.4424C56.6641 17.6709 56.5117 17.8994 56.207 18.1279C55.9082 18.3564 55.6475 18.4707 55.4248 18.4707C55.2842 18.4707 55.0938 18.418 54.8535 18.3125C54.6133 18.207 54.3408 18.1016 54.0361 17.9961C53.7373 17.8906 53.4443 17.8379 53.1572 17.8379C52.665 17.8379 52.2051 17.9316 51.7773 18.1191C51.3555 18.3008 50.9043 18.5908 50.4238 18.9893C50.1074 19.2529 49.9082 19.3848 49.8262 19.3848C49.6973 19.3848 49.6328 19.3145 49.6328 19.1738C49.6328 19.0801 49.6885 18.9365 49.7998 18.7432C49.9111 18.5498 50.0166 18.3916 50.1162 18.2686C51.1475 17.0205 52.5156 16.3965 54.2207 16.3965C54.543 16.3965 54.8887 16.4375 55.2578 16.5195C55.627 16.5957 55.9521 16.7188 56.2334 16.8887C56.5205 17.0527 56.6641 17.2373 56.6641 17.4424ZM61.4717 22.1973V25.2734C61.4717 25.7773 61.501 26.2051 61.5596 26.5566C61.6182 26.9023 61.7031 27.1836 61.8145 27.4004C61.9316 27.6172 62.0752 27.7725 62.2451 27.8662C62.4209 27.96 62.626 28.0068 62.8604 28.0068C63.1357 28.0068 63.3643 27.9746 63.5459 27.9102C63.7334 27.8398 63.8887 27.7666 64.0117 27.6904C64.1348 27.6084 64.2373 27.5352 64.3193 27.4707C64.4014 27.4004 64.4834 27.3652 64.5654 27.3652C64.6416 27.3652 64.6973 27.3887 64.7324 27.4355C64.7676 27.4766 64.7852 27.5322 64.7852 27.6025C64.7852 27.7021 64.7441 27.8457 64.6621 28.0332C64.5859 28.2148 64.4541 28.3994 64.2666 28.5869C64.0791 28.7686 63.8301 28.9268 63.5195 29.0615C63.2148 29.2021 62.8311 29.2725 62.3682 29.2725C61.917 29.2725 61.5332 29.208 61.2168 29.0791C60.9062 28.9502 60.6514 28.7422 60.4521 28.4551C60.2529 28.1621 60.1094 27.7842 60.0215 27.3213C59.9336 26.8525 59.8896 26.2783 59.8896 25.5986V22.1973C59.8896 22.0684 59.916 21.9717 59.9688 21.9072C60.0273 21.8369 60.0977 21.7871 60.1797 21.7578C60.2676 21.7285 60.3555 21.7139 60.4434 21.7139C60.5371 21.7139 60.6191 21.7139 60.6895 21.7139C60.7949 21.7139 60.8945 21.7197 60.9883 21.7314C61.0879 21.7373 61.1729 21.7578 61.2432 21.793C61.3135 21.8223 61.3691 21.8691 61.4102 21.9336C61.4512 21.998 61.4717 22.0859 61.4717 22.1973ZM59.4326 20.29V20.791C59.4326 20.9375 59.4004 21.0518 59.3359 21.1338C59.2715 21.2158 59.1484 21.2568 58.9668 21.2568H58.5537C58.3486 21.2568 58.2461 21.1924 58.2461 21.0635C58.2461 20.9053 58.3721 20.6885 58.624 20.4131C58.8818 20.1377 59.0869 20 59.2393 20C59.3682 20 59.4326 20.0967 59.4326 20.29ZM61.4717 18.4004V19.5342C61.4717 19.7158 61.5127 19.8389 61.5947 19.9033C61.6768 19.9678 61.791 20 61.9375 20H64.293C64.498 20 64.6006 20.0674 64.6006 20.2021C64.6006 20.3428 64.501 20.5186 64.3018 20.7295C64.1084 20.9404 63.915 21.0811 63.7217 21.1514C63.5342 21.2217 63.1973 21.2568 62.7109 21.2568H60.3555C60.209 21.2568 60.0947 21.2246 60.0127 21.1602C59.9307 21.0957 59.8896 20.9727 59.8896 20.791V19.1299C59.8896 18.8076 60.0332 18.5439 60.3203 18.3389C60.6074 18.1279 60.8887 18.0225 61.1641 18.0225C61.3691 18.0225 61.4717 18.1484 61.4717 18.4004ZM69.6191 19.7275C70.1113 19.7275 70.5537 19.792 70.9463 19.9209C71.3389 20.0498 71.6699 20.2578 71.9395 20.5449C72.209 20.8262 72.4141 21.1924 72.5547 21.6436C72.7012 22.0889 72.7744 22.6279 72.7744 23.2607V28.0244C72.7744 28.1709 72.7275 28.3086 72.6338 28.4375C72.5459 28.5664 72.4346 28.6807 72.2998 28.7803C72.1709 28.874 72.0303 28.9473 71.8779 29C71.7314 29.0586 71.6025 29.0879 71.4912 29.0879C71.2861 29.0879 71.1836 28.9619 71.1836 28.71V23.5859C71.1836 21.8574 70.498 20.9932 69.127 20.9932C68.3301 20.9932 67.6064 21.2129 66.9561 21.6523C66.6982 21.8223 66.5312 21.9072 66.4551 21.9072C66.3672 21.9072 66.3232 21.8604 66.3232 21.7666C66.3232 21.6025 66.4141 21.4092 66.5957 21.1865C67.3926 20.2139 68.4004 19.7275 69.6191 19.7275ZM70.5156 28.5078C70.2695 28.7305 69.9648 28.9121 69.6016 29.0527C69.2383 29.1992 68.8896 29.2725 68.5557 29.2725C67.7764 29.2725 67.1787 29.0674 66.7627 28.6572C66.3525 28.2412 66.1475 27.7314 66.1475 27.1279C66.1475 26.6943 66.2969 26.3633 66.5957 26.1348C66.8652 25.9238 67.0996 25.8184 67.2988 25.8184C67.3633 25.8184 67.4189 25.8418 67.4658 25.8887C67.5127 25.9355 67.5361 26.0059 67.5361 26.0996C67.5361 26.7676 67.6504 27.2539 67.8789 27.5586C68.1074 27.8574 68.5146 28.0068 69.1006 28.0068C69.2764 28.0068 69.4902 27.9775 69.7422 27.9189C69.9941 27.8545 70.208 27.7695 70.3838 27.6641C70.4893 27.5996 70.5684 27.5674 70.6211 27.5674C70.7031 27.5674 70.7441 27.6758 70.7441 27.8926C70.7441 28.1621 70.668 28.3672 70.5156 28.5078ZM70.4453 23.7617C70.5566 23.8203 70.6328 23.8994 70.6738 23.999C70.7148 24.0928 70.7354 24.2715 70.7354 24.5352C70.7354 24.7695 70.7148 24.9395 70.6738 25.0449C70.6387 25.1445 70.5713 25.1943 70.4717 25.1943C70.4072 25.1943 70.3164 25.168 70.1992 25.1152C69.6484 24.875 69.1504 24.7549 68.7051 24.7549C67.9844 24.7549 67.2988 25.0156 66.6484 25.5371C66.4434 25.7012 66.3057 25.7832 66.2354 25.7832C66.1416 25.7832 66.0947 25.7305 66.0947 25.625C66.0947 25.4609 66.1533 25.2822 66.2705 25.0889C66.5811 24.5674 66.9883 24.1719 67.4922 23.9023C68.002 23.627 68.5674 23.4893 69.1885 23.4893C69.6631 23.4893 70.082 23.5801 70.4453 23.7617ZM74.9541 28.71V24.2803C74.9541 23.9521 75.0332 23.7002 75.1914 23.5244C75.3496 23.3428 75.5371 23.1787 75.7539 23.0322C75.9707 22.8799 76.1406 22.8037 76.2637 22.8037C76.4453 22.8037 76.5361 22.9297 76.5361 23.1816V27.9805C76.5361 28.3027 76.3926 28.5693 76.1055 28.7803C75.8184 28.9854 75.5371 29.0879 75.2617 29.0879C75.0566 29.0879 74.9541 28.9619 74.9541 28.71ZM78.7334 19.7275C79.0674 19.7275 79.416 19.8008 79.7793 19.9473C80.1484 20.0938 80.333 20.2842 80.333 20.5186C80.333 20.7061 80.21 20.9023 79.9639 21.1074C79.7178 21.3066 79.501 21.4062 79.3135 21.4062C79.1553 21.4062 78.9326 21.333 78.6455 21.1865C78.376 21.0576 78.1299 20.9932 77.9072 20.9932C77.7666 20.9932 77.6318 21.0166 77.5029 21.0635C77.374 21.1045 77.2246 21.1895 77.0547 21.3184C76.8848 21.4414 76.7441 21.5498 76.6328 21.6436C76.5273 21.7314 76.3428 21.8984 76.0791 22.1445C75.8213 22.3848 75.6191 22.5693 75.4727 22.6982C75.3438 22.8096 75.2354 22.8652 75.1475 22.8652C75.0186 22.8652 74.9541 22.7568 74.9541 22.54V20.835C74.9541 20.5186 75.0977 20.2549 75.3848 20.0439C75.6777 19.833 75.959 19.7275 76.2285 19.7275C76.4336 19.7275 76.5361 19.8535 76.5361 20.1055V20.5977C76.5361 20.7852 76.5771 20.8789 76.6592 20.8789C76.7236 20.8789 76.8262 20.8086 76.9668 20.668C77.5938 20.041 78.1826 19.7275 78.7334 19.7275ZM83.8311 22.1973V25.2734C83.8311 25.7773 83.8604 26.2051 83.9189 26.5566C83.9775 26.9023 84.0625 27.1836 84.1738 27.4004C84.291 27.6172 84.4346 27.7725 84.6045 27.8662C84.7803 27.96 84.9854 28.0068 85.2197 28.0068C85.4951 28.0068 85.7236 27.9746 85.9053 27.9102C86.0928 27.8398 86.248 27.7666 86.3711 27.6904C86.4941 27.6084 86.5967 27.5352 86.6787 27.4707C86.7607 27.4004 86.8428 27.3652 86.9248 27.3652C87.001 27.3652 87.0566 27.3887 87.0918 27.4355C87.127 27.4766 87.1445 27.5322 87.1445 27.6025C87.1445 27.7021 87.1035 27.8457 87.0215 28.0332C86.9453 28.2148 86.8135 28.3994 86.626 28.5869C86.4385 28.7686 86.1895 28.9268 85.8789 29.0615C85.5742 29.2021 85.1904 29.2725 84.7275 29.2725C84.2764 29.2725 83.8926 29.208 83.5762 29.0791C83.2656 28.9502 83.0107 28.7422 82.8115 28.4551C82.6123 28.1621 82.4688 27.7842 82.3809 27.3213C82.293 26.8525 82.249 26.2783 82.249 25.5986V22.1973C82.249 22.0684 82.2754 21.9717 82.3281 21.9072C82.3867 21.8369 82.457 21.7871 82.5391 21.7578C82.627 21.7285 82.7148 21.7139 82.8027 21.7139C82.8965 21.7139 82.9785 21.7139 83.0488 21.7139C83.1543 21.7139 83.2539 21.7197 83.3477 21.7314C83.4473 21.7373 83.5322 21.7578 83.6025 21.793C83.6729 21.8223 83.7285 21.8691 83.7695 21.9336C83.8105 21.998 83.8311 22.0859 83.8311 22.1973ZM81.792 20.29V20.791C81.792 20.9375 81.7598 21.0518 81.6953 21.1338C81.6309 21.2158 81.5078 21.2568 81.3262 21.2568H80.9131C80.708 21.2568 80.6055 21.1924 80.6055 21.0635C80.6055 20.9053 80.7314 20.6885 80.9834 20.4131C81.2412 20.1377 81.4463 20 81.5986 20C81.7275 20 81.792 20.0967 81.792 20.29ZM83.8311 18.4004V19.5342C83.8311 19.7158 83.8721 19.8389 83.9541 19.9033C84.0361 19.9678 84.1504 20 84.2969 20H86.6523C86.8574 20 86.96 20.0674 86.96 20.2021C86.96 20.3428 86.8604 20.5186 86.6611 20.7295C86.4678 20.9404 86.2744 21.0811 86.0811 21.1514C85.8936 21.2217 85.5566 21.2568 85.0703 21.2568H82.7148C82.5684 21.2568 82.4541 21.2246 82.3721 21.1602C82.29 21.0957 82.249 20.9727 82.249 20.791V19.1299C82.249 18.8076 82.3926 18.5439 82.6797 18.3389C82.9668 18.1279 83.248 18.0225 83.5234 18.0225C83.7285 18.0225 83.8311 18.1484 83.8311 18.4004Z" fill="#232323"/>
</g>
<defs>
<filter id="filter0_d_426_5582" x="0" y="0" width="139.55" height="48.5503" filterUnits="userSpaceOnUse" color-interpolation-filters="sRGB">
<feFlood flood-opacity="0" result="BackgroundImageFix"/>
<feColorMatrix in="SourceAlpha" type="matrix" values="0 0 0 0 0 0 0 0 0 0 0 0 0 0 0 0 0 0 127 0" result="hardAlpha"/>
<feOffset dx="3.5503" dy="3.5503"/>
<feComposite in2="hardAlpha" operator="out"/>
<feColorMatrix type="matrix" values="0 0 0 0 0.501961 0 0 0 0 0.501961 0 0 0 0 0.501961 0 0 0 1 0"/>
<feBlend mode="normal" in2="BackgroundImageFix" result="effect1_dropShadow_426_5582"/>
<feBlend mode="normal" in="SourceGraphic" in2="effect1_dropShadow_426_5582" result="shape"/>
</filter>
</defs>
</svg>
