<svg width="322" height="192" viewBox="0 0 322 192" fill="none" xmlns="http://www.w3.org/2000/svg">
<rect y="0.789062" width="321.953" height="190.879" rx="11.9814" fill="#F5F5F5"/>
<path d="M89.219 55.75C88.9453 55.8553 88.6822 55.7921 88.4295 55.5605C88.1979 55.3289 88.0716 55.0026 88.0506 54.5816C87.9664 53.971 87.8716 53.2236 87.7664 52.3394C87.6821 51.4552 87.619 50.8025 87.5769 50.3815C87.5348 49.9604 87.44 49.1499 87.2927 47.9498C87.1663 46.7288 87.0295 45.6761 86.8821 44.7919C86.84 44.4971 86.7032 43.9708 86.4716 43.2129C85.8611 41.0444 85.5558 39.476 85.5558 38.5075C85.7032 38.297 85.8505 38.1917 85.9979 38.1917C86.5453 38.1917 87.1137 39.2865 87.7032 41.476C88.2927 43.6655 88.7874 46.1393 89.1874 48.8972C89.6085 51.6341 89.819 53.5078 89.819 54.5184C89.819 54.5605 89.819 54.6973 89.819 54.9289C89.819 55.1395 89.7664 55.3184 89.6611 55.4658C89.5769 55.6132 89.4296 55.7079 89.219 55.75ZM95.5145 55.8763C95.2197 55.9605 95.0513 56.0026 95.0092 56.0026C94.8408 56.0026 94.6618 55.9184 94.4723 55.75C93.7776 54.7184 93.2723 52.9184 92.9565 50.3499C92.6618 47.7814 92.5144 45.5708 92.5144 43.7182C92.5144 43.4234 92.7249 43.2761 93.146 43.2761C93.7776 43.2761 94.0934 43.6234 94.0934 44.3182C94.0934 44.5077 94.0829 44.6656 94.0618 44.7919C94.2513 44.3498 94.6092 43.8971 95.1355 43.434C95.6618 42.9708 96.2724 42.5813 96.9671 42.2655C97.6619 41.9497 98.3672 41.7918 99.083 41.7918C101.336 41.7918 102.978 42.7918 104.009 44.7919C105.041 46.7709 105.557 49.2341 105.557 52.1815C105.557 53.1921 105.452 54.0026 105.241 54.6131C105.03 55.2026 104.746 55.4974 104.388 55.4974C104.009 55.4974 103.82 55.3816 103.82 55.15C103.967 54.0342 104.041 52.9394 104.041 51.8657C104.041 49.1499 103.567 47.0972 102.62 45.7077C101.672 44.2971 100.42 43.5919 98.8619 43.5919C98.104 43.5919 97.3671 43.7813 96.6513 44.1603C95.9566 44.5392 95.3881 45.0656 94.946 45.7393C94.525 46.413 94.3144 47.1814 94.3144 48.0446C94.3144 49.013 94.3671 49.8551 94.4723 50.5709C94.5776 51.2867 94.746 52.1499 94.9776 53.1605C95.2302 54.15 95.4092 55.0552 95.5145 55.8763ZM113.331 55.7184C112.341 55.7184 111.478 55.3816 110.741 54.7079C110.025 54.0342 109.478 53.1605 109.099 52.0868C108.741 51.0131 108.562 49.8972 108.562 48.7393C108.562 46.7182 108.983 45.0129 109.825 43.6234C110.688 42.2339 111.994 41.5392 113.741 41.5392C114.794 41.5392 115.71 41.7287 116.489 42.1076C117.289 42.4655 118.331 43.0761 119.615 43.9392L120.436 44.5077C120.331 43.8129 120.173 43.0129 119.962 42.1076C119.752 41.2023 119.615 40.5813 119.552 40.2444C119.194 38.6023 118.931 37.3812 118.762 36.5812C118.615 35.7601 118.541 35.0338 118.541 34.4022C118.541 33.2864 118.857 32.7285 119.489 32.7285C119.72 33.2337 119.994 34.318 120.31 35.9812C120.625 37.6233 121.025 39.876 121.51 42.7392C122.015 45.7708 122.457 48.2446 122.836 50.1604C123.215 52.0762 123.531 53.2763 123.783 53.7605C123.783 54.2447 123.425 54.4868 122.71 54.4868C122.162 54.4868 121.783 54.171 121.573 53.5394C121.383 52.9078 121.268 51.8025 121.225 50.2236H120.973C120.089 51.8236 118.941 53.1394 117.531 54.171C116.12 55.2026 114.72 55.7184 113.331 55.7184ZM113.741 54.171C114.604 54.171 115.531 53.8131 116.52 53.0973C117.531 52.3605 118.383 51.4762 119.078 50.4446C119.773 49.392 120.12 48.4446 120.12 47.6025V46.6551C117.952 44.3813 115.952 43.2445 114.12 43.2445C112.836 43.2445 111.846 43.7182 111.152 44.6656C110.457 45.5919 110.109 46.813 110.109 48.3288L110.141 48.992C110.267 50.592 110.625 51.8552 111.215 52.7815C111.804 53.7079 112.646 54.171 113.741 54.171ZM127.621 55.7816C127.137 55.7816 126.747 55.0763 126.453 53.6657C126.158 52.2341 125.968 51.0025 125.884 49.9709C125.8 48.9393 125.684 47.3077 125.537 45.0761C125.516 44.7182 125.505 44.255 125.505 43.6866C125.505 42.9708 125.558 42.476 125.663 42.2024C125.789 41.9287 125.989 41.7918 126.263 41.7918C126.495 41.7918 126.674 41.8444 126.8 41.9497C126.947 42.0339 127.074 42.1813 127.179 42.3918L127.147 43.655C127.147 45.0024 127.211 46.2761 127.337 47.4761C127.484 48.6762 127.705 50.2867 128 52.3078C128.168 53.1921 128.284 53.9184 128.347 54.4868C128.389 54.7816 128.337 55.0763 128.189 55.371C128.042 55.6447 127.853 55.7816 127.621 55.7816ZM126.832 38.4128C126.368 38.4128 126.021 38.2338 125.789 37.8759C125.579 37.518 125.474 37.0759 125.474 36.5496C125.474 36.318 125.484 36.1496 125.505 36.0443C125.484 35.7075 125.674 35.5391 126.074 35.5391C126.368 35.5391 126.663 35.6127 126.958 35.7601C127.274 35.8864 127.368 35.9812 127.242 36.0443C127.453 36.5917 127.558 37.0233 127.558 37.3391C127.558 37.6128 127.495 37.8338 127.368 38.0023C127.242 38.1496 127.063 38.2865 126.832 38.4128ZM138.475 55.75C137.127 55.75 135.885 55.4868 134.748 54.9605C133.611 54.4342 132.706 53.6868 132.032 52.7184C131.359 51.7499 131.022 50.6341 131.022 49.3709C131.022 47.9604 131.285 46.6445 131.811 45.4235C132.338 44.1813 133.106 43.1918 134.117 42.455C135.148 41.6971 136.348 41.3181 137.717 41.3181C139.148 41.3181 140.232 41.7813 140.969 42.7076C141.706 43.6129 142.054 44.7603 142.011 46.1498C142.011 47.3919 141.517 48.3393 140.527 48.992C139.559 49.6446 138.317 49.9709 136.801 49.9709C136.569 49.9709 136.222 49.9499 135.759 49.9078C135.001 49.8236 134.464 49.7078 134.148 49.5604C133.832 49.413 133.674 49.1183 133.674 48.6762C133.674 48.5288 133.717 48.4235 133.801 48.3604C133.885 48.2762 134.053 48.2341 134.306 48.2341C134.58 48.2341 135.064 48.2972 135.759 48.4235C136.432 48.5499 137.032 48.613 137.559 48.613C139.496 48.613 140.464 47.7709 140.464 46.0866C140.464 45.0761 140.275 44.2761 139.896 43.6866C139.538 43.0971 138.896 42.8024 137.969 42.8024C136.959 42.8024 136.053 43.0761 135.253 43.6234C134.453 44.1498 133.832 44.8445 133.39 45.7077C132.969 46.5709 132.759 47.4867 132.759 48.4551C132.759 50.1183 133.222 51.4868 134.148 52.5605C135.074 53.6131 136.506 54.1394 138.443 54.1394C138.675 54.1394 139.064 54.1184 139.611 54.0763C139.843 54.0552 140.127 53.9921 140.464 53.8868C140.801 53.7815 141.043 53.7079 141.19 53.6657C142.096 53.35 142.759 53.1921 143.18 53.1921C143.496 53.1921 143.738 53.2763 143.906 53.4447C143.38 54.2447 142.59 54.8342 141.538 55.2131C140.506 55.571 139.485 55.75 138.475 55.75ZM159.514 55.371C159.177 55.3289 158.862 55.3079 158.567 55.3079C158.293 55.2868 158.104 55.2763 157.998 55.2763C157.914 55.2553 157.872 55.2131 157.872 55.15C157.725 54.4763 157.619 53.8868 157.556 53.3815C157.493 52.8552 157.451 52.371 157.43 51.9289C157.409 51.2973 157.356 50.6762 157.272 50.0657C157.209 49.4341 157.062 48.6025 156.83 47.5709C155.651 47.7604 154.862 47.8551 154.461 47.8551C154.04 47.8551 153.725 47.7814 153.514 47.634C153.304 47.4656 153.198 47.2025 153.198 46.8446C153.198 46.634 153.314 46.5288 153.546 46.5288L154.493 46.434C154.64 46.413 155.314 46.3288 156.514 46.1814C156.472 45.5708 156.388 44.3182 156.262 42.4234C156.198 40.9076 156.104 39.697 155.977 38.7918L152.03 39.1391C151.735 39.3286 151.504 39.4233 151.335 39.4233C151.082 39.2339 150.925 38.9918 150.861 38.697C151.367 38.1496 152.577 37.697 154.493 37.3391C156.43 36.9812 158.525 36.8022 160.777 36.8022C163.599 36.8022 166.02 37.1075 168.041 37.718C170.062 38.3075 171.157 39.2233 171.325 40.4655C170.672 40.4655 170.041 40.3918 169.43 40.2444C168.82 40.097 168.051 39.876 167.125 39.5812C165.946 39.1812 164.862 38.876 163.872 38.6654C162.904 38.4549 161.809 38.3496 160.588 38.3496C159.809 38.3496 158.956 38.4128 158.03 38.5391C158.03 40.4971 158.083 42.9708 158.188 45.9603L159.293 45.8656C162.662 45.5919 164.63 45.455 165.199 45.455C165.472 45.455 165.662 45.4761 165.767 45.5182C165.872 45.5393 165.956 45.5814 166.02 45.6445C166.041 46.2761 165.441 46.7288 164.22 47.0025C162.999 47.2551 161.062 47.434 158.409 47.5393C158.514 48.5709 158.714 49.9183 159.009 51.5815C159.283 53.1394 159.451 54.4026 159.514 55.371ZM174.813 55.5289C174.349 53.2342 173.992 50.5183 173.739 47.3814C173.507 44.2234 173.391 41.1708 173.391 38.2233C173.391 36.7496 173.423 35.4443 173.486 34.3075C173.486 34.0338 173.697 33.8969 174.118 33.8969C174.455 33.8969 174.665 33.9811 174.749 34.1496C174.855 34.318 174.907 34.5811 174.907 34.939C174.907 38.3496 174.97 41.2655 175.097 43.6866C175.223 46.0866 175.392 48.6762 175.602 51.4552C175.728 53.2447 175.813 54.4552 175.855 55.0868C175.876 55.4237 175.697 55.5921 175.318 55.5921C175.192 55.5921 175.023 55.571 174.813 55.5289ZM184.759 55.7816C183.517 55.7816 182.391 55.5079 181.38 54.9605C180.391 54.3921 179.612 53.6131 179.043 52.6236C178.496 51.6131 178.222 50.4657 178.222 49.1814C178.222 47.0761 178.991 45.5077 180.527 44.4761C182.085 43.4445 183.991 42.9287 186.243 42.9287C187.275 42.9287 188.233 43.1813 189.117 43.6866C190.022 44.1919 190.749 44.9182 191.296 45.8656C191.844 46.813 192.117 47.9077 192.117 49.1499C192.117 50.4973 191.77 51.6762 191.075 52.6868C190.38 53.6763 189.465 54.4447 188.328 54.9921C187.212 55.5184 186.022 55.7816 184.759 55.7816ZM184.412 53.9815C186.37 53.9815 187.854 53.5394 188.865 52.6552C189.875 51.771 190.38 50.4762 190.38 48.7709C190.38 47.613 189.98 46.613 189.18 45.7708C188.401 44.9287 187.307 44.5077 185.896 44.5077C184.949 44.5077 183.991 44.6866 183.022 45.0445C182.054 45.4024 181.254 45.9393 180.622 46.6551C179.991 47.3709 179.675 48.2341 179.675 49.2446C179.675 50.0867 179.885 50.8762 180.306 51.6131C180.727 52.3289 181.296 52.9078 182.012 53.35C182.749 53.771 183.549 53.9815 184.412 53.9815ZM208.492 55.5921C207.313 55.5921 206.355 55.371 205.618 54.9289C204.903 54.4658 204.397 53.75 204.103 52.7815C203.471 53.8763 202.745 54.6973 201.924 55.2447C201.103 55.7711 200.218 56.0342 199.271 56.0342C197.629 56.0342 196.366 55.4447 195.481 54.2658C194.597 53.0868 194.155 51.1815 194.155 48.5499C194.155 47.3077 194.281 46.2551 194.534 45.3919C194.808 44.5287 195.26 43.7392 195.892 43.0234C196.187 43.1287 196.366 43.2761 196.429 43.4655C196.513 43.634 196.555 43.8866 196.555 44.2234C196.555 44.5603 196.513 44.8971 196.429 45.234C196.366 45.5708 196.324 45.7708 196.302 45.834C196.155 46.4656 196.039 47.0235 195.955 47.5077C195.892 47.9709 195.86 48.5499 195.86 49.2446C195.86 50.7604 196.145 52.0026 196.713 52.971C197.303 53.9184 198.145 54.3921 199.239 54.3921C200.482 54.3921 201.45 53.9921 202.145 53.1921C202.861 52.371 203.218 51.3499 203.218 50.1288L202.997 46.9077C202.997 46.7814 203.082 46.6551 203.25 46.5288C203.439 46.4024 203.65 46.3393 203.882 46.3393C204.176 46.3393 204.376 46.5393 204.482 46.9393C204.587 47.3393 204.682 47.9709 204.766 48.8341C204.892 49.9078 205.029 50.792 205.176 51.4868C205.345 52.1605 205.661 52.7605 206.124 53.2868C206.587 53.7921 207.261 54.0447 208.145 54.0447C209.219 54.0447 209.998 53.75 210.482 53.1605C210.966 52.5499 211.208 51.7604 211.208 50.792C211.208 49.9288 211.04 49.0235 210.703 48.0762C210.387 47.1077 209.998 46.3182 209.534 45.7077C209.513 45.5182 209.608 45.3603 209.819 45.234C210.05 45.1077 210.282 45.0761 210.513 45.1393C210.892 45.2235 211.24 45.5603 211.555 46.1498C211.892 46.7393 212.155 47.4761 212.345 48.3604C212.555 49.2446 212.661 50.1288 212.661 51.0131C212.661 52.3394 212.324 53.4342 211.65 54.2973C210.998 55.1605 209.945 55.5921 208.492 55.5921ZM222.49 55.75C221.142 55.75 219.9 55.4868 218.763 54.9605C217.627 54.4342 216.721 53.6868 216.048 52.7184C215.374 51.7499 215.037 50.6341 215.037 49.3709C215.037 47.9604 215.3 46.6445 215.827 45.4235C216.353 44.1813 217.121 43.1918 218.132 42.455C219.163 41.6971 220.364 41.3181 221.732 41.3181C223.164 41.3181 224.248 41.7813 224.985 42.7076C225.722 43.6129 226.069 44.7603 226.027 46.1498C226.027 47.3919 225.532 48.3393 224.543 48.992C223.574 49.6446 222.332 49.9709 220.816 49.9709C220.585 49.9709 220.237 49.9499 219.774 49.9078C219.016 49.8236 218.479 49.7078 218.163 49.5604C217.848 49.413 217.69 49.1183 217.69 48.6762C217.69 48.5288 217.732 48.4235 217.816 48.3604C217.9 48.2762 218.069 48.2341 218.321 48.2341C218.595 48.2341 219.079 48.2972 219.774 48.4235C220.448 48.5499 221.048 48.613 221.574 48.613C223.511 48.613 224.479 47.7709 224.479 46.0866C224.479 45.0761 224.29 44.2761 223.911 43.6866C223.553 43.0971 222.911 42.8024 221.985 42.8024C220.974 42.8024 220.069 43.0761 219.269 43.6234C218.469 44.1498 217.848 44.8445 217.406 45.7077C216.984 46.5709 216.774 47.4867 216.774 48.4551C216.774 50.1183 217.237 51.4868 218.163 52.5605C219.09 53.6131 220.521 54.1394 222.458 54.1394C222.69 54.1394 223.079 54.1184 223.627 54.0763C223.858 54.0552 224.143 53.9921 224.479 53.8868C224.816 53.7815 225.058 53.7079 225.206 53.6657C226.111 53.35 226.774 53.1921 227.195 53.1921C227.511 53.1921 227.753 53.2763 227.922 53.4447C227.395 54.2447 226.606 54.8342 225.553 55.2131C224.521 55.571 223.5 55.75 222.49 55.75ZM231.814 55.75C230.95 54.0658 230.266 52.0868 229.761 49.813C229.277 47.5393 229.035 45.5708 229.035 43.9076C229.035 43.255 229.182 42.8339 229.477 42.6445C229.645 42.5392 229.771 42.4866 229.856 42.4866C230.003 42.4866 230.108 42.6024 230.171 42.8339C230.256 43.0655 230.34 43.4866 230.424 44.0971L230.582 45.234C230.813 44.0971 231.256 43.2024 231.908 42.5497C232.582 41.876 233.403 41.5392 234.371 41.5392C235.445 41.5392 236.245 41.7497 236.772 42.1708C237.298 42.5708 237.561 43.2445 237.561 44.1919C236.508 43.6866 235.55 43.434 234.687 43.434C233.866 43.434 233.161 43.655 232.571 44.0971C231.982 44.5392 231.571 45.1919 231.34 46.0551C231.15 46.6445 231.056 47.2025 231.056 47.7288C231.056 48.2972 231.129 48.8341 231.277 49.3393C231.445 49.8236 231.698 50.4236 232.035 51.1394C232.35 51.8762 232.592 52.5078 232.761 53.0342C232.95 53.5605 233.056 54.1289 233.077 54.7395C233.077 55.0974 232.95 55.3605 232.698 55.5289C232.445 55.6763 232.15 55.75 231.814 55.75Z" fill="black"/>
<path d="M33.2575 101.44H26.992V96.3781H36.7913L41.8725 101.44V106.598L39.3319 109.138L41.8725 111.679V116.665L36.7913 121.727H26.992V116.665H33.2575V111.259H26.992V106.846H33.2575V101.44ZM17.2117 96.3781H25.6549V121.727H17.2117V96.3781ZM57.5698 121.727H50.0818L45.3445 116.989V93.7039H53.7876V116.665H57.5698V121.727ZM72.9233 121.727V106.502H60.9081V103.981L63.4486 101.44H76.1133L81.1753 106.502V121.727H72.9233ZM71.5861 109.921V113.436H67.2309V116.989H71.5861V119.224L69.0646 121.727H62.6082L59.208 118.384V113.303L62.6082 109.921H71.5861ZM93.0713 121.727H89.6903L84.6282 116.665V106.502L89.6903 101.44H93.0713V121.727ZM94.4085 106.502V101.44H101.534L106.596 106.502V109.539H98.1525V106.502H94.4085ZM94.4085 121.727V116.989H98.1525V114.449H106.596V116.665L101.534 121.727H94.4085ZM118.339 121.727H109.896V93.7039H118.339V121.727ZM119.657 118.861V107.285L123.554 101.478L132.283 101.459L119.657 118.861ZM132.723 121.727H123.554L122.159 117.639L127.145 110.915L132.723 121.727ZM167.307 116.665L162.245 121.727H156.591V116.989H158.692V106.502H156.591V101.44H162.245L167.307 106.502V116.665ZM153.057 116.989H155.254V121.727H149.581L144.519 116.665V106.502L149.581 101.44H155.254V106.502H153.057V116.989ZM170.932 128.489V101.44H179.375V128.489H170.932ZM184.437 106.502H180.712V103.943L183.196 101.44H187.818L192.899 106.502V116.665L187.818 121.727H180.712V116.989H184.437V106.502ZM200.937 101.44H204.318V108.603H213.945L218.339 113.035V116.989L213.621 121.727H209.896V114.067H200.765L196.371 109.845V105.986L200.937 101.44ZM204.815 118.002H208.559V121.727L199.867 121.707L196.352 117.543V115.92H204.815V118.002ZM209.896 105.165H205.655V101.44H214.633L217.651 104.458V106.751H209.896V105.165ZM254.012 116.665L248.95 121.727H243.296V116.989H245.397V106.502H243.296V101.44H248.95L254.012 106.502V116.665ZM239.762 116.989H241.959V121.727H236.286L231.223 116.665V106.502L236.286 101.44H241.959V106.502H239.762V116.989ZM257.637 121.727V101.44H266.157V121.727H257.637ZM271.161 106.502H267.532V104.286L270.359 101.44H275.058L279.624 106.006V121.727H271.161V106.502ZM291.615 121.727H288.234L283.172 116.665V106.502L288.234 101.44H291.615V121.727ZM292.952 113.589V110.055H297.403V106.502H292.952V101.44H300.115L305.177 106.502V113.589H292.952ZM292.952 121.727V116.989H304.299V119.186L301.777 121.727H292.952Z" fill="black"/>
<path d="M27.5291 161.703C27.4251 161.743 27.3251 161.719 27.2291 161.631C27.1411 161.543 27.0931 161.419 27.0851 161.259C27.0531 161.027 27.0171 160.743 26.9771 160.407C26.9451 160.071 26.9211 159.823 26.9051 159.663C26.8891 159.503 26.8531 159.195 26.7971 158.739C26.7491 158.275 26.6971 157.875 26.6411 157.539C26.6251 157.427 26.5731 157.227 26.4851 156.939C26.2531 156.115 26.1371 155.519 26.1371 155.151C26.1931 155.071 26.2491 155.031 26.3051 155.031C26.5131 155.031 26.7291 155.447 26.9531 156.279C27.1771 157.111 27.3651 158.051 27.5171 159.099C27.6771 160.139 27.7571 160.851 27.7571 161.235C27.7571 161.251 27.7571 161.303 27.7571 161.391C27.7571 161.471 27.7371 161.539 27.6971 161.595C27.6651 161.651 27.6091 161.687 27.5291 161.703ZM29.9813 161.751C29.8693 161.783 29.8053 161.799 29.7893 161.799C29.7253 161.799 29.6573 161.767 29.5853 161.703C29.3213 161.311 29.1293 160.627 29.0093 159.651C28.8973 158.675 28.8413 157.835 28.8413 157.131C28.8413 157.019 28.9213 156.963 29.0813 156.963C29.3213 156.963 29.4413 157.095 29.4413 157.359C29.4413 157.431 29.4373 157.491 29.4293 157.539C29.5013 157.371 29.6373 157.199 29.8373 157.023C30.0373 156.847 30.2693 156.699 30.5333 156.579C30.7973 156.459 31.0653 156.399 31.3373 156.399C32.1933 156.399 32.8173 156.779 33.2093 157.539C33.6013 158.291 33.7973 159.227 33.7973 160.347C33.7973 160.731 33.7573 161.039 33.6773 161.271C33.5973 161.495 33.4893 161.607 33.3533 161.607C33.2093 161.607 33.1373 161.563 33.1373 161.475C33.1933 161.051 33.2213 160.635 33.2213 160.227C33.2213 159.195 33.0413 158.415 32.6813 157.887C32.3213 157.351 31.8453 157.083 31.2533 157.083C30.9653 157.083 30.6853 157.155 30.4133 157.299C30.1493 157.443 29.9333 157.643 29.7653 157.899C29.6053 158.155 29.5253 158.447 29.5253 158.775C29.5253 159.143 29.5453 159.463 29.5853 159.735C29.6253 160.007 29.6893 160.335 29.7773 160.719C29.8733 161.095 29.9413 161.439 29.9813 161.751ZM36.8113 161.691C36.4353 161.691 36.1073 161.563 35.8273 161.307C35.5553 161.051 35.3473 160.719 35.2033 160.311C35.0673 159.903 34.9993 159.479 34.9993 159.039C34.9993 158.271 35.1593 157.623 35.4793 157.095C35.8073 156.567 36.3033 156.303 36.9673 156.303C37.3673 156.303 37.7153 156.375 38.0113 156.519C38.3153 156.655 38.7113 156.887 39.1993 157.215L39.5113 157.431C39.4713 157.167 39.4113 156.863 39.3313 156.519C39.2513 156.175 39.1993 155.939 39.1753 155.811C39.0393 155.187 38.9393 154.723 38.8753 154.419C38.8193 154.107 38.7913 153.831 38.7913 153.591C38.7913 153.167 38.9113 152.955 39.1513 152.955C39.2393 153.147 39.3433 153.559 39.4633 154.191C39.5833 154.815 39.7353 155.671 39.9193 156.759C40.1113 157.911 40.2793 158.851 40.4233 159.579C40.5673 160.307 40.6873 160.763 40.7833 160.947C40.7833 161.131 40.6473 161.223 40.3753 161.223C40.1673 161.223 40.0233 161.103 39.9433 160.863C39.8713 160.623 39.8273 160.203 39.8113 159.603H39.7153C39.3793 160.211 38.9433 160.711 38.4073 161.103C37.8713 161.495 37.3393 161.691 36.8113 161.691ZM36.9673 161.103C37.2953 161.103 37.6473 160.967 38.0233 160.695C38.4073 160.415 38.7313 160.079 38.9953 159.687C39.2593 159.287 39.3913 158.927 39.3913 158.607V158.247C38.5673 157.383 37.8073 156.951 37.1113 156.951C36.6233 156.951 36.2473 157.131 35.9833 157.491C35.7193 157.843 35.5873 158.307 35.5873 158.883L35.5993 159.135C35.6473 159.743 35.7833 160.223 36.0073 160.575C36.2313 160.927 36.5513 161.103 36.9673 161.103ZM42.3016 161.715C42.1176 161.715 41.9696 161.447 41.8576 160.911C41.7456 160.367 41.6736 159.899 41.6416 159.507C41.6096 159.115 41.5656 158.495 41.5096 157.647C41.5016 157.511 41.4976 157.335 41.4976 157.119C41.4976 156.847 41.5176 156.659 41.5576 156.555C41.6056 156.451 41.6816 156.399 41.7856 156.399C41.8736 156.399 41.9416 156.419 41.9896 156.459C42.0456 156.491 42.0936 156.547 42.1336 156.627L42.1216 157.107C42.1216 157.619 42.1456 158.103 42.1936 158.559C42.2496 159.015 42.3336 159.627 42.4456 160.395C42.5096 160.731 42.5536 161.007 42.5776 161.223C42.5936 161.335 42.5736 161.447 42.5176 161.559C42.4616 161.663 42.3896 161.715 42.3016 161.715ZM42.0016 155.115C41.8256 155.115 41.6936 155.047 41.6056 154.911C41.5256 154.775 41.4856 154.607 41.4856 154.407C41.4856 154.319 41.4896 154.255 41.4976 154.215C41.4896 154.087 41.5616 154.023 41.7136 154.023C41.8256 154.023 41.9376 154.051 42.0496 154.107C42.1696 154.155 42.2056 154.191 42.1576 154.215C42.2376 154.423 42.2776 154.587 42.2776 154.707C42.2776 154.811 42.2536 154.895 42.2056 154.959C42.1576 155.015 42.0896 155.067 42.0016 155.115ZM46.4858 161.703C45.9738 161.703 45.5018 161.603 45.0698 161.403C44.6378 161.203 44.2938 160.919 44.0378 160.551C43.7818 160.183 43.6538 159.759 43.6538 159.279C43.6538 158.743 43.7538 158.243 43.9538 157.779C44.1538 157.307 44.4458 156.931 44.8298 156.651C45.2218 156.363 45.6778 156.219 46.1978 156.219C46.7418 156.219 47.1538 156.395 47.4338 156.747C47.7138 157.091 47.8458 157.527 47.8298 158.055C47.8298 158.527 47.6418 158.887 47.2658 159.135C46.8978 159.383 46.4258 159.507 45.8498 159.507C45.7618 159.507 45.6298 159.499 45.4538 159.483C45.1658 159.451 44.9618 159.407 44.8418 159.351C44.7218 159.295 44.6618 159.183 44.6618 159.015C44.6618 158.959 44.6778 158.919 44.7098 158.895C44.7418 158.863 44.8058 158.847 44.9018 158.847C45.0058 158.847 45.1898 158.871 45.4538 158.919C45.7098 158.967 45.9378 158.991 46.1378 158.991C46.8738 158.991 47.2418 158.671 47.2418 158.031C47.2418 157.647 47.1698 157.343 47.0258 157.119C46.8898 156.895 46.6458 156.783 46.2938 156.783C45.9098 156.783 45.5658 156.887 45.2618 157.095C44.9578 157.295 44.7218 157.559 44.5538 157.887C44.3938 158.215 44.3138 158.563 44.3138 158.931C44.3138 159.563 44.4898 160.083 44.8418 160.491C45.1938 160.891 45.7378 161.091 46.4738 161.091C46.5618 161.091 46.7098 161.083 46.9178 161.067C47.0058 161.059 47.1138 161.035 47.2418 160.995C47.3698 160.955 47.4618 160.927 47.5178 160.911C47.8618 160.791 48.1138 160.731 48.2738 160.731C48.3938 160.731 48.4858 160.763 48.5498 160.827C48.3498 161.131 48.0498 161.355 47.6498 161.499C47.2578 161.635 46.8698 161.703 46.4858 161.703ZM54.6007 161.559C54.4727 161.543 54.3527 161.535 54.2407 161.535C54.1367 161.527 54.0647 161.523 54.0247 161.523C53.9927 161.515 53.9767 161.499 53.9767 161.475C53.9207 161.219 53.8807 160.995 53.8567 160.803C53.8327 160.603 53.8167 160.419 53.8087 160.251C53.8007 160.011 53.7807 159.775 53.7487 159.543C53.7247 159.303 53.6687 158.987 53.5807 158.595C53.1327 158.667 52.8327 158.703 52.6807 158.703C52.5207 158.703 52.4007 158.675 52.3207 158.619C52.2407 158.555 52.2007 158.455 52.2007 158.319C52.2007 158.239 52.2447 158.199 52.3327 158.199L52.6927 158.163C52.7487 158.155 53.0047 158.123 53.4607 158.067C53.4447 157.835 53.4127 157.359 53.3647 156.639C53.3407 156.063 53.3047 155.603 53.2567 155.259L51.7567 155.391C51.6447 155.463 51.5567 155.499 51.4927 155.499C51.3967 155.427 51.3367 155.335 51.3127 155.223C51.5047 155.015 51.9647 154.843 52.6927 154.707C53.4287 154.571 54.2247 154.503 55.0807 154.503C56.1527 154.503 57.0727 154.619 57.8407 154.851C58.6087 155.075 59.0247 155.423 59.0887 155.895C58.8407 155.895 58.6007 155.867 58.3687 155.811C58.1367 155.755 57.8447 155.671 57.4927 155.559C57.0447 155.407 56.6327 155.291 56.2567 155.211C55.8887 155.131 55.4727 155.091 55.0087 155.091C54.7127 155.091 54.3887 155.115 54.0367 155.163C54.0367 155.907 54.0567 156.847 54.0967 157.983L54.5167 157.947C55.7967 157.843 56.5447 157.791 56.7607 157.791C56.8647 157.791 56.9367 157.799 56.9767 157.815C57.0167 157.823 57.0487 157.839 57.0727 157.863C57.0807 158.103 56.8527 158.275 56.3887 158.379C55.9247 158.475 55.1887 158.543 54.1807 158.583C54.2207 158.975 54.2967 159.487 54.4087 160.119C54.5127 160.711 54.5767 161.191 54.6007 161.559ZM60.474 161.619C60.298 160.747 60.162 159.715 60.066 158.523C59.978 157.323 59.934 156.163 59.934 155.043C59.934 154.483 59.946 153.987 59.97 153.555C59.97 153.451 60.05 153.399 60.21 153.399C60.338 153.399 60.418 153.431 60.45 153.495C60.49 153.559 60.51 153.659 60.51 153.795C60.51 155.091 60.534 156.199 60.582 157.119C60.63 158.031 60.694 159.015 60.774 160.071C60.822 160.751 60.854 161.211 60.87 161.451C60.878 161.579 60.81 161.643 60.666 161.643C60.618 161.643 60.554 161.635 60.474 161.619ZM64.3136 161.715C63.8416 161.715 63.4136 161.611 63.0296 161.403C62.6536 161.187 62.3576 160.891 62.1416 160.515C61.9336 160.131 61.8296 159.695 61.8296 159.207C61.8296 158.407 62.1216 157.811 62.7056 157.419C63.2976 157.027 64.0216 156.831 64.8776 156.831C65.2696 156.831 65.6336 156.927 65.9696 157.119C66.3136 157.311 66.5896 157.587 66.7976 157.947C67.0056 158.307 67.1096 158.723 67.1096 159.195C67.1096 159.707 66.9776 160.155 66.7136 160.539C66.4496 160.915 66.1016 161.207 65.6696 161.415C65.2456 161.615 64.7936 161.715 64.3136 161.715ZM64.1816 161.031C64.9256 161.031 65.4896 160.863 65.8736 160.527C66.2576 160.191 66.4496 159.699 66.4496 159.051C66.4496 158.611 66.2976 158.231 65.9936 157.911C65.6976 157.591 65.2816 157.431 64.7456 157.431C64.3856 157.431 64.0216 157.499 63.6536 157.635C63.2856 157.771 62.9816 157.975 62.7416 158.247C62.5016 158.519 62.3816 158.847 62.3816 159.231C62.3816 159.551 62.4616 159.851 62.6216 160.131C62.7816 160.403 62.9976 160.623 63.2696 160.791C63.5496 160.951 63.8536 161.031 64.1816 161.031ZM73.392 161.643C72.944 161.643 72.58 161.559 72.3 161.391C72.028 161.215 71.836 160.943 71.724 160.575C71.484 160.991 71.208 161.303 70.896 161.511C70.584 161.711 70.248 161.811 69.888 161.811C69.264 161.811 68.784 161.587 68.448 161.139C68.112 160.691 67.944 159.967 67.944 158.967C67.944 158.495 67.992 158.095 68.088 157.767C68.192 157.439 68.364 157.139 68.604 156.867C68.716 156.907 68.784 156.963 68.808 157.035C68.84 157.099 68.856 157.195 68.856 157.323C68.856 157.451 68.84 157.579 68.808 157.707C68.784 157.835 68.768 157.911 68.76 157.935C68.704 158.175 68.66 158.387 68.628 158.571C68.604 158.747 68.592 158.967 68.592 159.231C68.592 159.807 68.7 160.279 68.916 160.647C69.14 161.007 69.46 161.187 69.876 161.187C70.348 161.187 70.716 161.035 70.98 160.731C71.252 160.419 71.388 160.031 71.388 159.567L71.304 158.343C71.304 158.295 71.336 158.247 71.4 158.199C71.472 158.151 71.552 158.127 71.64 158.127C71.752 158.127 71.828 158.203 71.868 158.355C71.908 158.507 71.944 158.747 71.976 159.075C72.024 159.483 72.076 159.819 72.132 160.083C72.196 160.339 72.316 160.567 72.492 160.767C72.668 160.959 72.924 161.055 73.26 161.055C73.668 161.055 73.964 160.943 74.148 160.719C74.332 160.487 74.424 160.187 74.424 159.819C74.424 159.491 74.36 159.147 74.232 158.787C74.112 158.419 73.964 158.119 73.788 157.887C73.78 157.815 73.816 157.755 73.896 157.707C73.984 157.659 74.072 157.647 74.16 157.671C74.304 157.703 74.436 157.831 74.556 158.055C74.684 158.279 74.784 158.559 74.856 158.895C74.936 159.231 74.976 159.567 74.976 159.903C74.976 160.407 74.848 160.823 74.592 161.151C74.344 161.479 73.944 161.643 73.392 161.643ZM78.771 161.703C78.259 161.703 77.787 161.603 77.355 161.403C76.923 161.203 76.579 160.919 76.323 160.551C76.067 160.183 75.939 159.759 75.939 159.279C75.939 158.743 76.039 158.243 76.239 157.779C76.439 157.307 76.731 156.931 77.115 156.651C77.507 156.363 77.963 156.219 78.483 156.219C79.027 156.219 79.439 156.395 79.719 156.747C79.999 157.091 80.131 157.527 80.115 158.055C80.115 158.527 79.927 158.887 79.551 159.135C79.183 159.383 78.711 159.507 78.135 159.507C78.047 159.507 77.915 159.499 77.739 159.483C77.451 159.451 77.247 159.407 77.127 159.351C77.007 159.295 76.947 159.183 76.947 159.015C76.947 158.959 76.963 158.919 76.995 158.895C77.027 158.863 77.091 158.847 77.187 158.847C77.291 158.847 77.475 158.871 77.739 158.919C77.995 158.967 78.223 158.991 78.423 158.991C79.159 158.991 79.527 158.671 79.527 158.031C79.527 157.647 79.455 157.343 79.311 157.119C79.175 156.895 78.931 156.783 78.579 156.783C78.195 156.783 77.851 156.887 77.547 157.095C77.243 157.295 77.007 157.559 76.839 157.887C76.679 158.215 76.599 158.563 76.599 158.931C76.599 159.563 76.775 160.083 77.127 160.491C77.479 160.891 78.023 161.091 78.759 161.091C78.847 161.091 78.995 161.083 79.203 161.067C79.291 161.059 79.399 161.035 79.527 160.995C79.655 160.955 79.747 160.927 79.803 160.911C80.147 160.791 80.399 160.731 80.559 160.731C80.679 160.731 80.771 160.763 80.835 160.827C80.635 161.131 80.335 161.355 79.935 161.499C79.543 161.635 79.155 161.703 78.771 161.703ZM82.3739 161.703C82.0459 161.063 81.7859 160.311 81.5939 159.447C81.4099 158.583 81.3179 157.835 81.3179 157.203C81.3179 156.955 81.3739 156.795 81.4859 156.723C81.5499 156.683 81.5979 156.663 81.6299 156.663C81.6859 156.663 81.7259 156.707 81.7499 156.795C81.7819 156.883 81.8139 157.043 81.8459 157.275L81.9059 157.707C81.9939 157.275 82.1619 156.935 82.4099 156.687C82.6659 156.431 82.9779 156.303 83.3459 156.303C83.7539 156.303 84.0579 156.383 84.2579 156.543C84.4579 156.695 84.5579 156.951 84.5579 157.311C84.1579 157.119 83.7939 157.023 83.4659 157.023C83.1539 157.023 82.8859 157.107 82.6619 157.275C82.4379 157.443 82.2819 157.691 82.1939 158.019C82.1219 158.243 82.0859 158.455 82.0859 158.655C82.0859 158.871 82.1139 159.075 82.1699 159.267C82.2339 159.451 82.3299 159.679 82.4579 159.951C82.5779 160.231 82.6699 160.471 82.7339 160.671C82.8059 160.871 82.8459 161.087 82.8539 161.319C82.8539 161.455 82.8059 161.555 82.7099 161.619C82.6139 161.675 82.5019 161.703 82.3739 161.703Z" fill="#7A7575"/>
<path d="M130.084 155.98H128.162V154.428H131.168L132.727 155.98V157.562L131.947 158.342L132.727 159.121V160.65L131.168 162.203H128.162V160.65H130.084V158.992H128.162V157.639H130.084V155.98ZM125.162 154.428H127.752V162.203H125.162V154.428ZM137.782 162.203H135.485L134.032 160.75V153.607H136.621V160.65H137.782V162.203ZM142.731 162.203V157.533H139.046V156.76L139.825 155.98H143.71L145.262 157.533V162.203H142.731ZM142.321 158.582V159.66H140.985V160.75H142.321V161.436L141.547 162.203H139.567L138.524 161.178V159.619L139.567 158.582H142.321ZM149.151 162.203H148.114L146.561 160.65V157.533L148.114 155.98H149.151V162.203ZM149.561 157.533V155.98H151.747L153.3 157.533V158.465H150.71V157.533H149.561ZM149.561 162.203V160.75H150.71V159.971H153.3V160.65L151.747 162.203H149.561ZM157.142 162.203H154.552V153.607H157.142V162.203ZM157.546 161.324V157.773L158.741 155.992L161.419 155.986L157.546 161.324ZM161.554 162.203H158.741L158.314 160.949L159.843 158.887L161.554 162.203ZM172.643 160.65L171.09 162.203H169.355V160.75H170V157.533H169.355V155.98H171.09L172.643 157.533V160.65ZM168.271 160.75H168.945V162.203H167.205L165.652 160.65V157.533L167.205 155.98H168.945V157.533H168.271V160.75ZM173.994 164.277V155.98H176.584V164.277H173.994ZM178.137 157.533H176.994V156.748L177.756 155.98H179.174L180.733 157.533V160.65L179.174 162.203H176.994V160.75H178.137V157.533ZM183.438 155.98H184.475V158.178H187.428L188.776 159.537V160.75L187.329 162.203H186.186V159.854H183.385L182.038 158.559V157.375L183.438 155.98ZM184.627 161.061H185.776V162.203L183.11 162.197L182.032 160.92V160.422H184.627V161.061ZM186.186 157.123H184.885V155.98H187.639L188.565 156.906V157.609H186.186V157.123ZM200.198 160.65L198.646 162.203H196.911V160.75H197.556V157.533H196.911V155.98H198.646L200.198 157.533V160.65ZM195.827 160.75H196.501V162.203H194.761L193.208 160.65V157.533L194.761 155.98H196.501V157.533H195.827V160.75ZM201.55 162.203V155.98H204.164V162.203H201.55ZM205.699 157.533H204.585V156.854L205.453 155.98H206.894L208.294 157.381V162.203H205.699V157.533ZM212.213 162.203H211.176L209.623 160.65V157.533L211.176 155.98H212.213V162.203ZM212.623 159.707V158.623H213.988V157.533H212.623V155.98H214.82L216.373 157.533V159.707H212.623ZM212.623 162.203V160.75H216.103V161.424L215.33 162.203H212.623Z" fill="black"/>
<path d="M262.344 162.523C262.088 162.587 261.748 162.655 261.324 162.727C260.908 162.799 260.424 162.835 259.872 162.835C259.392 162.835 258.988 162.767 258.66 162.631C258.332 162.487 258.068 162.287 257.868 162.031C257.668 161.775 257.524 161.475 257.436 161.131C257.348 160.779 257.304 160.391 257.304 159.967V156.463H258.42V159.727C258.42 160.487 258.54 161.031 258.78 161.359C259.02 161.687 259.424 161.851 259.992 161.851C260.112 161.851 260.236 161.847 260.364 161.839C260.492 161.831 260.612 161.823 260.724 161.815C260.836 161.799 260.936 161.787 261.024 161.779C261.12 161.763 261.188 161.747 261.228 161.731V156.463H262.344V162.523ZM265.443 156.739C265.579 156.651 265.783 156.559 266.055 156.463C266.335 156.367 266.655 156.319 267.015 156.319C267.463 156.319 267.859 156.399 268.203 156.559C268.555 156.719 268.851 156.943 269.091 157.231C269.331 157.519 269.511 157.863 269.631 158.263C269.759 158.663 269.823 159.103 269.823 159.583C269.823 160.087 269.747 160.543 269.595 160.951C269.451 161.351 269.243 161.691 268.971 161.971C268.699 162.251 268.371 162.467 267.987 162.619C267.603 162.771 267.171 162.847 266.691 162.847C266.171 162.847 265.711 162.811 265.311 162.739C264.911 162.667 264.583 162.595 264.327 162.523V153.583L265.443 153.391V156.739ZM265.443 161.731C265.555 161.763 265.711 161.795 265.911 161.827C266.119 161.851 266.375 161.863 266.679 161.863C267.279 161.863 267.759 161.667 268.119 161.275C268.479 160.875 268.659 160.311 268.659 159.583C268.659 159.263 268.627 158.963 268.563 158.683C268.499 158.403 268.395 158.163 268.251 157.963C268.107 157.755 267.919 157.595 267.687 157.483C267.463 157.363 267.191 157.303 266.871 157.303C266.567 157.303 266.287 157.355 266.031 157.459C265.775 157.563 265.579 157.671 265.443 157.783V161.731ZM276.421 162.523C276.165 162.587 275.825 162.655 275.401 162.727C274.985 162.799 274.501 162.835 273.949 162.835C273.469 162.835 273.065 162.767 272.737 162.631C272.409 162.487 272.145 162.287 271.945 162.031C271.745 161.775 271.601 161.475 271.513 161.131C271.425 160.779 271.381 160.391 271.381 159.967V156.463H272.497V159.727C272.497 160.487 272.617 161.031 272.857 161.359C273.097 161.687 273.501 161.851 274.069 161.851C274.189 161.851 274.313 161.847 274.441 161.839C274.569 161.831 274.689 161.823 274.801 161.815C274.913 161.799 275.013 161.787 275.101 161.779C275.197 161.763 275.265 161.747 275.305 161.731V156.463H276.421V162.523ZM278.404 156.643C278.66 156.579 279 156.511 279.424 156.439C279.848 156.367 280.336 156.331 280.888 156.331C281.384 156.331 281.796 156.403 282.124 156.547C282.452 156.683 282.712 156.879 282.904 157.135C283.104 157.383 283.244 157.683 283.324 158.035C283.404 158.387 283.444 158.775 283.444 159.199V162.703H282.328V159.439C282.328 159.055 282.3 158.727 282.244 158.455C282.196 158.183 282.112 157.963 281.992 157.795C281.872 157.627 281.712 157.507 281.512 157.435C281.312 157.355 281.064 157.315 280.768 157.315C280.648 157.315 280.524 157.319 280.396 157.327C280.268 157.335 280.144 157.347 280.024 157.363C279.912 157.371 279.808 157.383 279.712 157.399C279.624 157.415 279.56 157.427 279.52 157.435V162.703H278.404V156.643ZM286.399 156.463H288.763V157.399H286.399V160.279C286.399 160.591 286.423 160.851 286.471 161.059C286.519 161.259 286.591 161.419 286.687 161.539C286.783 161.651 286.903 161.731 287.047 161.779C287.191 161.827 287.359 161.851 287.551 161.851C287.887 161.851 288.155 161.815 288.355 161.743C288.563 161.663 288.707 161.607 288.787 161.575L289.003 162.499C288.891 162.555 288.695 162.623 288.415 162.703C288.135 162.791 287.815 162.835 287.455 162.835C287.031 162.835 286.679 162.783 286.399 162.679C286.127 162.567 285.907 162.403 285.739 162.187C285.571 161.971 285.451 161.707 285.379 161.395C285.315 161.075 285.283 160.707 285.283 160.291V154.723L286.399 154.531V156.463ZM295.211 162.523C294.955 162.587 294.615 162.655 294.191 162.727C293.775 162.799 293.291 162.835 292.739 162.835C292.259 162.835 291.855 162.767 291.527 162.631C291.199 162.487 290.935 162.287 290.735 162.031C290.535 161.775 290.391 161.475 290.303 161.131C290.215 160.779 290.171 160.391 290.171 159.967V156.463H291.287V159.727C291.287 160.487 291.407 161.031 291.647 161.359C291.887 161.687 292.291 161.851 292.859 161.851C292.979 161.851 293.103 161.847 293.231 161.839C293.359 161.831 293.479 161.823 293.591 161.815C293.703 161.799 293.803 161.787 293.891 161.779C293.987 161.763 294.055 161.747 294.095 161.731V156.463H295.211V162.523Z" fill="black"/>
</svg>
